<?xml version="1.0" encoding="iso-8859-1"?>
<!-- Generator: Adobe Illustrator 18.1.1, SVG Export Plug-In . SVG Version: 6.00 Build 0)  -->
<svg version="1.1" id="Layer_1" xmlns="http://www.w3.org/2000/svg" xmlns:xlink="http://www.w3.org/1999/xlink" x="0px" y="0px"
	 viewBox="0 0 129.899 169.022" style="enable-background:new 0 0 129.899 169.022;" xml:space="preserve">
<g>
	<path style="fill:#6A6158;" d="M86.105,136.068c0,1.225,0.759,2.185,1.938,2.185c1.153,0,1.944-0.967,1.944-2.185
		c0-1.202-0.809-2.181-1.944-2.181C86.905,133.887,86.105,134.854,86.105,136.068 M80.699,112.429c0-0.771-0.383-1.022-1.221-1.022
		h-0.404v1.95h0.372C80.294,113.357,80.699,113.091,80.699,112.429 M78.692,123.299l-0.75,2.447h2.017l-0.757-2.447
		c-0.03-0.121-0.116-0.446-0.247-0.998C78.818,122.853,78.722,123.178,78.692,123.299 M65.685,80.83
		c0.082-0.341,0.115-0.67,0.176-1.01c0.139-1.202,0.159-2.447,0.278-3.63c0.037,0,0.037-1.002,0.057-1.002
		c0.062-0.889,0.2-1.48,0.336-2.091c0.138-0.631,0.238-1.245,0.138-2.17c-0.055-0.199-0.098-0.418-0.138-0.634
		c-0.039-0.196-0.076-0.391-0.136-0.575c-0.039-0.866,0.017-1.081,0.06-1.79c-0.198,0.196-0.395,0.353-0.595,0.509
		c-0.176,0.141-0.355,0.259-0.515,0.396c-0.115,0.078-0.231,0.18-0.35,0.278c-0.239,0.195-0.458,0.434-0.694,0.708
		c-0.14,0.18-0.278,0.396-0.43,0.631c0,0.814,0.212,1.402,0.43,2.016c0.2,0.529,0.418,1.085,0.515,1.809
		c0,0.318-0.06,1.363-0.06,1.7c-0.296,1.46-0.255,2.956-0.296,4.46c-0.137,0.509-0.061,1.123,0.021,1.632
		c0.433,0.239,0.553-0.979,0.394-1.554c-0.082-0.497-0.119-1.206,0.12-1.692c0.039-0.106,0.095-0.184,0.154-0.262h0.098
		c0.026,0.043,0.039,0.078,0.063,0.137c-0.063,0-0.063,1.464,0.035,2.068c0,0.082,0.022,0.144,0.041,0.199
		C65.546,80.963,65.64,80.865,65.685,80.83 M64.996,68.296c0.119-0.114,0.235-0.196,0.35-0.29c-0.114,0.094-0.231,0.176-0.352,0.29
		c-0.218,0.184-0.456,0.38-0.692,0.615C64.538,68.676,64.78,68.48,64.996,68.296 M64.302,83.967c0,0.156,0,0.375-0.019,0.649
		l0.019,0.024c0.085,0.094,0.159,0.188,0.236,0.29c0.632,1.64-0.214,3.316-0.214,4.973c0.076,0.16,0.158,0.34,0.237,0.493
		c0.08,0,0.159-0.02,0.233-0.02c0.159-0.254,0.18-0.575,0.202-0.873v-0.012c0.278-0.849,0.078-1.84,0.078-2.725
		c0.076-0.235,0.174-0.474,0.272-0.713c0.1-0.278,0.2-0.532,0.321-0.783c0-0.442,0.116-1.801-0.043-2.149
		c-0.058-0.357-0.157-0.693-0.278-1.03c-0.019-0.059-0.035-0.122-0.072-0.18c-0.104-0.02-0.2,0-0.278,0.058
		c-0.3,0.161-0.435,0.639-0.596,0.932C64.346,83.371,64.324,83.508,64.302,83.967 M63.555,74.518
		c-1.226,1.555-1.522,3.254-1.385,5.224c0.222,1.26,0.752,2.271,1.385,3.058c0.08,0.101,0.158,0.18,0.237,0.274
		c0.039-1.394-0.079-0.016,0-1.418c-0.198-1.954,0.039-3.665,0.16-5.286c0.132-0.454,0.29-0.928,0.35-1.417
		c0.044-0.239,0.044-0.498,0-0.732c-0.019-0.138-0.06-0.294-0.095-0.435C63.952,74.025,63.751,74.275,63.555,74.518 M61.444,77.455
		c0.018,0,0.059,0.333,0.096,0.333c0,0.039,0.039,0.062,0.061,0.082c0.019,0,0.019,0.019,0.019,0.035
		c0.036-0.016,0.081-0.016,0.137-0.016c0-0.336,0.02-0.653,0.02-0.967c-0.059-0.023-0.121-0.023-0.176-0.023
		C61.342,76.946,61.444,77.196,61.444,77.455 M60.417,68.163c0.08-0.137,0.16-0.298,0.217-0.435
		c-0.059,0.137-0.139,0.298-0.22,0.435c-0.254,0.552-0.293,1.261-0.473,1.813c-0.008,0.043-0.024,0.082-0.038,0.118
		c0.016-0.036,0.03-0.075,0.039-0.118C60.121,69.424,60.16,68.715,60.417,68.163 M61.601,65.637c0.569-1.28,1.126-2.564,1.854-3.888
		C62.723,63.073,62.17,64.357,61.601,65.637 M67.088,53.104c0.016-0.013,0.025-0.023,0.04-0.035
		c-0.015,0.012-0.028,0.023-0.043,0.035c-0.177,0.144-0.357,0.266-0.553,0.399C66.728,53.37,66.91,53.248,67.088,53.104
		 M67.578,52.677c0.041-0.036,0.053-0.059,0.078-0.09c-0.025,0.031-0.041,0.054-0.08,0.09c-0.005,0.006-0.013,0.012-0.019,0.018
		C67.563,52.689,67.573,52.683,67.578,52.677 M68.839,65.038l-0.004,0.005c0.001,0,0,0.003,0,0.003L68.839,65.038z M67.576,61.788
		c0.02-0.019,0.02-0.058,0.043-0.078c0.096-0.098,0.159-0.098,0.296-0.117c0,0.415-0.12,0.771-0.339,1.065
		c-0.114,0.176-0.296,0.332-0.488,0.454c-0.117,0.078-0.238,0.137-0.36,0.196c-0.08,0.019-0.137,0.039-0.196,0.058
		c-0.237,0.059-0.471,0.079-0.671,0.02c-0.037-0.02-0.078-0.02-0.113-0.039c-0.163-0.059-0.302-0.157-0.402-0.274
		c-0.213-0.22-0.255-0.513,0-0.729c0.061-0.043,0.121-0.078,0.22-0.121c0.101-0.039,0.201-0.059,0.295-0.059
		c0.256-0.019,0.434,0.078,0.671,0.317c0,0.02,0.016,0.02,0.016,0.036c0.18-0.016,0.36-0.075,0.54-0.173
		C67.302,62.223,67.482,62.027,67.576,61.788 M68.214,52.594c-0.046,0.059-0.102,0.118-0.15,0.177
		c-0.016,0.031-0.075,0.117-0.19,0.219c-0.14,0.145-0.311,0.286-0.5,0.435c-0.172,0.137-0.321,0.235-0.477,0.348l-0.122,0.082
		c-0.115,0.079-0.221,0.153-0.319,0.227c-0.116,0.083-0.231,0.165-0.356,0.255l-0.21,0.133c-0.099,0.059-0.198,0.121-0.285,0.184
		c-0.116,0.067-0.163,0.09-0.208,0.118c-0.074,0.047-0.143,0.086-0.215,0.125c-0.032,0.027-0.137,0.094-0.245,0.153
		c-0.061,0.035-0.116,0.066-0.168,0.105l-0.145,0.079l-0.127,0.07l-0.12,0.067c-0.384,0.211-0.386,0.219-0.397,0.344
		c-0.018,0.122-0.016,0.251,0,0.435c0.002,0.149,0.019,0.262,0.035,0.399l0.013,0.18c0.134,3.176,0.171,4.034-0.062,4.875
		l-0.053,0.141c-0.021,0.075-0.047,0.145-0.082,0.208c-0.64,1.163-1.151,2.314-1.647,3.422l-0.192,0.435
		c-0.101,0.235-0.203,0.481-0.322,0.728c-0.194,0.439-0.414,0.905-0.657,1.382c-0.051,0.126-0.138,0.306-0.229,0.458
		c-0.109,0.243-0.184,0.603-0.248,0.952c-0.053,0.274-0.11,0.54-0.184,0.779c-0.006,0.027-0.024,0.082-0.047,0.137l-0.014,0.055
		l-0.055,0.129c-0.043,0.071-0.076,0.137-0.111,0.2c-0.028,0.07-0.065,0.141-0.106,0.203c-0.445,0.823-0.989,1.414-1.809,1.943
		c-0.073,0.262-0.069,0.469,0.012,0.579c0.06,0.09,0.166,0.11,0.248,0.11c0.118,0,0.249-0.039,0.372-0.114
		c0.231-0.098,0.398-0.191,0.55-0.301c0.104-0.09,0.169-0.137,0.218-0.2c0.231-0.223,0.379-0.403,0.509-0.548l0.137-0.165
		l0.006-0.007l0.06-0.059c0.259-0.208,0.433-0.329,0.685-0.368l0.126-0.016c0.12-0.035,0.213-0.074,0.307-0.114
		c0.572-0.305,1.183-1.178,1.751-2.067c0.033-0.047,0.07-0.102,0.105-0.157l0.073-0.109l0.029-0.039l0.029-0.036
		c0.202-0.207,0.408-0.407,0.59-0.575c0.231-0.227,0.48-0.435,0.709-0.619c0.06-0.066,0.146-0.137,0.233-0.203l0.111-0.091
		l0.174-0.133c0.132-0.109,0.251-0.199,0.38-0.285c0.227-0.173,0.454-0.341,0.673-0.486c0.188-0.121,0.396-0.239,0.584-0.345
		c0.114-0.074,0.261-0.148,0.399-0.211l0.108-0.055c0.098-0.039,0.157-0.07,0.208-0.098l0.142-0.082
		c0.136-0.078,0.259-0.149,0.372-0.231c0.198-0.161,0.384-0.329,0.584-0.536c0-0.004,0.037-0.044,0.072-0.094l0.069-0.078
		c-0.007-0.003-0.002-0.03,0.004-0.067l0.031-0.11l0.02-0.02c0.199-0.618,0.196-1.311-0.008-2.169l-0.014-0.047v-0.051
		c-0.08-0.286-0.158-0.563-0.272-0.908l-0.194-0.544c-0.156-0.459-0.315-0.909-0.446-1.347c-0.037-0.098-0.065-0.219-0.088-0.349
		c-0.466-1.492-0.282-3.661-0.043-5.204c0.051-0.203,0.092-0.352,0.129-0.509C68.03,53.37,68.112,52.998,68.214,52.594
		 M62.82,100.161h-0.405v1.951h0.374c0.85,0,1.259-0.271,1.259-0.929C64.048,100.412,63.664,100.161,62.82,100.161 M72.611,62.893
		c-0.199,0.379-0.099,0.653,0.016,0.99c0.042,0.137,0.083,0.255,0.1,0.411c0.433-0.133,0.728-0.986,0.219-1.202
		c-0.06-0.058-0.096-0.121-0.139-0.199h-0.18H72.611z M71.546,68.496c0.138-0.016,0.272-0.114,0.392-0.235
		c0.256-0.255,0.439-0.631,0.439-0.908c-0.081-0.016-0.125-0.04-0.183-0.079c-0.099,0-0.176,0.024-0.256,0.039
		C71.407,67.435,71.546,68.006,71.546,68.496 M71.779,64.69c-0.119,0.258-0.119,0.258-0.291,0.493c0,0.38,0,0.38,0.058,0.631
		c0.018,0.058,0.093,0.156,0.194,0.125c0.096-0.027,0.139-0.125,0.198-0.243c0.039-0.059,0.1-0.117,0.157-0.18
		c0-0.117-0.157-0.258-0.022-0.298c0.241-0.117,0.38-0.23,0.139-0.411c-0.098-0.074-0.174-0.16-0.274-0.219
		C71.818,64.49,71.721,64.474,71.779,64.69 M71.407,62.301c-0.158,0.235-0.039,0.592,0.02,0.873
		c0.037,0.055,0.094,0.153,0.119-0.023c0.018-0.059,0.093-0.196,0.093-0.235c0.16-0.023,0.197-0.023,0.299-0.117l0.02-0.024
		c0-0.114,0-0.196-0.02-0.254c0-0.079-0.039-0.141-0.12-0.22C71.684,62.125,71.546,62.223,71.407,62.301 M66.331,114.501h2.01
		l-0.755-2.448c-0.034-0.117-0.118-0.45-0.247-1.002c-0.137,0.552-0.227,0.885-0.264,1.002L66.331,114.501z M70.569,134.545
		l-0.747,2.447h2.016l-0.759-2.447c-0.03-0.118-0.114-0.447-0.247-0.999C70.695,134.098,70.601,134.427,70.569,134.545
		 M59.784,126.862h0.343c1.548,0,2.284-0.595,2.284-2.048c0-1.476-0.759-2.059-2.284-2.059h-0.343V126.862z M50.441,136.068
		c0,1.225,0.76,2.185,1.94,2.185c1.154,0,1.943-0.967,1.943-2.185c0-1.202-0.809-2.181-1.943-2.181
		C51.242,133.887,50.441,134.854,50.441,136.068 M49.398,113.577c0-1.206-0.809-2.178-1.942-2.178c-1.14,0-1.943,0.964-1.943,2.178
		c0,1.225,0.76,2.177,1.943,2.177C48.611,115.754,49.398,114.794,49.398,113.577 M39.503,113.193c0.859,0,1.308-0.169,1.308-0.885
		c0-0.713-0.462-0.862-1.288-0.862h-0.406v1.747H39.503z M31.131,136.992h2.013l-0.754-2.447c-0.033-0.118-0.115-0.447-0.252-0.999
		c-0.134,0.552-0.231,0.881-0.257,0.999L31.131,136.992z M39.495,103.251h2.017l-0.762-2.443c-0.033-0.118-0.114-0.451-0.247-1.003
		c-0.133,0.552-0.23,0.885-0.26,1.003L39.495,103.251z M57.319,113.565c0-1.473-0.753-2.056-2.281-2.056h-0.347v4.107h0.347
		C56.583,115.616,57.319,115.021,57.319,113.565 M70.773,51.647c0,0.02,0.02,0.02,0.02,0.043c-0.02-0.239-0.04-0.517-0.04-0.85
		c-0.019,0.141-0.039,0.255-0.078,0.353c-0.019,0.082-0.057,0.141-0.096,0.176c0.039,0.043,0.057,0.102,0.096,0.164
		C70.714,51.565,70.734,51.608,70.773,51.647 M67.835,46.525h-0.257c0,0.49,0.08,0.431,0.532,0.685
		c0.079,0.079,0.161,0.157,0.257,0.235c0.041,0.04,0.096,0.098,0.157,0.137c0.043,0,0.1-0.019,0.162-0.039
		c0-0.113,0-0.254,0.02-0.372c-0.12-0.082-0.243-0.141-0.339-0.215C68.173,46.815,67.989,46.697,67.835,46.525 M64.324,47.226
		c0.158,1.977,0,4.01,0,5.983c0.041,0.075,0.063,0.133,0.096,0.216c0.591-0.157,0.533-2.033,0.554-2.487
		c0.022-0.019,0.022-0.035,0.022-0.059c0.078-0.215,0.136-0.415,0.136-0.532c0.02-0.987,0.195-1.719-0.136-2.483
		c-0.081-0.199-0.216-0.419-0.378-0.638C64.502,47.152,64.4,47.152,64.324,47.226 M63.278,49.063c0,0.889,0.022,1.777,0.022,2.643
		c0.137-0.016,0.198-0.059,0.255-0.141c0.054-0.094,0.08-0.231,0.135-0.411c0-0.529,0.023-1.066,0.043-1.598
		c0.059-0.313,0.098-0.63,0.098-0.952c-0.118-0.094-0.222-0.113-0.276-0.094C63.377,48.55,63.377,48.867,63.278,49.063
		 M61.286,55.085c-0.079,0-0.102,0-0.159,0.039c0,0.255-0.018,0.411,0.159,0.603h0.019c0.037-0.012,0.098-0.012,0.139-0.012v-0.63
		H61.286z M61.049,52.99c-0.178,0-0.261,0.016-0.415,0.078v0.102c0.041,0.333,0.295,0.49,0.589,0.666c0.024,0,0.039-0.02,0.063-0.02
		h0.056c0-0.098-0.019-0.196-0.056-0.29C61.223,53.323,61.127,53.17,61.049,52.99 M60.516,49.145c0.037-0.02,0.037-0.02,0.118-0.345
		c0.041-0.09,0.078-0.231,0.121-0.411c0.094-0.235,0.254-0.493,0.531-1.085c0.019-0.031,0.037-0.078,0.056-0.133
		c0.078-0.082,0.161-0.156,0.259-0.235c0.317-0.285,0.728-0.556,0.728-0.849c-0.174,0-0.35,0.016-0.533,0.016
		c-0.06,0.058-0.14,0.101-0.195,0.16c-0.098,0.082-0.198,0.157-0.315,0.239c-0.063,0.039-0.118,0.055-0.177,0.078
		c-0.06,0.196-0.297,0.415-0.475,0.572c-0.02,0.019-0.04,0.035-0.059,0.058C60.315,47.802,60.003,48.628,60.516,49.145
		 M59.531,53.15c-0.119,0.29-0.084,0.533,0.116,0.729c0.057,0.059,0.137,0.098,0.235,0.161v0.172h0.064
		c0.114,0.019,0.253,0.043,0.369,0.078c0.042-0.02,0.082-0.035,0.121-0.035c0.039-0.317-0.237-0.815-0.49-1.026
		c-0.025-0.02-0.043-0.043-0.064-0.059v-0.082c-0.077,0-0.155,0.016-0.235,0.043C59.607,53.131,59.568,53.131,59.531,53.15
		 M59.647,50.958c-0.159-0.02-0.159,0-0.235,0.043c0,0.293,0.119,0.411,0.235,0.607c0.041,0.059,0.08,0.141,0.119,0.219
		c0.039,0,0.081-0.023,0.116-0.023c-0.014-0.271,0-0.631-0.135-0.846H59.647z M60.968,44.704c-0.121,0.118-0.18,0.138-0.334,0.157
		h-0.063c-0.076-0.063-0.174-0.102-0.256-0.133c0-0.258,0.139-0.419,0.319-0.419c0.121-0.023,0.213,0.016,0.334,0.098V44.704z
		 M63.004,41.529c-0.834,0.489-0.794,1.065-0.794,1.993h-0.133c-0.18-0.478-0.18-0.81-0.476-1.186
		c-0.022-0.02-0.022-0.036-0.039-0.063c-0.1,0-0.181,0-0.276,0.027c-0.079,0-0.159,0.016-0.237,0.059
		c-0.081,0.353-0.237,0.685-0.415,1.022c-0.081,0.157-0.18,0.317-0.257,0.474c-0.256,0.156-0.336,0.219-0.431,0.274
		c-0.043,0.043-0.099,0.082-0.162,0.141c-0.057,0.082-0.096,0.18-0.137,0.258c-0.079,0.216-0.079,0.435,0,0.654
		c0.057,0.169,0.18,0.353,0.299,0.509c0.114,0.157,0.253,0.298,0.369,0.455c0.121-0.02,0.221-0.043,0.319-0.059h0.058
		c0.2-0.216,0.22-0.239,0.594-0.83c0.056-0.055,0.095-0.138,0.158-0.22c0.059-0.015,0.118-0.039,0.157-0.074
		c0.135-0.082,0.276-0.18,0.432-0.235c0.2-0.376,0.318-0.693,0.77-0.36c0.354,0.102,0.574,0.082,0.752-0.059
		c0.117-0.074,0.217-0.2,0.354-0.36V43.6c-0.257-0.415,0-1.022-0.1-1.523c-0.076-0.074-0.215-0.172-0.215-0.294
		c-0.022,0-0.039,0-0.039-0.019h-0.081C63.377,41.51,63.278,41.529,63.004,41.529 M63.555,26.99
		c-0.057,0.016-0.118,0.016-0.177,0.016c-0.321,0.532-0.258,1.304-0.258,1.895c0.096,0.137,0.198,0.274,0.298,0.411
		c0.08,0,0.113-0.015,0.137-0.015c0.017,0,0.039-0.016,0.054-0.043c0.043-0.768,0.104-1.52,0.163-2.264H63.555z M64.302,25.35
		c0.022-0.04,0.063-0.079,0.081-0.118v-0.493c-0.037,0-0.059,0-0.081-0.02c-0.078-0.043-0.136-0.117-0.195-0.18
		c-0.257,0-0.335,0.039-0.552,0.102h-0.024c0,0.29-0.057,0.752,0.024,1.104c0.017,0.133,0.08,0.259,0.158,0.333
		c0.159-0.02,0.212-0.098,0.335-0.098c0-0.102,0-0.196,0.019-0.274c0.04-0.024,0.077-0.024,0.138-0.039
		C64.224,25.51,64.244,25.451,64.302,25.35 M79.38,103.251h2.016l-0.755-2.443c-0.038-0.118-0.118-0.451-0.253-1.003
		c-0.133,0.552-0.227,0.885-0.26,1.003L79.38,103.251z M100.538,139.768h-1.944l-2.804-3.829c-0.075-0.095-0.311-0.525-0.675-1.3
		c0.072,0.579,0.115,1.069,0.115,1.46v3.669h-1.954v-7.428h1.954l2.804,3.818c0.07,0.098,0.313,0.536,0.675,1.312
		c-0.07-0.584-0.115-1.066-0.115-1.465v-3.665h1.944V139.768z M92.928,116.991c-0.642,0.317-1.255,0.47-1.919,0.47
		c-2.193,0-3.771-1.653-3.771-3.896c0-2.24,1.578-3.889,3.771-3.889c0.664,0,1.277,0.149,1.919,0.463v2.212
		c-0.539-0.603-1.057-0.889-1.71-0.889c-1.172,0-1.955,0.889-1.955,2.142c0,1.147,0.771,2.067,1.955,2.067
		c0.653,0,1.171-0.285,1.71-0.889V116.991z M92.17,106.027h-1.942l-2.798-3.833c-0.074-0.094-0.313-0.517-0.679-1.3
		c0.074,0.583,0.117,1.069,0.117,1.468v3.665h-1.951v-7.424h1.951l2.802,3.822c0.074,0.094,0.31,0.528,0.675,1.311
		c-0.076-0.583-0.117-1.072-0.117-1.468v-3.665h1.942V106.027z M84.213,106.027h-2.02l-0.37-1.331h-2.878l-0.382,1.331h-2.018
		l2.564-7.424h2.538L84.213,106.027z M76.278,105.749c-0.644,0.306-1.256,0.462-1.918,0.462c-2.195,0-3.773-1.648-3.773-3.892
		c0-2.247,1.578-3.892,3.773-3.892c0.662,0,1.274,0.156,1.918,0.466v2.212c-0.54-0.603-1.057-0.897-1.712-0.897
		c-1.175,0-1.955,0.897-1.955,2.154c0,1.143,0.774,2.064,1.955,2.064c0.655,0,1.172-0.29,1.712-0.893V105.749z M72.494,33.282
		c0.057-0.019,0.094-0.019,0.133-0.038h0.296c0,0.332-0.057,0.43-0.254,0.693h-0.042c-0.076,0.015-0.154,0.015-0.233,0.031
		C72.233,33.796,72.431,33.478,72.494,33.282 M74.681,33.85c-0.372,0.396-0.965,0.811-1.204,1.265c-0.137,0-0.574,0.654-0.852,1.124
		c-0.113,0.196-0.194,0.376-0.231,0.454c0,0-0.182,0.161-0.456,0.396c-0.335,0.317-0.826,0.791-1.263,1.205
		c-0.078,0.079-0.156,0.173-0.256,0.255c-0.198,0.196-0.354,0.376-0.472,0.509c-0.059,0.079-0.117,0.141-0.143,0.2
		c-0.037,0.552-0.037,0.552-0.057,1.738h-0.434c0-0.039-0.018-0.097-0.018-0.16c0-0.059-0.018-0.141-0.037-0.235
		c-0.078-0.654-0.26-1.696,0-2.087c0.019-0.024,0.019-0.047,0.037-0.059c0.035-0.043,0.096-0.082,0.155-0.102
		c0.082-0.321,0.221-0.473,0.497-0.693c0.137-0.102,0.294-0.215,0.472-0.352c0.08-0.063,0.178-0.141,0.256-0.219
		c0.276-0.216,0.574-0.494,0.952-0.885c0.012-0.02,0.152-0.157,0.311-0.341c0.196-0.215,0.456-0.509,0.687-0.787
		c0.457-0.533,0.872-1.046,0.872-1.065c0.71-0.509,0.571-0.752,0.471-1.539h-0.074c-0.161-0.752-0.257-1.539-0.832-2.087
		c-0.159-0.102-0.296-0.18-0.437-0.219c-0.172-0.083-0.373-0.106-0.63-0.043c-0.016,0.019-0.037,0.062-0.057,0.082
		c-0.311,0.556-0.417,1.069-0.572,1.715c-0.162,0.274-0.335,0.572-0.495,0.865c-0.061,0.02-0.118,0.043-0.196,0.063
		c-0.078,0.035-0.156,0.059-0.256,0.098c-0.214,0.094-0.435,0.215-0.472,0.411V33.4c-0.059,0.016-0.117,0.016-0.161,0.039
		c-0.078,0.591-0.078,0.987-0.491,1.324c0,0.015-0.018,0.015-0.037,0.039c-0.024,0.02-0.061,0.058-0.12,0.078
		c-0.039,0.016-0.099,0.016-0.14,0.039c-0.116,0-0.214,0.02-0.316,0.039c0,0.298-0.139,0.51-0.315,0.651
		c-0.117,0.094-0.274,0.176-0.431,0.254c-0.084,0.161-0.139,0.341-0.219,0.513c-0.039,0.059-0.076,0.121-0.139,0.16
		c-0.139,0.122-0.313,0.192-0.493,0.279c-0.179,0.074-0.357,0.156-0.513,0.313c-0.024,0.082-0.024,0.156-0.04,0.235
		c-0.017,0.082-0.039,0.18-0.039,0.258h-0.256c-0.317-0.411-0.296-0.787-0.296-1.265c0.12-0.117,0.235-0.234,0.354-0.372
		c0-0.235,0.022-0.477,0.04-0.708h-0.098c-0.255-0.791-0.237-1.798,0.08-2.546c-0.022-0.18-0.022-0.379-0.022-0.551h-0.058
		c-0.176-0.635-0.135-1.246-0.135-1.896c0.274-0.787,0.233-1.679,0.255-2.506c0.037-0.082,0.076-0.156,0.117-0.219
		c0.019-0.02,0.041-0.039,0.058-0.055c0.218-0.262,0.138-1.167,0-1.656c-0.039-0.122-0.076-0.223-0.099-0.282
		c-0.196-0.255-0.372-0.435-0.572-0.552c-0.155-0.082-0.315-0.118-0.515-0.118c-0.098-0.015-0.194-0.015-0.311,0
		c0,0.024-0.024,0.036-0.041,0.055c-0.098,0.18-0.157,0.454-0.02,0.615c0,0.019,0.02,0.019,0.02,0.039
		c0.08,0.063,0.097,0.078,0.317,0.18c0.016,0.196,0.016,0.392,0.035,0.607v0.063c-0.213,0.156-0.294,0.278-0.352,0.415
		c-0.057,0.176-0.041,0.372-0.057,0.708c-0.219,0.118-0.376,0.239-0.635,0.318h-0.037c-0.099,0.199-0.121,0.434,0.037,0.532
		c0.022,0,0.063,0.02,0.081,0.02c0.198,0.634,0.155,1.3,0.178,1.969c0.215,0.322,0.353,0.576,0.433,0.889
		c0.058,0.2,0.08,0.415,0.08,0.689c-0.022,0.024-0.063,0.067-0.08,0.083c-0.2,0.18-0.394,0.239-0.456,0.552
		c-0.139-0.02-0.192-0.04-0.236-0.055c-0.037,0-0.058-0.024-0.078-0.043c-0.019-0.494-0.037-0.967-0.058-1.418
		c-0.179-0.258-0.294-0.242-0.611-0.203c-0.118,0.438-0.041,0.775,0,1.167c0,0.117,0.017,0.239,0.017,0.38
		c0,0-0.017,0.015-0.017,0.035c-0.216,0.454-0.118,0.967-0.118,1.476c0.037,0.102,0.077,0.199,0.118,0.262
		c0.08,0.172,0.097,0.255,0.178,0.509c0,0.615,0.021,1.222,0.039,1.837c0.137,0.199,0.215,0.219,0.452,0.152
		c0.041-0.07,0.061-0.152,0.078-0.231c0.159-0.493,0.18-0.928,0-1.421c-0.017-0.059-0.058-0.137-0.097-0.216
		c-0.061-0.395-0.08-0.79-0.08-1.186c0.041-0.039,0.099-0.058,0.14-0.078c0.02,0.062,0.02,0.117,0.037,0.176
		c0.18,0.713,0.357,1.425,0.651,2.091c0,0.161,0,0.81,0.041,1.241c0.041,0.243,0.08,0.419,0.158,0.419
		c0.08,0.196,0.159,0.454,0.194,0.709c0.084,0.576,0.084,1.179,0.102,1.676c-0.041,0-0.08-0.024-0.102-0.024
		c-0.114-0.007-0.231-0.031-0.352-0.051c-0.253-0.043-0.474-0.058-0.692-0.078c-0.254-0.019-0.51-0.019-0.747,0.02
		c-0.296,0.015-0.613,0.078-1.007,0.195c0-0.093,0.036-0.473-0.025-0.833c-0.033-1.457-0.333-5.087-0.427-9.093
		c0-1.401,0.094-2.842,0.094-4.221c0.1-1.397,0.496-1.496,0.654-1.582c0.233-0.074,0.474-0.137,0.711-0.176
		c0.254-0.043,0.512-0.043,0.747-0.023c0.236,0,0.474,0.043,0.692,0.101c0.121,0.04,0.238,0.087,0.352,0.122
		c0.18,0.062,0.339,0.137,0.515,0.219c0.241,0.133,0.456,0.294,0.671,0.466c0.179,0.141,0.374,0.321,0.553,0.501
		c0.137,0.133,0.275,0.294,0.395,0.451c0.039,0.058,0.076,0.117,0.098,0.199c0.063,0.157,0.08,0.353,0,0.729v0.058
		c-0.174,0.827-0.333,1.676-0.493,2.506c-0.079,0.353-0.157,0.713-0.218,1.065c-0.035,1.046-0.08,1.261-0.139,2.248
		c-0.156,0.693-0.196,1.261-0.196,1.978c0.102,0.195,0.196,0.41,0.318,0.626c0.078-0.016,0.156-0.016,0.235-0.016
		c0.078-0.019,0.16-0.019,0.256-0.019c0.043-0.141,0.139-0.302,0.237-0.498c0.219-0.376,0.493-0.845,0.789-1.257
		c0.219-0.34,0.456-0.614,0.631-0.791c0.082-0.101,0.182-0.156,0.236-0.18c0,0,0.024-0.019,0.024-0.039
		c0.019-0.019,0.019-0.039,0.037-0.054c0.137-0.181,0.452-0.517,0.652-0.796c0.037-0.035,0.078-0.097,0.1-0.136
		c0.135-0.251,0.254-0.533,0.372-0.811c0.1-0.172,0.178-0.352,0.256-0.509c0.057-0.098,0.098-0.2,0.159-0.302
		c0.078,0,0.793-0.802,0.945-0.904h0.159h0.493c0.063,0.039,0.137,0.082,0.194,0.117c0.263,0.165,0.496,0.314,0.715,0.533
		c0.315,0.082,0.393,0.713,0.456,1.006c0.374,0.713,0.57,1.641,0.885,2.412V33.85z M65.861,26.195v-0.019
		c-0.155-0.118-0.121-0.216-0.121-0.431c-0.055-0.02-0.094-0.039-0.135-0.063c-0.016-0.035-0.016-0.098-0.016-0.152h0.272h0.2
		c0.115,0.117,0.017,0.489-0.041,0.63C65.982,26.176,65.92,26.176,65.861,26.195 M67.321,38.248
		c-0.019,0.101-0.019,0.207-0.019,0.301h-0.139c-0.035,0.098-0.061,0.196-0.078,0.298c-0.079,0.019-0.157,0.019-0.241,0.039
		c-0.249-0.419-0.37-0.732-0.116-1.163c0.022-0.219,0.059-0.317,0.178-0.478h0.179c0.18,0,0.275,0.02,0.493,0.161
		C67.578,37.739,67.543,37.977,67.321,38.248 M71.29,47.958c0.198-0.274,0.313-0.571,0.489-0.849c0.061,0,0.12,0.023,0.159,0.023
		c0.415,0.078,0.613,0.493,0.687,0.944c0.102,0.576,0.067,1.229,0,1.582c-0.057,0.113-0.098,0.137-0.231,0.156
		c-0.142-0.219-0.28-0.43-0.456-0.653c-0.198-0.251-0.417-0.494-0.669-0.69C71.269,48.295,71.269,48.115,71.29,47.958
		 M66.258,43.459c-0.158,0.102-0.276,0.137-0.397,0.161c-0.094,0.02-0.194,0.02-0.333,0.02c-0.061-0.059-0.121-0.102-0.182-0.142
		c-0.019-0.023-0.035-0.023-0.059-0.039c-0.013-0.078-0.013-0.156-0.013-0.215c0.013-0.035,0.037-0.059,0.072-0.098
		c0.1-0.117,0.294-0.235,0.515-0.298c0.18-0.058,0.358-0.078,0.454,0C66.315,43.064,66.295,43.088,66.258,43.459 M68.389,43.459
		v0.161c0,0-0.022,0-0.022,0.02c-0.315,0.152-0.474,0.309-0.668,0.61h-0.121c-0.035,0.016-0.098,0.016-0.139,0.016
		c-0.079-0.157-0.159-0.255-0.317-0.372c0-0.419,0.178-0.513,0.456-0.513c0.219,0,0.493,0.078,0.789,0.078H68.389z M68.389,42.868
		c0.041,0,0.058-0.02,0.097-0.02c0-0.058,0-0.121,0.018-0.156h0.298c0.08,0.098,0.139,0.156,0.196,0.196
		c0.078,0.039,0.138,0.062,0.258,0.082h0.037c0.037,0,0.082,0.016,0.141,0.016c0.119,0.121,0.237,0.575,0.098,0.712h-0.239h-0.037
		c-0.022,0.02-0.059,0.02-0.1,0.02c-0.039-0.063-0.098-0.098-0.158-0.137C68.682,43.405,68.389,43.522,68.389,42.868 M70.597,46.796
		c0,0.176,0.039,0.336,0.078,0.493c0.078,0.196,0.161,0.395,0.135,0.669c-0.057,0-0.096,0.024-0.135,0.024
		c-0.019,0-0.039,0-0.057,0.016c-0.082-0.079-0.14-0.134-0.199-0.212c-0.135-0.223-0.178-0.458-0.372-0.638
		c0.018-0.372,0.137-0.568,0.194-0.866c0.078,0,0.138-0.043,0.178-0.097c0.078-0.059,0.139-0.141,0.256-0.161
		c0.039,0,0.059,0,0.098,0.02c0.098,0.195,0.02,0.419-0.098,0.591C70.656,46.697,70.618,46.76,70.597,46.796 M61.601,40.624
		c0.476-0.141,0.969-0.238,1.498-0.321h0.456c0.254,0,0.512,0,0.747,0.02c0.236,0.02,0.478,0.043,0.694,0.063
		c0.119,0.019,0.235,0.039,0.35,0.039c0.16,0.039,0.339,0.058,0.515,0.098c0.219,0.039,0.434,0.078,0.671,0.137
		c0.177,0.043,0.355,0.101,0.553,0.137c0.162,0.058,0.336,0.121,0.493,0.176c0.274,0.082,0.532,0.196,0.789,0.317
		c0.219,0.098,0.417,0.2,0.631,0.313c0.078,0.047,0.181,0.102,0.258,0.145c0.019,0.016,0.037,0.016,0.037,0.016
		c0.217,0.141,0.437,0.278,0.656,0.434c0.157,0.118,0.335,0.239,0.47,0.357c0.1,0.078,0.178,0.137,0.256,0.215
		c0.454,0.4,0.871,0.83,1.263,1.324c0.256,0.293,0.474,0.61,0.689,0.928c0.223,0.329,0.435,0.685,0.654,1.065
		c0.67,1.3,1.678,4.894,0.196,7.063c-0.233,0.235-0.554,0.353-0.85,0.392c-0.233,0.039-0.491,0-0.689-0.062
		c0,0-0.016-0.016-0.039-0.016c-0.511-0.333-0.928-0.709-1.224-1.206c-0.039-0.079-0.078-0.153-0.117-0.235
		c-0.039-0.063-0.08-0.114-0.139-0.176c-0.153-0.259-0.313-0.494-0.47-0.713c-0.024-0.039-0.041-0.082-0.061-0.118l0.02-0.097
		h-0.102c-0.035-0.079-0.076-0.137-0.115-0.212c-0.14-0.18-0.28-0.341-0.398-0.497c0-0.024-0.018-0.024-0.037-0.039
		c-0.077-0.118-0.18-0.235-0.258-0.337c-0.253-0.356-0.431-0.709-0.474-1.206c0.203,0.024,0.358,0.125,0.474,0.258
		c0.097,0.137,0.181,0.275,0.258,0.435c0.019,0.039,0.037,0.063,0.037,0.082c0.178,0.329,0.339,0.666,0.656,0.744v0.063
		c0.017,0.156,0.116,0.254,0.157,0.415c0.178,0.376,0.213,0.669,0.273,0.137c0.02-0.098,0.04-0.176,0.04-0.278
		c0.039-0.274,0.059-0.45,0.256-0.532c0.078-0.016,0.161-0.04,0.276-0.04c0.057,0.259,0.141,0.552,0.198,0.827
		c-0.02,1.284,0.1,1.562,0.789,2.196c0.061,0.035,0.119,0.094,0.176,0.133c0.123,0.063,0.359,0.082,0.513,0.063
		c0.042,0,0.083-0.027,0.122-0.027c0.573-0.412,0.769-0.862,0.945-1.555c0.12-0.591,0.182-1.66,0.102-2.267
		c-0.241-1.457-0.497-2.31-1.169-3.493c-0.076-0.157-0.174-0.313-0.274-0.478c-0.116-0.211-0.258-0.43-0.415-0.646
		c-0.352-0.513-0.809-0.967-1.263-1.382c-0.078-0.082-0.156-0.157-0.256-0.239c-0.118-0.117-0.255-0.235-0.394-0.332
		c-0.018-0.02-0.041-0.04-0.076-0.063c-0.219-0.173-0.439-0.333-0.656-0.474c0-0.016-0.018-0.016-0.037-0.016
		c-0.077-0.058-0.18-0.117-0.258-0.176c-0.238-0.137-0.451-0.258-0.631-0.352c-0.356-0.161-0.633-0.278-0.789-0.321
		c-0.139,0-0.257,0.023-0.376,0.023v0.177c0.139,0.078,0.26,0.179,0.376,0.254c0.274,0.176,0.515,0.376,0.789,0.552
		c0.018,0.02,0.063,0.043,0.08,0.082h-0.08c-0.274,0-0.532,0.039-0.789,0.055c-0.157,0.023-0.331,0.043-0.493,0.063
		c-0.1,0.015-0.198,0.015-0.278,0.015c-0.079-0.015-0.159-0.078-0.275-0.172c-0.076-0.059-0.175-0.141-0.295-0.219h-0.376
		c-0.176,0.019-0.355,0.035-0.515,0.058c-0.115,0.02-0.231,0.059-0.35,0.102c-0.216,0.075-0.415,0.196-0.535,0.412
		c-0.02,0.199-0.074,0.332-0.159,0.489c-0.037,0.063-0.078,0.145-0.14,0.223c0,0.231,0.045,0.47,0.14,0.65
		c0.098,0.18,0.279,0.294,0.558,0.294c0.036-0.043,0.093-0.059,0.136-0.098c0.119-0.059,0.235-0.141,0.35-0.176
		c0.08-0.043,0.182-0.059,0.278-0.059c0.061,0.059,0.143,0.137,0.2,0.219c0.019,0,0.019,0.016,0.037,0.016
		c0.139,0.082,0.415,0.278,0.671,0.376c0.196,0.082,0.396,0.137,0.553,0.082c0.078-0.024,0.137-0.082,0.195-0.18
		c0.124,0,0.22,0.039,0.298,0.078c0.411,0.235,0.515,0.967,0.789,1.378c0.119,0.2,0.298,0.341,0.55,0.298v-0.474
		c-0.133-0.352-0.133-0.849,0.081-1.28c0.041-0.098,0.097-0.18,0.181-0.278c0-0.016,0.04-0.035,0.077-0.059
		c0.019-0.019,0.037-0.019,0.037-0.039h0.02c0.158-0.02,0.319-0.043,0.493-0.043c0.039,0.043,0.102,0.082,0.143,0.125
		c0.157,0.133,0.317,0.294,0.47,0.431c0.059,0.059,0.117,0.098,0.178,0.137c-0.039,0.039-0.098,0.059-0.178,0.078
		c-0.135,0.024-0.294,0.024-0.412,0.024c-0.023,0.015-0.041,0.015-0.058,0.039c-0.593,0.388-0.73,0.908-0.317,1.539
		c0.174,0.685,0.174,0.685,0.174,0.787c-0.356,0.552,0.16,0.63,0.102,1.128h-0.237c-0.12-0.141-0.237-0.263-0.378-0.38
		c0-0.016-0.018-0.016-0.037-0.032c-0.077-0.086-0.161-0.141-0.258-0.18c-0.116-0.062-0.214-0.105-0.355-0.121
		c0.043,0.121,0.043,0.121,0.043,0.411h-0.182c-0.041-0.094-0.096-0.172-0.137-0.235c-0.158-0.176-0.337-0.196-0.611-0.215
		c0.159,0.137,0.174,0.215,0.159,0.45c-0.063,0-0.08,0.024-0.12,0.024c-0.019,0.039-0.019,0.058-0.039,0.078
		c-0.057,0-0.119,0-0.178-0.02c-0.237-0.058-0.376-0.254-0.493-0.454c-0.114-0.161-0.218-0.313-0.335-0.439
		c-0.08-0.031-0.155-0.078-0.218-0.117c-0.237-0.114-0.452-0.27-0.671-0.431c-0.113-0.059-0.237-0.137-0.333-0.231
		c-0.061-0.023-0.119-0.047-0.182-0.066c-0.115-0.039-0.231-0.098-0.35-0.137c-0.136-0.04-0.276-0.098-0.415-0.137
		c-0.099,0-0.181,0-0.279-0.024c-0.274,0-0.51-0.015-0.747,0.024c-0.32,0.019-0.633,0.117-0.971,0.34
		c-0.394,0.251-0.727,0.564-0.983,0.975c-0.139,0.204-0.239,0.443-0.315,0.717v0.039c-0.198,0.889-0.198,1.598-0.102,2.228
		c0.039,0.078,0.078,0.141,0.102,0.223c0.095,0.231,0.197,0.466,0.315,0.662c0.156,0.298,0.356,0.552,0.632,0.849
		c0.079-0.015,0.372,0.514,0.472,0.514c-0.041-0.905-0.077-1.418,0.08-1.97c0-1.045-0.08-2.545-0.062-3.591
		c0.099-0.332,0.458-0.528,0.751-0.552c0.024-0.015,0.057-0.015,0.081-0.015c0.237-0.047,0.493-0.047,0.747-0.024
		c0.259,0.039,0.492,0.094,0.694,0.176c0.136,0.059,0.252,0.137,0.35,0.216c0.041,0.043,0.1,0.101,0.121,0.16
		c0.281-0.059,0.281,0.552,0.2,1.124c0,0.67,0.059,1.382-0.121,2.048c-0.04,0.556-0.079,1.128-0.12,1.703
		c-0.017,0.114-0.058,0.313-0.08,0.552c-0.035,0.235-0.035,0.509,0,0.725c0,0.039,0,0.058,0.022,0.086v0.015h-0.022h-0.019v0.02
		h-0.016v0.02h-0.024h-0.013v0.015h-0.026l-0.017,0.024h-0.02c0,0.016,0,0.016-0.018,0.016h-0.019v0.023h-0.022
		c-0.061,0.039-0.098,0.078-0.156,0.102c-0.255,0.152-0.494,0.309-0.694,0.435c-0.037,0.019-0.095,0.054-0.158,0.07l-0.019,0.023
		c-0.216,0.122-0.275,0.157-0.353,0.196c-0.082,0.039-0.163,0.102-0.217,0.141c-0.339,0.196-0.551,0.356-0.69,0.654
		c-0.142,0.333-0.121,0.869-0.043,1.633c0.159,1.48,0.159,1.523-0.612,1.206c-0.196-0.102-0.39-0.215-0.609-0.357
		c-0.098-0.062-0.198-0.137-0.315-0.199c-0.198-0.157-0.415-0.313-0.652-0.494c-0.22-0.195-0.455-0.391-0.688-0.607
		c-0.099-0.078-0.199-0.18-0.299-0.274c-0.691-0.673-1.361-1.425-1.875-2.196c-0.868-1.437-1.4-3.332-1.459-5.126v-0.728
		c0.017-0.317,0.039-0.634,0.08-0.932c0.354-2.463,1.398-4.378,3.254-5.56c0.1-0.059,0.2-0.118,0.299-0.18
		c0.214-0.118,0.451-0.235,0.688-0.337c0.215-0.098,0.434-0.176,0.652-0.255C61.381,40.679,61.503,40.66,61.601,40.624
		 M54.631,98.603h4.548v1.629h-2.576v1.292h2.429v1.582h-2.429v1.257h2.576v1.664h-4.548V98.603z M54.474,109.849
		c1.383,0,2.493,0.023,3.471,0.705c0.934,0.654,1.432,1.683,1.432,3.011c0,1.323-0.498,2.349-1.432,3.015
		c-0.931,0.654-1.953,0.693-3.191,0.693h-0.521h-1.546v-7.424h1.546H54.474z M53.543,106.027h-1.888l-0.441-3.207
		c-0.06-0.454-0.109-0.998-0.152-1.66c-0.102,0.646-0.263,1.096-0.345,1.386l-1.008,3.481h-1.347l-1.01-3.481
		c-0.08-0.29-0.237-0.74-0.339-1.386c-0.043,0.662-0.104,1.206-0.164,1.66l-0.441,3.207h-1.88l1.144-7.424h2.007l1.116,3.834
		c0.074,0.238,0.182,0.559,0.241,1.002c0.052-0.415,0.146-0.748,0.227-1.014l1.135-3.822h2.001L53.543,106.027z M44.325,106.027
		h-2.014l-0.372-1.331h-2.88l-0.386,1.331H36.66l2.565-7.424h2.531L44.325,106.027z M39.683,137.618
		c0-0.591-0.399-0.771-1.245-0.986c-1.339-0.353-1.993-0.893-1.993-2.06c0-1.378,1.006-2.408,2.565-2.408
		c0.83,0,1.558,0.219,2.204,0.662l-0.634,1.456c-0.47-0.395-0.966-0.591-1.424-0.591c-0.497,0-0.82,0.27-0.82,0.626
		c0,0.529,0.509,0.643,1.181,0.819c1.317,0.348,2.046,0.838,2.046,2.208c0,1.551-1.099,2.616-2.845,2.616
		c-1.048,0-1.837-0.325-2.637-1.085l0.918-1.507c0.589,0.677,1.171,1.018,1.764,1.018C39.321,138.386,39.683,138.053,39.683,137.618
		 M35.96,139.768h-2.019l-0.37-1.331h-2.878l-0.386,1.331h-2.009l2.561-7.428h2.538L35.96,139.768z M41.747,114.493
		c-0.509,0.301-1.081,0.329-1.778,0.329h-0.486h-0.366v2.451H37.22v-7.424h2.116h0.147c0.934,0,1.672,0.007,2.252,0.387
		c0.656,0.415,1.041,1.179,1.041,2.135C42.776,113.361,42.414,114.093,41.747,114.493 M50.275,116.329
		c-0.762,0.736-1.786,1.144-2.819,1.144c-0.905,0-1.804-0.325-2.524-0.893c-0.934-0.748-1.441-1.809-1.441-3.003
		c0-1.058,0.401-2.013,1.161-2.753c0.746-0.725,1.764-1.143,2.804-1.143c1.033,0,2.067,0.418,2.819,1.143
		c0.753,0.74,1.147,1.703,1.147,2.753C51.422,114.638,51.021,115.605,50.275,116.329 M41.794,128.522l1.143-7.428h2.003l1.124,3.834
		c0.068,0.243,0.172,0.56,0.234,1.006c0.058-0.411,0.149-0.748,0.231-1.022l1.132-3.818h2.003l1.143,7.428h-1.891l-0.431-3.206
		c-0.068-0.451-0.117-1.003-0.158-1.665c-0.108,0.654-0.259,1.1-0.343,1.394l-1.006,3.477h-1.357l-1-3.477
		c-0.084-0.294-0.241-0.74-0.347-1.394c-0.039,0.662-0.104,1.214-0.167,1.665l-0.434,3.206H41.794z M42.111,138.875l0.914-1.507
		c0.593,0.677,1.177,1.018,1.766,1.018c0.56,0,0.928-0.333,0.928-0.768c0-0.591-0.407-0.771-1.247-0.986
		c-1.339-0.353-1.993-0.893-1.993-2.06c0-1.378,1.006-2.408,2.565-2.408c0.828,0,1.556,0.219,2.202,0.662l-0.636,1.456
		c-0.47-0.395-0.965-0.591-1.419-0.591c-0.5,0-0.829,0.27-0.829,0.626c0,0.529,0.513,0.643,1.189,0.819
		c1.321,0.348,2.044,0.838,2.044,2.208c0,1.551-1.099,2.616-2.845,2.616C43.701,139.96,42.914,139.635,42.111,138.875
		 M48.417,136.068c0-1.053,0.403-2.017,1.161-2.749c0.746-0.72,1.768-1.143,2.803-1.143c1.038,0,2.068,0.423,2.816,1.143
		c0.758,0.732,1.151,1.703,1.151,2.749c0,1.065-0.401,2.028-1.151,2.752c-0.756,0.737-1.778,1.14-2.816,1.14
		c-0.902,0-1.805-0.313-2.521-0.889C48.926,138.319,48.417,137.266,48.417,136.068 M53.867,125.605v1.257h2.579v1.66h-4.55v-7.428
		h4.55v1.633h-2.579v1.288h2.43v1.59H53.867z M57.307,136.06c0-2.244,1.574-3.896,3.765-3.896c0.664,0,1.279,0.16,1.921,0.466v2.216
		c-0.543-0.611-1.057-0.893-1.711-0.893c-1.175,0-1.954,0.893-1.954,2.146c0,1.147,0.769,2.072,1.954,2.072
		c0.654,0,1.168-0.294,1.711-0.897v2.216c-0.642,0.305-1.257,0.462-1.921,0.462C58.881,139.952,57.307,138.304,57.307,136.06
		 M63.038,127.825c-0.926,0.654-1.952,0.697-3.187,0.697h-0.523h-1.545v-7.428h1.545h0.238c1.381,0,2.497,0.024,3.472,0.709
		c0.934,0.654,1.433,1.68,1.433,3.011C64.471,126.134,63.972,127.164,63.038,127.825 M64.187,132.34h2.044v7.428h-2.044V132.34z
		 M66.989,139.768l2.564-7.428h2.534l2.564,7.428h-2.012l-0.372-1.331h-2.878l-0.387,1.331H66.989z M74.338,134.098v-1.758h5.343
		v1.758h-1.666v5.67h-2.022v-5.67H74.338z M70.848,109.849h5.339v1.754h-1.666v5.67H72.5v-5.67h-1.652V109.849z M71.176,124.857
		c0,1.14,0.77,2.064,1.951,2.064c0.655,0,1.176-0.29,1.712-0.889v2.205c-0.642,0.309-1.253,0.469-1.918,0.469
		c-2.193,0-3.773-1.648-3.773-3.892c0-2.244,1.58-3.896,3.773-3.896c0.665,0,1.276,0.161,1.918,0.466v2.216
		c-0.536-0.603-1.057-0.892-1.712-0.892C71.95,122.708,71.176,123.6,71.176,124.857 M67.833,128.522h-2.042v-7.428h2.042V128.522z
		 M71.159,117.273h-2.017l-0.372-1.328h-2.874l-0.387,1.328h-2.011l2.563-7.424h2.535L71.159,117.273z M69.83,57.031
		c0.035,0.023,0.078,0.063,0.119,0.082c0.157,0.102,0.335,0.219,0.47,0.317c0.1,0.059,0.178,0.122,0.256,0.2
		c0.474,0.333,0.889,0.724,1.263,1.14c0.256,0.277,0.474,0.555,0.689,0.869c0.515,0.728,0.928,1.543,1.187,2.388
		c0.651,2.741,0.354,5.185-0.948,7.381c-0.078,0.094-0.156,0.196-0.239,0.294c-0.215,0.274-0.433,0.532-0.689,0.771
		c-0.374,0.392-0.809,0.724-1.263,1.022c-0.078,0.063-0.156,0.118-0.256,0.18c-0.135,0.079-0.313,0.177-0.47,0.255
		c-0.219,0.102-0.439,0.195-0.656,0.298h-0.037c-0.077,0.038-0.18,0.054-0.258,0.093c-0.214,0.063-0.412,0.126-0.631,0.18
		c-0.257,0.04-0.515,0.083-0.789,0.102c-0.096,0.02-0.218,0.02-0.313,0.02c0.095-0.313,0.056-0.611,0.139-0.948
		c0.078-1.108,0.078-2.016-0.102-3.117c0.082-0.062,0.16-0.121,0.276-0.176c0.239-0.121,0.515-0.297,0.789-0.517
		c0.276-0.235,0.515-0.512,0.631-0.865c0.041-0.137,0.06-0.278,0.06-0.415c0.059-0.039,0.121-0.078,0.198-0.141
		c0.019,0,0.019,0,0.037-0.016c0.217-0.156,0.478-0.438,0.656-0.892c0.292-0.69,0.43-1.794,0-3.552
		c-0.024-0.094-0.041-0.196-0.084-0.293c-0.155-0.674-0.376-1.246-0.572-1.794c0-0.039-0.018-0.063-0.037-0.102
		c-0.077-0.254-0.18-0.532-0.258-0.791c-0.238-0.767-0.374-1.574-0.238-2.623c-0.015-0.094,0.079-0.035,0.238,0.078
		c0.078,0.063,0.181,0.141,0.258,0.22c0.019,0.023,0.037,0.023,0.037,0.039C69.489,56.874,69.691,57.031,69.83,57.031
		 M69.27,106.027h-2.044v-7.424h2.044V106.027z M62.74,117.273h-2.048v-7.424h2.048V117.273z M60.516,106.027v-7.424h2.118h0.128
		c1.026,0,1.819,0.012,2.449,0.497c0.541,0.415,0.83,1.046,0.83,1.817c0,1.151-0.581,1.891-1.664,2.123l2.03,2.987h-2.286
		l-1.706-2.905v2.905H60.516z M67.163,52.007c-0.041,0.039-0.059,0.078-0.075,0.094c-0.121,0.117-0.238,0.2-0.418,0.357
		c-0.022-0.514,0.058-1.5-0.138-2.052c-0.039-0.079-0.076-0.157-0.119-0.235c-0.078,0-0.118-0.024-0.176-0.024v-0.094
		c-0.118-0.086-0.137-0.141-0.217-0.282C66,48.491,66,48.491,66.041,47.5h0.254c0.161,0.537-0.041,1.05,0.237,1.484
		c0.034,0.079,0.083,0.141,0.138,0.177c0.137,0.082,0.273,0.16,0.418,0.238C67.122,49.556,67.185,51.827,67.163,52.007
		 M67.973,50.59c-0.058,0.192-0.037,0.348-0.058,0.642c-0.098,0.082-0.216,0.2-0.337,0.301c-0.035,0.032-0.078,0.075-0.139,0.114
		c-0.018-0.83-0.037-2.028-0.055-2.854c0.055-0.063,0.135-0.083,0.194-0.083h0.174C68.11,49.063,67.973,50.249,67.973,50.59
		 M68.075,51.608c0.098-0.059,0.196-0.137,0.292-0.176c0.157-0.079,0.339-0.118,0.536-0.118h0.095h0.258h0.037h0.098l-0.098,0.376
		l-0.037,0.098c-0.1,0.352-0.18,0.709-0.258,1.041c-0.081,0.321-0.159,0.611-0.238,0.928c-0.037,0.239-0.095,0.474-0.136,0.611
		c-0.138,0.928-0.239,1.919-0.239,2.824c0.023,0.771,0.101,1.48,0.28,2.071v0.019c0.08,0.337,0.199,0.713,0.333,1.065
		c0.041,0.118,0.078,0.235,0.119,0.357c0.062,0.141,0.096,0.282,0.139,0.415c0.019,0.039,0.037,0.078,0.037,0.098
		c0.478,1.401,0.852,2.819,0.239,4.244l-0.061,0.102c-0.06,0.074-0.115,0.133-0.178,0.192c0,0.02-0.018,0.02-0.037,0.039
		c-0.077,0.098-0.18,0.176-0.258,0.255c-0.057,0.062-0.134,0.121-0.195,0.184c-0.138,0.117-0.279,0.211-0.436,0.333
		c-0.119,0.054-0.218,0.137-0.337,0.195l-0.041,0.02c-0.154,0.082-0.296,0.137-0.413,0.196c-0.137,0.097-0.296,0.195-0.491,0.336
		c-0.079,0.04-0.142,0.079-0.241,0.137c-0.074,0.756-0.174,2.471,0.141,3.215c0.262,2.31-0.276,4.601-0.37,6.907
		c-0.043,0.239-0.067,0.478-0.083,0.713c-0.237,2.31-0.411,4.221-0.55,6.625c0.139,0.082,0.237,0.161,0.313,0.22
		c0.062,0.058,0.138,0.14,0.237,0.234c0.196,0.2,0.376,0.411,0.553,0.678c0.236,0.372,0.415,0.763,0.491,1.175
		c0.02,0.082,0.02,0.16,0.043,0.242c0.018,0.255,0,0.533-0.043,0.826c-0.076,0.553-0.255,1.128-0.491,1.539
		c-0.157,0.259-0.357,0.435-0.553,0.513c-0.197,0.059-0.393,0.02-0.612-0.16v-0.329c0.536-1.03,0.476-1.938,0.121-2.506
		c-0.059-0.102-0.121-0.141-0.18-0.196c-0.037-0.027-0.061-0.043-0.094-0.078c-0.041,1.139-0.127,2.459-0.1,3.226
		c-0.084,0.302-0.182,0.576-0.321,0.791c-0.098,0.118-0.213,0.239-0.35,0.317c-0.12,0.082-0.255,0.122-0.435,0.157
		c-0.1-0.059-0.174-0.098-0.259-0.157c-0.158-0.117-0.278-0.254-0.393-0.474c-0.037-0.254-0.196,0.102-0.176-3.966
		c0.035-0.353,0.076-0.842,0.076-1.218c-0.076-0.043-0.174-0.102-0.254-0.164c-0.398-0.231-0.733-0.411-0.832-0.47
		c-0.372-0.356-0.744-0.732-1.122-1.143c-0.098-0.122-0.22-0.255-0.315-0.373c-0.218-0.297-0.437-0.614-0.652-0.951
		c-0.04-0.059-0.081-0.118-0.098-0.2c-0.318-0.532-0.495-1.28-0.595-2.11c-0.094-0.967-0.073-2.009,0-2.96
		c0.08-0.905,0.238-1.712,0.391-2.248c0.104-0.333,0.204-0.634,0.302-0.885c0.237-0.595,0.472-1.049,0.652-1.343l0.019-0.02
		c0.018-0.019,0.037-0.231,0.098-0.411c-0.041,0-0.08,0.016-0.117,0.016c-0.063,0.019-0.118,0.019-0.18,0.019
		c-0.018,0.02-0.038,0.02-0.057,0.04c-0.04,0.023-0.12,0.082-0.2,0.16c-0.061,0.055-0.121,0.141-0.194,0.22c0,0,0,0.015-0.021,0.015
		c-0.18,0.216-0.394,0.474-0.693,0.709c-0.073,0.063-0.175,0.141-0.294,0.196c-0.116,0.105-0.261,0.16-0.415,0.242
		c-0.276,0.138-0.57,0.216-0.85,0.192c-0.235-0.015-0.456-0.094-0.628-0.235c-0.176-0.152-0.319-0.348-0.376-0.63
		c-0.059-0.274-0.04-0.634,0.1-1.046l0.154-0.199c0.415-0.255,0.75-0.509,1.067-0.85c0.294-0.333,0.572-0.748,0.813-1.253v-0.027
		c0.056-0.114,0.095-0.275,0.135-0.431c0.041-0.141,0.057-0.282,0.1-0.439c0.037-0.293,0.1-0.587,0.194-0.869
		c0.044-0.09,0.08-0.211,0.119-0.29l0.022-0.023c0.197-0.392,0.372-0.771,0.552-1.167c0.237-0.466,0.454-0.944,0.652-1.417
		c0.037-0.079,0.056-0.141,0.095-0.216c0.081-0.156,0.138-0.337,0.22-0.493c0.454-1.026,0.928-2.032,1.498-3.097
		c0.295-0.787,0.258-1.441,0.097-4.891v-0.047c-0.117-1.175-0.076-1.457,0.359-1.735c0.097-0.078,0.237-0.156,0.411-0.254
		c0.082-0.035,0.178-0.098,0.336-0.196h0.022c0.198-0.117,0.433-0.258,0.672-0.411c0.119-0.063,0.235-0.145,0.35-0.223
		c0.16-0.094,0.339-0.216,0.515-0.31c0.18-0.121,0.358-0.258,0.515-0.376c0.037-0.046,0.098-0.082,0.156-0.121
		c0.196-0.141,0.396-0.297,0.553-0.415c0.162-0.133,0.275-0.258,0.354-0.333v-0.023c0.043-0.055,0.104-0.118,0.137-0.157
		C67.734,51.909,67.893,51.749,68.075,51.608 M80.386,127.195h-2.878l-0.382,1.327h-2.019l2.567-7.428h2.536l2.564,7.428h-2.016
		L80.386,127.195z M80.717,132.34h2.046v7.428h-2.046V132.34z M81.036,114.285l2.027,2.988h-2.288l-1.701-2.906v2.906h-1.903v-7.424
		h2.117h0.125c1.03,0,1.819,0.007,2.453,0.501c0.538,0.411,0.832,1.045,0.832,1.813C82.698,113.318,82.115,114.058,81.036,114.285
		 M83.875,109.849h2.048v7.424h-2.048V109.849z M83.478,121.094H85.5v5.694h2.516v1.734h-4.538V121.094z M84.081,136.068
		c0-1.053,0.403-2.017,1.164-2.749c0.746-0.72,1.762-1.143,2.798-1.143c1.04,0,2.069,0.423,2.817,1.143
		c0.756,0.732,1.151,1.703,1.151,2.749c0,1.065-0.403,2.028-1.151,2.752c-0.757,0.737-1.777,1.14-2.817,1.14
		c-0.903,0-1.805-0.313-2.519-0.889C84.589,138.319,84.081,137.266,84.081,136.068 M129.899,14.895h-4.29H3.335H0l11.604,17.201
		v108.44l0.004,0.532l0.198,1.191l0.409,1.213l0.008,0.012l-0.035,0.02l0.724,1.35l0.235,0.361l0.509,0.865l0.505,0.693l0.691,0.866
		l0.541,0.606l0.004,0.012l0.986,0.877l0.069,0.039l0.06,0.063L17.681,150l2.163,1.28l0.249,0.114l0.069,0.043l0.009-0.008
		l0.962,0.442l1.374,0.388l1.568,0.29l1.181,0.102l20.751-0.196l0.756,0.082l1.804,0.301l1.914,0.282l1.219,0.228l-0.008,0.019
		l0.427,0.121l0.685,0.239l0.748,0.29l0.278,0.145l1.774,1.077l3.144,2.373l0.401,0.387l0.976,1.155l1.384,2.158l0.475,1.151
		l-0.011,0.2l0.092,0.003l0.986,2.389l0.37,0.932l0.124,0.486l-0.096,0.407l0.155-0.172l0.019,0.074l0.425,1.186l0.041,0.384
		l0.096-0.012l0.241,0.682l0.18-0.725l0.057-0.008l-0.016-0.156l0.296-1.194l0.051-0.145l0.105-0.043l-0.047-0.118l0.656-1.836
		l2.313-4.683l2.298-3.074l0.857-0.795l1.684-1.218l1.803-0.853l2.567-0.858l1.584-0.376l3.056-0.192h20.471l1.488-0.004
		l1.954-0.297l2.253-0.588l1.02-0.458l0.296-0.09l0.1-0.086l0.341-0.153l1.56-0.877l1-0.704l1.271-1.281l1.828-2.334l0.018,0.012
		l0.196-0.286l0.387-0.493l0.259-0.443l0.822-1.409l0.662-2.502l0.041-0.49l0.276-2.122l-0.004-35.914l0.362-70.293l2.123-3.223
		l9.002-13.364L129.899,14.895z"/>
	<path style="fill:#6A6158;" d="M26.256,5.861c0.177-0.572,0.435-1.319,0.504-2.353h0.086c0.07,1.034,0.329,1.781,0.503,2.353
		l0.386,1.214h-1.86L26.256,5.861z M25.131,9.628h3.359l0.398,1.343h4.781L29.342,0.254h-4.957l-4.417,10.717h4.783L25.131,9.628z"
		/>
	<path style="fill:#6A6158;" d="M36.173,10.153c1.124,0.716,2.51,1.108,4.019,1.108c0.971,0,1.919-0.164,2.91-0.513l0.136-4.029
		c-0.988,0.626-1.832,0.983-2.752,0.983c-1.457,0-2.338-0.838-2.338-2.064c0-1.304,0.987-2.13,2.42-2.13
		c0.936,0,1.77,0.329,2.586,1.007V0.54C42.199,0.176,41.248,0,40.243,0c-3.847,0-6.637,2.381-6.637,5.638
		C33.606,7.51,34.509,9.088,36.173,10.153"/>
	<path style="fill:#6A6158;" d="M47.242,10.153c1.122,0.716,2.512,1.108,4.016,1.108c0.968,0,1.922-0.164,2.913-0.513l0.135-4.029
		c-0.987,0.626-1.835,0.983-2.755,0.983c-1.456,0-2.339-0.838-2.339-2.064c0-1.304,0.99-2.13,2.427-2.13
		c0.934,0,1.768,0.329,2.579,1.007V0.54C53.266,0.176,52.317,0,51.306,0c-3.839,0-6.631,2.381-6.631,5.638
		C44.675,7.51,45.578,9.088,47.242,10.153"/>
	<polygon style="fill:#6A6158;" points="64.555,8.066 60.539,8.066 60.539,6.938 64.093,6.938 64.093,4.197 60.539,4.197 
		60.539,3.164 64.457,3.164 64.457,0.254 56.178,0.254 56.178,10.971 64.555,10.971 	"/>
	<path style="fill:#6A6158;" d="M70.831,3.239h0.69c0.87,0,1.32,0.34,1.32,0.896c0,0.556-0.45,0.885-1.32,0.885h-0.69V3.239z
		 M70.811,7.812h1.405c3.292,0,4.867-1.053,4.867-3.646c0-2.787-1.744-3.911-5.405-3.911h-5.313v10.717h4.446V7.812z"/>
	<polygon style="fill:#6A6158;" points="80.22,10.971 84.672,10.971 84.672,3.762 87.145,3.762 87.145,0.25 77.741,0.25 
		77.741,3.762 80.22,3.762 	"/>
	<polygon style="fill:#6A6158;" points="96.969,8.066 92.946,8.066 92.946,6.938 96.497,6.938 96.497,4.197 92.946,4.197 
		92.946,3.164 96.861,3.164 96.861,0.254 88.586,0.254 88.586,10.971 96.969,10.971 	"/>
	<path style="fill:#6A6158;" d="M103.184,3.551h0.19c1.802,0,2.7,0.658,2.7,2.067c0,1.457-0.916,2.056-2.89,2.084V3.551z
		 M108.034,9.914c1.646-0.979,2.561-2.522,2.561-4.296c0-2.04-1.19-3.758-3.325-4.69c-1.141-0.494-2.754-0.674-4.9-0.674h-3.606
		v10.717h3.279C104.516,10.971,106.421,10.869,108.034,9.914"/>
</g>
</svg>
