<?xml version="1.0" encoding="iso-8859-1"?>
<!-- Generator: Adobe Illustrator 18.1.1, SVG Export Plug-In . SVG Version: 6.00 Build 0)  -->
<svg version="1.1" id="Layer_1" xmlns="http://www.w3.org/2000/svg" xmlns:xlink="http://www.w3.org/1999/xlink" x="0px" y="0px"
	 viewBox="0 0 640 117.741" style="enable-background:new 0 0 640 117.741;" xml:space="preserve">
<g>
	<path style="fill:#2B2405;" d="M180.121,58.182c0,0.465,0.384,0.847,0.847,0.847c0.469,0,0.849-0.382,0.849-0.847
		c0-0.471-0.38-0.851-0.849-0.851C180.504,57.331,180.121,57.71,180.121,58.182z"/>
	<path style="fill:#2B2405;" d="M156.95,75.868c0.334-0.389,1.077-3.382,1.656-6.417l1.051-5.71h-2.886l-1.074,5.558l-1.072,5.461
		l0.86,0.908C155.957,76.142,156.619,76.257,156.95,75.868z"/>
	<path style="fill:#2B2405;" d="M155.497,82.804c-0.469,0-0.849,0.381-0.849,0.851c0,0.466,0.38,0.848,0.849,0.848
		c0.466,0,0.849-0.382,0.849-0.848C156.346,83.185,155.962,82.804,155.497,82.804z"/>
	<path style="fill:#2B2405;" d="M134.21,72.592c0.967-1.811,1.759-3.651,1.759-4.179c0-0.529-1.02-0.927-2.267-0.927
		c-1.244,0-2.859,0.529-3.483,1.146c-0.623,0.626-1.219,2.555-1.219,4.264v2.845h1.814C131.713,75.741,133.244,74.397,134.21,72.592
		z"/>
	<path style="fill:#2B2405;" d="M189.461,69.22c0.468,0,0.846-0.384,0.846-0.85c0-0.469-0.378-0.851-0.846-0.851
		c-0.471,0-0.851,0.381-0.851,0.851C188.61,68.836,188.99,69.22,189.461,69.22z"/>
	<path style="fill:#2B2405;" d="M202.811,75.176l0.978-2.554l-0.978-2.439c-0.539-1.4-1.664-2.442-2.496-2.442H199v10h1.315
		C201.147,77.741,202.272,76.579,202.811,75.176z"/>
	<polygon style="fill:#2B2405;" points="229.565,72.741 238,72.741 238,76.69 239.82,74.801 241.674,72.673 239.353,68.741 
		227.469,68.741 228.521,70.74 	"/>
	<path style="fill:#2B2405;" d="M188.981,72.811l0.86,3.298c0.476,1.813,1.512,3.298,2.301,3.298c0.794,0,2.337-1.72,3.43-3.821
		c1.095-2.103,1.384-3.258,0.642-2.562l-1.347,1.257l-4.021-3.334l-0.935,0.931L188.981,72.811z"/>
	<path style="fill:#2B2405;" d="M203.576,63.47c0.881-0.546,1.987-2.445,2.453-4.226l0.846-3.236l-2.535-4.103l-1.928,5.535
		c-1.06,3.044-1.595,5.873-1.186,6.279C201.636,64.132,202.693,64.018,203.576,63.47z"/>
	<path style="fill:#2B2405;" d="M209.838,53.936c0.469,0,0.849-0.382,0.849-0.848c0-0.471-0.38-0.851-0.849-0.851
		c-0.466,0-0.847,0.38-0.847,0.851C208.99,53.554,209.372,53.936,209.838,53.936z"/>
	<path style="fill:#2B2405;" d="M239.558,45.445c0,0.931,0.762,1.7,1.697,1.7c0.931,0,1.697-0.769,1.697-1.7
		c0-0.933-0.765-1.7-1.697-1.7C240.32,43.745,239.558,44.512,239.558,45.445z"/>
	<polygon style="fill:#2B2405;" points="234.46,64.691 235.593,63.713 236.722,62.741 232.196,62.741 233.327,63.713 	"/>
	<path style="fill:#2B2405;" d="M275,60.73c0,0.929,0.828,1.697,1.708,1.697c0.879,0,2.124-0.912,2.702-1.841l1.102-1.846H275V60.73
		z"/>
	<path style="fill:#2B2405;" d="M301.445,76.014c0.412,0,0.555-0.767,0.555-1.7v-1.574h-3.213l0.956,1.637
		C300.322,75.311,301.033,76.014,301.445,76.014z"/>
	<path style="fill:#2B2405;" d="M301.538,57.187c-0.575-0.931-1.344-1.626-1.698-1.626c-0.355,0-1.118,0.659-1.696,1.59l-1.052,1.59
		h5.496L301.538,57.187z"/>
	<path style="fill:#2B2405;" d="M308.332,43.745c0.469,0,0.848-0.382,0.848-0.847c0-0.469-0.378-0.851-0.848-0.851
		c-0.467,0-0.851,0.382-0.851,0.851C307.481,43.363,307.865,43.745,308.332,43.745z"/>
	<polygon style="fill:#2B2405;" points="304.086,52.52 306.209,51.63 308.332,50.741 299.839,50.741 301.964,51.63 	"/>
	<rect x="304" y="55.741" style="fill:#2B2405;" width="3" height="7"/>
	<path style="fill:#2B2405;" d="M310.879,63.274c0-0.463-0.38-0.847-0.847-0.847c-0.471,0-0.853,0.383-0.853,0.847
		c0,0.466,0.382,0.851,0.853,0.851C310.499,64.125,310.879,63.74,310.879,63.274z"/>
	<path style="fill:#2B2405;" d="M310.032,36.952c0.467,0,0.847-0.383,0.847-0.849s-0.38-0.849-0.847-0.849
		c-0.471,0-0.853,0.383-0.853,0.849S309.561,36.952,310.032,36.952z"/>
	<path style="fill:#2B2405;" d="M127,57.331c0-0.931,0.043-1.686-0.185-1.671c-0.235,0.014-1.452,0.765-2.854,1.671l-2.728,1.646
		L127,59.029V57.331z"/>
	<path style="fill:#2B2405;" d="M271.822,61.915c0-0.368-1.012-1.184-2.414-1.725L267,59.138v3.603h2.271
		C270.673,62.741,271.822,62.282,271.822,61.915z"/>
	<path style="fill:#2B2405;" d="M292.199,49.931c0-0.391,0.466-1.972,1.033-3.449l1.028-2.741h-1.47
		c-0.81,0-2.429,1.634-3.591,3.504l-2.123,3.496h2.56C291.045,50.741,292.199,50.318,292.199,49.931z"/>
	<polygon style="fill:#2B2405;" points="261.631,51.105 262.764,49.922 263.895,48.741 259.366,48.741 260.499,49.922 	"/>
	<path style="fill:#2B2405;" d="M255.299,71.414L260,70.518v-0.396l0.196,0.228l1.115,1.133l1.123-1.373l1.122-1.369H260V67.52
		l5.911-0.052l-2.567-1.646c-1.398-0.905-3.031-1.659-3.622-1.673c-0.582-0.012-2.018,1.12-3.179,2.522l-2.12,2.55l-8.92,0.1
		l5.108,2.984L255.299,71.414z"/>
	<polygon style="fill:#2B2405;" points="289.366,60.018 290.501,61.22 291.633,59.981 292.764,58.741 288.235,58.741 	"/>
	<path style="fill:#2B2405;" d="M276.068,40.35c0.465,0,0.847-0.384,0.847-0.849c0-0.469-0.382-0.85-0.847-0.85
		c-0.469,0-0.849,0.38-0.849,0.85C275.219,39.966,275.599,40.35,276.068,40.35z"/>
	<path style="fill:#2B2405;" d="M304,72.615v2.999l3.789,0.983l3.769,0.981l0.885-0.878l0.877-0.872l-2.497-1.581
		c-1.37-0.869-3.492-1.593-4.66-1.607L304,72.615z"/>
	<path style="fill:#2B2405;" d="M277.864,51.741H280v-5h-1.952c-1.243,0-2.754,0.688-3.352,1.287l-1.083,1.184l0.903,1.267
		C275.013,51.279,276.519,51.741,277.864,51.741z"/>
	<path style="fill:#2B2405;" d="M92.665,47.145c0.468,0,0.849-0.386,0.849-0.851c0-0.469-0.382-0.849-0.849-0.849
		c-0.466,0-0.849,0.38-0.849,0.849C91.816,46.759,92.199,47.145,92.665,47.145z"/>
	<path style="fill:#2B2405;" d="M85.782,62.427c0.419,0,2.612-0.889,4.993-1.972C93.155,59.372,95,57.842,95,57.058v-1.317h-5v3h-5
		v1.99C85,61.66,85.356,62.427,85.782,62.427z"/>
	<path style="fill:#2B2405;" d="M86.723,78.56c0,0.464,0.38,0.847,0.847,0.847c0.469,0,0.849-0.383,0.849-0.847
		c0-0.469-0.38-0.849-0.849-0.849C87.103,77.711,86.723,78.091,86.723,78.56z"/>
	<path style="fill:#2B2405;" d="M81.862,79.464l1.577-0.978c0.872-0.539,1.584-1.452,1.584-1.866c0-0.412-1.189-0.88-2.645-0.88
		h-2.649l1.063,1.86L81.862,79.464z"/>
	<path style="fill:#2B2405;" d="M97.76,72.828l-1.051,1.913h5.494l-1.047-1.913c-0.576-0.933-1.343-1.698-1.7-1.698
		C99.099,71.129,98.336,71.895,97.76,72.828z"/>
	<polygon style="fill:#2B2405;" points="91.391,82.413 93.514,83.178 95.637,82.459 97.76,81.741 89.267,81.741 	"/>
	<path style="fill:#2B2405;" d="M19.645,65.822c0.468,0,0.846-0.382,0.846-0.849c0-0.466-0.378-0.848-0.846-0.848
		c-0.471,0-0.853,0.382-0.853,0.848C18.793,65.44,19.174,65.822,19.645,65.822z"/>
	<polygon style="fill:#2B2405;" points="62.04,74.314 60,72.049 60,76.576 61.019,75.446 	"/>
	<path style="fill:#2B2405;" d="M120.593,65.822c0.879,0,1.407-0.766,1.407-1.697v-1.384h-4.915l0.955,1.541
		C118.618,65.213,119.71,65.822,120.593,65.822z"/>
	<path style="fill:#2B2405;" d="M29,77.711c0-0.935-0.348-1.697-0.758-1.697c-0.414,0-1.225,0.929-1.799,1.863l-1.057,1.863H29
		V77.711z"/>
	<polygon style="fill:#2B2405;" points="39.171,52.801 40.304,51.771 41.433,50.741 36.909,50.741 38.037,51.771 	"/>
	<path style="fill:#2B2405;" d="M40.868,80.256c0-0.466-0.378-0.849-0.847-0.849c-0.467,0-0.849,0.383-0.849,0.849
		s0.382,0.849,0.849,0.849C40.49,81.105,40.868,80.722,40.868,80.256z"/>
	<path style="fill:#2B2405;" d="M350.787,59.029c0.466,0,0.848-0.382,0.848-0.847c0-0.471-0.382-0.851-0.848-0.851
		c-0.471,0-0.849,0.38-0.849,0.851C349.938,58.647,350.316,59.029,350.787,59.029z"/>
	<polygon style="fill:#2B2405;" points="522.823,51.834 523.526,47.059 524.226,42.279 521.047,41.449 517.859,40.616 
		519.864,43.177 521.867,45.741 516,45.741 516,50.144 519.415,50.989 	"/>
	<path style="fill:#2B2405;" d="M521.455,56.481c0,0.466,0.38,0.85,0.846,0.85c0.469,0,0.851-0.384,0.851-0.85
		c0-0.467-0.382-0.849-0.851-0.849C521.835,55.632,521.455,56.014,521.455,56.481z"/>
	<polygon style="fill:#2B2405;" points="574.116,44.1 574.084,44.05 574.055,44.123 	"/>
	<polygon style="fill:#2B2405;" points="530.386,47.145 528,44.879 528,49.407 529.19,48.272 	"/>
	<path style="fill:#2B2405;" d="M541.45,51.526l-0.84-2.192c-0.466-1.206-0.951-2.103-1.083-1.994
		c-0.134,0.105-1.749,0.548-3.385,0.974L533,49.089v3.111l4.227-0.341L541.45,51.526z"/>
	<path style="fill:#2B2405;" d="M560.592,49.744l1.635,1.012l0.981-2.547l0.976-2.551l2.432,0.935l2.428,0.931l2.374-1.969
		l2.376-1.975l0.289,0.471l0.899-2.349l0.933-2.422l-2.519-4.861l-2.526-4.861l0.861-1.408l0.864-1.408h-1.698
		c-0.933,0-2.171,0.568-2.747,1.499l-1.051,1.501h3.83l-2.158,7H572v1.984c0,0.971-0.718,2.747-1.835,3.942l-1.932,2.178
		l-3.622-0.701l-3.648-0.703l-2.017,5.289L560.592,49.744z"/>
	<path style="fill:#2B2405;" d="M512.115,31.953c-0.58-0.937-1.172-1.746-1.582-1.746c-0.414,0-0.533,0.717-0.533,1.654v1.88h3.159
		L512.115,31.953z"/>
	<path style="fill:#2B2405;" d="M494.12,37.253l1.938-1.099c0.978-0.604,1.942-1.82,1.942-2.699v-1.715h-6.916l-1.054,1.769
		l-1.06,1.739l2.574,1.003L494.12,37.253z"/>
	<polygon style="fill:#2B2405;" points="484,46.01 485.178,44.879 486.285,43.745 484,41.481 	"/>
	<path style="fill:#2B2405;" d="M464.563,38.652c0.467,0,0.851-0.381,0.851-0.847c0-0.471-0.384-0.853-0.851-0.853
		c-0.466,0-0.849,0.382-0.849,0.853C463.715,38.271,464.098,38.652,464.563,38.652z"/>
	<polygon style="fill:#2B2405;" points="455,52.473 458.769,51.933 462.49,51.385 463.693,43.741 460,43.741 460,48.741 455,48.741 
			"/>
	<path style="fill:#2B2405;" d="M484.942,31.861c0.466,0,0.849-0.385,0.849-0.851c0-0.467-0.384-0.849-0.849-0.849
		c-0.467,0-0.849,0.382-0.849,0.849C484.093,31.476,484.475,31.861,484.942,31.861z"/>
	<path style="fill:#2B2405;" d="M497.677,39.501c0,0.465,0.382,0.849,0.851,0.849c0.465,0,0.849-0.384,0.849-0.849
		c0-0.469-0.384-0.85-0.849-0.85C498.058,38.652,497.677,39.032,497.677,39.501z"/>
	<path style="fill:#2B2405;" d="M615.699,31.861c0.469,0,0.851-0.385,0.851-0.851c0-0.467-0.382-0.849-0.851-0.849
		c-0.465,0-0.845,0.382-0.845,0.849C614.853,31.476,615.233,31.861,615.699,31.861z"/>
	<polygon style="fill:#2B2405;" points="325.028,71.961 326.163,73.138 327.294,71.939 328.425,70.741 323.898,70.741 	"/>
	<path style="fill:#2B2405;" d="M614.536,36.952l-0.999,3.821l-0.997,3.821l2.854-2.85c1.568-1.566,2.854-3.588,2.854-4.487
		c0-0.904-1.026-2.03-2.276-2.515l-2.28-0.873l-2.392,1.516l-2.39,1.517L614.536,36.952z"/>
	<polygon style="fill:#2B2405;" points="606,46.01 607.314,44.879 608.353,43.745 606,41.481 	"/>
	<path style="fill:#2B2405;" d="M622.495,43.745c0.467,0,0.847-0.382,0.847-0.847c0-0.469-0.38-0.851-0.847-0.851
		c-0.469,0-0.853,0.382-0.853,0.851C621.643,43.363,622.026,43.745,622.495,43.745z"/>
	<path style="fill:#2B2405;" d="M459.471,59.029c0.468,0,0.847-0.382,0.847-0.847c0-0.471-0.38-0.851-0.847-0.851
		c-0.471,0-0.853,0.38-0.853,0.851C458.618,58.647,459,59.029,459.471,59.029z"/>
	<path style="fill:#2B2405;" d="M558.157,47.145c0.41,0,0.843-0.769,0.843-1.7v-1.704h-3.787l1.103,1.702
		C556.892,46.374,557.747,47.145,558.157,47.145z"/>
	<path style="fill:#2B2405;" d="M167.789,65.845c-0.223,0.02-1.256,0.592-2.297,1.276l-1.889,1.25l0.275,3.425
		c0.148,1.884,0.851,4.534,1.563,5.687c0.714,1.15,2.098,2.259,3.075,2.259h1.777l-1.261-3.139
		c-0.692-1.634-1.161-4.774-1.047-6.876C168.098,67.625,168.01,65.833,167.789,65.845z"/>
	<circle style="fill:#2B2405;" cx="534.188" cy="44.595" r="0.85"/>
	<path style="fill:#2B2405;" d="M556.269,48.841c-0.471,0-0.853,0.383-0.853,0.849c0,0.465,0.382,0.847,0.853,0.847
		c0.466,0,0.846-0.382,0.846-0.847C557.114,49.225,556.734,48.841,556.269,48.841z"/>
	<path style="fill:#2B2405;" d="M546.197,47.694c0.819-0.164,1.732-1.026,2.032-1.916l0.535-1.614l-4.902-1.883l0.838,5.708
		L546.197,47.694z"/>
	<path style="fill:#2B2405;" d="M512.96,44.594c0,0.468,0.382,0.851,0.851,0.851c0.466,0,0.849-0.383,0.849-0.851
		c0-0.467-0.383-0.849-0.849-0.849C513.342,43.745,512.96,44.126,512.96,44.594z"/>
	<path style="fill:#2B2405;" d="M552.869,45.445c0.467,0,0.849-0.383,0.849-0.851c0-0.467-0.382-0.849-0.849-0.849
		c-0.466,0-0.848,0.382-0.848,0.849C552.021,45.062,552.403,45.445,552.869,45.445z"/>
	<path style="fill:#2B2405;" d="M583.827,35.149l2.091,2.656l3.46-5.098l1.506,2.344l1.511,2.337l3.542-2.187l1.782,2.882
		l4.855-0.71l4.851-0.715l1.73-4.588l1.736-4.594l-1.841-3.189c-1.017-1.755-4.408-5.435-7.443-8.173L596,11.133V6.492l2.807,1.045
		l2.76,1.042l-0.606-3.219l-0.615-3.219l-3.363-0.174c-1.853-0.095-3.743-0.344-4.212-0.553c-0.466-0.21-2.02-0.614-3.461-0.897
		L586.698,0l-4.235,3.646l-4.24,3.643l1.522,6.426l1.516,6.425l-2.629,3.021c-1.506,1.66-2.633,3.942-2.633,5.068v2.041l2.87,1.115
		C580.504,31.993,582.675,33.691,583.827,35.149z"/>
	<path style="fill:#2B2405;" d="M365.86,50.538c-0.417,0-0.86,0.764-0.86,1.7v1.503h3.816l-1.104-1.601
		C367.138,51.204,366.272,50.538,365.86,50.538z"/>
	<path style="fill:#2B2405;" d="M384.75,42.047c0.467,0,0.851-0.382,0.851-0.846c0-0.471-0.384-0.851-0.851-0.851
		c-0.469,0-0.851,0.38-0.851,0.851C383.899,41.665,384.28,42.047,384.75,42.047z"/>
	<polygon style="fill:#2B2405;" points="363.522,61.292 364.651,60.018 365.786,58.741 361.257,58.741 362.389,60.018 	"/>
	<path style="fill:#2B2405;" d="M383.053,38.652c0.464,0,0.845-0.381,0.845-0.847c0-0.471-0.382-0.853-0.845-0.853
		c-0.471,0-0.851,0.382-0.851,0.853C382.202,38.271,382.582,38.652,383.053,38.652z"/>
	<path style="fill:#2B2405;" d="M352.484,47.145c0.466,0,0.849-0.386,0.849-0.851c0-0.469-0.384-0.849-0.849-0.849
		c-0.467,0-0.849,0.38-0.849,0.849C351.635,46.759,352.016,47.145,352.484,47.145z"/>
	<path style="fill:#2B2405;" d="M455.973,53.741h-2.647l1.065,1.821l1.069,1.775l1.579-0.953c0.871-0.537,1.58-1.396,1.58-1.81
		C458.618,54.164,457.43,53.741,455.973,53.741z"/>
	<path style="fill:#2B2405;" d="M364.509,47.011L372,45.047v-3l-2.116,0.027c-1.17,0.014-3.244,0.736-4.618,1.608l-2.497,1.577
		l0.871,0.874L364.509,47.011z"/>
	<polygon style="fill:#2B2405;" points="343.399,66.13 344.389,65.142 345.379,64.155 350.195,68.149 351.693,65.727 
		353.192,63.303 351.745,61.856 350.302,60.411 346.377,62.512 342.458,64.61 341.813,62.674 341.164,60.741 336,60.741 336,63.895 
		339.699,65.014 	"/>
	<path style="fill:#2B2405;" d="M327.012,43.745c0.469,0,0.851-0.382,0.851-0.847c0-0.469-0.382-0.851-0.851-0.851
		c-0.465,0-0.849,0.382-0.849,0.851C326.163,43.363,326.547,43.745,327.012,43.745z"/>
	<path style="fill:#2B2405;" d="M304,67.488c0,0.728,2.198,2.269,4.998,3.428L314,73.028v1.492c0,0.821,1.039,1.221,1.976,1.221H318
		v-5.142l3.001-0.888L324,68.822v-5.095l6.648,1.679l4.739-2.927l-5.036-0.293c-2.804-0.164-6.056-0.258-7.223-0.218L321,62.049
		v-4.308h-2.477c-1.406,0-2.633,0.369-2.731,1.07c-0.102,0.699-0.289,2.696-0.427,4.565l-0.286,3.346L304,66.173V67.488z"/>
	<path style="fill:#2B2405;" d="M321.069,51.387c0,0.466,0.38,0.851,0.847,0.851c0.469,0,0.849-0.385,0.849-0.851
		c0-0.465-0.38-0.849-0.849-0.849C321.449,50.538,321.069,50.921,321.069,51.387z"/>
	<polygon style="fill:#2B2405;" points="330.122,44.877 331.256,46.009 332.387,44.877 333.52,43.741 328.99,43.741 	"/>
	<path style="fill:#2B2405;" d="M377.96,59.034c-0.582-0.931-1.596-1.701-2.005-1.701c-0.414,0-0.956,0.765-0.956,1.696v1.712h4.004
		L377.96,59.034z"/>
	<polygon style="fill:#2B2405;" points="452,42.443 448,41.688 444,40.93 444,45.741 452,45.741 	"/>
	<path style="fill:#2B2405;" d="M394.941,60.73c-0.471,0-0.851,0.378-0.851,0.846s0.38,0.851,0.851,0.851
		c0.466,0,0.845-0.384,0.845-0.851S395.406,60.73,394.941,60.73z"/>
	<path style="fill:#2B2405;" d="M451.827,51.387c0-0.465-0.38-0.849-0.851-0.849c-0.466,0-0.845,0.384-0.845,0.849
		c0,0.466,0.38,0.851,0.845,0.851C451.447,52.238,451.827,51.853,451.827,51.387z"/>
	<path style="fill:#2B2405;" d="M456.074,40.35c0.466,0,0.845-0.384,0.845-0.849c0-0.469-0.38-0.85-0.845-0.85
		c-0.468,0-0.851,0.38-0.851,0.85C455.223,39.966,455.607,40.35,456.074,40.35z"/>
	<polygon style="fill:#2B2405;" points="455.223,47.71 456.356,46.724 457.487,45.741 452.958,45.741 454.089,46.724 	"/>
	<polygon style="fill:#2B2405;" points="427.592,37.979 428.617,36.952 425.364,37.088 422.11,37.223 426.568,39.005 	"/>
	<path style="fill:#2B2405;" d="M447.375,54.967l-2.658-1.035l0.689,2.018c0.369,1.11,1.523,2.319,2.633,2.692l1.96,0.669v-1.658
		C450,56.742,448.853,55.531,447.375,54.967z"/>
	<path style="fill:#2B2405;" d="M389.844,33.557c0.469,0,0.849-0.383,0.849-0.851c0-0.466-0.38-0.846-0.849-0.846
		c-0.467,0-0.847,0.38-0.847,0.846C388.997,33.174,389.377,33.557,389.844,33.557z"/>
	<polygon style="fill:#2B2405;" points="390.693,44.312 391.824,43.028 392.957,41.741 388.428,41.741 389.559,43.028 	"/>
	<path style="fill:#2B2405;" d="M395.729,50.65c0.963-1.806,1.757-4.101,1.757-5.095c0-0.993-0.574-1.785-1.273-1.755
		c-0.701,0.028-2.601,1.06-4.221,2.292l-2.943,2.233l1.197,1.199l1.197,1.197l-2.497,1.584l-2.499,1.577l7.524,0.054L395.729,50.65z
		"/>
	<path style="fill:#2B2405;" d="M411.07,60.746c1.402,0.905,3.311,1.995,4.248,1.995h1.697l-2.546-1.995
		c-1.402-0.906-3.313-2.005-4.246-2.005h-1.697L411.07,60.746z"/>
	<path style="fill:#2B2405;" d="M407.091,62.427c0.411,0,0.909-0.768,0.909-1.697v-1.99h-3.924l1.134,1.846
		C405.787,61.516,406.675,62.427,407.091,62.427z"/>
	<polygon style="fill:#2B2405;" points="399.748,58.668 400.884,59.699 402.013,58.719 403.145,57.741 398.619,57.741 	"/>
	<path style="fill:#2B2405;" d="M4.375,82.916l-0.872-0.867l2.774,0.124L4.67,79.741H0.86L0,78.84v6.616
		c0.658-0.266,1.292-0.579,1.838-0.926L4.375,82.916z"/>
	<path style="fill:#2B2405;" d="M638.378,37.189l-3.65-2.275l2.014-1.247l2.014-1.243l-1.764-4.645l-1.769-4.649l0.981-3.903
		l0.979-3.907l-4.594-0.835L628,13.65v2.102c0,1.159,1.32,3.021,2.662,4.136l2.559,2.03l-1.99,5.323l-2.477-3.211l-2.486-3.211
		l1.327,3.398c0.725,1.868,1.841,7.023,2.474,11.461l1.152,8.063H625v3.067l-10.097,3.527l-0.905-1.482l-0.91-1.482l-5.044,0.146
		L603,47.661v1.297c0,0.098,0,0.197,0.026,0.298c-0.15-0.242-0.414-0.414-0.719-0.414c-0.467,0-0.857,0.383-0.857,0.849
		c0,0.465,0.383,0.847,0.85,0.847c0.468,0,0.848-0.382,0.848-0.847c0-0.052-0.021-0.097-0.031-0.147
		c0.26,0.538,0.834,1.05,1.5,1.276l1.658,0.567l-1.006,3.821c-0.126,0.478-0.279,0.931-0.445,1.353
		c0.003-0.027,0.016-0.051,0.016-0.079c0-0.467-0.382-0.849-0.845-0.849c-0.471,0-0.849,0.382-0.849,0.849
		c0,0.466,0.378,0.85,0.849,0.85c0.251,0,0.471-0.117,0.626-0.294c-0.532,1.18-1.167,1.992-1.657,1.992
		c-0.717,0-1.857-1.718-2.53-3.821c-0.676-2.101-1.12-5.35-0.988-7.217l0.235-3.396l-4.22,4.575
		c-2.323,2.568-5.025,4.572-6.002,4.572H588v-5.374l2.813-2.346l2.893-2.351l-6.215,1.039l-6.192,1.04l-1.109-1.777l-1.104-1.774
		l-2.512,0.961l-2.456,0.942l0.683,1.111l1.004,1.623l-1.145,2.997l-1.154,2.994l2.897-1.109l2.899-1.111l-3.027,4.122l-3.023,4.128
		l-3.045-4.06l-3.04-4.056l-6.723,2.372c-3.696,1.304-6.723,1.93-6.723,1.392c0-0.541-1.012-0.146-2.248,0.883l-2.251,1.864
		l-2.108-1.994L545,53.256v1.773c0,0.272-0.033,0.697-0.274,1.209c-0.105-0.348-0.359-0.606-0.744-0.606
		c-0.463,0-0.817,0.382-0.817,0.849c0,0.466,0.396,0.85,0.859,0.85c0.085,0,0.169-0.025,0.246-0.048
		c-0.712,1.208-1.751,2.626-2.924,3.99c-2.128,2.479-4.609,4.468-5.515,4.468h-1.643l-0.239-4.117l-0.243-4.135l2.792-0.73
		l2.784-0.739l-3.739-0.192c-2.064-0.11-5.667,0.68-8.017,1.75l-4.272,1.949l0.897,1.604l0.896,1.611h-5.905
		c-3.246,0-7.048,0.305-8.525,0.872L508,64.488v-3.747h5v-2h2.507l2.549,2.262l0.198-1.412c0.105-0.815,0.298-2.592,0.423-3.994
		l0.228-2.526l-3.952-3.091L511,46.897v-4.568l4.377-1.72l-2.482-1.803l-2.514-1.8l-4.69-0.026L501,36.952v4.869l3.258,1.022
		l3.242,1.022l-0.831,3.22l-0.839,3.22l-2.379-0.916l-2.379-0.912l-0.085,3.156l-0.089,2.999l-5.717-12.892h-2.151
		c-1.177,0-2.617,0.147-3.188,0.139l-1.043,0.063l-0.623,7.944c-0.341,4.349-0.913,8.323-1.398,8.808L486,59.596V48.734l-2.975-1.1
		l-2.924-1.101l-0.692,2.105c-0.367,1.099-1.437,2.103-2.352,2.103h-1.659l1.167-1.981l1.158-1.931l-3.821,1.188l-3.823,1.202
		l1.165-1.74l1.163-1.737H481v-7h1.395c0.931,0,1.605-0.804,1.605-1.675v-1.584l-6.745-2.154l1.743-3.208l1.731-3.214l-3.838-2.023
		c-2.114-1.113-4.437-2.863-5.168-3.89l-1.32-1.87l2.204,9.476l-2.982,3.297l-2.984,3.296l4.055,1.623l4.058,1.62l-5.744,0.218
		l-1.311,2.121c-0.723,1.17-1.336,4.415-1.375,7.217l-0.063,5.089l-2.545,0.013l-2.547,0.002l-0.018,3.039l-0.01,3.038l-2.451,1.515
		c-1.35,0.835-3.009,1.17-3.689,0.751l-1.238-0.767l-1.987,3.218l1.61,1.066l1.617,1.07v6.388l-1.734,1.14l-1.789,1.144
		l-1.861-1.889l-1.879-1.891l2.467-0.05l2.47-0.053l-2.903-1.689l-2.903-1.693l2.152-5.594l-2.843,1.092l-2.844,1.09l-0.251-1.646
		c-0.141-0.902-0.332-2.596-0.424-3.766c-0.095-1.168-0.937-2.754-1.868-3.526l-1.697-1.404l1.954-0.861l1.952-0.86v-4.451
		l-2.171-0.896l-2.255-0.896l-3.542,3.58l-2.899-1.12l-2.912-1.126l6.095-4.452l-2.356-0.897l-2.362-0.901l-5.499,0.816
		l-5.504,0.816l0.931,1.653l0.933,1.659H418v-5.594l-4,2.102v-3.798l-1.471,1.051l-1.583,1.056l1.821,3.091l1.819,3.093H428v3.797
		c0,1.87-0.006,3.971-0.043,4.67l-0.055,1.273l-3.454-0.135L421,56.214v6.527h1.958c0.931,0,1.604,0.414,1.499,1.115
		c-0.111,0.699-0.111,1.823,0,2.59l0.2,1.355l2.668-2.529c1.468-1.468,3.759-2.531,5.093-2.531H435v3.446l-2.504-0.931l-2.456-0.932
		l-4.049,4.849l1.045,4.693l1.051,4.693l-2.428-4.246l-2.422-4.246l-3.961-0.169c-2.176-0.093-6.708-0.729-10.065-1.415
		l-6.113-1.245l-2.804,2.81l-2.808,2.808l-3.821-0.307c-2.103-0.171-5.255-0.229-7.001-0.125l-3.183,0.189l2.119,2.562l2.112,2.564
		h-2.546c-1.395,0-5.048,0.486-8.109,1.097l-5.569,1.105l1.208-2.1l1.213-2.103H382v-4.76l-4.569-1.045
		c-2.57-0.574-7.051-1.661-10.021-2.412l-5.378-1.361l-1.814,4.753l2.077,0.202c1.14,0.111,2.723,0.086,3.523-0.061
		c0.797-0.141,3,0.234,4.893,0.833l3.446,1.097l-2.107,1.304l-2.112,1.306l-2.807-0.737l-2.808-0.735l-4.222,1.686l-3.979,1.684
		L364,77.711v4.8l-5.227-1.886l-5.111-1.884l0.711-1.247l0.742-1.249l-1.924-1.178l-1.913-1.179l2.301-1.461l2.303-1.459
		l-2.762-0.028l-2.76-0.025l-1.019,4.916l-1.021,4.909h-2.893l0.753-4.996l0.746-5.004h-3.389l-0.887,3.501l-0.886,3.499h-4.08
		l1.957-5h-5.353l1.957,5h-1.506c-0.826,0-1.848-0.969-2.271-2.14l-0.766-2.13l-1.74,1.022c-0.335-0.268-0.735-0.501-1.166-0.657
		c-1.173-0.414-2.379-0.543-2.686-0.283c-0.308,0.26-0.31,1.068-0.012,1.816l-1.636-1.055c-1.4-0.906-3.304-1.661-4.006-1.675
		c-0.699-0.014-1.457,0.742-1.457,1.675v1.7l7.306-0.053c0.115,0.119,0.344,0.232,0.491,0.341l-2.325,1.313L297,79.893v-8.694
		l-1.976-0.856l-2.05-0.856l2.013-0.132L297,69.22v-6.711l-4.209,1.615c-2.397,0.914-4.969,1.617-5.898,1.617h-1.688l1.051-1.656
		l1.047-1.678l-1.299-2.099l-1.302-2.101l-1.993,8.461l-5.02,0.467c-2.761,0.257-6.297,0.497-7.854,0.543l-2.834,0.073l-0.992,2.585
		l-0.994,2.586l0.938,1.514c-0.124-0.071-0.26-0.122-0.413-0.122c-0.471,0-0.849,0.376-0.849,0.847c0,0.466,0.378,0.853,0.849,0.853
		c0.467,0,0.849-0.387,0.849-0.853c0-0.01-0.005-0.155-0.005-0.164l0.542,0.743H275v-1.426c0-0.933,0.979-1.574,1.915-1.574H279
		v7.949l-3.068,2.328l-2.968,2.333l1.154-2.005l1.176-2.007l-1.557-0.956l-1.554-0.956l-0.991,2.581l-0.571-0.921
		c-0.567-0.924-1.753-1.679-2.634-1.679s-1.599,0.303-1.599,0.669s1.188,1.121,2.633,1.677l1.975,0.758l-0.972,2.526l-3.413-3.649
		c-1.88-2.016-4.149-3.647-5.048-3.647H260v-3.628l2.088,1.197l2.108,1.197l-1.986-2.135l-1.976-2.141l-1.918,1.185l-1.918,1.183
		l1.091,3.678c0.598,2.023,2.349,4.736,3.889,6.03l2.802,2.351l-3.11-1.077c-0.926-0.322-2.075-0.489-3.148-0.686l0.175-0.153
		h-1.663c-0.109,0-0.235,0.008-0.372,0.021c-0.184-0.013-0.358-0.021-0.513-0.021H253v-8.727l-1.203,0.004
		c-0.699,0.003-3.708,1.513-6.729,3.352l-5.475,3.351l-1.032-0.4l0.088-0.266l1.135-1.313h-4.371l-1.373-0.346l-3.18,5.785
		l-1.667-0.982l-1.663-1.006l1.028-3.224l1.038-3.228h-3.774l0.496-2.755l0.501-2.748l-8.896-0.746l-7.776-0.651l0.261-0.162
		l-0.954-1.534c0.706-0.205,1.232-0.854,1.232-1.626c0-0.935-0.765-1.698-1.696-1.698c-0.935,0-1.698,0.764-1.698,1.698
		c0,0.02,0.005,0.039,0.006,0.059c-0.152-0.035-0.302-0.059-0.443-0.059c-0.885,0-1.598,0.637-1.598,1.416
		c0,0.776,0.485,1.901,1.085,2.501l1.085,1.085l1.845-1.14l0.775,2.019l1.02,2.649l-2.579-0.992l-2.573-0.984l-0.064,0.292
		c-0.343,0.108-0.594,0.416-0.594,0.796c0,0.247,0.111,0.634,0.282,0.791l-0.797,3.788h-0.441l-1.595,4.055l-1.457-2.443
		l-4.196,2.106l-4.196,2.131l-3.027-1.818l-3.02-1.809l-1.78,2.541l-1.129,1.62l-1.884-2.155l-0.485-1.229h-4.927l3.635-7H185
		v-3.248l-3.186,1.764l-3.241,1.761l-0.905-1.507l-0.921-1.507l3.781-0.99l2.81-0.734l-0.588,1.76l2.227-0.742
		c1.227-0.411,2.569-1.749,2.975-2.972l0.742-2.23l-2.226,0.742c-1.096,0.365-2.275,1.472-2.806,2.579l-1.026-0.977
		c-0.919-0.872-3.2-1.882-5.065-2.238l-3.398-0.651l0.289-5.034l0.292-4.877l-1.677,6.103h-2.085c-1.145,0-2.986-1.063-4.094-2.167
		l-2.007-2.09l-1.024,0.985L163,60.324v-3.561l-2.363,2.266l1.185,1.133L163,61.292v-0.693l5.118,4.547l5.264,4.688l-0.796,6.567
		l-0.671,5.59c-1.155-0.332-2.673-0.49-3.687-0.347l-2.212,0.314l0.07,0.959c-0.121-0.066-0.254-0.114-0.402-0.114
		c-0.465,0-0.847,0.381-0.847,0.851c0,0.466,0.382,0.848,0.847,0.848c0.192,0,0.361-0.075,0.503-0.183l0.075,1.032l1.238,0.331
		l-0.651,0.27c-1.916,1.027-3.973,1.789-4.563,1.789h-1.076l1.144-3.52l1.14-3.559l-2.301,0.823l-2.3,0.811l0.902,5.187
		l-3.339,0.876l-0.793,0.208l-1.945-0.509l-0.695,0.949l-0.418-1.066c-0.28-0.71-2.317-1.857-4.536-2.549l-2.957-0.919
		c0.399-0.071,0.708-0.403,0.708-0.818c0-0.469-0.382-0.851-0.853-0.851c-0.467,0-0.845,0.381-0.845,0.851
		c0,0.227,0.092,0.432,0.238,0.584l-0.324-0.18l2.321,3.682h-1.993l-0.552-0.551l-0.34,0.551h-2.884l-1.166-1.638L141,86.2v-2.409
		c0-0.443-0.196-1.006-0.291-1.611l7.047,0.113l1.956-5.189l-4.941-4.753l-4.528,7.39h-0.314c-0.093-1-0.188-0.756-0.289-1.018
		l-1.085-2.746l-3.672,3.764h-3.811l-1.604,2.433l2.778-0.041l-0.865,0.825l2.551,1.594c0.597,0.38,1.321,0.716,2.046,0.996
		l-0.009,0.339l-3.485-0.89L129,84.106v4.47l-1.508-1.593l0.147-0.699l1.114-5.543H125v0.399l-1.565-0.012
		c-2.569-0.012-4.558,0.278-4.558,0.646c0,0.366,1.081,1.058,2.33,1.54l2.085,0.874L125,82.985v1.698l-2.609,1.452l-2.521-0.249
		l-0.87-0.09v-1.055h-5v-0.005l-1.724-1.995h4.647l0.817-2.091c0.446-1.167,0.844-2.787,0.885-3.617
		c0.039-0.828,1.069-2.117,2.292-2.873l2.218-1.366l-2.924-1.12l-3.02-1.119L112,72.505v5.235h3.791l-1.051,1.499l-1.051,1.501
		h-2.83l-0.709-0.849l0.296,0.849h-4.366l-2.037-1.854l-0.721-0.632c-0.079-0.292-0.301-0.466-0.59-0.545l-0.724-0.702l-2.021,2.031
		l-2.014,2.02l3.482,1.215l-0.722,0.6l-2.183,1.813l-6.506-0.517l-6.511-0.514l0.485,2.285l0.478,2.292l-4.531-3.564
		c-2.49-1.959-5.111-3.563-5.819-3.563c-0.708,0-1.777,1.275-2.374,2.836l-1.088,2.834l2.18,1.385
		c1.199,0.764,2.834,1.393,3.637,1.409l1.454,0.028l-1.889-4.925l2.46,0.946c1.354,0.521,2.462,1.582,2.462,2.36
		c0,0.781-0.617,1.802-1.374,2.267c-0.308,0.188-1.287,0.371-2.673,0.525c-2.068,0.13-4.407,0.237-6.724,0.312l1.264-1.484
		L71,87.333v3.776c-1,0.035-2.356,0.061-3.5,0.076c-1.144-0.015-1.5-0.041-3.5-0.076v-3.776l-2.108,2.265l1.56,1.484
		c-2.316-0.075-4.618-0.182-6.686-0.312c-1.386-0.154-2.346-0.337-2.654-0.525c-0.756-0.465-1.364-1.486-1.364-2.267
		c0-0.778,1.113-1.839,2.466-2.36l2.463-0.946l-1.888,4.925l1.454-0.028c0.803-0.016,2.439-0.646,3.638-1.409l2.18-1.385
		l-1.088-2.834c-0.598-1.561-1.666-2.836-2.374-2.836c-0.708,0-3.329,1.604-5.819,3.563l-4.531,3.564l0.478-2.292l0.485-2.285
		L43.7,84.168l-6.506,0.518l-2.183-1.813l-0.722-0.599l3.482-1.212l-2.014-2.014l-2.021-2.019l-0.724,0.725
		c-0.29,0.079-0.511,0.3-0.59,0.591l-0.722,0.541l-2.037,1.854h-4.366l0.295-0.849l-0.708,0.849h-2.83l-1.051-1.501l-1.051-1.499H24
		v-5.235l-5.319-1.949l-3.036,1.12l-2.98,1.122l2.189,1.37c1.223,0.756,2.239,2.053,2.278,2.88c0.041,0.83,0.432,2.434,0.878,3.601
		l0.81,2.091h4.647L22,84.735v0.005h-5v1.055l-1.054,0.09l-2.644,0.249l-2.937-1.472L10,84.846v-1.861l2.053,1.203l2.353-0.874
		c1.249-0.482,2.312-1.174,2.312-1.54c0-0.368-2.232-0.658-4.8-0.646L10,81.14v-0.399H6.991l1.07,5.543l0.319,0.608L7,88.576v-4.47
		l-3.613,0.888L0,85.851v9.89v4v18h640v-18V98.6v-2.859V38.396C639.506,37.969,638.964,37.557,638.378,37.189z M512.96,56.913
		l0.508,0.422l-0.508,0.822V56.913z M169.212,86.118l1.416,0.359L175,87.606v-1.741l0.264,0.419l2.989,3.065
		c-0.744-0.052-2.46-0.048-4.355,0.008c-1.025-0.189-2.124-0.471-2.948-0.788l-2.688-1.028L169.212,86.118z M111,82.87l1.219,2.871
		H111V82.87z M109,84.833v0.907h-1.822l-2.137-2.339l-0.023-0.036L109,84.833z M27,84.833l3.542-1.243l-1.977,2.15H27V84.833z
		 M25,82.87v2.871h-1.476L25,82.87z"/>
	<path style="fill:#2B2405;" d="M11.663,57.331c-1.402-0.906-2.871-1.657-3.107-1.671C8.328,55.645,8,56.399,8,57.331v1.698
		l6.079-0.052L11.663,57.331z"/>
	<path style="fill:#2B2405;" d="M193,81.105c0,0.935,0.522,1.698,0.936,1.698c0.407,0,1.312-0.597,1.89-1.532l1.141-1.531H193
		V81.105z"/>
	<path style="fill:#2B2405;" d="M180.633,50.538c0.464,0,0.845-0.382,0.845-0.847c0-0.466-0.381-0.849-0.845-0.849
		c-0.471,0-0.853,0.383-0.853,0.849C179.78,50.156,180.162,50.538,180.633,50.538z"/>
	<path style="fill:#2B2405;" d="M170.444,53.936c0.464,0,0.849-0.382,0.849-0.848c0-0.471-0.385-0.851-0.849-0.851
		c-0.467,0-0.853,0.38-0.853,0.851C169.591,53.554,169.976,53.936,170.444,53.936z"/>
	<path style="fill:#2B2405;" d="M236.212,33.938l1.022,1.794l1.472,2.581l6.104-8.152l-2.201,0.025
		c-1.211,0.014-3.247,0.687-4.526,1.497l-0.932,0.592c-1.049-1.199-2.072-2.114-2.382-2.114c-0.357,0-0.646,0.683-0.646,1.516
		C234.123,32.378,235.013,33.308,236.212,33.938z"/>
	<path style="fill:#2B2405;" d="M41,55.741v1.317c0,0.785,1.71,2.314,4.09,3.398c2.381,1.083,4.697,1.972,5.116,1.972
		c0.427,0,0.794-0.768,0.794-1.697v-1.99h-5v-3H41z"/>
	<path style="fill:#2B2405;" d="M207.804,65.822c0.464,0,0.845-0.382,0.845-0.849c0-0.466-0.381-0.848-0.845-0.848
		c-0.471,0-0.856,0.382-0.856,0.848C206.948,65.44,207.333,65.822,207.804,65.822z"/>
	<path style="fill:#2B2405;" d="M219.685,64.125c0.471,0,0.856-0.385,0.856-0.851c0-0.463-0.385-0.847-0.856-0.847
		c-0.464,0-0.846,0.383-0.846,0.847C218.839,63.74,219.221,64.125,219.685,64.125z"/>
	<path style="fill:#2B2405;" d="M50.72,76.621c0,0.414,0.712,1.327,1.583,1.866l1.577,0.978l1.071-1.864l1.063-1.86h-2.649
		C51.91,75.741,50.72,76.209,50.72,76.621z"/>
	<polygon style="fill:#2B2405;" points="76,76.576 76,72.049 73.831,74.314 74.917,75.446 	"/>
	<path style="fill:#2B2405;" d="M246.663,60.73c0.464,0,1.317-0.767,1.891-1.702c0.578-0.931,0.671-1.698,0.207-1.698
		c-0.471,0-1.324,0.767-1.902,1.698C246.281,59.963,246.192,60.73,246.663,60.73z"/>
	<polygon style="fill:#2B2405;" points="96.572,52.801 97.706,51.771 98.833,50.741 94.31,50.741 95.439,51.771 	"/>
	<path style="fill:#2B2405;" d="M116.098,65.822c0.471,0,0.853-0.382,0.853-0.849c0-0.466-0.382-0.848-0.853-0.848
		c-0.468,0-0.846,0.382-0.846,0.848C115.252,65.44,115.63,65.822,116.098,65.822z"/>
	<path style="fill:#2B2405;" d="M96.572,80.256c0-0.466-0.382-0.849-0.849-0.849c-0.469,0-0.847,0.383-0.847,0.849
		s0.378,0.849,0.847,0.849C96.19,81.105,96.572,80.722,96.572,80.256z"/>
	<path style="fill:#2B2405;" d="M109.305,77.877c-0.574-0.935-1.261-1.78-1.675-1.78c-0.41,0-0.63,0.678-0.63,1.613v2.03h3.357
		L109.305,77.877z"/>
	<path style="fill:#2B2405;" d="M272.329,53.936c0.475,0,0.849-0.382,0.849-0.848c0-0.471-0.374-0.851-0.849-0.851
		c-0.464,0-0.849,0.38-0.849,0.851C271.48,53.554,271.865,53.936,272.329,53.936z"/>
	<circle style="fill:#2B2405;" cx="545.739" cy="49.69" r="0.851"/>
	<path style="fill:#2B2405;" d="M186.535,76.014c-0.877,0-2.004,0.929-2.578,1.863l-0.976,1.863H188v-2.03
		C188,76.776,187.417,76.014,186.535,76.014z"/>
	<path style="fill:#2B2405;" d="M321.581,33.557c0.467,0,0.849-0.383,0.849-0.851c0-0.466-0.382-0.846-0.849-0.846
		c-0.464,0-0.853,0.38-0.853,0.846C320.728,33.174,321.117,33.557,321.581,33.557z"/>
	<path style="fill:#2B2405;" d="M290.16,54.785c0-0.467-0.378-0.849-0.846-0.849c-0.471,0-0.853,0.382-0.853,0.849
		c0,0.465,0.382,0.847,0.853,0.847C289.782,55.632,290.16,55.25,290.16,54.785z"/>
	<path style="fill:#2B2405;" d="M331,40.914v1.335l1.828-1.1c0.931-0.576,1.826-1.826,1.826-2.704s-0.767-1.704-1.698-1.704H331
		v-0.356l-2.299,2.267l1.148,1.128L331,40.914z"/>
	<path style="fill:#2B2405;" d="M408.475,48.151c0.157-0.089,0.813-2.264,1.452-4.829l1.174-4.658l-5.052,1.053L401,40.773v-7.216
		l-1.502,0.006l-1.391,0.01l-0.125,9.875l-0.104,9.872l5.159-2.502C405.877,49.444,408.317,48.242,408.475,48.151z"/>
	<path style="fill:#2B2405;" d="M448.196,39.501l1.804,1.05v-3.811h-1.91c-0.931,0-1.642,0.446-1.642,0.855
		C446.448,38.01,447.265,38.925,448.196,39.501z"/>
	<polygon style="fill:#2B2405;" points="449.991,68.649 451,69.784 451,65.256 448.985,67.52 	"/>
	<path style="fill:#2B2405;" d="M47.324,78.56c0,0.464,0.38,0.847,0.849,0.847c0.467,0,0.847-0.383,0.847-0.847
		c0-0.469-0.38-0.849-0.847-0.849C47.704,77.711,47.324,78.091,47.324,78.56z"/>
	<path style="fill:#2B2405;" d="M37.983,72.828c-0.576-0.933-1.34-1.805-1.696-1.805c-0.357,0-1.124,0.926-1.7,1.858l-1.047,1.86
		h5.494L37.983,72.828z"/>
	<path style="fill:#2B2405;" d="M451.486,71.767c0,0.464,0.382,0.848,0.853,0.848c0.468,0,0.846-0.384,0.846-0.848
		c0-0.469-0.378-0.851-0.846-0.851C451.868,70.916,451.486,71.298,451.486,71.767z"/>
	<path style="fill:#2B2405;" d="M13,64.125c0,0.931,0.899,1.697,1.778,1.697c0.883,0,2.161-0.609,2.739-1.54l1.141-1.541H13V64.125z
		"/>
	<path style="fill:#2B2405;" d="M43.078,47.145c0.466,0,0.849-0.386,0.849-0.851c0-0.469-0.384-0.849-0.849-0.849
		c-0.468,0-0.849,0.38-0.849,0.849C42.229,46.759,42.611,47.145,43.078,47.145z"/>
	<polygon style="fill:#2B2405;" points="40.106,82.413 42.229,83.178 44.352,82.459 46.476,81.741 37.983,81.741 	"/>
	<path style="fill:#2B2405;" d="M4.929,75.741H7v-2.845c0-1.709-0.725-3.621-1.348-4.247c-0.624-0.617-2.26-1.129-3.504-1.129
		c-0.951,0-1.798,0.252-2.148,0.606v1.072c0.277,0.813,0.863,2.089,1.56,3.393C2.526,74.397,4.03,75.741,4.929,75.741z"/>
	<path style="fill:#2B2405;" d="M68.241,58.741H71v-1.41c0-0.931-0.287-1.698-0.704-1.698c-0.41,0-1.193,0.767-1.769,1.698
		l-0.667,1.101l-0.674-1.101c-0.576-0.931-1.202-1.698-1.613-1.698c-0.417,0-0.573,0.767-0.573,1.698v1.41h2.502H68.241z"/>
</g>
</svg>
