<?xml version="1.0" encoding="iso-8859-1"?>
<!-- Generator: Adobe Illustrator 18.1.1, SVG Export Plug-In . SVG Version: 6.00 Build 0)  -->
<svg version="1.1" id="Layer_1" xmlns="http://www.w3.org/2000/svg" xmlns:xlink="http://www.w3.org/1999/xlink" x="0px" y="0px"
	 viewBox="0 0 1920 89.031" style="enable-background:new 0 0 1920 89.031;" xml:space="preserve">
<g>
	<path style="fill:#FFFFFF;" d="M1312.506,70.697h3.198l-0.931-1.51c-0.518-0.832-1.236-1.51-1.604-1.51
		c-0.368,0-0.664,0.678-0.664,1.51V70.697z M1320.066,47.265c0-0.419-0.343-0.757-0.759-0.757c-0.413,0-0.756,0.338-0.756,0.757
		c0,0.415,0.343,0.755,0.756,0.755C1319.723,48.02,1320.066,47.68,1320.066,47.265z M1323.029,75.989l0.219-3.021l-1.969-0.28
		c-1.083-0.152-2.821,0.076-3.859,0.502l-1.893,0.782v4.024l3.754-1.005L1323.029,75.989z M1310.994,44.24
		c0-0.415-0.34-0.756-0.759-0.756c-0.413,0-0.753,0.342-0.753,0.756c0,0.414,0.339,0.754,0.753,0.754
		C1310.654,44.994,1310.994,44.654,1310.994,44.24z M1327.117,53.563l1.01-1.009l-2.014-2.017v4.032L1327.117,53.563z
		 M1252.028,80.525l1.509,0.935v-4.715h-1.509c-0.832,0-1.512,0.638-1.512,1.423C1250.516,78.949,1251.196,80.012,1252.028,80.525z
		 M1347.697,67.421l-0.966,2.519c-0.531,1.383-0.966,3.481-0.966,4.661v2.144l1.89-0.024c1.039-0.014,2.909-0.669,4.158-1.463
		l2.271-1.437L1347.697,67.421z M1342.741,74.478c0-0.418-0.337-0.758-0.753-0.758c-0.419,0-0.759,0.34-0.759,0.758
		c0,0.415,0.34,0.755,0.759,0.755C1342.405,75.233,1342.741,74.893,1342.741,74.478z M1303.431,69.187v1.51h4.714l-0.931-1.51
		c-0.511-0.832-1.576-1.51-2.357-1.51C1304.073,67.676,1303.431,68.355,1303.431,69.187z M1261.602,72.209h-4.031l1.007,1.007
		l1.013,1.008l1.004-1.008L1261.602,72.209z M1276.219,56.334c0-0.413-0.34-0.754-0.753-0.754c-0.419,0-0.762,0.342-0.762,0.754
		c0,0.415,0.343,0.757,0.762,0.757C1275.88,57.091,1276.219,56.748,1276.219,56.334z M1262.612,28.203
		c0-0.742-0.257-1.35-0.575-1.35c-0.311,0-1.429,1.034-2.478,2.3l-1.912,2.306l2.477-0.955
		C1261.497,29.98,1262.612,28.944,1262.612,28.203z M1265.636,77.339c0-0.327-1.023-0.594-2.268-0.594h-2.268v2.927l2.268-0.869
		C1264.613,78.327,1265.636,77.668,1265.636,77.339z M1306.366,64.367l1.982,0.661l-0.664-1.982
		c-0.362-1.093-1.553-2.285-2.646-2.649l-1.982-0.661l0.661,1.985C1304.079,62.81,1305.273,64.001,1306.366,64.367z
		 M1286.806,57.846c0-0.415-0.343-0.755-0.762-0.755c-0.413,0-0.753,0.34-0.753,0.755c0,0.416,0.34,0.756,0.753,0.756
		C1286.463,58.602,1286.806,58.262,1286.806,57.846z M1519.633,60.871c0-0.418-0.337-0.758-0.753-0.758
		c-0.419,0-0.757,0.34-0.757,0.758c0,0.415,0.338,0.756,0.757,0.756C1519.296,61.627,1519.633,61.286,1519.633,60.871z
		 M1287.346,63.601c0.534-0.534,0.966-1.536,0.966-2.227c0-0.694-0.635-1.261-1.423-1.261c-0.781,0-1.811,0.632-2.29,1.409
		l-0.874,1.404l2.655,1.641L1287.346,63.601z M1288.312,66.917c0-0.419-0.337-0.754-0.756-0.754c-0.413,0-0.749,0.335-0.749,0.754
		c0,0.415,0.337,0.759,0.749,0.759C1287.975,67.676,1288.312,67.332,1288.312,66.917z M1367.691,57.091
		c-0.419,0-0.759,0.34-0.759,0.755c0,0.416,0.34,0.756,0.759,0.756c0.416,0,0.753-0.34,0.753-0.756
		C1368.444,57.431,1368.108,57.091,1367.691,57.091z M1462.321,73.605l2.131-1.349l-4.159-0.027
		c-2.287-0.011-4.156,0.248-4.156,0.575c0,0.326,0.913,0.942,2.025,1.371l2.028,0.778L1462.321,73.605z M1458.401,52.508
		l5.293,0.046v-1.512c0-0.829-0.173-1.501-0.377-1.488c-0.209,0.013-1.399,0.681-2.647,1.488L1458.401,52.508z M1425.898,68.339
		c0-0.367-1.059-0.662-2.355-0.662h-2.358l0.947,1.534l0.953,1.537l1.404-0.87C1425.264,69.398,1425.898,68.707,1425.898,68.339z
		 M1433.458,41.216c0-0.418-0.34-0.756-0.756-0.756c-0.414,0-0.756,0.338-0.756,0.756c0,0.414,0.341,0.758,0.756,0.758
		C1433.118,41.974,1433.458,41.631,1433.458,41.216z M1459.16,55.579h-4.717l0.935,1.512c0.515,0.829,1.572,1.51,2.358,1.51
		c0.783,0,1.423-0.681,1.423-1.51V55.579z M1469.69,64.751c0.861-1.612,1.566-3.311,1.566-3.781c0-0.472-0.908-0.856-2.019-0.856
		c-1.107,0-2.468,0.456-3.024,1.005c-0.554,0.557-1.009,2.26-1.009,3.781v2.776h1.461
		C1467.466,67.676,1468.829,66.358,1469.69,64.751z M1373.739,69.187l-0.937,1.51h3.202v-1.51c0-0.832-0.302-1.51-0.667-1.51
		C1374.968,67.676,1374.25,68.355,1373.739,69.187z M1512.075,51.8c0-0.419-0.338-0.758-0.756-0.758
		c-0.413,0-0.754,0.338-0.754,0.758c0,0.414,0.341,0.754,0.754,0.754C1511.737,52.554,1512.075,52.214,1512.075,51.8z
		 M1491.409,62.004l0.935-4.912h-2.57l-0.956,4.777l-0.955,4.777l0.766,0.766c0.421,0.421,1.01,0.481,1.305,0.135
		C1490.233,67.2,1490.895,64.706,1491.409,62.004z M1488.641,73.721c-0.418,0-0.756,0.34-0.756,0.758
		c0,0.415,0.338,0.755,0.756,0.755c0.414,0,0.756-0.34,0.756-0.755C1489.397,74.061,1489.056,73.721,1488.641,73.721z
		 M1385.076,47.01l1.008-1.008l1.005-1.007h-4.028l1.004,1.007L1385.076,47.01z M1436.302,66.163h4.891l-0.932-1.513
		c-0.513-0.831-1.196-1.512-1.514-1.512c-0.317,0-0.997,0.681-1.51,1.512L1436.302,66.163z M1385.832,70.697
		c-0.416,0-0.756,0.342-0.756,0.756c0,0.414,0.34,0.756,0.756,0.756c0.418,0,0.754-0.342,0.754-0.756
		C1386.586,71.039,1386.249,70.697,1385.832,70.697z M1379.784,69.187c-0.413,0-0.756,0.338-0.756,0.756
		c0,0.413,0.343,0.754,0.756,0.754c0.416,0,0.756-0.341,0.756-0.754C1380.54,69.525,1380.2,69.187,1379.784,69.187z
		 M1405.236,66.163l-2.017-2.017v4.031l1.007-1.007L1405.236,66.163z M1407.753,52.554h3.203l-0.934-1.512
		c-0.513-0.829-1.232-1.512-1.598-1.512c-0.372,0-0.672,0.683-0.672,1.512V52.554z M1437.237,72.447h-7.561l1.891,0.762l1.89,0.762
		l1.89-0.762L1437.237,72.447z M1428.166,69.187c-0.416,0-0.754,0.338-0.754,0.756c0,0.413,0.338,0.754,0.754,0.754
		c0.418,0,0.756-0.341,0.756-0.754C1428.922,69.525,1428.583,69.187,1428.166,69.187z M1434.968,50.799V49.53h-4.532v3.024h-4.538
		v1.515c0,0.827,0.307,1.51,0.686,1.51c0.373,0,2.414-0.791,4.534-1.755C1433.237,52.859,1434.968,51.498,1434.968,50.799z
		 M1298.898,72.209v-1.512h-3.205l0.934,1.512c0.515,0.832,1.239,1.512,1.601,1.512
		C1298.597,73.721,1298.898,73.041,1298.898,72.209z M1047.416,56.585l1.01-1.005l-2.017-2.017v4.032L1047.416,56.585z
		 M1069.091,63.895c0-0.418-0.34-0.758-0.759-0.758c-0.416,0-0.753,0.34-0.753,0.758c0,0.413,0.337,0.755,0.753,0.755
		C1068.751,64.65,1069.091,64.308,1069.091,63.895z M1074.872,78.595l2.878-1.093l-0.928-2.593l-0.931-2.589l-2.259,1.393
		l-2.255,1.393L1074.872,78.595z M1073.623,33.566c0-0.364-0.68-0.667-1.509-0.667h-1.512v3.205l1.512-0.935
		C1072.944,34.655,1073.623,33.934,1073.623,33.566z M1055.484,50.286c0-0.416-0.337-0.756-0.759-0.756
		c-0.416,0-0.753,0.34-0.753,0.756c0,0.415,0.337,0.756,0.753,0.756C1055.147,51.042,1055.484,50.701,1055.484,50.286z
		 M1022.221,67.676h2.929l-0.87-2.271c-0.483-1.247-1.14-2.268-1.468-2.268c-0.324,0-0.591,1.021-0.591,2.268V67.676z
		 M1038.439,56.493l0.912-0.913l-2.894,0.119l-2.897,0.117l3.967,1.588L1038.439,56.493z M1045.903,52.05l1.01-1.008h-4.031
		l1.004,1.008l1.013,1.009L1045.903,52.05z M1049.436,61.627v-1.514h-4.72l0.937,1.514c0.515,0.83,1.576,1.51,2.357,1.51
		C1048.794,63.137,1049.436,62.458,1049.436,61.627z M1918.556,33.11l-3.249-2.025l1.793-1.11l1.793-1.107l-1.571-4.136
		l-1.575-4.139l0.873-3.475l0.872-3.478l-3.894-0.743l-3.891-0.745v1.871c0,1.032,0.98,2.691,2.174,3.683l2.181,1.807l-1.82,4.739
		l-2.23-2.859l-2.225-2.859l1.175,3.026c0.645,1.663,1.636,6.254,2.2,10.206l1.023,7.18h-5.501v2.727l-9.008,3.14l-0.815-1.32
		l-0.815-1.32l-4.509,0.13l-4.509,0.129v1.155c0,0.635,0.661,1.383,1.47,1.658l1.477,0.505l-0.896,3.402
		c-0.494,1.872-1.415,3.402-2.052,3.402c-0.639,0-1.653-1.529-2.252-3.402c-0.602-1.871-0.998-4.763-0.88-6.426l0.209-3.024
		l-3.758,4.16c-2.068,2.287-4.474,4.158-5.344,4.158h-1.583v-4.958l2.646-2.088l2.646-2.093l-5.498,0.924l-5.495,0.926l-0.978-1.582
		l-0.978-1.58l-2.234,0.856l-2.185,0.839l0.608,0.989l0.894,1.445l-1.02,2.668l-1.027,2.665l2.579-0.988l2.581-0.989l-2.695,3.67
		l-2.692,3.675l-2.711-3.615l-2.706-3.611l-5.986,2.112c-3.291,1.161-5.986,1.718-5.986,1.239c0-0.481-0.901-0.13-2.001,0.786
		l-2.005,1.659l-1.776-1.776l-1.779-1.779v1.579c0,0.87-1.553,3.386-3.451,5.593c-1.895,2.208-4.107,4.013-4.914,4.013h-1.463
		l-0.213-3.7l-0.216-3.699l2.485-0.659l2.479-0.663l-3.329-0.173c-1.838-0.098-5.046,0.604-7.137,1.556l-3.804,1.734l0.799,1.288
		l0.797,1.295h-5.257c-2.89,0-6.333,0.411-7.648,0.916l-2.39,0.918v-3.345h4.534V50.67l4.536,3.769l0.176-1.321
		c0.094-0.726,0.265-2.34,0.376-3.588l0.203-2.265l-3.402-2.76l-3.402-2.752v-4.067l3.78-1.531l-2.268-1.605l-2.268-1.603
		l-4.158-0.024l-4.158-0.024v4.334l2.868,0.91l2.87,0.91l-0.748,2.867l-0.751,2.866l-2.12-0.815l-2.119-0.812l-0.076,2.81
		l-0.079,2.806l-5.09-11.341h-1.915c-1.048,0-2.33-0.005-2.838-0.013l-0.929-0.013l-0.554,7.039
		c-0.303,3.872-0.906,7.393-1.338,7.825l-0.786,0.786v-9.67l-2.555-0.98l-2.557-0.98l-0.593,1.783
		c-0.327,0.978-1.256,1.782-2.071,1.782h-1.477l1.039-1.674l1.031-1.674l-3.402,1.08l-3.404,1.081l1.037-1.675l1.036-1.672h7.38
		v-6.048h1.512c0.829,0,1.512-0.637,1.512-1.412v-1.41l-6.046-1.918l1.531-2.856l1.531-2.862l-3.422-1.801
		c-1.882-0.991-3.953-2.549-4.604-3.464l-1.177-1.664l1.961,8.436l-2.655,2.935l-2.657,2.935l3.61,1.445l3.613,1.442l-5.114,0.194
		l-1.167,1.888c-0.643,1.042-1.189,3.931-1.225,6.426l-0.056,4.531l-2.266,0.011l-2.268,0.002l-0.016,2.706l-0.009,2.705
		l-2.182,1.348c-1.202,0.743-2.679,1.042-3.285,0.669l-1.102-0.683l-1.769,2.865l1.533,0.95l1.539,0.953v5.687l-1.644,1.015
		l-1.642,1.018l-1.682-1.682l-1.685-1.684l2.19-0.045l2.197-0.047l-2.586-1.504l-2.585-1.507l1.915-4.98l-2.531,0.972l-2.532,0.97
		l-0.224-1.466c-0.125-0.804-0.295-2.311-0.378-3.353c-0.084-1.04-0.834-2.452-1.663-3.14l-1.51-1.25l1.889-0.767l1.886-0.765
		v-3.963l-2.082-0.797l-2.082-0.797l-3.191,3.188l-2.6-0.998l-2.601-1.002l5.422-3.964l-2.099-0.799l-2.104-0.802l-4.896,0.727
		l-4.901,0.726l0.829,1.34l0.831,1.345h-3.198v-4.717l-3.026,1.871v-3.381l-1.518,0.935l-1.513,0.94l1.569,2.932l1.567,2.934h11.989
		v3.021c0,1.664-0.028,3.535-0.062,4.158l-0.061,1.134l-2.965-0.121l-2.958-0.117v5.532h1.51c0.829,0,1.428,0.508,1.334,1.132
		c-0.099,0.623-0.099,1.693,0,2.376l0.178,1.242l2.376-2.374c1.307-1.307,3.346-2.376,4.534-2.376h2.163v3.348l-2.161-0.829
		l-2.152-0.829l-3.588,4.317l0.939,4.178l0.94,4.179l-2.16-3.78l-2.155-3.78l-3.526-0.151c-1.938-0.083-5.971-0.65-8.961-1.259
		l-5.443-1.108l-2.497,2.501l-2.5,2.5l-3.402-0.273c-1.872-0.153-4.678-0.203-6.234-0.111l-2.833,0.168l1.887,2.268l1.881,2.27
		h-2.266c-1.242,0-4.495,0.446-7.22,0.989l-4.958,0.991l1.075-1.744l1.08-1.747h7.383v-4.482l-4.158-0.931
		c-2.289-0.512-6.322-1.479-8.967-2.147l-4.811-1.212l-1.626,4.232l1.844,0.18c1.015,0.099,2.422,0.076,3.133-0.054
		c0.71-0.126,2.67,0.208,4.355,0.742l3.067,0.977l-1.876,1.161l-1.88,1.163l-2.5-0.656l-2.5-0.654l-3.759,1.501l-3.756,1.499
		l6.802,0.192v4.274l-4.441-1.679l-4.444-1.677l0.686-1.11l0.688-1.112l-1.699-1.048l-1.696-1.05l2.052-1.301l2.052-1.299
		l-2.459-0.025l-2.457-0.022l-0.907,4.539l-0.908,4.533h-2.576l0.67-4.533l0.664-4.539h-3.017l-0.789,3.026l-0.789,3.024h-3.632
		l1.742-4.537h-4.766l1.742,4.537h-1.34c-0.735,0-1.646-0.85-2.022-1.892l-0.681-1.89l-6.267,3.696l-24.369,2.028v-7.741
		l-1.89-0.762l-1.89-0.762l1.89-0.117l1.89-0.119v-5.975l-3.878,1.474c-2.135,0.813-4.555,1.475-5.382,1.475h-1.502l0.935-1.51
		l0.932-1.512l-1.156-1.877l-1.159-1.875l-1.774,7.531l-4.469,0.415c-2.458,0.229-5.606,0.441-6.993,0.483l-2.523,0.065
		l-0.883,2.301l-0.885,2.303l0.851,1.374l0.85,1.378h7.383v-1.513c0-0.831,0.677-1.513,1.51-1.513h1.51v7.189l-2.558,2.073
		l-2.556,2.077l1.07-1.785l1.069-1.787l-1.375-0.851l-1.378-0.851l-0.956,2.498l-0.961,2.497l-3.038-3.262
		c-1.674-1.794-3.694-3.26-4.494-3.26h-1.45v-3.203l1.888,1.066l1.892,1.066l-1.761-1.901l-1.755-1.906l-1.706,1.054l-1.707,1.053
		l0.972,3.275c0.532,1.801,2.092,4.217,3.462,5.368l2.495,2.093l-2.768-0.959c-1.525-0.53-3.737-0.959-4.915-0.959h-2.144v-7.557
		l-1.134,0.003c-0.623,0.003-3.333,1.347-6.022,2.984l-4.89,2.983l-4.96-1.907l-2.832,5.069l-1.484-0.915l-1.48-0.916l0.915-2.894
		l0.924-2.897h-3.361l0.441-2.439l0.446-2.439l-7.92-0.661l-7.92-0.661l0.907,2.363l0.908,2.358l-2.296-0.883l-2.29-0.877
		l-1.066,4.844l-1.064,4.842l-2.025-3.28l-3.735,1.912l-3.736,1.915l-2.695-1.609l-2.689-1.605l-1.585,2.265l-1.58,2.269
		l-1.534-3.781h-4.386l3.237-6.045h4.428v-3.135l-2.932,1.571l-2.934,1.567l-0.829-1.342l-0.832-1.342l3.36-0.881l3.357-0.878
		l-1.485-1.414c-0.818-0.776-2.849-1.675-4.509-1.993l-3.025-0.58l0.257-4.482l0.26-4.482l-1.493,5.294h-1.857
		c-1.02,0-2.659-0.807-3.645-1.79l-1.787-1.791l-0.911,0.912l-0.906,0.908l4.687,4.174l4.687,4.179l-0.708,5.849l-0.702,5.851
		l2.948,2.949l2.953,2.951h-2.147c-1.18,0-3.218-0.413-4.525-0.916l-2.384-0.915l0.926-1.504l0.931-1.506l-3.107,1.664
		c-1.706,0.915-3.537,1.663-4.062,1.663h-0.958l1.018-3.203l1.015-3.203l-2.048,0.715l-2.047,0.713l0.803,4.614l-2.973,0.778
		l-2.978,0.775l-0.451-1.15c-0.249-0.632-2.063-1.653-4.039-2.27l-3.591-1.116l2.066,3.348h-5.136l-2.009-2.646l-1.904-2.508
		l2.125,0.035l8.109,0.129l1.772-4.62l-4.384-4.38l-4.016,6.43h-8.165l-1.427,2.314l5.876,0.09l-0.045,1.61l-0.044,1.749
		l-3.026-0.789l-3.026-0.791v3.98l-1.744-1.742l-1.742-1.742l-2.794,1.493l-2.789,1.495v-3.13h-4.539v1.512
		c0,0.834-0.564,1.512-1.258,1.512h-1.261v-4.536h5.22l0.727-1.89c0.397-1.039,0.751-2.495,0.788-3.234
		c0.035-0.737,0.951-1.891,2.041-2.565l1.974-1.22l-2.603-0.999l-2.603-0.997l-4.536,1.736v4.634h3.203l-0.935,1.51l-0.935,1.512
		h-6.775l-1.814-1.814l-1.812-1.815l-1.8,1.798l-1.793,1.793l4.818,1.677l4.819,1.68v2.729h-4.534v-3.493l-2.867,2.595l-2.87,2.595
		l-0.666-1.982l-0.669-1.984l-2.381,1.965l-2.376,1.961l-7.318,0.68c-2.322,0.216-5.633,0.392-8.889,0.497l1.321-1.321l-2.012-2.017
		v3.362c-2.144,0.062-4.233,0.092-5.96,0.073c-4.523-0.046-8.775-0.429-9.45-0.842c-0.673-0.414-1.223-1.323-1.223-2.019
		c0-0.692,0.986-1.637,2.192-2.101l2.19-0.842l-1.682,4.385l1.294-0.025c0.715-0.014,2.171-0.575,3.238-1.255l1.941-1.232
		l-0.969-2.523c-0.532-1.39-1.484-2.525-2.114-2.525c-0.631,0-2.964,1.428-5.181,3.172l-4.034,3.173l0.425-2.041l0.432-2.034
		l-5.797,0.458l-5.792,0.461l-1.944-1.614l-1.941-1.609l-1.896,2.284l-1.903,2.287h-4.488l1.842-5.292l-3.786,4.536l-4.911,0.476
		l-4.917,0.473v-4.73h-2.948l0.953,4.772l0.956,4.769l-1.833-1.133l-1.836-1.132l-3.996,1l-3.993,1l2.189,1.385l2.192,1.387
		l-3.488,0.022l-3.494,0.024l0.746-1.204l0.743-1.209l-1.274-2.061l-1.274-2.064l-2.684,2.681l-2.681,2.681l-1.725-2.365
		l-1.731-2.363l-6.365,1.668l0.857,2.497l0.851,2.497l-4.847-6.048l-0.092,3.781h-5.873l-0.946,1.534l-0.953,1.537l-1.404-0.87
		c-0.775-0.476-1.41-1.582-1.41-2.452v-1.585l2.027,0.773l2.033,0.782l2.128-1.349l2.128-1.351l-4.532-0.202
		c-2.497-0.111-5.022-0.129-5.616-0.041l-1.077,0.16l0.801-2.095l0.807-2.098l-1.417-0.873l-1.41-0.874l-2.849,3.211l-2.846,3.208
		l1.89,0.661l1.89,0.661v4.002l-3.027-0.794l-3.024-0.786V79.77h-3.021v4.904l-2.341-1.941l-2.338-1.941l1.963-1.412l1.956-1.409
		l-2.77,0.9l-2.783,0.899l-1.709-4.536l-1.715-4.539h-3.815l-0.74,3.403c-0.413,1.868-0.931,4.693-1.166,6.269l-0.419,2.865
		l3.522,1.237l0.654-1.974l0.648-1.973l-0.159,2.27l-0.162,2.266l-3.383,0.483l-3.392,0.483v-1.374c0-0.758-1.67-2.139-3.729-3.073
		l-3.723-1.696l-1.944,1.832l-1.941,1.833l-12.099-0.207l-1.887,1.423l-1.893,1.423v-2.751l-3.192-0.243
		c-1.756-0.132-3.554-0.602-3.993-1.04l-0.8-0.8l3.532-4.256l-2.43-0.931c-1.34-0.515-3.097-0.934-3.907-0.934h-1.48l1.21,1.888
		c0.67,1.042,1.251,3.423,1.296,5.294l0.076,3.402h-2.401v-4.075l-4.565-0.132l-4.568-0.129l0.772,1.245l0.772,1.248l-5.387,1.01
		c-2.96,0.554-6.531,1.376-7.925,1.817l-2.538,0.812l4.447-3.145l-1.051-1.051l-1.055-1.056l-2.017,1.677l-2.02,1.675l-9.63-2.916
		l-9.631-2.919l-4.259,6.081l-2.001-1.658l-1.995-1.655l-1.96,3.17h-7.382v-4.533h-3.021l-0.054,2.643l-0.045,2.646l-2.068-2.727
		l-2.065-2.724l-0.797,1.968l-0.791,1.971l-3.256-4.536l-1.486,2.27l-1.49,2.266l-0.022-1.99l-0.022-1.988l-7.07,0.592l-7.074,0.594
		l-1.137,2.906c-0.626,1.601-1.185,2.317-1.242,1.591l-0.108-1.32l-2.026,1.682l-2.026,1.685l-1.001-0.994
		c-0.549-0.548-0.994-1.561-0.994-2.255v-1.259h2.179c1.194,0,2.519-0.557,2.938-1.235l0.769-1.236l-13.763,0.473l-3.183,5.571
		l-0.658,1.153H1920V34.184C1919.56,33.804,1919.077,33.437,1918.556,33.11z M1071.101,60.114l-2.01-2.015v4.031l1.007-1.01
		L1071.101,60.114z M1010.125,52.554h4.714l-0.934-1.512c-0.512-0.829-1.579-1.512-2.357-1.512c-0.785,0-1.423,0.683-1.423,1.512
		V52.554z M1861.289,39.283l0.054-0.02l-0.029-0.045L1861.289,39.283z M1861.057,38.799l0.257,0.419l0.8-2.091l0.831-2.157
		l-2.243-4.328l-2.249-4.328l0.767-1.243l0.769-1.243h-1.512c-0.83,0-1.933,0.683-2.446,1.512l-0.935,1.514h3.41l-1.922,6.046h3.229
		v1.579c0,0.864-0.816,2.446-1.811,3.51l-1.809,1.939l-3.269-0.624l-3.27-0.626l-1.807,4.709l1.459,0.902l1.453,0.901l0.872-2.268
		l0.869-2.271l2.165,0.832l2.161,0.829l2.114-1.753L1861.057,38.799z M920.766,89.031h39.25l-1.918-1.593l-2.135-1.767l-0.975,1.585
		c-0.543,0.872-1.664,1.585-2.497,1.585h-1.512l1.14-1.89l1.131-1.89l-4.355,3.367l-10.151-0.248l-10.155-0.241l-1.01-1.008
		l-1.007-1.005L920.766,89.031z M1112.238,45.244l4.606,2.228l-0.067-8.789l-0.06-8.792l-1.137-0.009l-1.134-0.005v6.424
		l-4.698-0.94l-4.701-0.937l1.045,4.147c0.569,2.284,1.153,4.22,1.293,4.299C1107.525,42.95,1109.71,44.021,1112.238,45.244z
		 M1082.698,60.781c0-0.365-0.683-0.667-1.515-0.667h-1.512v3.203l1.512-0.934C1082.015,61.869,1082.698,61.149,1082.698,60.781z
		 M1117.231,89.018l2.027-1.285l-2.014-3.226l-2.017-3.224h-4.802c-2.636,0-5.886-0.419-7.21-0.927l-2.411-0.923l0.934,2.435
		l0.931,2.436h-1.664c-0.924,0-1.677-0.619-1.677-1.375v-1.372l-16.104,0.519l-16.104,0.516l-1.08,1.756l-1.083,1.753l-4.491-2.32
		l-4.488-2.324l-4.199,2.179c-2.309,1.199-5.069,2.179-6.133,2.179h-1.935l-0.924-2.406l-0.918-2.403l0.848-1.376l0.848-1.375
		h-4.507l-2.017,6.344l-3.872-0.742l-3.875-0.738l-4.869,2.733l-4.873,2.733l-1.537-1.534l-1.534-1.537l-3.176,1.009l-3.176,1.008
		v1.407c0,0.035-0.019,0.06-0.019,0.091h98.901c0.365-2.216,0.712-4.234,0.778-4.533c0.07-0.311,1.105,0.251,2.3,1.242l2.179,1.807
		l-0.568,1.483h3.516L1117.231,89.018z M1123.825,89.031l0.194-0.191h-4.031l0.194,0.191H1123.825z M1239.428,62.632l1.01-1.005
		h-4.031l1.007,1.005l1.007,1.009L1239.428,62.632z M1217.254,68.428c0-0.415-0.34-0.751-0.756-0.751
		c-0.413,0-0.753,0.337-0.753,0.751c0,0.418,0.34,0.759,0.753,0.759C1216.914,69.187,1217.254,68.845,1217.254,68.428z
		 M1215.745,62.383c0-0.418-0.343-0.756-0.756-0.756c-0.422,0-0.756,0.338-0.756,0.756c0,0.414,0.333,0.754,0.756,0.754
		C1215.402,63.137,1215.745,62.798,1215.745,62.383z M1214.233,48.776c0-0.416-0.34-0.756-0.759-0.756
		c-0.416,0-0.753,0.34-0.753,0.756c0,0.414,0.337,0.754,0.753,0.754C1213.894,49.53,1214.233,49.19,1214.233,48.776z
		 M1219.773,76.241l1.01-1.008h-4.034l1.007,1.008l1.013,1.005L1219.773,76.241z M1010.881,66.163c-0.416,0-0.756,0.335-0.756,0.754
		c0,0.415,0.34,0.759,0.756,0.759c0.416,0,0.753-0.344,0.753-0.759C1011.634,66.498,1011.297,66.163,1010.881,66.163z
		 M1251.273,52.554c-0.515-0.829-1.274-1.512-1.693-1.512c-0.413,0-0.331,0.683,0.184,1.512c0.511,0.832,1.27,1.515,1.683,1.515
		C1251.867,54.069,1251.787,53.386,1251.273,52.554z M1229.353,47.265c0-0.419-0.343-0.757-0.756-0.757
		c-0.422,0-0.756,0.338-0.756,0.757c0,0.415,0.333,0.755,0.756,0.755C1229.01,48.02,1229.353,47.68,1229.353,47.265z
		 M1201.63,74.726l1.007-1.005h-4.031l1.01,1.005l1.01,1.01L1201.63,74.726z M1233.885,71.293c0-0.326-0.638-0.595-1.423-0.595
		s-1.839,0.672-2.344,1.495l-0.924,1.495l2.347-0.901C1232.828,72.29,1233.885,71.618,1233.885,71.293z M1235.397,66.917
		c0-0.419-0.337-0.754-0.756-0.754c-0.416,0-0.756,0.335-0.756,0.754c0,0.415,0.34,0.759,0.756,0.759
		C1235.061,67.676,1235.397,67.332,1235.397,66.917z M987.443,50.286c0-0.416-0.34-0.756-0.753-0.756
		c-0.419,0-0.756,0.34-0.756,0.756c0,0.415,0.337,0.756,0.756,0.756C987.103,51.042,987.443,50.701,987.443,50.286z M988.961,58.689
		c0-0.781-0.686-1.842-1.518-2.355l-1.509-0.932v4.712h1.509C988.276,60.114,988.961,59.472,988.961,58.689z M999.539,57.846
		c0-0.415-0.337-0.755-0.753-0.755c-0.419,0-0.756,0.34-0.756,0.755c0,0.416,0.337,0.756,0.756,0.756
		C999.202,58.602,999.539,58.262,999.539,57.846z M1185.506,29.119c0-0.414-0.346-0.753-0.759-0.753
		c-0.416,0-0.756,0.338-0.756,0.753c0,0.416,0.34,0.758,0.756,0.758C1185.16,29.876,1185.506,29.535,1185.506,29.119z
		 M1007.854,88.841l0.934-1.512l-1.22-0.09c-0.673-0.048-3.945-0.361-7.27-0.692c-3.329-0.335-11.641-0.942-18.48-1.348
		l-12.429-0.745l-1.81,2.924l-2.945-1.822l-2.204,1.83l-1.982,1.647h47.289L1007.854,88.841z M1180.714,67.136
		c0.279-0.675,0.279-1.416,0-1.652c-0.273-0.232-1.347-0.117-2.392,0.251c-1.039,0.377-1.887,1.242-1.887,1.928v1.255l1.887-0.276
		C1179.367,68.487,1180.44,67.811,1180.714,67.136z M1177.442,35.416l1.003-1.004l-2.01-2.019v4.032L1177.442,35.416z
		 M985.934,44.24c0-0.415-0.34-0.756-0.756-0.756c-0.416,0-0.759,0.342-0.759,0.756c0,0.414,0.343,0.754,0.759,0.754
		C985.595,44.994,985.934,44.654,985.934,44.24z M1174.421,79.264l1.001-1.007h-4.031l1.01,1.007l1.01,1.009L1174.421,79.264z
		 M1782.201,39.957l1.007-1.01l-2.014-2.015v4.032L1782.201,39.957z M1524.321,67.295c0.975-1.872,1.232-2.9,0.572-2.28
		l-1.199,1.119l-3.58-2.968l-0.832,0.829l-0.829,0.829l0.766,2.936c0.424,1.614,1.347,2.936,2.048,2.936
		C1521.974,70.697,1523.348,69.166,1524.321,67.295z M1762.011,45.75l1.021-6.804h-3.005v4.537h-4.536v3.234l3.256-0.481
		L1762.011,45.75z M1759.273,51.042c-0.419,0-0.759,0.338-0.759,0.758c0,0.414,0.34,0.754,0.759,0.754
		c0.416,0,0.755-0.34,0.755-0.754C1760.027,51.38,1759.689,51.042,1759.273,51.042z M1745.41,40.46h7.058v-2.673l-3.529-0.672
		l-3.529-0.675V40.46z M1764.565,33.658c0-0.419-0.342-0.759-0.758-0.759c-0.415,0-0.756,0.34-0.756,0.759
		c0,0.415,0.341,0.755,0.756,0.755C1764.223,34.412,1764.565,34.073,1764.565,33.658z M1782.706,27.609
		c0-0.416-0.342-0.756-0.756-0.756c-0.416,0-0.756,0.34-0.756,0.756c0,0.414,0.34,0.758,0.756,0.758
		C1782.365,28.366,1782.706,28.023,1782.706,27.609z M1752.468,45.75c0-0.414-0.338-0.756-0.758-0.756
		c-0.414,0-0.753,0.342-0.753,0.756c0,0.415,0.338,0.758,0.753,0.758C1752.129,46.508,1752.468,46.165,1752.468,45.75z
		 M1757.002,35.168c0-0.418-0.338-0.756-0.753-0.756c-0.416,0-0.758,0.338-0.758,0.756c0,0.414,0.342,0.756,0.758,0.756
		C1756.663,35.924,1757.002,35.583,1757.002,35.168z M1793.288,29.786v-1.42h-5.87l-0.939,1.522l-0.944,1.521l2.292,0.88
		l2.293,0.879l1.582-0.978C1792.573,31.651,1793.288,30.569,1793.288,29.786z M1756.5,41.467l1.007-1.007h-4.032l1.007,1.007
		l1.01,1.01L1756.5,41.467z M1698.04,29.119c0-0.414-0.338-0.753-0.756-0.753c-0.416,0-0.754,0.338-0.754,0.753
		c0,0.416,0.338,0.758,0.754,0.758C1697.701,29.876,1698.04,29.535,1698.04,29.119z M1701.821,54.069
		c-0.419,0-0.758,0.337-0.758,0.753c0,0.416,0.338,0.758,0.758,0.758c0.414,0,0.753-0.342,0.753-0.758
		C1702.574,54.406,1702.235,54.069,1701.821,54.069z M1699.046,38.445l1.009-1.01h-4.032l1.007,1.01l1.01,1.007L1699.046,38.445z
		 M1702.523,45.095c0.858-1.607,1.564-3.651,1.564-4.536c0-0.884-0.511-1.59-1.134-1.563c-0.624,0.025-2.316,0.943-3.758,2.041
		l-2.62,1.988l1.065,1.067l1.066,1.066l-2.223,1.41l-2.225,1.404l6.699,0.048L1702.523,45.095z M1730.891,33.814l0.913-0.915
		l-2.897,0.121l-2.897,0.121l3.969,1.587L1730.891,33.814z M1719.207,54.069c-1.248-0.807-2.949-1.47-3.78-1.47h-1.51l2.265,1.47
		c1.248,0.805,2.948,1.461,3.781,1.461h1.51L1719.207,54.069z M1748.562,48.938l-2.395-0.921l0.599,1.796
		c0.329,0.988,1.407,2.065,2.395,2.397l1.796,0.596v-1.476C1750.957,50.518,1749.877,49.44,1748.562,48.938z M1708.118,52.05
		l1.007-1.008h-4.029l1.005,1.008l1.011,1.009L1708.118,52.05z M1713.157,54.069v-1.515h-3.203l0.937,1.515
		c0.515,0.827,1.232,1.51,1.603,1.51C1712.859,55.579,1713.157,54.896,1713.157,54.069z M1838.295,40.757l0.476-1.437l-4.364-1.676
		l0.746,5.082l1.333-0.263C1837.215,42.317,1838.028,41.55,1838.295,40.757z M1898.093,37.165c1.396-1.394,2.541-3.194,2.541-3.994
		c0-0.805-0.913-1.807-2.027-2.239l-2.03-0.777l-2.13,1.35l-2.128,1.35l5.009,0.044l-0.89,3.402l-0.888,3.402L1898.093,37.165z
		 M1892.064,38.947l-2.015-2.015v4.032l1.01-1.007L1892.064,38.947z M1892.539,28.552l1.545-4.089l-1.639-2.84
		c-0.905-1.563-3.848-4.839-6.55-7.277l-4.915-4.434V5.779l2.422,0.931l2.419,0.927l-0.559-2.866l-0.557-2.865l-2.999-0.155
		c-1.65-0.084-3.335-0.307-3.753-0.492c-0.414-0.187-1.799-0.546-3.082-0.799L1872.545,0l-3.77,3.246L1865,6.489l1.355,5.721
		l1.35,5.721l-2.433,2.689c-1.34,1.478-2.436,3.51-2.436,4.512v1.817l2.647,0.992c1.455,0.543,3.48,2.055,4.506,3.353l1.861,2.365
		l3.081-4.539l1.34,2.087l1.345,2.081l3.154-1.947l1.587,2.566l4.323-0.632l4.318-0.637L1892.539,28.552z M1899.122,27.609
		c0-0.416-0.34-0.756-0.758-0.756c-0.414,0-0.753,0.34-0.753,0.756c0,0.414,0.338,0.758,0.753,0.758
		C1898.782,28.366,1899.122,28.023,1899.122,27.609z M1497.711,73.721c-0.414,0-0.754,0.34-0.754,0.758
		c0,0.415,0.34,0.755,0.754,0.755c0.418,0,0.759-0.34,0.759-0.755C1498.47,74.061,1498.129,73.721,1497.711,73.721z
		 M1794.802,35.168c0-0.418-0.342-0.756-0.756-0.756c-0.418,0-0.758,0.338-0.758,0.756c0,0.414,0.34,0.756,0.758,0.756
		C1794.46,35.924,1794.802,35.583,1794.802,35.168z M1496.103,63.92c0.132,1.677,0.757,3.888,1.391,4.914
		c0.635,1.024,1.868,1.863,2.738,1.863h1.582l-1.123-2.646c-0.616-1.455-1.034-4.177-0.932-6.048
		c0.102-1.871,0.024-3.392-0.173-3.381c-0.198,0.018-1.118,0.527-2.046,1.136l-1.682,1.113L1496.103,63.92z M1845.453,43.484
		c-0.419,0-0.759,0.342-0.759,0.756c0,0.414,0.34,0.754,0.759,0.754c0.415,0,0.753-0.34,0.753-0.754
		C1846.206,43.825,1845.868,43.484,1845.453,43.484z M1807.653,40.46c0.414,0,0.756-0.342,0.756-0.758
		c0-0.416-0.342-0.756-0.756-0.756c-0.418,0-0.758,0.34-0.758,0.756C1806.895,40.119,1807.235,40.46,1807.653,40.46z
		 M1905.17,38.192c0-0.418-0.338-0.758-0.754-0.758c-0.418,0-0.759,0.34-0.759,0.758c0,0.414,0.341,0.754,0.759,0.754
		C1904.831,38.947,1905.17,38.607,1905.17,38.192z M1816.302,41.897l0.623-4.256l-2.83-0.739l-2.838-0.742l1.785,2.149l1.783,2.151
		h-4.906v4.183l2.881,0.753l2.876,0.753L1816.302,41.897z M1815.211,49.53c-0.415,0-0.753,0.34-0.753,0.756
		c0,0.415,0.338,0.756,0.753,0.756c0.418,0,0.758-0.342,0.758-0.756C1815.969,49.87,1815.629,49.53,1815.211,49.53z
		 M1821.508,42.977l1.01-1.004l-2.016-2.017v4.031L1821.508,42.977z M1847.718,40.46v-1.514h-3.205l0.94,1.514
		c0.513,0.829,1.232,1.513,1.598,1.513C1847.416,41.974,1847.718,41.289,1847.718,40.46z M1803.872,29.876h3.2l-0.929-1.51
		c-0.516-0.834-1.237-1.513-1.603-1.513c-0.368,0-0.668,0.68-0.668,1.513V29.876z M1826.552,39.702c0-0.416-0.34-0.756-0.757-0.756
		c-0.418,0-0.758,0.34-0.758,0.756c0,0.416,0.34,0.758,0.758,0.758C1826.212,40.46,1826.552,40.119,1826.552,39.702z
		 M1693.505,36.682c0-0.419-0.341-0.758-0.757-0.758c-0.418,0-0.758,0.338-0.758,0.758c0,0.413,0.34,0.753,0.758,0.753
		C1693.164,37.435,1693.505,37.095,1693.505,36.682z M1843.182,39.702c0-0.416-0.34-0.756-0.756-0.756
		c-0.415,0-0.755,0.34-0.755,0.756c0,0.416,0.34,0.758,0.755,0.758C1842.842,40.46,1843.182,40.119,1843.182,39.702z
		 M1828.65,46.171l3.61-0.297l-0.748-1.952c-0.414-1.074-0.847-1.873-0.964-1.776c-0.119,0.094-1.407,0.488-2.864,0.867
		l-2.647,0.691v2.77L1828.65,46.171z M1756.158,48.02h-2.357l0.948,1.534l0.951,1.537l1.405-0.87
		c0.775-0.478,1.407-1.167,1.407-1.536C1758.514,48.32,1757.456,48.02,1756.158,48.02z M1599.011,54.069l0.932-1.515h-4.712v1.515
		c0,0.827,0.64,1.51,1.423,1.51C1597.437,55.579,1598.496,54.896,1599.011,54.069z M1597.586,46.508h2.181v-4.534h-2.017
		c-1.107,0-2.452,0.432-2.984,0.966l-0.964,0.964l0.804,1.304C1595.048,45.92,1596.389,46.508,1597.586,46.508z M1592.207,54.984
		c0-0.327-1.023-0.985-2.271-1.466l-2.266-0.867v2.929h2.266C1591.184,55.579,1592.207,55.311,1592.207,54.984z M1596.741,35.168
		c0-0.418-0.34-0.756-0.754-0.756c-0.418,0-0.756,0.338-0.756,0.756c0,0.414,0.338,0.756,0.756,0.756
		C1596.401,35.924,1596.741,35.583,1596.741,35.168z M1584.143,44.491l1.007-1.007h-4.032l1.009,1.007l1.008,1.009L1584.143,44.491z
		 M1611.268,41.34l0.915-2.394h-1.309c-0.721,0-2.163,1.363-3.197,3.027l-1.89,3.021h2.279c1.255,0,2.282-0.286,2.282-0.631
		C1610.349,44.016,1610.764,42.655,1611.268,41.34z M1619.421,66.163V64.65h-3.207l0.937,1.513c0.516,0.831,1.236,1.513,1.603,1.513
		C1619.12,67.676,1619.421,66.994,1619.421,66.163z M1617.151,49.53c-0.316,0-0.996,0.683-1.51,1.512l-0.937,1.512h4.893
		l-0.934-1.512C1618.151,50.213,1617.467,49.53,1617.151,49.53z M1610.852,52.554h-4.032l1.007,1.009l1.01,1.007l1.008-1.007
		L1610.852,52.554z M1563.652,66.597l1.682-1.682l-2.034-3.287h-10.58l0.937,1.51l0.929,1.512h7.383v3.629L1563.652,66.597z
		 M1581.624,60.114l5.292-0.046l-2.271-1.466c-1.245-0.805-2.692-1.477-3.218-1.49c-0.518-0.011-1.793,0.997-2.827,2.246
		l-1.885,2.27l-7.941,0.089l4.534,2.657l4.159-0.792l4.156-0.798V60.114z M1533.631,52.746l0.753-2.881l-2.257-3.653l-1.717,4.928
		c-0.944,2.71-1.42,5.228-1.056,5.591c0.365,0.367,1.307,0.265,2.093-0.222C1532.232,56.022,1533.217,54.331,1533.631,52.746z
		 M1537.778,60.114c0-0.832-0.681-1.512-1.51-1.512c-0.832,0-1.512,0.68-1.512,1.512c0,0.832,0.68,1.514,1.512,1.514
		C1537.096,61.627,1537.778,60.946,1537.778,60.114z M1528.544,60.114h-1.35v9.073h1.35c0.74,0,1.742-1.021,2.222-2.27l0.87-2.268
		l-0.87-2.266C1530.286,61.136,1529.284,60.114,1528.544,60.114z M1537.778,47.265c0-0.419-0.338-0.757-0.756-0.757
		c-0.415,0-0.754,0.338-0.754,0.757c0,0.415,0.34,0.755,0.754,0.755C1537.439,48.02,1537.778,47.68,1537.778,47.265z
		 M1562.723,34.111l5.435-7.258l-1.96,0.022c-1.078,0.013-2.891,0.611-4.029,1.333l-2.063,1.31l1.307,2.295L1562.723,34.111z
		 M1564.992,41.974c0.829,0,1.51-0.685,1.51-1.513c0-0.831-0.681-1.514-1.51-1.514c-0.832,0-1.51,0.683-1.51,1.514
		C1563.482,41.289,1564.16,41.974,1564.992,41.974z M1644.787,58.232l4.116-2.606l-4.536-0.261c-2.497-0.146-5.387-0.23-6.426-0.194
		l-1.89,0.072v-4.201h-2.266c-1.252,0-2.344,0.511-2.432,1.135c-0.09,0.623-0.257,2.492-0.38,4.156l-0.216,3.024l-9.826-0.443v1.17
		c0,0.648,2.041,2.02,4.534,3.053l4.537,1.88v1.328c0,0.731,0.68,1.331,1.513,1.331h1.51v-4.822l3.024-0.791l3.022-0.791v-4.536
		L1644.787,58.232z M1560.957,55.579h-4.029l1.007,1.005l1.008,1.01l1.009-1.01L1560.957,55.579z M1684.432,54.069h3.2l-0.929-1.515
		c-0.518-0.829-1.239-1.512-1.603-1.512c-0.368,0-0.668,0.683-0.668,1.512V54.069z M1662.079,53.785l-3.494,1.871l-3.489,1.868
		l-0.575-1.728l-0.578-1.726h-4.283v2.817l3.136,0.996l3.137,0.994l0.881-0.88l0.881-0.879l4.288,3.556l1.334-2.157l1.334-2.158
		l-1.288-1.288L1662.079,53.785z M1664.777,41.216c0-0.418-0.341-0.756-0.756-0.756c-0.416,0-0.756,0.338-0.756,0.756
		c0,0.414,0.34,0.758,0.756,0.758C1664.435,41.974,1664.777,41.631,1664.777,41.216z M1663.265,51.8c0-0.419-0.34-0.758-0.755-0.758
		c-0.419,0-0.756,0.338-0.756,0.758c0,0.414,0.337,0.754,0.756,0.754C1662.925,52.554,1663.265,52.214,1663.265,51.8z
		 M1624.712,45.234h-7.561l1.892,0.762l1.89,0.762l1.89-0.762L1624.712,45.234z M1691.99,33.658c0-0.419-0.34-0.759-0.753-0.759
		c-0.419,0-0.758,0.34-0.758,0.759c0,0.415,0.339,0.755,0.758,0.755C1691.65,34.412,1691.99,34.073,1691.99,33.658z
		 M1622.822,64.672l-1.89-0.022v2.67l3.335,0.875l3.337,0.874l0.778-0.782l0.776-0.776l-2.225-1.407
		C1625.714,65.329,1623.863,64.684,1622.822,64.672z M1674.854,53.563l1.01-1.009h-4.032l1.008,1.009l1.009,1.007L1674.854,53.563z
		 M1674.735,41.855l6.677-1.749v-2.671l-1.892,0.024c-1.042,0.013-2.892,0.656-4.115,1.432l-2.225,1.404l0.778,0.778
		L1674.735,41.855z M1675.362,46.508v1.512h3.2l-0.934-1.512c-0.511-0.834-1.232-1.513-1.599-1.513
		C1675.657,44.994,1675.362,45.674,1675.362,46.508z M1623.955,49.53h-3.022v6.049h3.022V49.53z M1648.147,34.322
		c0-0.781-0.683-1.423-1.512-1.423h-1.514v4.716l1.514-0.932C1647.464,36.169,1648.147,35.103,1648.147,34.322z M1647.137,38.947
		h-4.033l1.007,1.01l1.01,1.007l1.007-1.007L1647.137,38.947z M1639.577,64.146l1.01,1.008l1.007-1.008l1.007-1.009h-4.031
		L1639.577,64.146z M1634.54,67.676l6.804-0.051l-2.269-1.463c-1.247-0.807-2.776-1.479-3.402-1.491
		c-0.623-0.013-1.133,0.661-1.133,1.491V67.676z M1626.98,56.334c0-0.413-0.338-0.754-0.754-0.754c-0.419,0-0.759,0.342-0.759,0.754
		c0,0.415,0.34,0.757,0.759,0.757C1626.642,57.091,1626.98,56.748,1626.98,56.334z M1625.467,38.192
		c0-0.418-0.337-0.758-0.755-0.758c-0.416,0-0.758,0.34-0.758,0.758c0,0.414,0.342,0.754,0.758,0.754
		C1625.13,38.947,1625.467,38.607,1625.467,38.192z M1626.98,32.143c0-0.414-0.338-0.756-0.754-0.756
		c-0.419,0-0.759,0.342-0.759,0.756c0,0.415,0.34,0.756,0.759,0.756C1626.642,32.899,1626.98,32.558,1626.98,32.143z
		 M1637.562,45.75c0-0.414-0.338-0.756-0.756-0.756c-0.416,0-0.754,0.342-0.754,0.756c0,0.415,0.338,0.758,0.754,0.758
		C1637.224,46.508,1637.562,46.165,1637.562,45.75z M1642.101,38.192c0-0.418-0.34-0.758-0.757-0.758
		c-0.414,0-0.756,0.34-0.756,0.758c0,0.414,0.342,0.754,0.756,0.754C1641.761,38.947,1642.101,38.607,1642.101,38.192z"/>
	<path style="fill:#FFFFFF;" d="M607.494,69.187c0-0.832-0.296-1.51-0.664-1.51c-0.369,0-1.086,0.678-1.604,1.51l-0.931,1.51h3.199
		V69.187z M600.694,48.02c0.413,0,0.756-0.34,0.756-0.755c0-0.419-0.343-0.757-0.756-0.757c-0.416,0-0.759,0.338-0.759,0.757
		C599.935,47.68,600.278,48.02,600.694,48.02z M600.719,76.991l3.754,1.005v-4.024l-1.893-0.782
		c-1.039-0.425-2.776-0.654-3.859-0.502l-1.969,0.28l0.219,3.021L600.719,76.991z M609.765,44.994c0.413,0,0.753-0.34,0.753-0.754
		c0-0.415-0.34-0.756-0.753-0.756c-0.419,0-0.759,0.342-0.759,0.756C609.006,44.654,609.346,44.994,609.765,44.994z M593.887,54.569
		v-4.032l-2.014,2.017l1.01,1.009L593.887,54.569z M669.484,78.168c0-0.785-0.68-1.423-1.512-1.423h-1.509v4.715l1.509-0.935
		C668.804,80.012,669.484,78.949,669.484,78.168z M565.916,73.821l2.271,1.437c1.248,0.794,3.119,1.448,4.158,1.463l1.89,0.024
		v-2.144c0-1.18-0.435-3.278-0.966-4.661l-0.966-2.519L565.916,73.821z M578.012,75.233c0.419,0,0.759-0.34,0.759-0.755
		c0-0.418-0.34-0.758-0.759-0.758c-0.416,0-0.753,0.34-0.753,0.758C577.259,74.893,577.596,75.233,578.012,75.233z M615.143,67.676
		c-0.781,0-1.845,0.678-2.357,1.51l-0.931,1.51h4.714v-1.51C616.569,68.355,615.927,67.676,615.143,67.676z M659.405,73.216
		l1.004,1.008l1.013-1.008l1.007-1.007h-4.031L659.405,73.216z M644.534,57.091c0.419,0,0.762-0.343,0.762-0.757
		c0-0.413-0.343-0.754-0.762-0.754c-0.413,0-0.753,0.342-0.753,0.754C643.781,56.748,644.121,57.091,644.534,57.091z
		 M659.875,30.504l2.477,0.955l-1.912-2.306c-1.048-1.266-2.166-2.3-2.477-2.3c-0.318,0-0.575,0.608-0.575,1.35
		S658.503,29.98,659.875,30.504z M656.632,78.803l2.268,0.869v-2.927h-2.268c-1.245,0-2.268,0.267-2.268,0.594
		C654.364,77.668,655.387,78.327,656.632,78.803z M616.283,61.721l0.661-1.985l-1.982,0.661c-1.093,0.364-2.284,1.557-2.646,2.649
		l-0.664,1.982l1.982-0.661C614.727,64.001,615.921,62.81,616.283,61.721z M633.956,58.602c0.413,0,0.753-0.34,0.753-0.756
		c0-0.415-0.34-0.755-0.753-0.755c-0.419,0-0.762,0.34-0.762,0.755C633.194,58.262,633.537,58.602,633.956,58.602z M401.12,61.627
		c0.419,0,0.758-0.342,0.758-0.756c0-0.418-0.338-0.758-0.758-0.758c-0.416,0-0.753,0.34-0.753,0.758
		C400.367,61.286,400.704,61.627,401.12,61.627z M633.62,64.567l2.655-1.641l-0.874-1.404c-0.479-0.776-1.509-1.409-2.29-1.409
		c-0.788,0-1.423,0.567-1.423,1.261c0,0.691,0.432,1.693,0.966,2.227L633.62,64.567z M632.444,67.676
		c0.413,0,0.749-0.344,0.749-0.759c0-0.419-0.337-0.754-0.749-0.754c-0.419,0-0.756,0.335-0.756,0.754
		C631.688,67.332,632.025,67.676,632.444,67.676z M551.556,57.846c0,0.416,0.337,0.756,0.753,0.756c0.419,0,0.759-0.34,0.759-0.756
		c0-0.415-0.34-0.755-0.759-0.755C551.892,57.091,551.556,57.431,551.556,57.846z M459.811,74.953l2.028-0.778
		c1.112-0.429,2.025-1.045,2.025-1.371c0-0.327-1.869-0.586-4.156-0.575l-4.159,0.027l2.131,1.349L459.811,74.953z M459.329,51.042
		c-1.248-0.807-2.438-1.475-2.647-1.488c-0.203-0.013-0.377,0.659-0.377,1.488v1.512l5.294-0.046L459.329,51.042z M495.513,69.878
		l1.404,0.87l0.953-1.537l0.947-1.534h-2.358c-1.296,0-2.355,0.295-2.355,0.662C494.103,68.707,494.736,69.398,495.513,69.878z
		 M487.299,41.974c0.414,0,0.756-0.343,0.756-0.758c0-0.418-0.342-0.756-0.756-0.756c-0.416,0-0.756,0.338-0.756,0.756
		C486.543,41.631,486.883,41.974,487.299,41.974z M460.84,57.091c0,0.829,0.64,1.51,1.423,1.51c0.786,0,1.844-0.681,2.358-1.51
		l0.935-1.512h-4.717V57.091z M453.334,67.676h1.461V64.9c0-1.522-0.454-3.224-1.009-3.781c-0.556-0.549-1.917-1.005-3.024-1.005
		c-1.11,0-2.019,0.384-2.019,0.856c0,0.47,0.705,2.169,1.566,3.781C451.171,66.358,452.534,67.676,453.334,67.676z M544.663,67.676
		c-0.365,0-0.667,0.678-0.667,1.51v1.51h3.202l-0.937-1.51C545.75,68.355,545.032,67.676,544.663,67.676z M408.681,52.554
		c0.413,0,0.754-0.34,0.754-0.754c0-0.419-0.342-0.758-0.754-0.758c-0.418,0-0.756,0.338-0.756,0.758
		C407.925,52.214,408.263,52.554,408.681,52.554z M430.064,67.546c0.295,0.346,0.884,0.286,1.305-0.135l0.766-0.766l-0.955-4.777
		l-0.956-4.777h-2.57l0.935,4.912C429.105,64.706,429.767,67.2,430.064,67.546z M430.603,74.478c0,0.415,0.342,0.755,0.756,0.755
		c0.418,0,0.756-0.34,0.756-0.755c0-0.418-0.338-0.758-0.756-0.758C430.944,73.721,430.603,74.061,430.603,74.478z M535.935,46.001
		l1.004-1.007h-4.028l1.005,1.007l1.008,1.008L535.935,46.001z M482.763,64.65c-0.513-0.831-1.193-1.512-1.51-1.512
		c-0.318,0-1,0.681-1.514,1.512l-0.932,1.513h4.892L482.763,64.65z M533.414,71.453c0,0.414,0.337,0.756,0.754,0.756
		c0.416,0,0.756-0.342,0.756-0.756c0-0.415-0.34-0.756-0.756-0.756C533.751,70.697,533.414,71.039,533.414,71.453z M539.461,69.943
		c0,0.413,0.34,0.754,0.756,0.754c0.413,0,0.756-0.341,0.756-0.754c0-0.418-0.343-0.756-0.756-0.756
		C539.8,69.187,539.461,69.525,539.461,69.943z M515.774,67.17l1.007,1.007v-4.031l-2.017,2.017L515.774,67.17z M512.247,51.042
		c0-0.829-0.3-1.512-0.672-1.512c-0.365,0-1.085,0.683-1.598,1.512l-0.934,1.512h3.203V51.042z M484.653,73.21l1.89,0.762
		l1.89-0.762l1.891-0.762h-7.561L484.653,73.21z M491.079,69.943c0,0.413,0.338,0.754,0.756,0.754c0.416,0,0.754-0.341,0.754-0.754
		c0-0.418-0.338-0.756-0.754-0.756C491.417,69.187,491.079,69.525,491.079,69.943z M488.882,53.824
		c2.12,0.964,4.161,1.755,4.534,1.755c0.38,0,0.686-0.683,0.686-1.51v-1.515h-4.538V49.53h-4.532v1.269
		C485.032,51.498,486.763,52.859,488.882,53.824z M621.772,73.721c0.362,0,1.086-0.68,1.601-1.512l0.934-1.512h-3.205v1.512
		C621.102,73.041,621.403,73.721,621.772,73.721z M873.591,57.595v-4.032l-2.017,2.017l1.01,1.005L873.591,57.595z M851.668,64.65
		c0.416,0,0.753-0.342,0.753-0.755c0-0.418-0.337-0.758-0.753-0.758c-0.419,0-0.759,0.34-0.759,0.758
		C850.909,64.308,851.249,64.65,851.668,64.65z M848.622,75.106l-2.255-1.393l-2.259-1.393l-0.931,2.589l-0.928,2.593l2.878,1.093
		L848.622,75.106z M847.885,35.168l1.512,0.935v-3.205h-1.512c-0.829,0-1.509,0.303-1.509,0.667
		C846.377,33.934,847.056,34.655,847.885,35.168z M865.276,51.042c0.416,0,0.753-0.342,0.753-0.756c0-0.416-0.337-0.756-0.753-0.756
		c-0.422,0-0.759,0.34-0.759,0.756C864.517,50.701,864.854,51.042,865.276,51.042z M897.779,65.405c0-1.247-0.267-2.268-0.591-2.268
		c-0.327,0-0.985,1.021-1.468,2.268l-0.87,2.271h2.929V65.405z M882.473,57.404l3.967-1.588l-2.897-0.117l-2.894-0.119l0.912,0.913
		L882.473,57.404z M875.1,53.059l1.013-1.009l1.004-1.008h-4.031l1.01,1.008L875.1,53.059z M871.991,63.137
		c0.781,0,1.842-0.68,2.357-1.51l0.937-1.514h-4.72v1.514C870.564,62.458,871.206,63.137,871.991,63.137z M0,34.184l0,54.847
		h790.057l-0.658-1.153l-3.183-5.571l-13.763-0.473l0.769,1.236c0.419,0.678,1.744,1.235,2.938,1.235h2.179v1.259
		c0,0.694-0.445,1.707-0.994,2.255l-1.001,0.994l-2.026-1.685l-2.026-1.682l-0.108,1.32c-0.057,0.726-0.616,0.009-1.242-1.591
		l-1.137-2.906l-7.074-0.594l-7.07-0.592l-0.022,1.988l-0.022,1.99l-1.49-2.266l-1.486-2.27l-3.256,4.536l-0.791-1.971l-0.797-1.968
		l-2.065,2.724l-2.068,2.727l-0.045-2.646l-0.054-2.643h-3.021v4.533h-7.382l-1.96-3.17l-1.994,1.655l-2.001,1.658l-4.259-6.081
		l-9.631,2.919l-9.631,2.916l-2.02-1.675l-2.017-1.677l-1.055,1.056l-1.051,1.051l4.447,3.145l-2.538-0.812
		c-1.394-0.441-4.964-1.263-7.925-1.817l-5.387-1.01l0.772-1.248l0.772-1.245l-4.568,0.129l-4.565,0.132v4.075h-2.401l0.076-3.402
		c0.045-1.871,0.626-4.252,1.296-5.294l1.21-1.888h-1.48c-0.81,0-2.566,0.419-3.907,0.934l-2.43,0.931l3.532,4.256l-0.8,0.8
		c-0.438,0.438-2.236,0.908-3.993,1.04l-3.192,0.243v2.751l-1.893-1.423l-1.887-1.423l-12.099,0.207l-1.941-1.833l-1.944-1.832
		l-3.723,1.696c-2.058,0.934-3.729,2.316-3.729,3.073v1.374l-3.392-0.483l-3.383-0.483l-0.162-2.266l-0.159-2.27l0.648,1.973
		l0.654,1.974l3.523-1.237l-0.419-2.865c-0.235-1.576-0.753-4.401-1.166-6.269l-0.74-3.403h-3.815l-1.715,4.539l-1.709,4.536
		l-2.783-0.899l-2.77-0.9l1.956,1.409l1.963,1.412l-2.338,1.941l-2.341,1.941V79.77h-3.021v4.183l-3.024,0.786l-3.027,0.794v-4.002
		l1.89-0.661l1.89-0.661l-2.846-3.208l-2.849-3.211l-1.41,0.874l-1.417,0.873l0.807,2.098l0.8,2.095l-1.077-0.16
		c-0.594-0.087-3.119-0.07-5.616,0.041l-4.532,0.202l2.128,1.351l2.128,1.349l2.033-0.782l2.027-0.773v1.585
		c0,0.87-0.635,1.976-1.41,2.452l-1.404,0.87l-0.953-1.537l-0.946-1.534h-5.873l-0.092-3.781l-4.847,6.048l0.851-2.497l0.857-2.497
		l-6.365-1.668l-1.731,2.363l-1.725,2.365l-2.681-2.681l-2.684-2.681l-1.274,2.064l-1.274,2.061l0.743,1.209l0.746,1.204
		l-3.494-0.024l-3.488-0.022l2.192-1.387l2.189-1.385l-3.993-1l-3.996-1l-1.836,1.132l-1.833,1.133l0.956-4.769l0.953-4.772h-2.947
		v4.73l-4.917-0.473l-4.911-0.476l-3.786-4.536l1.842,5.292h-4.488l-1.903-2.287l-1.896-2.284l-1.941,1.609l-1.944,1.614
		l-5.792-0.461l-5.797-0.458l0.432,2.034l0.425,2.041l-4.034-3.173c-2.217-1.744-4.55-3.172-5.181-3.172
		c-0.63,0-1.582,1.136-2.114,2.525l-0.969,2.523l1.941,1.232c1.067,0.68,2.523,1.24,3.238,1.255l1.294,0.025l-1.682-4.385
		l2.19,0.842c1.205,0.464,2.192,1.409,2.192,2.101c0,0.696-0.55,1.604-1.223,2.019c-0.675,0.413-4.926,0.796-9.45,0.842
		c-1.728,0.019-3.816-0.011-5.96-0.073v-3.362l-2.012,2.017l1.321,1.321c-3.256-0.105-6.567-0.281-8.889-0.497l-7.318-0.68
		l-2.376-1.961l-2.381-1.965l-0.669,1.984l-0.665,1.982l-2.87-2.595l-2.867-2.595v3.493h-4.534v-2.729l4.819-1.68l4.818-1.677
		l-1.793-1.793l-1.8-1.798l-1.812,1.815l-1.814,1.814h-6.775l-0.935-1.512l-0.935-1.51h3.203v-4.634l-4.536-1.736l-2.603,0.997
		l-2.603,0.999l1.974,1.22c1.089,0.673,2.006,1.828,2.041,2.565c0.036,0.739,0.391,2.195,0.788,3.234l0.727,1.89h5.22v4.536h-1.261
		c-0.694,0-1.258-0.678-1.258-1.512v-1.512h-4.539v3.13l-2.789-1.495l-2.794-1.493l-1.742,1.742l-1.744,1.742v-3.98l-3.026,0.791
		l-3.026,0.789l-0.044-1.749l-0.045-1.61l5.876-0.09l-1.428-2.314h-8.165l-4.016-6.43l-4.383,4.38l1.772,4.62l8.109-0.129
		l2.125-0.035l-1.904,2.508l-2.009,2.646h-5.136l2.066-3.348l-3.591,1.116c-1.976,0.616-3.789,1.637-4.039,2.27l-0.451,1.15
		l-2.978-0.775l-2.973-0.778l0.803-4.614l-2.047-0.713l-2.048-0.715l1.015,3.203l1.018,3.203h-0.958
		c-0.526,0-2.357-0.748-4.062-1.663l-3.107-1.664l0.931,1.506l0.926,1.504l-2.384,0.915c-1.307,0.503-3.345,0.916-4.525,0.916
		h-2.147l2.953-2.951l2.947-2.949l-0.702-5.851l-0.708-5.849l4.687-4.179l4.687-4.174l-0.906-0.908l-0.911-0.912l-1.787,1.791
		c-0.986,0.983-2.625,1.79-3.645,1.79h-1.857l-1.493-5.294l0.26,4.482l0.257,4.482l-3.025,0.58c-1.66,0.318-3.691,1.217-4.509,1.993
		l-1.485,1.414l3.357,0.878l3.361,0.881l-0.832,1.342l-0.829,1.342l-2.934-1.567l-2.932-1.571v3.135h4.428l3.237,6.045h-4.386
		l-1.534,3.781l-1.58-2.269l-1.585-2.265l-2.689,1.605l-2.695,1.609l-3.736-1.915l-3.735-1.912l-2.025,3.28l-1.064-4.842
		l-1.066-4.844l-2.29,0.877l-2.296,0.883l0.908-2.358l0.907-2.363l-7.92,0.661l-7.92,0.661l0.446,2.439l0.441,2.439h-3.361
		l0.924,2.897l0.915,2.894l-1.48,0.916l-1.483,0.915l-2.832-5.069l-4.96,1.907l-4.89-2.983c-2.689-1.637-5.4-2.981-6.022-2.984
		l-1.134-0.003v7.557h-2.144c-1.178,0-3.391,0.429-4.915,0.959l-2.768,0.959l2.495-2.093c1.371-1.151,2.93-3.567,3.462-5.368
		l0.972-3.275l-1.707-1.053l-1.706-1.054l-1.755,1.906l-1.761,1.901l1.892-1.066l1.888-1.066v3.203h-1.45
		c-0.8,0-2.821,1.466-4.494,3.26l-3.038,3.262l-0.961-2.497l-0.956-2.498l-1.378,0.851l-1.375,0.851l1.069,1.787l1.07,1.785
		l-2.556-2.077l-2.558-2.073V64.65h1.51c0.834,0,1.51,0.683,1.51,1.513v1.513h7.383l0.85-1.378l0.851-1.374l-0.885-2.303
		l-0.883-2.301l-2.523-0.065c-1.387-0.041-4.534-0.254-6.993-0.483l-4.469-0.415l-1.774-7.531l-1.159,1.875l-1.156,1.877
		l0.932,1.512l0.935,1.51h-1.502c-0.827,0-3.248-0.662-5.382-1.475l-3.878-1.474v5.975l1.89,0.119l1.89,0.117l-1.89,0.762
		l-1.89,0.762v7.741l-24.369-2.028l-6.267-3.696l-0.681,1.89c-0.376,1.042-1.286,1.892-2.022,1.892h-1.34l1.742-4.537h-4.766
		l1.742,4.537h-3.632l-0.789-3.024l-0.789-3.026h-3.017l0.664,4.539l0.67,4.533h-2.576l-0.908-4.533l-0.907-4.539l-2.457,0.022
		l-2.459,0.025l2.052,1.299l2.052,1.301l-1.696,1.05l-1.699,1.048l0.688,1.112l0.686,1.11l-4.444,1.677l-4.441,1.679v-4.274
		l6.802-0.192l-3.756-1.499l-3.759-1.501l-2.5,0.654l-2.5,0.656l-1.88-1.163l-1.876-1.161l3.067-0.977
		c1.685-0.533,3.645-0.867,4.355-0.742c0.712,0.13,2.119,0.153,3.134,0.054l1.844-0.18l-1.626-4.232l-4.811,1.212
		c-2.644,0.669-6.678,1.636-8.967,2.147l-4.158,0.931v4.482h7.383l1.08,1.747l1.075,1.744l-4.958-0.991
		c-2.725-0.543-5.978-0.989-7.22-0.989h-2.266l1.881-2.27l1.887-2.268l-2.833-0.168c-1.555-0.092-4.361-0.041-6.234,0.111
		l-3.402,0.273l-2.5-2.5l-2.497-2.501l-5.443,1.108c-2.989,0.61-7.023,1.177-8.96,1.259l-3.526,0.151l-2.155,3.78l-2.16,3.78
		l0.94-4.179l0.939-4.178l-3.588-4.317l-2.152,0.829l-2.161,0.829v-3.348h2.163c1.188,0,3.227,1.069,4.534,2.376l2.376,2.374
		l0.178-1.242c0.099-0.683,0.099-1.753,0-2.376c-0.094-0.624,0.505-1.132,1.334-1.132h1.51v-5.532l-2.959,0.117l-2.965,0.121
		l-0.06-1.134c-0.034-0.623-0.062-2.493-0.062-4.158v-3.021h11.989l1.567-2.934l1.569-2.932l-1.513-0.94l-1.518-0.935v3.381
		l-3.026-1.871v4.717h-3.199l0.831-1.345l0.829-1.34l-4.901-0.726l-4.896-0.727l-2.104,0.802l-2.1,0.799l5.422,3.964l-2.601,1.002
		l-2.6,0.998l-3.191-3.188l-2.082,0.797l-2.082,0.797v3.963l1.886,0.765l1.888,0.767l-1.51,1.25c-0.829,0.688-1.578,2.1-1.663,3.14
		c-0.083,1.042-0.252,2.549-0.378,3.353l-0.224,1.466l-2.532-0.97l-2.531-0.972l1.915,4.98l-2.585,1.507l-2.586,1.504l2.196,0.047
		l2.19,0.045l-1.685,1.684l-1.682,1.682l-1.642-1.018l-1.644-1.015v-5.687l1.539-0.953l1.533-0.95l-1.769-2.865l-1.102,0.683
		c-0.605,0.373-2.082,0.075-3.284-0.669l-2.182-1.348l-0.009-2.705l-0.016-2.706l-2.268-0.002l-2.266-0.011l-0.056-4.531
		c-0.035-2.495-0.581-5.384-1.225-6.426l-1.167-1.888l-5.114-0.194l3.613-1.442l3.61-1.445l-2.657-2.935l-2.655-2.935l1.961-8.436
		l-1.177,1.664c-0.651,0.915-2.722,2.473-4.604,3.464l-3.422,1.801l1.531,2.862l1.531,2.856l-6.046,1.918V33
		c0,0.775,0.683,1.412,1.512,1.412h1.512v6.048h7.38l1.036,1.672l1.037,1.675l-3.403-1.081l-3.402-1.08l1.031,1.674l1.039,1.674
		h-1.477c-0.815,0-1.744-0.804-2.071-1.782l-0.593-1.783l-2.557,0.98l-2.555,0.98v9.67l-0.786-0.786
		c-0.432-0.432-1.034-3.953-1.337-7.825l-0.554-7.039l-0.929,0.013c-0.508,0.008-1.79,0.013-2.838,0.013h-1.915l-5.09,11.341
		l-0.079-2.806l-0.076-2.81l-2.119,0.812l-2.12,0.815l-0.751-2.866l-0.748-2.867l2.87-0.91l2.868-0.91v-4.334l-4.158,0.024
		l-4.158,0.024l-2.268,1.603l-2.268,1.605l3.78,1.531v4.067l-3.402,2.752l-3.402,2.76l0.203,2.265
		c0.111,1.248,0.283,2.862,0.376,3.588l0.176,1.321l4.536-3.769v3.399h4.534v3.345l-2.39-0.918
		c-1.315-0.505-4.758-0.916-7.648-0.916h-5.257l0.797-1.295l0.799-1.288l-3.804-1.734c-2.092-0.953-5.3-1.655-7.137-1.556
		l-3.329,0.173l2.479,0.663l2.485,0.659L94.418,54.9l-0.213,3.7h-1.463c-0.807,0-3.019-1.806-4.914-4.013
		c-1.898-2.208-3.451-4.723-3.451-5.593v-1.579l-1.779,1.779l-1.776,1.776l-2.005-1.659c-1.1-0.917-2.001-1.268-2.001-0.786
		c0,0.479-2.695-0.078-5.986-1.239l-5.986-2.112l-2.706,3.611l-2.711,3.615l-2.692-3.675l-2.695-3.67l2.581,0.989l2.579,0.988
		l-1.027-2.665l-1.02-2.668l0.894-1.445l0.608-0.989l-2.185-0.839l-2.235-0.856l-0.978,1.58l-0.978,1.582l-5.495-0.926l-5.498-0.924
		l2.646,2.093l2.646,2.088v4.958h-1.583c-0.87,0-3.276-1.871-5.344-4.158l-3.758-4.16l0.209,3.024
		c0.118,1.663-0.278,4.555-0.88,6.426c-0.599,1.872-1.614,3.402-2.252,3.402c-0.637,0-1.558-1.529-2.052-3.402l-0.896-3.402
		l1.477-0.505c0.81-0.275,1.47-1.023,1.47-1.658v-1.155l-4.509-0.129l-4.509-0.13l-0.815,1.32l-0.815,1.32l-9.008-3.14v-2.727H7.816
		l1.023-7.18c0.564-3.951,1.555-8.543,2.2-10.206l1.175-3.026l-2.225,2.859l-2.23,2.859l-1.82-4.739l2.181-1.807
		c1.194-0.992,2.174-2.651,2.174-3.683v-1.871l-3.891,0.745l-3.894,0.743l0.872,3.478l0.873,3.475l-1.575,4.139l-1.571,4.136
		L2.9,29.975l1.793,1.11L1.444,33.11C0.923,33.437,0.44,33.804,0,34.184z M849.902,61.119l1.007,1.01v-4.031l-2.01,2.015
		L849.902,61.119z M909.875,51.042c0-0.829-0.638-1.512-1.423-1.512c-0.778,0-1.846,0.683-2.357,1.512l-0.934,1.512h4.714V51.042z
		 M58.686,39.218l-0.029,0.045l0.054,0.02L58.686,39.218z M61.059,40.557l2.114,1.753l2.161-0.829l2.165-0.832l0.869,2.271
		l0.872,2.268l1.453-0.901l1.459-0.902l-1.807-4.709l-3.27,0.626l-3.269,0.624l-1.809-1.939c-0.994-1.064-1.811-2.646-1.811-3.51
		v-1.579h3.229l-1.922-6.046h3.41l-0.935-1.514c-0.513-0.829-1.615-1.512-2.446-1.512H60.01l0.769,1.243l0.767,1.243l-2.249,4.328
		l-2.243,4.328l0.831,2.157l0.8,2.091l0.257-0.419L61.059,40.557z M993.428,85.925l-1.007,1.005l-1.01,1.008l-10.155,0.241
		l-10.151,0.248l-4.355-3.367l1.131,1.89l1.14,1.89h-1.512c-0.832,0-1.953-0.713-2.497-1.585l-0.975-1.585l-2.135,1.767
		l-1.918,1.593h39.25L993.428,85.925z M812.615,42.869c0.14-0.079,0.724-2.016,1.293-4.299l1.045-4.147l-4.701,0.937l-4.698,0.94
		v-6.424l-1.134,0.005l-1.137,0.009l-0.06,8.792l-0.067,8.789l4.606-2.228C810.29,44.021,812.476,42.95,812.615,42.869z
		 M838.817,62.383l1.512,0.934v-3.203h-1.512c-0.832,0-1.515,0.302-1.515,0.667C837.302,61.149,837.985,61.869,838.817,62.383z
		 M802.788,89.031h3.516l-0.569-1.483l2.179-1.807c1.194-0.991,2.23-1.553,2.3-1.242c0.067,0.299,0.413,2.317,0.778,4.533h98.901
		c0-0.03-0.019-0.056-0.019-0.091v-1.407l-3.176-1.008l-3.176-1.009l-1.534,1.537l-1.538,1.534l-4.873-2.733l-4.869-2.733
		l-3.875,0.738l-3.872,0.742l-2.017-6.344h-4.507l0.848,1.375l0.848,1.376l-0.918,2.403l-0.924,2.406h-1.935
		c-1.064,0-3.824-0.98-6.133-2.179l-4.199-2.179l-4.488,2.324l-4.491,2.32l-1.083-1.753l-1.08-1.756l-16.104-0.516l-16.104-0.519
		v1.372c0,0.756-0.753,1.375-1.677,1.375h-1.664l0.931-2.436l0.934-2.435l-2.411,0.923c-1.324,0.508-4.574,0.927-7.21,0.927h-4.802
		l-2.017,3.224l-2.014,3.226l2.027,1.285L802.788,89.031z M799.818,89.031l0.194-0.191h-4.031l0.194,0.191H799.818z M681.579,63.641
		l1.007-1.009l1.007-1.005h-4.031l1.01,1.005L681.579,63.641z M703.502,69.187c0.413,0,0.753-0.342,0.753-0.759
		c0-0.415-0.34-0.751-0.753-0.751c-0.416,0-0.756,0.337-0.756,0.751C702.746,68.845,703.086,69.187,703.502,69.187z M705.011,63.137
		c0.422,0,0.756-0.34,0.756-0.754c0-0.418-0.333-0.756-0.756-0.756c-0.413,0-0.756,0.338-0.756,0.756
		C704.255,62.798,704.598,63.137,705.011,63.137z M706.526,49.53c0.416,0,0.753-0.34,0.753-0.754c0-0.416-0.337-0.756-0.753-0.756
		c-0.419,0-0.759,0.34-0.759,0.756C705.767,49.19,706.107,49.53,706.526,49.53z M701.231,77.247l1.013-1.005l1.007-1.008h-4.034
		l1.01,1.008L701.231,77.247z M908.366,66.917c0,0.415,0.337,0.759,0.753,0.759c0.416,0,0.756-0.344,0.756-0.759
		c0-0.419-0.34-0.754-0.756-0.754C908.703,66.163,908.366,66.498,908.366,66.917z M668.553,54.069c0.413,0,1.172-0.683,1.684-1.515
		c0.515-0.829,0.597-1.512,0.184-1.512c-0.419,0-1.178,0.683-1.693,1.512C668.213,53.386,668.134,54.069,668.553,54.069z
		 M691.403,48.02c0.423,0,0.756-0.34,0.756-0.755c0-0.419-0.333-0.757-0.756-0.757c-0.413,0-0.756,0.338-0.756,0.757
		C690.647,47.68,690.991,48.02,691.403,48.02z M719.374,75.737l1.01-1.01l1.01-1.005h-4.031l1.007,1.005L719.374,75.737z
		 M688.459,72.786l2.347,0.901l-0.924-1.495c-0.505-0.823-1.56-1.495-2.344-1.495c-0.785,0-1.423,0.27-1.423,0.595
		C686.115,71.618,687.172,72.29,688.459,72.786z M685.359,67.676c0.416,0,0.756-0.344,0.756-0.759c0-0.419-0.34-0.754-0.756-0.754
		c-0.419,0-0.756,0.335-0.756,0.754C684.603,67.332,684.94,67.676,685.359,67.676z M933.31,51.042c0.419,0,0.756-0.342,0.756-0.756
		c0-0.416-0.337-0.756-0.756-0.756c-0.413,0-0.753,0.34-0.753,0.756C932.557,50.701,932.897,51.042,933.31,51.042z M932.557,60.114
		h1.509v-4.712l-1.509,0.932c-0.832,0.513-1.518,1.574-1.518,2.355C931.039,59.472,931.725,60.114,932.557,60.114z M921.214,58.602
		c0.419,0,0.756-0.34,0.756-0.756c0-0.415-0.337-0.755-0.756-0.755c-0.416,0-0.753,0.34-0.753,0.755
		C920.461,58.262,920.798,58.602,921.214,58.602z M735.253,29.876c0.416,0,0.756-0.341,0.756-0.758c0-0.414-0.34-0.753-0.756-0.753
		c-0.413,0-0.759,0.338-0.759,0.753C734.494,29.535,734.84,29.876,735.253,29.876z M912.263,89.031h47.289l-1.982-1.647l-2.204-1.83
		l-2.945,1.822l-1.81-2.924l-12.429,0.745c-6.839,0.407-15.151,1.013-18.48,1.348c-3.325,0.332-6.597,0.645-7.27,0.692l-1.22,0.09
		l0.934,1.512L912.263,89.031z M741.678,68.642l1.887,0.276v-1.255c0-0.686-0.848-1.551-1.887-1.928
		c-1.045-0.368-2.118-0.483-2.392-0.251c-0.279,0.235-0.279,0.977,0,1.652C739.56,67.811,740.634,68.487,741.678,68.642z
		 M743.565,36.426v-4.032l-2.01,2.019l1.003,1.004L743.565,36.426z M934.822,44.994c0.416,0,0.759-0.34,0.759-0.754
		c0-0.415-0.343-0.756-0.759-0.756c-0.416,0-0.756,0.342-0.756,0.756C934.066,44.654,934.405,44.994,934.822,44.994z
		 M746.589,80.272l1.01-1.009l1.01-1.007h-4.031l1.001,1.007L746.589,80.272z M138.806,40.963v-4.032l-2.014,2.015l1.007,1.01
		L138.806,40.963z M398.733,70.697c0.702,0,1.625-1.323,2.048-2.936l0.766-2.936l-0.829-0.829l-0.832-0.829l-3.58,2.968
		l-1.199-1.119c-0.661-0.62-0.403,0.408,0.572,2.28C396.652,69.166,398.026,70.697,398.733,70.697z M161.253,46.236l3.256,0.481
		v-3.234h-4.536v-4.537h-3.005l1.021,6.804L161.253,46.236z M159.973,51.8c0,0.414,0.338,0.754,0.755,0.754
		c0.419,0,0.759-0.34,0.759-0.754c0-0.419-0.34-0.758-0.759-0.758C160.311,51.042,159.973,51.38,159.973,51.8z M174.591,36.44
		l-3.529,0.675l-3.529,0.672v2.673h7.058V36.44z M156.193,34.412c0.415,0,0.756-0.34,0.756-0.755c0-0.419-0.341-0.759-0.756-0.759
		c-0.416,0-0.758,0.34-0.758,0.759C155.436,34.073,155.777,34.412,156.193,34.412z M138.05,28.366c0.416,0,0.756-0.343,0.756-0.758
		c0-0.416-0.34-0.756-0.756-0.756c-0.414,0-0.756,0.34-0.756,0.756C137.294,28.023,137.636,28.366,138.05,28.366z M168.29,46.508
		c0.414,0,0.753-0.343,0.753-0.758c0-0.414-0.338-0.756-0.753-0.756c-0.42,0-0.758,0.342-0.758,0.756
		C167.532,46.165,167.871,46.508,168.29,46.508z M163.751,35.924c0.416,0,0.758-0.342,0.758-0.756c0-0.418-0.342-0.756-0.758-0.756
		c-0.414,0-0.753,0.338-0.753,0.756C162.998,35.583,163.337,35.924,163.751,35.924z M128.297,32.189l1.582,0.978l2.293-0.879
		l2.292-0.88l-0.944-1.521l-0.939-1.522h-5.87v1.42C126.712,30.569,127.427,31.651,128.297,32.189z M164.509,42.477l1.01-1.01
		l1.007-1.007h-4.033l1.007,1.007L164.509,42.477z M222.717,29.876c0.416,0,0.754-0.341,0.754-0.758
		c0-0.414-0.338-0.753-0.754-0.753c-0.418,0-0.756,0.338-0.756,0.753C221.961,29.535,222.299,29.876,222.717,29.876z
		 M217.426,54.822c0,0.416,0.338,0.758,0.753,0.758c0.419,0,0.758-0.342,0.758-0.758c0-0.416-0.338-0.753-0.758-0.753
		C217.765,54.069,217.426,54.406,217.426,54.822z M221.961,39.452l1.01-1.007l1.007-1.01h-4.032l1.009,1.01L221.961,39.452z
		 M219.043,48.02l6.699-0.048l-2.225-1.404l-2.223-1.41l1.066-1.066l1.066-1.067l-2.62-1.988c-1.442-1.097-3.134-2.015-3.758-2.041
		c-0.623-0.027-1.134,0.678-1.134,1.563c0,0.885,0.706,2.929,1.564,4.536L219.043,48.02z M190.021,34.727l3.969-1.587l-2.897-0.121
		l-2.897-0.121l0.913,0.915L190.021,34.727z M198.527,55.53h1.51c0.834,0,2.533-0.656,3.781-1.461l2.265-1.47h-1.51
		c-0.83,0-2.531,0.664-3.78,1.47L198.527,55.53z M169.043,51.329v1.476l1.796-0.596c0.988-0.332,2.066-1.409,2.395-2.397
		l0.599-1.796l-2.395,0.921C170.123,49.44,169.043,50.518,169.043,51.329z M212.887,53.059l1.012-1.009l1.005-1.008h-4.029
		l1.007,1.008L212.887,53.059z M207.507,55.579c0.37,0,1.088-0.683,1.603-1.51l0.937-1.515h-3.203v1.515
		C206.843,54.896,207.142,55.579,207.507,55.579z M83.514,42.463l1.333,0.263l0.746-5.082l-4.364,1.676l0.476,1.437
		C81.972,41.55,82.785,42.317,83.514,42.463z M24.448,39.702l-0.888-3.402l-0.89-3.402l5.009-0.044l-2.128-1.35l-2.13-1.35
		l-2.03,0.777c-1.113,0.432-2.027,1.434-2.027,2.239c0,0.8,1.145,2.6,2.541,3.994L24.448,39.702z M28.941,39.957l1.01,1.007v-4.032
		l-2.015,2.015L28.941,39.957z M29.002,32.637l4.318,0.637l4.323,0.632l1.587-2.566l3.154,1.947l1.345-2.081l1.34-2.087l3.081,4.539
		l1.861-2.365c1.026-1.297,3.051-2.81,4.506-3.353l2.647-0.992v-1.817c0-1.002-1.096-3.034-2.436-4.512l-2.433-2.689l1.35-5.721
		L55,6.489l-3.775-3.243L47.455,0l-2.325,0.459c-1.283,0.252-2.668,0.611-3.082,0.799c-0.418,0.186-2.103,0.408-3.753,0.492
		l-2.999,0.155l-0.557,2.865l-0.559,2.866l2.419-0.927l2.422-0.931v4.132l-4.915,4.434c-2.702,2.438-5.644,5.714-6.55,7.277
		l-1.639,2.84l1.545,4.089L29.002,32.637z M21.636,28.366c0.414,0,0.753-0.343,0.753-0.758c0-0.416-0.338-0.756-0.753-0.756
		c-0.418,0-0.758,0.34-0.758,0.756C20.878,28.023,21.218,28.366,21.636,28.366z M421.53,74.478c0,0.415,0.341,0.755,0.759,0.755
		c0.414,0,0.754-0.34,0.754-0.755c0-0.418-0.34-0.758-0.754-0.758C421.871,73.721,421.53,74.061,421.53,74.478z M125.954,35.924
		c0.418,0,0.758-0.342,0.758-0.756c0-0.418-0.34-0.756-0.758-0.756c-0.414,0-0.756,0.338-0.756,0.756
		C125.198,35.583,125.54,35.924,125.954,35.924z M424.142,60.871l-1.682-1.113c-0.928-0.609-1.847-1.118-2.046-1.136
		c-0.197-0.011-0.275,1.511-0.173,3.381c0.101,1.871-0.316,4.593-0.933,6.048l-1.123,2.646h1.582c0.87,0,2.103-0.839,2.738-1.863
		c0.634-1.026,1.26-3.237,1.391-4.914L424.142,60.871z M73.794,44.24c0,0.414,0.338,0.754,0.753,0.754
		c0.419,0,0.759-0.34,0.759-0.754c0-0.415-0.34-0.756-0.759-0.756C74.132,43.484,73.794,43.825,73.794,44.24z M113.105,39.702
		c0-0.416-0.34-0.756-0.758-0.756c-0.414,0-0.756,0.34-0.756,0.756c0,0.416,0.342,0.758,0.756,0.758
		C112.765,40.46,113.105,40.119,113.105,39.702z M15.585,38.947c0.418,0,0.759-0.34,0.759-0.754c0-0.418-0.341-0.758-0.759-0.758
		c-0.416,0-0.754,0.34-0.754,0.758C14.83,38.607,15.169,38.947,15.585,38.947z M104.324,46.149l2.876-0.753l2.881-0.753V40.46
		h-4.906l1.783-2.151l1.785-2.149l-2.838,0.742l-2.83,0.739l0.623,4.256L104.324,46.149z M104.031,50.286
		c0,0.415,0.34,0.756,0.758,0.756c0.415,0,0.753-0.342,0.753-0.756c0-0.416-0.338-0.756-0.753-0.756
		C104.371,49.53,104.031,49.87,104.031,50.286z M99.497,43.987v-4.031l-2.016,2.017l1.01,1.004L99.497,43.987z M72.95,41.974
		c0.365,0,1.085-0.685,1.598-1.513l0.94-1.514h-3.205v1.514C72.282,41.289,72.584,41.974,72.95,41.974z M116.128,28.366
		c0-0.834-0.3-1.513-0.668-1.513c-0.365,0-1.086,0.68-1.603,1.513l-0.929,1.51h3.2V28.366z M94.205,40.46
		c0.418,0,0.758-0.342,0.758-0.758c0-0.416-0.34-0.756-0.758-0.756c-0.418,0-0.758,0.34-0.758,0.756
		C93.448,40.119,93.788,40.46,94.205,40.46z M227.252,37.435c0.418,0,0.758-0.34,0.758-0.753c0-0.419-0.34-0.758-0.758-0.758
		c-0.416,0-0.758,0.338-0.758,0.758C226.495,37.095,226.836,37.435,227.252,37.435z M77.574,40.46c0.415,0,0.755-0.342,0.755-0.758
		c0-0.416-0.34-0.756-0.755-0.756c-0.416,0-0.756,0.34-0.756,0.756C76.818,40.119,77.158,40.46,77.574,40.46z M94.963,46.475v-2.77
		l-2.647-0.691c-1.456-0.38-2.745-0.773-2.864-0.867c-0.117-0.097-0.55,0.702-0.964,1.776l-0.748,1.952l3.61,0.297L94.963,46.475z
		 M161.487,48.685c0,0.368,0.632,1.058,1.407,1.536l1.405,0.87l0.951-1.537l0.948-1.534h-2.357
		C162.544,48.02,161.487,48.32,161.487,48.685z M323.346,55.579c0.783,0,1.423-0.683,1.423-1.51v-1.515h-4.712l0.932,1.515
		C321.504,54.896,322.563,55.579,323.346,55.579z M325.395,45.207l0.804-1.304l-0.964-0.964c-0.532-0.534-1.877-0.966-2.984-0.966
		h-2.017v4.534h2.181C323.611,46.508,324.952,45.92,325.395,45.207z M330.064,55.579h2.266v-2.929l-2.266,0.867
		c-1.248,0.481-2.271,1.139-2.271,1.466C327.793,55.311,328.816,55.579,330.064,55.579z M324.013,35.924
		c0.418,0,0.756-0.342,0.756-0.756c0-0.418-0.338-0.756-0.756-0.756c-0.414,0-0.754,0.338-0.754,0.756
		C323.259,35.583,323.599,35.924,324.013,35.924z M336.866,45.499l1.008-1.009l1.009-1.007h-4.033l1.007,1.007L336.866,45.499z
		 M309.651,44.364c0,0.345,1.027,0.631,2.282,0.631h2.279l-1.89-3.021c-1.034-1.664-2.476-3.027-3.197-3.027h-1.309l0.915,2.394
		C309.237,42.655,309.651,44.016,309.651,44.364z M301.247,67.676c0.367,0,1.086-0.683,1.603-1.513l0.937-1.513h-3.207v1.513
		C300.58,66.994,300.88,67.676,301.247,67.676z M301.337,51.042l-0.934,1.512h4.893l-0.937-1.512
		c-0.515-0.829-1.194-1.512-1.51-1.512C302.533,49.53,301.849,50.213,301.337,51.042z M310.155,53.563l1.008,1.007l1.01-1.007
		l1.007-1.009h-4.032L310.155,53.563z M358.032,68.278V64.65h7.383l0.929-1.512l0.937-1.51h-10.58l-2.034,3.287l1.682,1.682
		L358.032,68.278z M338.376,62.783l4.156,0.798l4.159,0.792l4.534-2.657l-7.941-0.089l-1.885-2.27
		c-1.034-1.248-2.309-2.257-2.827-2.246c-0.526,0.013-1.973,0.684-3.218,1.49l-2.271,1.466l5.292,0.046V62.783z M388.553,56.508
		c0.786,0.488,1.728,0.589,2.093,0.222c0.364-0.362-0.113-2.881-1.056-5.591l-1.717-4.928l-2.257,3.653l0.753,2.881
		C386.784,54.331,387.768,56.022,388.553,56.508z M383.733,61.627c0.832,0,1.512-0.681,1.512-1.514c0-0.832-0.68-1.512-1.512-1.512
		c-0.829,0-1.51,0.68-1.51,1.512C382.222,60.946,382.904,61.627,383.733,61.627z M389.234,62.383l-0.87,2.266l0.87,2.268
		c0.479,1.248,1.482,2.27,2.222,2.27h1.35v-9.073h-1.35C390.716,60.114,389.714,61.136,389.234,62.383z M382.978,48.02
		c0.415,0,0.754-0.34,0.754-0.755c0-0.419-0.34-0.757-0.754-0.757c-0.418,0-0.756,0.338-0.756,0.757
		C382.222,47.68,382.561,48.02,382.978,48.02z M358.587,31.813l1.307-2.295l-2.063-1.31c-1.139-0.721-2.951-1.32-4.029-1.333
		l-1.96-0.022l5.435,7.258L358.587,31.813z M356.518,40.46c0-0.831-0.678-1.514-1.51-1.514c-0.829,0-1.51,0.683-1.51,1.514
		c0,0.829,0.681,1.513,1.51,1.513C355.84,41.974,356.518,41.289,356.518,40.46z M280.926,56.737v4.536l3.022,0.791l3.024,0.791
		v4.822h1.51c0.834,0,1.513-0.6,1.513-1.331v-1.328l4.537-1.88c2.493-1.032,4.534-2.404,4.534-3.053v-1.17l-9.826,0.443
		l-0.216-3.024c-0.122-1.664-0.289-3.534-0.38-4.156c-0.087-0.624-1.18-1.135-2.432-1.135h-2.266v4.201l-1.89-0.072
		c-1.039-0.036-3.929,0.048-6.426,0.194l-4.536,0.261l4.116,2.606L280.926,56.737z M360.048,56.585l1.009,1.01l1.008-1.01
		l1.007-1.005h-4.029L360.048,56.585z M235.568,52.554c0-0.829-0.3-1.512-0.668-1.512c-0.364,0-1.085,0.683-1.603,1.512
		l-0.929,1.515h3.2V52.554z M256.637,55.071l-1.288,1.288l1.334,2.158l1.334,2.157l4.288-3.556l0.881,0.879l0.881,0.88l3.137-0.994
		l3.136-0.996v-2.817h-4.283l-0.578,1.726l-0.575,1.728l-3.489-1.868l-3.494-1.871L256.637,55.071z M255.979,41.974
		c0.416,0,0.756-0.343,0.756-0.758c0-0.418-0.34-0.756-0.756-0.756c-0.414,0-0.756,0.338-0.756,0.756
		C255.223,41.631,255.565,41.974,255.979,41.974z M257.49,52.554c0.419,0,0.756-0.34,0.756-0.754c0-0.419-0.337-0.758-0.756-0.758
		c-0.415,0-0.755,0.338-0.755,0.758C256.735,52.214,257.075,52.554,257.49,52.554z M297.178,45.996l1.89,0.762l1.89-0.762
		l1.892-0.762h-7.561L297.178,45.996z M228.763,34.412c0.419,0,0.758-0.34,0.758-0.755c0-0.419-0.339-0.759-0.758-0.759
		c-0.413,0-0.753,0.34-0.753,0.759C228.01,34.073,228.35,34.412,228.763,34.412z M293.066,66.102l-2.225,1.407l0.776,0.776
		l0.778,0.782l3.337-0.874l3.335-0.875v-2.67l-1.89,0.022C296.138,64.684,294.286,65.329,293.066,66.102z M246.151,54.569
		l1.009-1.007l1.008-1.009h-4.032l1.01,1.009L246.151,54.569z M246.042,41.073l0.778-0.778l-2.225-1.404
		c-1.223-0.776-3.073-1.42-4.115-1.432l-1.892-0.024v2.671l6.677,1.749L246.042,41.073z M243.971,44.994
		c-0.367,0-1.088,0.68-1.599,1.513l-0.934,1.512h3.2v-1.512C244.638,45.674,244.343,44.994,243.971,44.994z M296.045,55.579h3.022
		V49.53h-3.022V55.579z M273.365,36.682l1.514,0.932v-4.716h-1.514c-0.829,0-1.512,0.642-1.512,1.423
		C271.853,35.103,272.536,36.169,273.365,36.682z M273.871,39.957l1.007,1.007l1.01-1.007l1.007-1.01h-4.033L273.871,39.957z
		 M281.429,63.137h-4.031l1.007,1.009l1.007,1.008l1.01-1.008L281.429,63.137z M285.46,66.163c0-0.831-0.51-1.504-1.133-1.491
		c-0.625,0.013-2.155,0.684-3.402,1.491l-2.269,1.463l6.804,0.051V66.163z M293.774,57.091c0.419,0,0.759-0.343,0.759-0.757
		c0-0.413-0.34-0.754-0.759-0.754c-0.416,0-0.754,0.342-0.754,0.754C293.02,56.748,293.358,57.091,293.774,57.091z M295.288,38.947
		c0.416,0,0.758-0.34,0.758-0.754c0-0.418-0.342-0.758-0.758-0.758c-0.418,0-0.755,0.34-0.755,0.758
		C294.533,38.607,294.87,38.947,295.288,38.947z M293.774,32.899c0.419,0,0.759-0.341,0.759-0.756c0-0.414-0.34-0.756-0.759-0.756
		c-0.416,0-0.754,0.342-0.754,0.756C293.02,32.558,293.358,32.899,293.774,32.899z M283.194,46.508c0.416,0,0.754-0.343,0.754-0.758
		c0-0.414-0.338-0.756-0.754-0.756c-0.418,0-0.756,0.342-0.756,0.756C282.438,46.165,282.776,46.508,283.194,46.508z
		 M278.657,38.947c0.414,0,0.756-0.34,0.756-0.754c0-0.418-0.342-0.758-0.756-0.758c-0.418,0-0.758,0.34-0.758,0.758
		C277.899,38.607,278.239,38.947,278.657,38.947z"/>
</g>
</svg>
