<?xml version="1.0" encoding="iso-8859-1"?>
<!-- Generator: Adobe Illustrator 18.1.1, SVG Export Plug-In . SVG Version: 6.00 Build 0)  -->
<svg version="1.1" id="Layer_1" xmlns="http://www.w3.org/2000/svg" xmlns:xlink="http://www.w3.org/1999/xlink" x="0px" y="0px"
	 viewBox="0 0 640 29.677" style="enable-background:new 0 0 640 29.677;" xml:space="preserve">
<g>
	<path style="fill:#FFFFFF;" d="M437.502,23.566h1.066l-0.31-0.503c-0.173-0.277-0.412-0.503-0.535-0.503
		c-0.123,0-0.221,0.226-0.221,0.503V23.566z M440.022,15.755c0-0.14-0.114-0.252-0.253-0.252c-0.138,0-0.252,0.113-0.252,0.252
		c0,0.138,0.114,0.252,0.252,0.252C439.907,16.007,440.022,15.893,440.022,15.755z M441.01,25.33l0.073-1.007l-0.656-0.093
		c-0.361-0.051-0.94,0.025-1.286,0.167l-0.631,0.261v1.341l1.251-0.335L441.01,25.33z M436.998,14.747
		c0-0.138-0.113-0.252-0.253-0.252c-0.138,0-0.251,0.114-0.251,0.252c0,0.138,0.113,0.251,0.251,0.251
		C436.885,14.998,436.998,14.885,436.998,14.747z M442.372,17.854l0.337-0.336l-0.671-0.672v1.344L442.372,17.854z M417.343,26.842
		l0.503,0.312v-1.572h-0.503c-0.277,0-0.504,0.213-0.504,0.474C416.839,26.316,417.065,26.671,417.343,26.842z M449.232,22.474
		l-0.322,0.84c-0.177,0.461-0.322,1.16-0.322,1.554v0.715l0.63-0.008c0.346-0.005,0.97-0.223,1.386-0.488l0.757-0.479
		L449.232,22.474z M447.58,24.826c0-0.139-0.112-0.253-0.251-0.253c-0.14,0-0.253,0.113-0.253,0.253
		c0,0.138,0.113,0.252,0.253,0.252C447.468,25.078,447.58,24.964,447.58,24.826z M434.477,23.062v0.503h1.571l-0.31-0.503
		c-0.17-0.277-0.525-0.503-0.786-0.503C434.691,22.559,434.477,22.785,434.477,23.062z M420.534,24.07h-1.344l0.336,0.336
		l0.338,0.336l0.335-0.336L420.534,24.07z M425.406,18.778c0-0.138-0.113-0.251-0.251-0.251c-0.14,0-0.254,0.114-0.254,0.251
		c0,0.138,0.114,0.252,0.254,0.252C425.293,19.03,425.406,18.916,425.406,18.778z M420.871,9.401c0-0.247-0.086-0.45-0.192-0.45
		c-0.104,0-0.476,0.345-0.826,0.767l-0.637,0.769l0.826-0.318C420.499,9.993,420.871,9.648,420.871,9.401z M421.879,25.78
		c0-0.109-0.341-0.198-0.756-0.198h-0.756v0.976l0.756-0.29C421.538,26.109,421.879,25.889,421.879,25.78z M435.455,21.456
		l0.661,0.22l-0.221-0.661c-0.121-0.364-0.518-0.762-0.882-0.883l-0.661-0.22l0.22,0.662
		C434.693,20.937,435.091,21.334,435.455,21.456z M428.935,19.282c0-0.138-0.114-0.252-0.254-0.252
		c-0.138,0-0.251,0.113-0.251,0.252c0,0.139,0.113,0.252,0.251,0.252C428.821,19.534,428.935,19.421,428.935,19.282z M506.544,20.29
		c0-0.139-0.112-0.253-0.251-0.253c-0.14,0-0.253,0.113-0.253,0.253c0,0.138,0.113,0.252,0.253,0.252
		C506.432,20.542,506.544,20.429,506.544,20.29z M429.115,21.2c0.178-0.178,0.322-0.512,0.322-0.742c0-0.231-0.212-0.42-0.474-0.42
		c-0.261,0-0.604,0.211-0.763,0.47l-0.291,0.468l0.885,0.547L429.115,21.2z M429.437,22.306c0-0.14-0.112-0.251-0.252-0.251
		c-0.138,0-0.25,0.112-0.25,0.251c0,0.138,0.112,0.253,0.25,0.253C429.325,22.559,429.437,22.444,429.437,22.306z M455.897,19.03
		c-0.14,0-0.253,0.113-0.253,0.252c0,0.139,0.113,0.252,0.253,0.252c0.139,0,0.251-0.113,0.251-0.252
		C456.148,19.144,456.036,19.03,455.897,19.03z M487.44,24.535l0.71-0.45l-1.386-0.009c-0.762-0.004-1.385,0.083-1.385,0.192
		c0,0.109,0.304,0.314,0.675,0.457l0.676,0.259L487.44,24.535z M486.134,17.503l1.764,0.015v-0.504c0-0.276-0.058-0.5-0.126-0.496
		c-0.07,0.004-0.466,0.227-0.882,0.496L486.134,17.503z M475.299,22.78c0-0.122-0.353-0.221-0.785-0.221h-0.786l0.316,0.511
		l0.318,0.512l0.468-0.29C475.088,23.133,475.299,22.902,475.299,22.78z M477.819,13.739c0-0.139-0.113-0.252-0.252-0.252
		c-0.138,0-0.252,0.113-0.252,0.252c0,0.138,0.114,0.253,0.252,0.253C477.706,13.991,477.819,13.877,477.819,13.739z
		 M486.387,18.526h-1.572l0.312,0.504c0.172,0.276,0.524,0.503,0.786,0.503c0.261,0,0.474-0.227,0.474-0.503V18.526z
		 M489.897,21.584c0.287-0.537,0.522-1.104,0.522-1.26c0-0.157-0.303-0.285-0.673-0.285c-0.369,0-0.823,0.152-1.008,0.335
		c-0.185,0.186-0.336,0.753-0.336,1.26v0.925h0.487C489.155,22.559,489.61,22.119,489.897,21.584z M457.913,23.062l-0.312,0.503
		h1.067v-0.503c0-0.277-0.101-0.503-0.222-0.503C458.323,22.559,458.083,22.785,457.913,23.062z M504.025,17.267
		c0-0.14-0.113-0.253-0.252-0.253c-0.138,0-0.251,0.113-0.251,0.253c0,0.138,0.114,0.251,0.251,0.251
		C503.912,17.518,504.025,17.405,504.025,17.267z M497.136,20.668l0.312-1.637h-0.857l-0.319,1.592l-0.318,1.592l0.255,0.255
		c0.14,0.14,0.337,0.16,0.435,0.045C496.744,22.4,496.965,21.569,497.136,20.668z M496.214,24.574c-0.139,0-0.252,0.113-0.252,0.253
		c0,0.138,0.113,0.252,0.252,0.252c0.138,0,0.252-0.113,0.252-0.252C496.466,24.687,496.352,24.574,496.214,24.574z M461.692,15.67
		l0.336-0.336l0.335-0.336h-1.343l0.335,0.336L461.692,15.67z M478.767,22.054h1.631l-0.311-0.504
		c-0.171-0.277-0.399-0.504-0.505-0.504c-0.106,0-0.332,0.227-0.503,0.504L478.767,22.054z M461.944,23.566
		c-0.139,0-0.252,0.114-0.252,0.252c0,0.138,0.113,0.252,0.252,0.252c0.139,0,0.251-0.114,0.251-0.252
		C462.195,23.68,462.083,23.566,461.944,23.566z M459.928,23.062c-0.138,0-0.252,0.113-0.252,0.252c0,0.138,0.114,0.251,0.252,0.251
		c0.139,0,0.252-0.114,0.252-0.251C460.18,23.175,460.067,23.062,459.928,23.062z M468.412,22.054l-0.672-0.672v1.344l0.336-0.336
		L468.412,22.054z M469.251,17.518h1.068l-0.311-0.504c-0.171-0.276-0.411-0.504-0.533-0.504c-0.124,0-0.224,0.228-0.224,0.504
		V17.518z M479.079,24.149h-2.52l0.63,0.254l0.63,0.254l0.63-0.254L479.079,24.149z M476.055,23.062
		c-0.139,0-0.251,0.113-0.251,0.252c0,0.138,0.113,0.251,0.251,0.251c0.139,0,0.252-0.114,0.252-0.251
		C476.307,23.175,476.194,23.062,476.055,23.062z M478.323,16.933V16.51h-1.511v1.008h-1.513v0.505c0,0.276,0.102,0.503,0.229,0.503
		c0.124,0,0.805-0.264,1.511-0.585C477.746,17.62,478.323,17.166,478.323,16.933z M432.966,24.07v-0.504h-1.068l0.311,0.504
		c0.172,0.277,0.413,0.504,0.534,0.504C432.866,24.574,432.966,24.347,432.966,24.07z M349.138,18.862l0.337-0.335l-0.672-0.672
		v1.344L349.138,18.862z M356.364,21.298c0-0.139-0.113-0.253-0.253-0.253c-0.139,0-0.251,0.113-0.251,0.253
		c0,0.138,0.112,0.252,0.251,0.252C356.25,21.55,356.364,21.436,356.364,21.298z M358.291,26.198l0.959-0.364l-0.309-0.864
		l-0.31-0.863l-0.753,0.464l-0.752,0.464L358.291,26.198z M357.874,11.189c0-0.121-0.227-0.222-0.503-0.222h-0.504v1.068
		l0.504-0.312C357.648,11.552,357.874,11.311,357.874,11.189z M351.828,16.762c0-0.139-0.112-0.252-0.253-0.252
		c-0.139,0-0.251,0.113-0.251,0.252c0,0.138,0.112,0.252,0.251,0.252C351.716,17.014,351.828,16.9,351.828,16.762z M340.74,22.559
		h0.976l-0.29-0.757c-0.161-0.416-0.38-0.756-0.489-0.756c-0.108,0-0.197,0.34-0.197,0.756V22.559z M346.146,18.831l0.304-0.304
		l-0.965,0.04l-0.966,0.039l1.322,0.529L346.146,18.831z M348.634,17.35l0.337-0.336h-1.344l0.335,0.336l0.338,0.336L348.634,17.35z
		 M349.812,20.542v-0.505h-1.573l0.312,0.505c0.172,0.277,0.525,0.503,0.786,0.503C349.598,21.046,349.812,20.819,349.812,20.542z
		 M639.519,11.037l-1.083-0.675l0.598-0.37l0.598-0.369l-0.524-1.379l-0.525-1.38l0.291-1.158l0.291-1.159l-1.298-0.248
		l-1.297-0.248v0.624c0,0.344,0.327,0.897,0.725,1.228l0.727,0.602l-0.607,1.58l-0.743-0.953l-0.742-0.953l0.392,1.009
		c0.215,0.554,0.545,2.085,0.733,3.402l0.341,2.393h-1.834v0.909l-3.003,1.047l-0.272-0.44l-0.272-0.44l-1.503,0.043l-1.503,0.043
		v0.385c0,0.212,0.22,0.461,0.49,0.553l0.492,0.168l-0.299,1.134c-0.165,0.624-0.472,1.134-0.684,1.134
		c-0.213,0-0.551-0.51-0.751-1.134c-0.201-0.624-0.333-1.588-0.293-2.142l0.07-1.008l-1.253,1.387
		c-0.689,0.762-1.491,1.386-1.781,1.386h-0.528v-1.653l0.882-0.696l0.882-0.698l-1.833,0.308l-1.832,0.309l-0.326-0.527
		l-0.326-0.527l-0.745,0.285l-0.728,0.28l0.203,0.33l0.298,0.482l-0.34,0.889l-0.342,0.888l0.86-0.329l0.86-0.33l-0.898,1.223
		l-0.897,1.225l-0.904-1.205l-0.902-1.204l-1.995,0.704c-1.097,0.387-1.995,0.573-1.995,0.413c0-0.16-0.3-0.043-0.667,0.262
		l-0.668,0.553l-0.592-0.592l-0.593-0.593v0.526c0,0.29-0.518,1.129-1.15,1.864c-0.632,0.736-1.369,1.338-1.638,1.338h-0.488
		l-0.071-1.233l-0.072-1.233l0.828-0.22l0.826-0.221l-1.11-0.058c-0.613-0.033-1.682,0.201-2.379,0.519l-1.268,0.578l0.266,0.429
		l0.266,0.432h-1.752c-0.963,0-2.111,0.137-2.549,0.305l-0.797,0.306v-1.115h1.511V16.89l1.512,1.256l0.059-0.44
		c0.031-0.242,0.088-0.78,0.125-1.196l0.068-0.755l-1.134-0.92l-1.134-0.917v-1.356l1.26-0.51l-0.756-0.535l-0.756-0.534
		l-1.386-0.008l-1.386-0.008v1.445l0.956,0.303l0.957,0.303l-0.249,0.956l-0.25,0.955l-0.707-0.272l-0.706-0.271l-0.025,0.937
		l-0.026,0.935l-1.697-3.78h-0.638c-0.349,0-0.777-0.002-0.946-0.004l-0.31-0.004l-0.185,2.346
		c-0.101,1.291-0.302,2.464-0.446,2.608l-0.262,0.262v-3.223l-0.852-0.327l-0.852-0.327l-0.198,0.594
		c-0.109,0.326-0.419,0.594-0.69,0.594h-0.492l0.346-0.558l0.344-0.558l-1.134,0.36l-1.135,0.36l0.346-0.558l0.345-0.557h2.46
		v-2.016h0.504c0.276,0,0.504-0.212,0.504-0.471v-0.47l-2.015-0.639l0.51-0.952l0.51-0.954l-1.141-0.6
		c-0.627-0.33-1.318-0.85-1.535-1.155l-0.392-0.555l0.654,2.812l-0.885,0.978l-0.886,0.978l1.203,0.482l1.204,0.481l-1.705,0.065
		l-0.389,0.629c-0.214,0.347-0.396,1.31-0.408,2.142l-0.019,1.51l-0.755,0.004l-0.756,0.001l-0.005,0.902l-0.003,0.902l-0.727,0.449
		c-0.401,0.248-0.893,0.347-1.095,0.223l-0.367-0.228l-0.59,0.955l0.511,0.317l0.513,0.318v1.896l-0.548,0.338l-0.547,0.339
		l-0.561-0.561l-0.562-0.561l0.73-0.015l0.732-0.016l-0.862-0.501l-0.862-0.502l0.638-1.66l-0.844,0.324l-0.844,0.323l-0.075-0.489
		c-0.042-0.268-0.098-0.77-0.126-1.118c-0.028-0.347-0.278-0.817-0.554-1.047l-0.503-0.417l0.629-0.256l0.629-0.255v-1.321
		l-0.694-0.266l-0.694-0.266l-1.064,1.063l-0.867-0.333l-0.867-0.334l1.807-1.321l-0.7-0.266l-0.701-0.267l-1.632,0.242
		l-1.634,0.242l0.276,0.447l0.277,0.448h-1.066v-1.572l-1.008,0.624v-1.127l-0.506,0.312l-0.504,0.313l0.523,0.977l0.522,0.978
		h3.996v1.007c0,0.555-0.009,1.178-0.021,1.386l-0.02,0.378l-0.988-0.04l-0.986-0.039v1.844h0.503c0.276,0,0.476,0.169,0.445,0.377
		c-0.033,0.208-0.033,0.564,0,0.792l0.059,0.414l0.792-0.791c0.436-0.436,1.115-0.792,1.511-0.792h0.721v1.116l-0.72-0.276
		l-0.717-0.276l-1.196,1.439l0.313,1.393l0.313,1.393l-0.72-1.26l-0.718-1.26l-1.175-0.05c-0.646-0.028-1.99-0.217-2.987-0.42
		l-1.814-0.369l-0.832,0.834l-0.833,0.833l-1.134-0.091c-0.624-0.051-1.56-0.068-2.078-0.037l-0.944,0.056l0.629,0.756l0.627,0.757
		h-0.755c-0.414,0-1.498,0.149-2.407,0.33l-1.653,0.33l0.358-0.581l0.36-0.582h2.461v-1.494l-1.386-0.31
		c-0.763-0.171-2.107-0.493-2.989-0.716l-1.604-0.404l-0.542,1.411l0.615,0.06c0.338,0.033,0.807,0.025,1.044-0.018
		c0.237-0.042,0.89,0.069,1.452,0.247l1.022,0.326l-0.625,0.387l-0.627,0.388l-0.833-0.219l-0.833-0.218l-1.253,0.5l-1.252,0.5
		l2.267,0.064v1.425l-1.48-0.56l-1.481-0.559l0.229-0.37l0.229-0.371l-0.566-0.349l-0.565-0.35l0.684-0.434l0.684-0.433l-0.82-0.008
		l-0.819-0.007l-0.302,1.513l-0.303,1.511h-0.859l0.223-1.511l0.221-1.513h-1.006l-0.263,1.009l-0.263,1.008h-1.211l0.581-1.512
		h-1.589l0.581,1.512h-0.447c-0.245,0-0.548-0.283-0.674-0.631l-0.227-0.63l-2.089,1.232l-8.123,0.676v-2.58l-0.63-0.254
		l-0.63-0.254l0.63-0.039l0.63-0.04v-1.992l-1.293,0.491c-0.712,0.271-1.518,0.492-1.794,0.492h-0.501l0.312-0.503l0.311-0.504
		l-0.385-0.626l-0.386-0.625l-0.591,2.51l-1.49,0.138c-0.819,0.076-1.869,0.147-2.331,0.161l-0.841,0.022l-0.294,0.767l-0.295,0.768
		l0.284,0.458l0.283,0.459h2.461v-0.504c0-0.277,0.226-0.504,0.503-0.504h0.504v2.396l-0.853,0.691l-0.852,0.692l0.357-0.595
		l0.356-0.596l-0.458-0.284l-0.459-0.284l-0.319,0.833l-0.32,0.832l-1.013-1.087c-0.558-0.598-1.231-1.087-1.498-1.087h-0.483
		v-1.068l0.629,0.355l0.631,0.355l-0.587-0.634l-0.585-0.635l-0.569,0.351l-0.569,0.351l0.324,1.092
		c0.177,0.6,0.697,1.406,1.154,1.789l0.832,0.698l-0.923-0.32c-0.508-0.177-1.246-0.32-1.638-0.32h-0.715v-2.519l-0.378,0.001
		c-0.208,0.001-1.111,0.449-2.008,0.995l-1.63,0.994l-1.653-0.636l-0.944,1.69l-0.495-0.305l-0.493-0.305l0.305-0.965l0.308-0.966
		h-1.12l0.147-0.813l0.149-0.813l-2.64-0.22l-2.64-0.22l0.302,0.788l0.303,0.786l-0.765-0.294l-0.763-0.292l-0.355,1.615
		l-0.355,1.614l-0.675-1.093l-1.245,0.637l-1.245,0.638l-0.898-0.536l-0.896-0.535l-0.528,0.755l-0.527,0.756l-0.511-1.26h-1.462
		l1.079-2.015h1.476v-1.045l-0.977,0.524l-0.978,0.522l-0.276-0.447l-0.277-0.447l1.12-0.294l1.119-0.293l-0.495-0.471
		c-0.273-0.259-0.95-0.558-1.503-0.664l-1.008-0.193l0.086-1.494l0.087-1.494l-0.498,1.765h-0.619c-0.34,0-0.886-0.269-1.215-0.597
		l-0.596-0.597l-0.304,0.304l-0.302,0.303l1.562,1.391l1.562,1.393l-0.236,1.95l-0.234,1.95l0.982,0.983l0.984,0.984h-0.716
		c-0.393,0-1.073-0.138-1.508-0.305l-0.795-0.305l0.309-0.501l0.31-0.502l-1.036,0.555c-0.569,0.305-1.179,0.554-1.354,0.554h-0.319
		l0.339-1.068l0.338-1.068l-0.683,0.238l-0.682,0.238l0.268,1.538l-0.991,0.259l-0.993,0.258l-0.15-0.383
		c-0.083-0.211-0.688-0.551-1.346-0.757l-1.197-0.372l0.689,1.116h-1.712l-0.67-0.882l-0.635-0.836l0.708,0.012l2.703,0.043
		l0.591-1.54l-1.461-1.46l-1.339,2.143h-2.722l-0.476,0.771l1.959,0.03l-0.015,0.537l-0.015,0.583l-1.009-0.263l-1.009-0.264v1.327
		l-0.581-0.581l-0.581-0.581l-0.931,0.498l-0.93,0.498v-1.043h-1.513v0.504c0,0.278-0.188,0.504-0.419,0.504h-0.42v-1.512h1.74
		l0.242-0.63c0.132-0.346,0.25-0.832,0.263-1.078c0.012-0.246,0.317-0.63,0.68-0.855l0.658-0.407l-0.868-0.333l-0.868-0.332
		l-1.512,0.579v1.545h1.068l-0.312,0.503l-0.312,0.504h-2.258l-0.605-0.605l-0.604-0.605l-0.6,0.599l-0.598,0.598l1.606,0.559
		l1.606,0.56v0.91h-1.511v-1.164l-0.956,0.865l-0.957,0.865l-0.222-0.661l-0.223-0.661l-0.794,0.655l-0.792,0.654l-2.439,0.227
		c-0.774,0.072-1.878,0.131-2.963,0.166l0.44-0.44l-0.671-0.672v1.121c-0.715,0.021-1.411,0.031-1.987,0.024
		c-1.508-0.015-2.925-0.143-3.15-0.281c-0.224-0.138-0.408-0.441-0.408-0.673c0-0.231,0.329-0.546,0.731-0.7l0.73-0.281
		l-0.561,1.462l0.431-0.008c0.238-0.005,0.724-0.192,1.079-0.418l0.647-0.411l-0.323-0.841c-0.177-0.463-0.495-0.842-0.705-0.842
		c-0.21,0-0.988,0.476-1.727,1.057l-1.345,1.058l0.142-0.68l0.144-0.678l-1.932,0.153l-1.931,0.154l-0.648-0.538l-0.647-0.536
		l-0.632,0.761l-0.634,0.762h-1.496l0.614-1.764L456.4,25.33l-1.637,0.159l-1.639,0.158V24.07h-0.982l0.318,1.591l0.319,1.59
		l-0.611-0.378l-0.612-0.377l-1.332,0.333l-1.331,0.333l0.73,0.462l0.731,0.462l-1.163,0.007l-1.165,0.008l0.249-0.401l0.248-0.403
		l-0.425-0.687l-0.425-0.688l-0.895,0.894l-0.894,0.894l-0.575-0.788l-0.577-0.788l-2.122,0.556l0.286,0.832l0.284,0.832
		l-1.616-2.016l-0.031,1.26h-1.958l-0.315,0.511l-0.318,0.512l-0.468-0.29c-0.258-0.159-0.47-0.527-0.47-0.817v-0.528l0.676,0.258
		l0.678,0.261l0.709-0.45l0.709-0.45l-1.511-0.067c-0.832-0.037-1.674-0.043-1.872-0.014l-0.359,0.053l0.267-0.698l0.269-0.699
		l-0.472-0.291l-0.47-0.291l-0.95,1.07l-0.949,1.069l0.63,0.22l0.63,0.22v1.334l-1.009-0.265l-1.008-0.262V26.59h-1.007v1.635
		l-0.78-0.647l-0.779-0.647l0.654-0.471l0.652-0.47l-0.923,0.3l-0.928,0.3l-0.57-1.512l-0.572-1.513h-1.272l-0.247,1.134
		c-0.138,0.623-0.31,1.564-0.389,2.09l-0.14,0.955l1.174,0.412l0.218-0.658l0.216-0.658l-0.053,0.757l-0.054,0.755l-1.128,0.161
		l-1.131,0.161v-0.458c0-0.253-0.557-0.713-1.243-1.024l-1.241-0.565l-0.648,0.611l-0.647,0.611l-4.033-0.069l-0.629,0.474
		l-0.631,0.474v-0.917l-1.064-0.081c-0.585-0.044-1.185-0.201-1.331-0.347l-0.267-0.267l1.177-1.419l-0.81-0.31
		c-0.447-0.172-1.032-0.311-1.302-0.311h-0.493l0.403,0.629c0.223,0.347,0.417,1.141,0.432,1.765l0.025,1.134h-0.8v-1.358
		l-1.522-0.044l-1.523-0.043l0.257,0.415l0.257,0.416l-1.796,0.337c-0.987,0.185-2.177,0.459-2.642,0.606l-0.846,0.271l1.482-1.048
		l-0.35-0.35l-0.352-0.352l-0.672,0.559l-0.673,0.558l-3.21-0.972l-3.21-0.973l-1.42,2.027l-0.667-0.553l-0.665-0.552l-0.653,1.057
		h-2.461v-1.511h-1.007l-0.018,0.881l-0.015,0.882l-0.689-0.909l-0.688-0.908l-0.266,0.656l-0.264,0.657l-1.085-1.512l-0.495,0.757
		l-0.497,0.755l-0.007-0.663l-0.007-0.663l-2.357,0.197l-2.358,0.198l-0.379,0.969c-0.209,0.534-0.395,0.772-0.414,0.53l-0.036-0.44
		l-0.675,0.561l-0.675,0.562l-0.334-0.331c-0.183-0.183-0.331-0.52-0.331-0.752v-0.42h0.726c0.398,0,0.84-0.186,0.979-0.412
		l0.256-0.412l-4.588,0.158l-1.061,1.857l-0.219,0.384H640V11.395C639.853,11.268,639.692,11.146,639.519,11.037z M357.034,20.038
		l-0.67-0.672v1.344l0.336-0.337L357.034,20.038z M336.708,17.518h1.571l-0.311-0.504c-0.171-0.276-0.526-0.504-0.786-0.504
		c-0.262,0-0.474,0.228-0.474,0.504V17.518z M620.43,13.094l0.018-0.007l-0.01-0.015L620.43,13.094z M620.352,12.933l0.086,0.14
		l0.267-0.697l0.277-0.719l-0.748-1.443l-0.75-1.443l0.256-0.414l0.256-0.414h-0.504c-0.277,0-0.644,0.228-0.815,0.504l-0.312,0.505
		h1.137l-0.641,2.015h1.076v0.526c0,0.288-0.272,0.815-0.604,1.17l-0.603,0.646l-1.09-0.208l-1.09-0.209l-0.602,1.57l0.486,0.301
		l0.484,0.3l0.291-0.756l0.29-0.757l0.722,0.277l0.72,0.276l0.705-0.584L620.352,12.933z M306.922,29.677h13.083l-0.639-0.531
		l-0.712-0.589l-0.325,0.528c-0.181,0.291-0.555,0.528-0.832,0.528h-0.504l0.38-0.63l0.377-0.63l-1.452,1.122l-3.384-0.083
		l-3.385-0.08l-0.337-0.336l-0.336-0.335L306.922,29.677z M370.746,15.081l1.535,0.743l-0.022-2.93l-0.02-2.931L371.86,9.96
		l-0.378-0.002V12.1l-1.566-0.313l-1.567-0.312l0.348,1.382c0.19,0.761,0.384,1.407,0.431,1.433
		C369.175,14.317,369.903,14.674,370.746,15.081z M360.899,20.26c0-0.122-0.228-0.222-0.505-0.222h-0.504v1.068l0.504-0.311
		C360.672,20.623,360.899,20.383,360.899,20.26z M372.41,29.673l0.676-0.428l-0.671-1.075l-0.672-1.075h-1.601
		c-0.879,0-1.962-0.14-2.403-0.309l-0.804-0.308l0.311,0.812l0.31,0.812h-0.555c-0.308,0-0.559-0.206-0.559-0.458v-0.457
		l-5.368,0.173l-5.368,0.172l-0.36,0.585l-0.361,0.584l-1.497-0.773l-1.496-0.775l-1.4,0.726c-0.77,0.4-1.69,0.726-2.044,0.726
		h-0.645l-0.308-0.802l-0.306-0.801l0.283-0.459l0.283-0.458h-1.502L345.68,28.2l-1.291-0.247l-1.292-0.246l-1.623,0.911
		l-1.624,0.911l-0.512-0.511l-0.511-0.512l-1.059,0.336l-1.059,0.336v0.469c0,0.012-0.006,0.02-0.006,0.03h32.967
		c0.122-0.739,0.237-1.411,0.259-1.511c0.023-0.104,0.368,0.084,0.767,0.414l0.726,0.602l-0.19,0.494h1.172L372.41,29.673z
		 M374.608,29.677l0.065-0.064h-1.344l0.065,0.064H374.608z M413.143,20.877l0.337-0.335h-1.344l0.336,0.335l0.336,0.336
		L413.143,20.877z M405.751,22.809c0-0.138-0.113-0.25-0.252-0.25c-0.138,0-0.251,0.112-0.251,0.25c0,0.139,0.113,0.253,0.251,0.253
		C405.638,23.062,405.751,22.948,405.751,22.809z M405.248,20.794c0-0.139-0.114-0.252-0.252-0.252
		c-0.141,0-0.252,0.113-0.252,0.252c0,0.138,0.111,0.251,0.252,0.251C405.134,21.046,405.248,20.933,405.248,20.794z
		 M404.744,16.259c0-0.139-0.113-0.252-0.253-0.252c-0.139,0-0.251,0.113-0.251,0.252c0,0.138,0.112,0.251,0.251,0.251
		C404.631,16.51,404.744,16.397,404.744,16.259z M406.591,25.414l0.337-0.336h-1.345l0.336,0.336l0.338,0.335L406.591,25.414z
		 M336.96,22.054c-0.139,0-0.252,0.112-0.252,0.251c0,0.138,0.113,0.253,0.252,0.253c0.139,0,0.251-0.115,0.251-0.253
		C337.211,22.166,337.099,22.054,336.96,22.054z M417.091,17.518c-0.172-0.276-0.425-0.504-0.564-0.504
		c-0.138,0-0.11,0.228,0.061,0.504c0.17,0.277,0.423,0.505,0.561,0.505C417.289,18.023,417.262,17.795,417.091,17.518z
		 M409.784,15.755c0-0.14-0.114-0.252-0.252-0.252c-0.141,0-0.252,0.113-0.252,0.252c0,0.138,0.111,0.252,0.252,0.252
		C409.67,16.007,409.784,15.893,409.784,15.755z M400.543,24.909l0.336-0.335h-1.344l0.337,0.335l0.337,0.337L400.543,24.909z
		 M411.295,23.764c0-0.109-0.213-0.198-0.474-0.198s-0.613,0.224-0.781,0.498l-0.308,0.498l0.782-0.3
		C410.943,24.097,411.295,23.873,411.295,23.764z M411.799,22.306c0-0.14-0.112-0.251-0.252-0.251c-0.139,0-0.252,0.112-0.252,0.251
		c0,0.138,0.113,0.253,0.252,0.253C411.687,22.559,411.799,22.444,411.799,22.306z M329.148,16.762c0-0.139-0.113-0.252-0.251-0.252
		c-0.14,0-0.252,0.113-0.252,0.252c0,0.138,0.112,0.252,0.252,0.252C329.034,17.014,329.148,16.9,329.148,16.762z M329.654,19.563
		c0-0.26-0.229-0.614-0.506-0.785l-0.503-0.311v1.571h0.503C329.425,20.038,329.654,19.824,329.654,19.563z M333.18,19.282
		c0-0.138-0.112-0.252-0.251-0.252c-0.14,0-0.252,0.113-0.252,0.252c0,0.139,0.112,0.252,0.252,0.252
		C333.067,19.534,333.18,19.421,333.18,19.282z M395.169,9.706c0-0.138-0.115-0.251-0.253-0.251c-0.139,0-0.252,0.113-0.252,0.251
		c0,0.139,0.113,0.253,0.252,0.253C395.053,9.959,395.169,9.845,395.169,9.706z M335.951,29.614l0.311-0.504l-0.407-0.03
		c-0.224-0.016-1.315-0.12-2.423-0.231c-1.11-0.112-3.88-0.314-6.16-0.449l-4.143-0.248l-0.603,0.975l-0.982-0.607l-0.735,0.61
		l-0.661,0.549h15.763L335.951,29.614z M393.571,22.379c0.093-0.225,0.093-0.472,0-0.551c-0.091-0.077-0.449-0.039-0.797,0.084
		c-0.346,0.126-0.629,0.414-0.629,0.643v0.418l0.629-0.092C393.122,22.829,393.48,22.604,393.571,22.379z M392.481,11.805
		l0.334-0.335l-0.67-0.673v1.344L392.481,11.805z M328.645,14.747c0-0.138-0.113-0.252-0.252-0.252
		c-0.139,0-0.253,0.114-0.253,0.252c0,0.138,0.114,0.251,0.253,0.251C328.532,14.998,328.645,14.885,328.645,14.747z
		 M391.474,26.421l0.334-0.336h-1.344l0.337,0.336l0.337,0.336L391.474,26.421z M594.067,13.319l0.336-0.337l-0.671-0.672v1.344
		L594.067,13.319z M508.107,22.432c0.325-0.624,0.411-0.967,0.191-0.76l-0.4,0.373l-1.193-0.989l-0.277,0.276l-0.276,0.276
		l0.255,0.979c0.141,0.538,0.449,0.979,0.683,0.979C507.325,23.566,507.783,23.055,508.107,22.432z M587.337,15.25l0.34-2.268
		h-1.002v1.512h-1.512v1.078l1.085-0.16L587.337,15.25z M586.424,17.014c-0.14,0-0.253,0.113-0.253,0.253
		c0,0.138,0.113,0.251,0.253,0.251c0.139,0,0.252-0.113,0.252-0.251C586.676,17.127,586.563,17.014,586.424,17.014z M581.803,13.487
		h2.353v-0.891l-1.176-0.224l-1.176-0.225V13.487z M588.188,11.219c0-0.14-0.114-0.253-0.253-0.253
		c-0.138,0-0.252,0.113-0.252,0.253c0,0.138,0.114,0.252,0.252,0.252C588.074,11.471,588.188,11.358,588.188,11.219z M594.235,9.203
		c0-0.139-0.114-0.252-0.252-0.252c-0.139,0-0.252,0.113-0.252,0.252c0,0.138,0.113,0.253,0.252,0.253
		C594.121,9.455,594.235,9.341,594.235,9.203z M584.156,15.25c0-0.138-0.113-0.252-0.253-0.252c-0.138,0-0.251,0.114-0.251,0.252
		c0,0.138,0.113,0.253,0.251,0.253C584.043,15.503,584.156,15.388,584.156,15.25z M585.667,11.723c0-0.139-0.113-0.252-0.251-0.252
		c-0.139,0-0.253,0.113-0.253,0.252c0,0.138,0.114,0.252,0.253,0.252C585.554,11.975,585.667,11.861,585.667,11.723z M597.763,9.929
		V9.455h-1.957l-0.313,0.507l-0.315,0.507l0.764,0.293l0.764,0.293l0.527-0.326C597.524,10.55,597.763,10.19,597.763,9.929z
		 M585.5,13.822l0.336-0.336h-1.344l0.336,0.336l0.337,0.337L585.5,13.822z M566.013,9.706c0-0.138-0.113-0.251-0.252-0.251
		c-0.139,0-0.251,0.113-0.251,0.251c0,0.139,0.113,0.253,0.251,0.253C565.9,9.959,566.013,9.845,566.013,9.706z M567.274,18.023
		c-0.14,0-0.253,0.112-0.253,0.251c0,0.139,0.113,0.253,0.253,0.253c0.138,0,0.251-0.114,0.251-0.253
		C567.525,18.135,567.412,18.023,567.274,18.023z M566.349,12.815l0.336-0.337h-1.344l0.336,0.337l0.337,0.336L566.349,12.815z
		 M567.508,15.032c0.286-0.536,0.521-1.217,0.521-1.512c0-0.295-0.17-0.53-0.378-0.521c-0.208,0.008-0.772,0.314-1.253,0.68
		l-0.873,0.663l0.355,0.356l0.355,0.355l-0.741,0.47l-0.742,0.468l2.233,0.016L567.508,15.032z M576.964,11.271l0.304-0.305
		l-0.966,0.04l-0.966,0.04l1.323,0.529L576.964,11.271z M573.069,18.023c-0.416-0.269-0.983-0.49-1.26-0.49h-0.503l0.755,0.49
		c0.416,0.268,0.983,0.487,1.26,0.487h0.503L573.069,18.023z M582.854,16.313l-0.798-0.307l0.2,0.599
		c0.11,0.329,0.469,0.688,0.798,0.799l0.599,0.198V17.11C583.652,16.839,583.292,16.48,582.854,16.313z M569.373,17.35l0.336-0.336
		h-1.343l0.335,0.336l0.337,0.336L569.373,17.35z M571.052,18.023v-0.505h-1.068l0.312,0.505c0.172,0.276,0.411,0.503,0.534,0.503
		C570.953,18.526,571.052,18.299,571.052,18.023z M612.765,13.586l0.159-0.479l-1.455-0.559l0.249,1.694l0.444-0.088
		C612.405,14.106,612.676,13.85,612.765,13.586z M632.698,12.388c0.465-0.465,0.847-1.065,0.847-1.331
		c0-0.268-0.304-0.602-0.676-0.746l-0.677-0.259l-0.71,0.45l-0.709,0.45l1.67,0.015l-0.297,1.134l-0.296,1.134L632.698,12.388z
		 M630.688,12.982l-0.672-0.672v1.344l0.337-0.336L630.688,12.982z M630.846,9.517l0.515-1.363l-0.546-0.947
		c-0.302-0.521-1.283-1.613-2.183-2.426l-1.638-1.478V1.926l0.807,0.31l0.806,0.309l-0.186-0.955l-0.186-0.955l-1-0.052
		c-0.55-0.028-1.112-0.102-1.251-0.164c-0.138-0.062-0.6-0.182-1.028-0.266L624.182,0l-1.257,1.082l-1.258,1.081l0.452,1.907
		l0.45,1.907l-0.811,0.896c-0.447,0.493-0.812,1.17-0.812,1.504v0.606l0.882,0.331c0.485,0.181,1.16,0.685,1.502,1.118l0.62,0.788
		l1.027-1.513l0.447,0.696l0.448,0.694l1.051-0.649l0.529,0.855l1.441-0.211l1.439-0.212L630.846,9.517z M633.041,9.203
		c0-0.139-0.113-0.252-0.253-0.252c-0.138,0-0.251,0.113-0.251,0.252c0,0.138,0.113,0.253,0.251,0.253
		C632.927,9.455,633.041,9.341,633.041,9.203z M499.237,24.574c-0.138,0-0.251,0.113-0.251,0.253c0,0.138,0.113,0.252,0.251,0.252
		c0.139,0,0.253-0.113,0.253-0.252C499.49,24.687,499.376,24.574,499.237,24.574z M598.267,11.723c0-0.139-0.114-0.252-0.252-0.252
		c-0.139,0-0.253,0.113-0.253,0.252c0,0.138,0.113,0.252,0.253,0.252C598.153,11.975,598.267,11.861,598.267,11.723z
		 M498.701,21.307c0.044,0.559,0.253,1.296,0.464,1.638c0.212,0.341,0.623,0.621,0.913,0.621h0.527l-0.374-0.882
		c-0.205-0.485-0.345-1.392-0.311-2.016c0.034-0.624,0.008-1.131-0.058-1.127c-0.066,0.006-0.373,0.176-0.682,0.379l-0.561,0.371
		L498.701,21.307z M615.151,14.495c-0.14,0-0.253,0.114-0.253,0.252c0,0.138,0.113,0.251,0.253,0.251
		c0.138,0,0.251-0.113,0.251-0.251C615.402,14.608,615.289,14.495,615.151,14.495z M602.551,13.487c0.138,0,0.252-0.114,0.252-0.253
		c0-0.139-0.114-0.252-0.252-0.252c-0.139,0-0.253,0.113-0.253,0.252C602.298,13.373,602.412,13.487,602.551,13.487z
		 M635.057,12.731c0-0.139-0.113-0.253-0.251-0.253c-0.139,0-0.253,0.113-0.253,0.253c0,0.138,0.114,0.251,0.253,0.251
		C634.944,12.982,635.057,12.869,635.057,12.731z M605.434,13.966l0.208-1.419l-0.943-0.246l-0.946-0.247l0.595,0.716l0.594,0.717
		h-1.635v1.394l0.96,0.251l0.959,0.251L605.434,13.966z M605.07,16.51c-0.138,0-0.251,0.113-0.251,0.252
		c0,0.138,0.113,0.252,0.251,0.252c0.139,0,0.253-0.114,0.253-0.252C605.323,16.623,605.21,16.51,605.07,16.51z M607.169,14.326
		l0.337-0.335l-0.672-0.672v1.344L607.169,14.326z M615.906,13.487v-0.505h-1.068l0.313,0.505c0.171,0.276,0.411,0.504,0.533,0.504
		S615.906,13.763,615.906,13.487z M601.291,9.959h1.067l-0.31-0.503c-0.172-0.278-0.412-0.504-0.534-0.504
		c-0.123,0-0.223,0.227-0.223,0.504V9.959z M608.851,13.234c0-0.139-0.113-0.252-0.253-0.252s-0.253,0.113-0.253,0.252
		c0,0.139,0.113,0.253,0.253,0.253S608.851,13.373,608.851,13.234z M564.502,12.227c0-0.14-0.114-0.253-0.253-0.253
		c-0.139,0-0.253,0.113-0.253,0.253c0,0.138,0.113,0.251,0.253,0.251C564.388,12.478,564.502,12.365,564.502,12.227z
		 M614.394,13.234c0-0.139-0.113-0.252-0.252-0.252c-0.138,0-0.252,0.113-0.252,0.252c0,0.139,0.113,0.253,0.252,0.253
		C614.281,13.487,614.394,13.373,614.394,13.234z M609.55,15.39l1.203-0.099l-0.249-0.651c-0.138-0.358-0.282-0.624-0.321-0.592
		c-0.04,0.031-0.469,0.163-0.954,0.289l-0.882,0.23v0.923L609.55,15.39z M585.386,16.007H584.6l0.316,0.511l0.317,0.512l0.468-0.29
		c0.258-0.159,0.469-0.389,0.469-0.512C586.171,16.107,585.819,16.007,585.386,16.007z M533.004,18.023l0.311-0.505h-1.571v0.505
		c0,0.276,0.213,0.503,0.474,0.503C532.479,18.526,532.832,18.299,533.004,18.023z M532.529,15.503h0.727v-1.511h-0.672
		c-0.369,0-0.817,0.144-0.995,0.322l-0.321,0.321l0.268,0.435C531.683,15.307,532.13,15.503,532.529,15.503z M530.736,18.328
		c0-0.109-0.341-0.328-0.757-0.489l-0.755-0.289v0.976h0.755C530.395,18.526,530.736,18.437,530.736,18.328z M532.247,11.723
		c0-0.139-0.113-0.252-0.251-0.252c-0.139,0-0.252,0.113-0.252,0.252c0,0.138,0.113,0.252,0.252,0.252
		C532.134,11.975,532.247,11.861,532.247,11.723z M528.047,14.83l0.336-0.336h-1.344l0.336,0.336l0.336,0.336L528.047,14.83z
		 M537.089,13.78l0.305-0.798h-0.436c-0.24,0-0.721,0.454-1.066,1.009l-0.63,1.007h0.76c0.418,0,0.761-0.095,0.761-0.21
		C536.783,14.672,536.921,14.218,537.089,13.78z M539.807,22.054V21.55h-1.069l0.312,0.504c0.172,0.277,0.412,0.504,0.534,0.504
		C539.707,22.559,539.807,22.331,539.807,22.054z M539.05,16.51c-0.105,0-0.332,0.228-0.503,0.504l-0.312,0.504h1.631l-0.311-0.504
		C539.384,16.738,539.156,16.51,539.05,16.51z M536.951,17.518h-1.344l0.336,0.336l0.337,0.336l0.336-0.336L536.951,17.518z
		 M521.217,22.199l0.561-0.561l-0.678-1.096h-3.527l0.312,0.503l0.31,0.504h2.461v1.21L521.217,22.199z M527.208,20.038l1.764-0.015
		l-0.757-0.489c-0.415-0.268-0.897-0.492-1.073-0.497c-0.173-0.004-0.598,0.332-0.942,0.749l-0.628,0.757l-2.647,0.03l1.511,0.886
		l1.386-0.264l1.385-0.266V20.038z M511.21,17.582l0.251-0.96l-0.752-1.218l-0.572,1.643c-0.315,0.903-0.473,1.743-0.352,1.864
		c0.122,0.122,0.436,0.088,0.698-0.074C510.744,18.674,511.072,18.11,511.21,17.582z M512.593,20.038
		c0-0.277-0.227-0.504-0.503-0.504c-0.277,0-0.504,0.227-0.504,0.504c0,0.277,0.227,0.505,0.504,0.505
		C512.365,20.542,512.593,20.315,512.593,20.038z M509.515,20.038h-0.45v3.024h0.45c0.247,0,0.581-0.34,0.741-0.757l0.29-0.756
		l-0.29-0.755C510.095,20.379,509.761,20.038,509.515,20.038z M512.593,15.755c0-0.14-0.113-0.252-0.252-0.252
		c-0.138,0-0.251,0.113-0.251,0.252c0,0.138,0.113,0.252,0.251,0.252C512.48,16.007,512.593,15.893,512.593,15.755z M520.908,11.37
		l1.812-2.419l-0.653,0.007c-0.359,0.004-0.964,0.204-1.343,0.444l-0.688,0.437l0.436,0.765L520.908,11.37z M521.664,13.991
		c0.276,0,0.503-0.228,0.503-0.504c0-0.277-0.227-0.505-0.503-0.505c-0.277,0-0.503,0.228-0.503,0.505
		C521.161,13.763,521.387,13.991,521.664,13.991z M548.262,19.411l1.372-0.869l-1.512-0.087c-0.832-0.049-1.796-0.077-2.142-0.065
		l-0.63,0.024v-1.4h-0.755c-0.417,0-0.781,0.17-0.811,0.378c-0.03,0.208-0.086,0.831-0.127,1.385l-0.072,1.008l-3.275-0.148v0.39
		c0,0.216,0.68,0.673,1.511,1.018l1.512,0.627v0.443c0,0.244,0.227,0.444,0.504,0.444h0.504v-1.607l1.008-0.264l1.007-0.264v-1.512
		L548.262,19.411z M520.319,18.526h-1.343l0.336,0.335l0.336,0.337l0.336-0.337L520.319,18.526z M561.477,18.023h1.067l-0.31-0.505
		c-0.173-0.276-0.413-0.504-0.534-0.504c-0.123,0-0.223,0.228-0.223,0.504V18.023z M554.026,17.928l-1.165,0.624l-1.163,0.623
		l-0.192-0.576l-0.193-0.575h-1.428v0.939l1.045,0.332l1.046,0.331l0.294-0.293l0.294-0.293l1.429,1.185l0.445-0.719l0.445-0.719
		l-0.429-0.429L554.026,17.928z M554.926,13.739c0-0.139-0.114-0.252-0.252-0.252c-0.139,0-0.252,0.113-0.252,0.252
		c0,0.138,0.113,0.253,0.252,0.253C554.812,13.991,554.926,13.877,554.926,13.739z M554.422,17.267c0-0.14-0.113-0.253-0.252-0.253
		c-0.14,0-0.252,0.113-0.252,0.253c0,0.138,0.112,0.251,0.252,0.251C554.308,17.518,554.422,17.405,554.422,17.267z M541.571,15.078
		h-2.52l0.631,0.254l0.63,0.254l0.63-0.254L541.571,15.078z M563.997,11.219c0-0.14-0.113-0.253-0.251-0.253
		c-0.14,0-0.253,0.113-0.253,0.253c0,0.138,0.113,0.252,0.253,0.252C563.883,11.471,563.997,11.358,563.997,11.219z M540.941,21.557
		l-0.63-0.007v0.89l1.112,0.292l1.112,0.291l0.259-0.261l0.259-0.259l-0.742-0.469C541.905,21.776,541.287,21.561,540.941,21.557z
		 M558.285,17.854l0.337-0.336h-1.344l0.336,0.336l0.336,0.336L558.285,17.854z M558.245,13.952l2.226-0.583v-0.89l-0.631,0.008
		c-0.347,0.004-0.964,0.219-1.372,0.477l-0.742,0.468l0.259,0.259L558.245,13.952z M558.454,15.503v0.504h1.067l-0.311-0.504
		c-0.17-0.278-0.411-0.504-0.533-0.504C558.552,14.998,558.454,15.225,558.454,15.503z M541.318,16.51h-1.007v2.016h1.007V16.51z
		 M549.382,11.441c0-0.26-0.228-0.474-0.504-0.474h-0.505v1.572l0.505-0.311C549.155,12.056,549.382,11.701,549.382,11.441z
		 M549.046,12.982h-1.344l0.336,0.337l0.337,0.336l0.336-0.336L549.046,12.982z M546.526,21.382l0.337,0.336l0.336-0.336
		l0.336-0.336h-1.344L546.526,21.382z M544.847,22.559l2.268-0.017l-0.756-0.488c-0.416-0.269-0.925-0.493-1.134-0.497
		c-0.208-0.004-0.378,0.22-0.378,0.497V22.559z M542.327,18.778c0-0.138-0.113-0.251-0.251-0.251c-0.14,0-0.253,0.114-0.253,0.251
		c0,0.138,0.113,0.252,0.253,0.252C542.214,19.03,542.327,18.916,542.327,18.778z M541.822,12.731c0-0.139-0.112-0.253-0.252-0.253
		c-0.139,0-0.253,0.113-0.253,0.253c0,0.138,0.114,0.251,0.253,0.251C541.71,12.982,541.822,12.869,541.822,12.731z M542.327,10.714
		c0-0.138-0.113-0.252-0.251-0.252c-0.14,0-0.253,0.114-0.253,0.252c0,0.138,0.113,0.252,0.253,0.252
		C542.214,10.966,542.327,10.853,542.327,10.714z M545.854,15.25c0-0.138-0.113-0.252-0.252-0.252c-0.139,0-0.251,0.114-0.251,0.252
		c0,0.138,0.113,0.253,0.251,0.253C545.741,15.503,545.854,15.388,545.854,15.25z M547.367,12.731c0-0.139-0.113-0.253-0.253-0.253
		c-0.138,0-0.252,0.113-0.252,0.253c0,0.138,0.114,0.251,0.252,0.251C547.254,12.982,547.367,12.869,547.367,12.731z"/>
	<path style="fill:#FFFFFF;" d="M202.498,23.062c0-0.277-0.099-0.503-0.221-0.503c-0.123,0-0.362,0.226-0.535,0.503l-0.31,0.503
		h1.066V23.062z M200.231,16.007c0.138,0,0.252-0.113,0.252-0.252c0-0.14-0.114-0.252-0.252-0.252c-0.139,0-0.253,0.113-0.253,0.252
		C199.978,15.893,200.092,16.007,200.231,16.007z M200.24,25.664l1.251,0.335v-1.341l-0.631-0.261
		c-0.346-0.142-0.925-0.218-1.286-0.167l-0.656,0.093l0.073,1.007L200.24,25.664z M203.255,14.998c0.138,0,0.251-0.113,0.251-0.251
		c0-0.138-0.113-0.252-0.251-0.252c-0.14,0-0.253,0.114-0.253,0.252C203.002,14.885,203.115,14.998,203.255,14.998z M197.962,18.19
		v-1.344l-0.671,0.672l0.337,0.336L197.962,18.19z M223.161,26.056c0-0.262-0.227-0.474-0.504-0.474h-0.503v1.572l0.503-0.312
		C222.935,26.671,223.161,26.316,223.161,26.056z M188.639,24.607l0.757,0.479c0.416,0.265,1.04,0.483,1.386,0.488l0.63,0.008
		v-0.715c0-0.393-0.145-1.093-0.322-1.554l-0.322-0.84L188.639,24.607z M192.67,25.078c0.14,0,0.253-0.113,0.253-0.252
		c0-0.139-0.113-0.253-0.253-0.253c-0.139,0-0.251,0.113-0.251,0.253C192.42,24.964,192.532,25.078,192.67,25.078z M205.048,22.559
		c-0.26,0-0.615,0.226-0.786,0.503l-0.31,0.503h1.571v-0.503C205.523,22.785,205.309,22.559,205.048,22.559z M219.802,24.405
		l0.335,0.336l0.338-0.336l0.336-0.336h-1.344L219.802,24.405z M214.845,19.03c0.14,0,0.254-0.114,0.254-0.252
		c0-0.138-0.114-0.251-0.254-0.251c-0.138,0-0.251,0.114-0.251,0.251C214.594,18.916,214.707,19.03,214.845,19.03z M219.958,10.168
		l0.826,0.318l-0.637-0.769c-0.349-0.422-0.722-0.767-0.826-0.767c-0.106,0-0.192,0.203-0.192,0.45
		C219.129,9.648,219.501,9.993,219.958,10.168z M218.877,26.268l0.756,0.29v-0.976h-0.756c-0.415,0-0.756,0.089-0.756,0.198
		C218.121,25.889,218.462,26.109,218.877,26.268z M205.428,20.574l0.22-0.662l-0.661,0.22c-0.364,0.121-0.761,0.519-0.882,0.883
		l-0.221,0.661l0.661-0.22C204.909,21.334,205.307,20.937,205.428,20.574z M211.319,19.534c0.138,0,0.251-0.113,0.251-0.252
		c0-0.138-0.113-0.252-0.251-0.252c-0.14,0-0.254,0.113-0.254,0.252C211.065,19.421,211.179,19.534,211.319,19.534z M133.707,20.542
		c0.14,0,0.253-0.114,0.253-0.252c0-0.139-0.113-0.253-0.253-0.253c-0.139,0-0.251,0.113-0.251,0.253
		C133.456,20.429,133.568,20.542,133.707,20.542z M211.207,21.522l0.885-0.547l-0.291-0.468c-0.16-0.259-0.503-0.47-0.763-0.47
		c-0.263,0-0.474,0.189-0.474,0.42c0,0.23,0.144,0.564,0.322,0.742L211.207,21.522z M210.815,22.559c0.138,0,0.25-0.115,0.25-0.253
		c0-0.14-0.112-0.251-0.25-0.251c-0.14,0-0.252,0.112-0.252,0.251C210.563,22.444,210.675,22.559,210.815,22.559z M183.852,19.282
		c0,0.139,0.112,0.252,0.251,0.252c0.14,0,0.253-0.113,0.253-0.252c0-0.138-0.113-0.252-0.253-0.252
		C183.964,19.03,183.852,19.144,183.852,19.282z M153.27,24.984l0.676-0.259c0.371-0.143,0.675-0.348,0.675-0.457
		c0-0.109-0.623-0.195-1.385-0.192l-1.386,0.009l0.71,0.45L153.27,24.984z M153.11,17.014c-0.416-0.269-0.813-0.492-0.882-0.496
		c-0.068-0.004-0.126,0.22-0.126,0.496v0.504l1.765-0.015L153.11,17.014z M165.171,23.293l0.468,0.29l0.318-0.512l0.316-0.511
		h-0.786c-0.432,0-0.785,0.098-0.785,0.221C164.701,22.902,164.912,23.133,165.171,23.293z M162.433,13.991
		c0.138,0,0.252-0.114,0.252-0.253c0-0.139-0.114-0.252-0.252-0.252c-0.139,0-0.252,0.113-0.252,0.252
		C162.181,13.877,162.294,13.991,162.433,13.991z M153.613,19.03c0,0.276,0.213,0.503,0.474,0.503c0.262,0,0.615-0.227,0.786-0.503
		l0.312-0.504h-1.572V19.03z M151.111,22.559h0.487v-0.925c0-0.507-0.151-1.075-0.336-1.26c-0.185-0.183-0.639-0.335-1.008-0.335
		c-0.37,0-0.673,0.128-0.673,0.285c0,0.157,0.235,0.723,0.522,1.26C150.39,22.119,150.845,22.559,151.111,22.559z M181.554,22.559
		c-0.122,0-0.222,0.226-0.222,0.503v0.503h1.067l-0.312-0.503C181.917,22.785,181.677,22.559,181.554,22.559z M136.227,17.518
		c0.138,0,0.251-0.113,0.251-0.251c0-0.14-0.114-0.253-0.251-0.253c-0.139,0-0.252,0.113-0.252,0.253
		C135.975,17.405,136.088,17.518,136.227,17.518z M143.355,22.515c0.098,0.115,0.295,0.095,0.435-0.045l0.255-0.255l-0.318-1.592
		l-0.319-1.592h-0.857l0.312,1.637C143.035,21.569,143.256,22.4,143.355,22.515z M143.534,24.826c0,0.138,0.114,0.252,0.252,0.252
		c0.139,0,0.252-0.113,0.252-0.252c0-0.139-0.113-0.253-0.252-0.253C143.648,24.574,143.534,24.687,143.534,24.826z M178.645,15.334
		l0.335-0.336h-1.343l0.335,0.336l0.336,0.336L178.645,15.334z M160.921,21.55c-0.171-0.277-0.398-0.504-0.503-0.504
		c-0.106,0-0.333,0.227-0.505,0.504l-0.311,0.504h1.631L160.921,21.55z M177.805,23.818c0,0.138,0.112,0.252,0.251,0.252
		c0.139,0,0.252-0.114,0.252-0.252c0-0.138-0.113-0.252-0.252-0.252C177.917,23.566,177.805,23.68,177.805,23.818z M179.82,23.314
		c0,0.138,0.113,0.251,0.252,0.251c0.138,0,0.252-0.114,0.252-0.251c0-0.139-0.114-0.252-0.252-0.252
		C179.933,23.062,179.82,23.175,179.82,23.314z M171.925,22.39l0.336,0.336v-1.344l-0.672,0.672L171.925,22.39z M170.749,17.014
		c0-0.276-0.1-0.504-0.224-0.504c-0.122,0-0.362,0.228-0.533,0.504l-0.311,0.504h1.068V17.014z M161.551,24.403l0.63,0.254
		l0.63-0.254l0.63-0.254h-2.52L161.551,24.403z M163.693,23.314c0,0.138,0.113,0.251,0.252,0.251c0.139,0,0.251-0.114,0.251-0.251
		c0-0.139-0.113-0.252-0.251-0.252C163.806,23.062,163.693,23.175,163.693,23.314z M162.961,17.941
		c0.707,0.321,1.387,0.585,1.511,0.585c0.127,0,0.229-0.228,0.229-0.503v-0.505h-1.513V16.51h-1.511v0.423
		C161.677,17.166,162.254,17.62,162.961,17.941z M207.257,24.574c0.121,0,0.362-0.227,0.534-0.504l0.311-0.504h-1.068v0.504
		C207.034,24.347,207.134,24.574,207.257,24.574z M291.197,19.198v-1.344l-0.672,0.672l0.337,0.335L291.197,19.198z M283.889,21.55
		c0.139,0,0.251-0.114,0.251-0.252c0-0.139-0.112-0.253-0.251-0.253c-0.14,0-0.253,0.113-0.253,0.253
		C283.636,21.436,283.75,21.55,283.889,21.55z M282.874,25.035l-0.752-0.464l-0.753-0.464l-0.31,0.863l-0.309,0.864l0.959,0.364
		L282.874,25.035z M282.628,11.723l0.504,0.312v-1.068h-0.504c-0.276,0-0.503,0.101-0.503,0.222
		C282.126,11.311,282.352,11.552,282.628,11.723z M288.425,17.014c0.139,0,0.251-0.114,0.251-0.252c0-0.139-0.112-0.252-0.251-0.252
		c-0.141,0-0.253,0.113-0.253,0.252C288.172,16.9,288.284,17.014,288.425,17.014z M299.26,21.802c0-0.416-0.089-0.756-0.197-0.756
		c-0.109,0-0.328,0.34-0.489,0.756l-0.29,0.757h0.976V21.802z M294.158,19.135l1.322-0.529l-0.966-0.039l-0.965-0.04l0.304,0.304
		L294.158,19.135z M291.7,17.686l0.338-0.336l0.335-0.336h-1.344l0.337,0.336L291.7,17.686z M290.664,21.046
		c0.26,0,0.614-0.227,0.786-0.503l0.312-0.505h-1.573v0.505C290.188,20.819,290.402,21.046,290.664,21.046z M0,11.395l0,18.282
		h263.352l-0.219-0.384l-1.061-1.857l-4.588-0.158l0.256,0.412c0.14,0.226,0.581,0.412,0.979,0.412h0.726v0.42
		c0,0.231-0.148,0.569-0.331,0.752l-0.334,0.331l-0.675-0.562l-0.675-0.561l-0.036,0.44c-0.019,0.242-0.205,0.003-0.414-0.53
		l-0.379-0.969l-2.358-0.198l-2.357-0.197l-0.007,0.663l-0.007,0.663l-0.497-0.755l-0.495-0.757l-1.085,1.512l-0.264-0.657
		l-0.266-0.656l-0.688,0.908l-0.689,0.909l-0.015-0.882l-0.018-0.881h-1.007v1.511h-2.461l-0.653-1.057l-0.665,0.552l-0.667,0.553
		l-1.42-2.027l-3.21,0.973l-3.21,0.972l-0.673-0.558l-0.672-0.559l-0.352,0.352l-0.35,0.35l1.482,1.048l-0.846-0.271
		c-0.465-0.147-1.655-0.421-2.642-0.606l-1.796-0.337l0.257-0.416l0.257-0.415l-1.523,0.043l-1.522,0.044v1.358h-0.8l0.025-1.134
		c0.015-0.624,0.209-1.417,0.432-1.765l0.403-0.629h-0.493c-0.27,0-0.855,0.14-1.302,0.311l-0.81,0.31l1.177,1.419l-0.267,0.267
		c-0.146,0.146-0.745,0.303-1.331,0.347l-1.064,0.081v0.917l-0.631-0.474l-0.629-0.474l-4.033,0.069l-0.647-0.611l-0.648-0.611
		l-1.241,0.565c-0.686,0.311-1.243,0.772-1.243,1.024v0.458l-1.131-0.161l-1.128-0.161l-0.054-0.755l-0.053-0.757l0.216,0.658
		l0.218,0.658l1.174-0.412l-0.14-0.955c-0.078-0.525-0.251-1.467-0.389-2.09l-0.247-1.134h-1.272l-0.572,1.513l-0.57,1.512
		l-0.928-0.3l-0.923-0.3l0.652,0.47l0.654,0.471l-0.779,0.647l-0.78,0.647V26.59h-1.007v1.394l-1.008,0.262l-1.009,0.265v-1.334
		l0.63-0.22l0.63-0.22l-0.949-1.069l-0.95-1.07l-0.47,0.291l-0.472,0.291l0.269,0.699l0.267,0.698l-0.359-0.053
		c-0.198-0.029-1.04-0.023-1.872,0.014l-1.511,0.067l0.709,0.45l0.709,0.45l0.678-0.261l0.676-0.258v0.528
		c0,0.29-0.212,0.659-0.47,0.817l-0.468,0.29l-0.318-0.512l-0.316-0.511h-1.958l-0.031-1.26l-1.616,2.016l0.284-0.832l0.286-0.832
		l-2.122-0.556l-0.577,0.788l-0.575,0.788l-0.894-0.894l-0.895-0.894l-0.425,0.688l-0.425,0.687l0.248,0.403l0.249,0.401
		l-1.165-0.008l-1.163-0.007l0.731-0.462l0.73-0.462l-1.331-0.333l-1.332-0.333l-0.612,0.377l-0.611,0.378l0.319-1.59l0.318-1.591
		h-0.982v1.577l-1.639-0.158L183.6,25.33l-1.262-1.512l0.614,1.764h-1.496l-0.634-0.762l-0.632-0.761l-0.647,0.536l-0.648,0.538
		l-1.931-0.154l-1.932-0.153l0.144,0.678l0.142,0.68l-1.345-1.058c-0.739-0.581-1.517-1.057-1.727-1.057
		c-0.21,0-0.527,0.379-0.705,0.842l-0.323,0.841l0.647,0.411c0.356,0.227,0.841,0.413,1.079,0.418l0.431,0.008l-0.561-1.462
		l0.73,0.281c0.402,0.155,0.731,0.47,0.731,0.7c0,0.232-0.183,0.535-0.408,0.673c-0.225,0.138-1.642,0.265-3.15,0.281
		c-0.576,0.006-1.272-0.004-1.987-0.024v-1.121l-0.671,0.672l0.44,0.44c-1.085-0.035-2.189-0.094-2.963-0.166l-2.439-0.227
		l-0.792-0.654l-0.794-0.655l-0.223,0.661l-0.222,0.661l-0.957-0.865l-0.956-0.865v1.164h-1.511v-0.91l1.606-0.56l1.606-0.559
		l-0.598-0.598l-0.6-0.599l-0.604,0.605l-0.605,0.605h-2.258l-0.312-0.504l-0.312-0.503h1.068v-1.545l-1.512-0.579l-0.868,0.332
		l-0.868,0.333l0.658,0.407c0.363,0.224,0.669,0.609,0.68,0.855c0.012,0.246,0.13,0.732,0.263,1.078l0.242,0.63h1.74v1.512h-0.42
		c-0.231,0-0.419-0.226-0.419-0.504v-0.504h-1.513v1.043l-0.93-0.498l-0.931-0.498l-0.581,0.581l-0.581,0.581V24.96l-1.009,0.264
		l-1.009,0.263l-0.015-0.583l-0.015-0.537l1.959-0.03l-0.476-0.771h-2.722l-1.339-2.143l-1.461,1.46l0.591,1.54l2.703-0.043
		l0.708-0.012l-0.635,0.836l-0.67,0.882h-1.712l0.689-1.116l-1.197,0.372c-0.659,0.205-1.263,0.546-1.346,0.757l-0.15,0.383
		l-0.993-0.258l-0.991-0.259l0.268-1.538l-0.682-0.238l-0.683-0.238l0.338,1.068l0.339,1.068h-0.319
		c-0.175,0-0.786-0.249-1.354-0.554l-1.036-0.555l0.31,0.502l0.309,0.501l-0.795,0.305c-0.436,0.168-1.115,0.305-1.508,0.305h-0.716
		l0.984-0.984l0.982-0.983l-0.234-1.95l-0.236-1.95l1.562-1.393l1.562-1.391l-0.302-0.303l-0.304-0.304l-0.596,0.597
		c-0.329,0.328-0.875,0.597-1.215,0.597h-0.619l-0.498-1.765l0.087,1.494l0.086,1.494l-1.008,0.193
		c-0.553,0.106-1.23,0.406-1.503,0.664l-0.495,0.471l1.119,0.293l1.12,0.294l-0.277,0.447l-0.276,0.447l-0.978-0.522l-0.977-0.524
		v1.045h1.476l1.079,2.015h-1.462l-0.511,1.26l-0.527-0.756l-0.528-0.755l-0.896,0.535l-0.898,0.536l-1.245-0.638l-1.245-0.637
		l-0.675,1.093l-0.355-1.614l-0.355-1.615l-0.763,0.292l-0.765,0.294l0.303-0.786l0.302-0.788l-2.64,0.22l-2.64,0.22l0.149,0.813
		l0.147,0.813h-1.12l0.308,0.966l0.305,0.965l-0.493,0.305l-0.494,0.305l-0.944-1.69l-1.653,0.636l-1.63-0.994
		c-0.896-0.546-1.8-0.994-2.007-0.995l-0.378-0.001v2.519h-0.715c-0.393,0-1.13,0.143-1.638,0.32l-0.923,0.32l0.832-0.698
		c0.457-0.384,0.977-1.189,1.154-1.789l0.324-1.092l-0.569-0.351l-0.569-0.351l-0.585,0.635l-0.587,0.634l0.631-0.355l0.629-0.355
		v1.068h-0.483c-0.267,0-0.94,0.489-1.498,1.087l-1.013,1.087l-0.32-0.832l-0.319-0.833l-0.459,0.284l-0.458,0.284l0.356,0.596
		l0.357,0.595l-0.852-0.692l-0.853-0.691V21.55h0.504c0.278,0,0.503,0.228,0.503,0.504v0.504h2.461l0.283-0.459l0.284-0.458
		l-0.295-0.768l-0.294-0.767l-0.841-0.022c-0.462-0.014-1.511-0.085-2.331-0.161l-1.49-0.138l-0.591-2.51l-0.386,0.625l-0.385,0.626
		l0.311,0.504l0.312,0.503h-0.501c-0.276,0-1.083-0.221-1.794-0.492l-1.293-0.491v1.992l0.63,0.04l0.63,0.039l-0.63,0.254
		l-0.63,0.254v2.58l-8.123-0.676l-2.089-1.232l-0.227,0.63c-0.125,0.347-0.429,0.631-0.674,0.631h-0.447l0.581-1.512h-1.589
		l0.581,1.512h-1.211l-0.263-1.008l-0.263-1.009h-1.006l0.221,1.513l0.223,1.511h-0.859l-0.303-1.511l-0.302-1.513l-0.819,0.007
		l-0.82,0.008l0.684,0.433l0.684,0.434l-0.565,0.35l-0.566,0.349l0.229,0.371l0.229,0.37l-1.481,0.559l-1.48,0.56v-1.425
		l2.267-0.064l-1.252-0.5l-1.253-0.5l-0.833,0.218l-0.833,0.219l-0.627-0.388l-0.625-0.387l1.022-0.326
		c0.562-0.178,1.215-0.289,1.452-0.247c0.237,0.043,0.706,0.051,1.045,0.018l0.615-0.06l-0.542-1.411l-1.604,0.404
		c-0.881,0.223-2.226,0.545-2.989,0.716l-1.386,0.31v1.494h2.461l0.36,0.582l0.358,0.581l-1.653-0.33
		c-0.908-0.181-1.993-0.33-2.407-0.33h-0.755l0.627-0.757l0.629-0.756l-0.944-0.056c-0.518-0.031-1.454-0.014-2.078,0.037
		l-1.134,0.091l-0.833-0.833l-0.832-0.834l-1.814,0.369c-0.996,0.203-2.341,0.392-2.987,0.42l-1.175,0.05l-0.718,1.26l-0.72,1.26
		l0.313-1.393l0.313-1.393l-1.196-1.439l-0.717,0.276l-0.72,0.276v-1.116h0.721c0.396,0,1.076,0.356,1.511,0.792l0.792,0.791
		l0.059-0.414c0.033-0.228,0.033-0.584,0-0.792c-0.031-0.208,0.168-0.377,0.445-0.377h0.503v-1.844l-0.986,0.039l-0.988,0.04
		l-0.02-0.378c-0.011-0.208-0.021-0.831-0.021-1.386v-1.007h3.996l0.522-0.978l0.523-0.977l-0.504-0.313l-0.506-0.312v1.127
		l-1.009-0.624v1.572h-1.066l0.277-0.448l0.276-0.447l-1.634-0.242l-1.632-0.242l-0.701,0.267l-0.7,0.266l1.807,1.321l-0.867,0.334
		l-0.867,0.333l-1.064-1.063l-0.694,0.266l-0.694,0.266v1.321l0.629,0.255l0.629,0.256l-0.503,0.417
		c-0.276,0.229-0.526,0.7-0.554,1.047c-0.028,0.347-0.084,0.85-0.126,1.118l-0.075,0.489l-0.844-0.323l-0.844-0.324l0.638,1.66
		l-0.862,0.502l-0.862,0.501l0.732,0.016l0.73,0.015l-0.562,0.561l-0.561,0.561l-0.547-0.339l-0.548-0.338v-1.896l0.513-0.318
		l0.511-0.317l-0.59-0.955l-0.367,0.228c-0.202,0.124-0.694,0.025-1.095-0.223l-0.727-0.449l-0.003-0.902l-0.005-0.902l-0.756-0.001
		l-0.755-0.004l-0.019-1.51c-0.012-0.832-0.194-1.795-0.408-2.142l-0.389-0.629l-1.705-0.065l1.204-0.481l1.203-0.482l-0.886-0.978
		l-0.885-0.978l0.654-2.812L49.939,6.23c-0.217,0.305-0.907,0.824-1.535,1.155l-1.141,0.6l0.51,0.954l0.51,0.952l-2.015,0.639V11
		c0,0.258,0.228,0.471,0.504,0.471h0.504v2.016h2.46l0.345,0.557l0.346,0.558l-1.134-0.36l-1.134-0.36l0.344,0.558l0.346,0.558
		h-0.492c-0.272,0-0.581-0.268-0.69-0.594l-0.198-0.594l-0.852,0.327l-0.852,0.327v3.223l-0.262-0.262
		c-0.144-0.144-0.345-1.318-0.446-2.608l-0.185-2.346l-0.31,0.004c-0.169,0.003-0.597,0.004-0.946,0.004h-0.638l-1.697,3.78
		l-0.026-0.935l-0.025-0.937l-0.706,0.271l-0.707,0.272l-0.25-0.955l-0.249-0.956l0.957-0.303l0.956-0.303v-1.445l-1.386,0.008
		l-1.386,0.008l-0.756,0.534l-0.756,0.535l1.26,0.51v1.356l-1.134,0.917l-1.134,0.92l0.068,0.755
		c0.037,0.416,0.094,0.954,0.125,1.196l0.059,0.44l1.512-1.256v1.133h1.511v1.115l-0.797-0.306
		c-0.438-0.168-1.586-0.305-2.549-0.305h-1.752l0.266-0.432l0.266-0.429l-1.268-0.578c-0.697-0.318-1.767-0.552-2.379-0.519
		l-1.11,0.058l0.826,0.221l0.828,0.22L31.473,18.3l-0.071,1.233h-0.488c-0.269,0-1.006-0.602-1.638-1.338
		c-0.633-0.736-1.15-1.574-1.15-1.864v-0.526l-0.593,0.593l-0.592,0.592l-0.668-0.553c-0.367-0.306-0.667-0.423-0.667-0.262
		c0,0.16-0.898-0.026-1.995-0.413l-1.995-0.704l-0.902,1.204l-0.904,1.205l-0.897-1.225l-0.898-1.223l0.86,0.33l0.86,0.329
		l-0.342-0.888l-0.34-0.889l0.298-0.482l0.203-0.33l-0.728-0.28l-0.745-0.285l-0.326,0.527l-0.326,0.527l-1.832-0.309l-1.833-0.308
		l0.882,0.698l0.882,0.696v1.653h-0.528c-0.29,0-1.092-0.624-1.781-1.386l-1.253-1.387l0.07,1.008
		c0.039,0.554-0.093,1.518-0.293,2.142c-0.2,0.624-0.538,1.134-0.751,1.134c-0.212,0-0.519-0.51-0.684-1.134l-0.299-1.134
		l0.492-0.168c0.27-0.092,0.49-0.341,0.49-0.553v-0.385l-1.503-0.043l-1.503-0.043l-0.272,0.44l-0.272,0.44l-3.003-1.047v-0.909
		H2.605l0.341-2.393c0.188-1.317,0.518-2.848,0.733-3.402l0.392-1.009L3.329,7.131L2.586,8.084l-0.607-1.58l0.727-0.602
		c0.398-0.331,0.725-0.884,0.725-1.228V4.051L2.134,4.299L0.836,4.547l0.291,1.159l0.291,1.158l-0.525,1.38L0.369,9.623l0.598,0.369
		l0.598,0.37l-1.083,0.675C0.308,11.146,0.147,11.268,0,11.395z M283.301,20.373l0.336,0.337v-1.344l-0.67,0.672L283.301,20.373z
		 M303.292,17.014c0-0.276-0.213-0.504-0.474-0.504c-0.259,0-0.615,0.228-0.786,0.504l-0.311,0.504h1.571V17.014z M19.562,13.073
		l-0.01,0.015l0.018,0.007L19.562,13.073z M20.353,13.519l0.705,0.584l0.72-0.276L22.5,13.55l0.29,0.757l0.291,0.756l0.484-0.3
		l0.486-0.301l-0.602-1.57l-1.09,0.209l-1.09,0.208l-0.603-0.646c-0.331-0.355-0.604-0.882-0.604-1.17v-0.526h1.076l-0.641-2.015
		h1.137l-0.312-0.505c-0.171-0.276-0.538-0.504-0.815-0.504h-0.504l0.256,0.414l0.256,0.414l-0.75,1.443l-0.748,1.443l0.277,0.719
		l0.267,0.697l0.086-0.14L20.353,13.519z M331.143,28.642l-0.336,0.335l-0.337,0.336l-3.385,0.08l-3.384,0.083l-1.452-1.122
		l0.377,0.63l0.38,0.63h-0.504c-0.277,0-0.651-0.238-0.832-0.528l-0.325-0.528l-0.712,0.589l-0.639,0.531h13.083L331.143,28.642z
		 M270.872,14.29c0.047-0.026,0.241-0.672,0.431-1.433l0.348-1.382l-1.567,0.312l-1.566,0.313V9.959L268.14,9.96l-0.379,0.003
		l-0.02,2.931l-0.022,2.93l1.535-0.743C270.097,14.674,270.825,14.317,270.872,14.29z M279.606,20.794l0.504,0.311v-1.068h-0.504
		c-0.277,0-0.505,0.101-0.505,0.222C279.101,20.383,279.328,20.623,279.606,20.794z M267.596,29.677h1.172l-0.19-0.494l0.726-0.602
		c0.398-0.33,0.743-0.518,0.767-0.414c0.022,0.1,0.138,0.772,0.259,1.511h32.967c0-0.01-0.006-0.019-0.006-0.03v-0.469l-1.059-0.336
		l-1.059-0.336l-0.511,0.512l-0.512,0.511l-1.624-0.911l-1.623-0.911l-1.292,0.246L294.32,28.2l-0.672-2.115h-1.502l0.283,0.458
		l0.283,0.459l-0.306,0.801l-0.308,0.802h-0.645c-0.355,0-1.275-0.327-2.044-0.726l-1.4-0.726l-1.496,0.775l-1.497,0.773
		l-0.361-0.584l-0.36-0.585l-5.368-0.172l-5.368-0.173v0.457c0,0.252-0.251,0.458-0.559,0.458h-0.555l0.31-0.812l0.311-0.812
		l-0.804,0.308c-0.441,0.169-1.525,0.309-2.403,0.309h-1.601l-0.672,1.075l-0.671,1.075l0.676,0.428L267.596,29.677z
		 M266.606,29.677l0.065-0.064h-1.344l0.065,0.064H266.606z M227.193,21.214l0.336-0.336l0.336-0.335h-1.344l0.337,0.335
		L227.193,21.214z M234.501,23.062c0.138,0,0.251-0.114,0.251-0.253c0-0.138-0.113-0.25-0.251-0.25c-0.139,0-0.252,0.112-0.252,0.25
		C234.249,22.948,234.362,23.062,234.501,23.062z M235.004,21.046c0.141,0,0.252-0.113,0.252-0.251c0-0.139-0.111-0.252-0.252-0.252
		c-0.138,0-0.252,0.113-0.252,0.252C234.752,20.933,234.866,21.046,235.004,21.046z M235.509,16.51c0.139,0,0.251-0.113,0.251-0.251
		c0-0.139-0.112-0.252-0.251-0.252c-0.14,0-0.253,0.113-0.253,0.252C235.256,16.397,235.369,16.51,235.509,16.51z M233.744,25.749
		l0.338-0.335l0.336-0.336h-1.345l0.337,0.336L233.744,25.749z M302.789,22.306c0,0.138,0.112,0.253,0.251,0.253
		c0.139,0,0.252-0.115,0.252-0.253c0-0.14-0.113-0.251-0.252-0.251C302.901,22.054,302.789,22.166,302.789,22.306z M222.851,18.023
		c0.138,0,0.391-0.228,0.561-0.505c0.172-0.276,0.199-0.504,0.061-0.504c-0.14,0-0.393,0.228-0.564,0.504
		C222.738,17.795,222.711,18.023,222.851,18.023z M230.468,16.007c0.141,0,0.252-0.113,0.252-0.252c0-0.14-0.111-0.252-0.252-0.252
		c-0.138,0-0.252,0.113-0.252,0.252C230.216,15.893,230.33,16.007,230.468,16.007z M239.791,25.246l0.337-0.337l0.337-0.335h-1.344
		l0.336,0.335L239.791,25.246z M229.486,24.262l0.782,0.3l-0.308-0.498c-0.168-0.274-0.52-0.498-0.781-0.498
		s-0.474,0.09-0.474,0.198C228.705,23.873,229.057,24.097,229.486,24.262z M228.453,22.559c0.139,0,0.252-0.115,0.252-0.253
		c0-0.14-0.113-0.251-0.252-0.251c-0.14,0-0.252,0.112-0.252,0.251C228.201,22.444,228.313,22.559,228.453,22.559z M311.103,17.014
		c0.14,0,0.252-0.114,0.252-0.252c0-0.139-0.112-0.252-0.252-0.252c-0.138,0-0.251,0.113-0.251,0.252
		C310.852,16.9,310.966,17.014,311.103,17.014z M310.852,20.038h0.503v-1.571l-0.503,0.311c-0.277,0.171-0.506,0.525-0.506,0.785
		C310.346,19.824,310.575,20.038,310.852,20.038z M307.071,19.534c0.14,0,0.252-0.113,0.252-0.252c0-0.138-0.112-0.252-0.252-0.252
		c-0.139,0-0.251,0.113-0.251,0.252C306.82,19.421,306.933,19.534,307.071,19.534z M245.084,9.959c0.139,0,0.252-0.114,0.252-0.253
		c0-0.138-0.113-0.251-0.252-0.251c-0.138,0-0.253,0.113-0.253,0.251C244.831,9.845,244.947,9.959,245.084,9.959z M304.088,29.677
		h15.763l-0.661-0.549l-0.735-0.61l-0.982,0.607l-0.603-0.975l-4.143,0.248c-2.28,0.136-5.05,0.338-6.16,0.449
		c-1.108,0.111-2.199,0.215-2.423,0.231l-0.407,0.03l0.311,0.504L304.088,29.677z M247.226,22.881l0.629,0.092v-0.418
		c0-0.229-0.283-0.517-0.629-0.643c-0.348-0.123-0.706-0.161-0.797-0.084c-0.093,0.078-0.093,0.326,0,0.551
		C246.52,22.604,246.878,22.829,247.226,22.881z M247.855,12.142v-1.344l-0.67,0.673l0.334,0.335L247.855,12.142z M311.607,14.998
		c0.139,0,0.253-0.113,0.253-0.251c0-0.138-0.114-0.252-0.253-0.252c-0.139,0-0.252,0.114-0.252,0.252
		C311.355,14.885,311.468,14.998,311.607,14.998z M248.863,26.757l0.337-0.336l0.337-0.336h-1.344l0.334,0.336L248.863,26.757z
		 M46.269,13.654V12.31l-0.671,0.672l0.336,0.337L46.269,13.654z M132.911,23.566c0.234,0,0.542-0.441,0.683-0.979l0.255-0.979
		l-0.276-0.276l-0.277-0.276l-1.193,0.989l-0.4-0.373c-0.22-0.207-0.134,0.136,0.191,0.76
		C132.217,23.055,132.675,23.566,132.911,23.566z M53.751,15.412l1.085,0.16v-1.078h-1.512v-1.512h-1.002l0.34,2.268L53.751,15.412z
		 M53.324,17.267c0,0.138,0.113,0.251,0.252,0.251c0.14,0,0.253-0.113,0.253-0.251c0-0.14-0.113-0.253-0.253-0.253
		C53.437,17.014,53.324,17.127,53.324,17.267z M58.197,12.147l-1.176,0.225l-1.176,0.224v0.891h2.353V12.147z M52.064,11.471
		c0.138,0,0.252-0.113,0.252-0.252c0-0.14-0.114-0.253-0.252-0.253c-0.139,0-0.253,0.113-0.253,0.253
		C51.812,11.358,51.926,11.471,52.064,11.471z M46.017,9.455c0.139,0,0.252-0.114,0.252-0.253c0-0.139-0.113-0.252-0.252-0.252
		c-0.138,0-0.252,0.113-0.252,0.252C45.765,9.341,45.878,9.455,46.017,9.455z M56.097,15.503c0.138,0,0.251-0.114,0.251-0.253
		c0-0.138-0.113-0.252-0.251-0.252c-0.14,0-0.253,0.114-0.253,0.252C55.844,15.388,55.957,15.503,56.097,15.503z M54.584,11.975
		c0.139,0,0.253-0.114,0.253-0.252c0-0.139-0.114-0.252-0.253-0.252c-0.138,0-0.251,0.113-0.251,0.252
		C54.333,11.861,54.446,11.975,54.584,11.975z M42.766,10.73l0.527,0.326l0.764-0.293l0.764-0.293l-0.315-0.507l-0.313-0.507h-1.957
		v0.473C42.237,10.19,42.476,10.55,42.766,10.73z M54.836,14.159l0.337-0.337l0.336-0.336h-1.344l0.336,0.336L54.836,14.159z
		 M74.239,9.959c0.139,0,0.251-0.114,0.251-0.253c0-0.138-0.113-0.251-0.251-0.251c-0.139,0-0.252,0.113-0.252,0.251
		C73.987,9.845,74.1,9.959,74.239,9.959z M72.475,18.274c0,0.139,0.113,0.253,0.251,0.253c0.14,0,0.253-0.114,0.253-0.253
		c0-0.139-0.113-0.251-0.253-0.251C72.588,18.023,72.475,18.135,72.475,18.274z M73.987,13.151l0.337-0.336l0.336-0.337h-1.344
		l0.336,0.337L73.987,13.151z M73.014,16.007l2.233-0.016l-0.742-0.468l-0.741-0.47l0.355-0.355l0.355-0.356l-0.873-0.663
		c-0.481-0.366-1.045-0.672-1.253-0.68c-0.208-0.009-0.378,0.226-0.378,0.521c0,0.295,0.235,0.976,0.521,1.512L73.014,16.007z
		 M63.34,11.576l1.323-0.529l-0.966-0.04l-0.966-0.04l0.304,0.305L63.34,11.576z M66.176,18.51h0.504
		c0.278,0,0.844-0.219,1.26-0.487l0.755-0.49h-0.504c-0.277,0-0.844,0.221-1.26,0.49L66.176,18.51z M56.348,17.11v0.492l0.599-0.198
		c0.329-0.111,0.689-0.47,0.798-0.799l0.2-0.599l-0.798,0.307C56.708,16.48,56.348,16.839,56.348,17.11z M70.962,17.686L71.3,17.35
		l0.335-0.336h-1.343l0.336,0.336L70.962,17.686z M69.169,18.526c0.123,0,0.363-0.228,0.534-0.503l0.312-0.505h-1.068v0.505
		C68.948,18.299,69.047,18.526,69.169,18.526z M27.838,14.154l0.444,0.088l0.249-1.694l-1.455,0.559l0.159,0.479
		C27.324,13.85,27.595,14.106,27.838,14.154z M8.149,13.234L7.854,12.1l-0.297-1.134l1.67-0.015l-0.709-0.45l-0.71-0.45L7.131,10.31
		c-0.371,0.144-0.676,0.478-0.676,0.746c0,0.267,0.382,0.867,0.847,1.331L8.149,13.234z M9.647,13.319l0.337,0.336V12.31
		l-0.672,0.672L9.647,13.319z M9.667,10.879l1.439,0.212l1.441,0.211l0.529-0.855l1.051,0.649l0.448-0.694l0.447-0.696l1.027,1.513
		l0.62-0.788c0.342-0.432,1.017-0.937,1.502-1.118l0.882-0.331V8.377c0-0.334-0.365-1.011-0.812-1.504l-0.811-0.896l0.45-1.907
		l0.452-1.907l-1.258-1.081L15.818,0l-0.775,0.153c-0.428,0.084-0.889,0.204-1.027,0.266c-0.139,0.062-0.701,0.136-1.251,0.164
		l-1,0.052L11.579,1.59l-0.186,0.955l0.806-0.309l0.807-0.31v1.377l-1.638,1.478c-0.901,0.813-1.881,1.905-2.183,2.426L8.639,8.154
		l0.515,1.363L9.667,10.879z M7.212,9.455c0.138,0,0.251-0.114,0.251-0.253c0-0.139-0.113-0.252-0.251-0.252
		c-0.139,0-0.253,0.113-0.253,0.252C6.959,9.341,7.073,9.455,7.212,9.455z M140.51,24.826c0,0.138,0.114,0.252,0.253,0.252
		c0.138,0,0.251-0.113,0.251-0.252c0-0.139-0.113-0.253-0.251-0.253C140.624,24.574,140.51,24.687,140.51,24.826z M41.985,11.975
		c0.139,0,0.253-0.114,0.253-0.252c0-0.139-0.113-0.252-0.253-0.252c-0.138,0-0.252,0.113-0.252,0.252
		C41.733,11.861,41.847,11.975,41.985,11.975z M141.381,20.29l-0.561-0.371c-0.309-0.203-0.616-0.373-0.682-0.379
		c-0.066-0.004-0.092,0.504-0.058,1.127c0.034,0.624-0.105,1.531-0.311,2.016l-0.374,0.882h0.527c0.29,0,0.701-0.28,0.913-0.621
		c0.211-0.342,0.42-1.079,0.464-1.638L141.381,20.29z M24.598,14.747c0,0.138,0.113,0.251,0.251,0.251
		c0.14,0,0.253-0.113,0.253-0.251c0-0.138-0.113-0.252-0.253-0.252C24.711,14.495,24.598,14.608,24.598,14.747z M37.702,13.234
		c0-0.139-0.113-0.252-0.253-0.252c-0.138,0-0.252,0.113-0.252,0.252c0,0.139,0.114,0.253,0.252,0.253
		C37.588,13.487,37.702,13.373,37.702,13.234z M5.195,12.982c0.139,0,0.253-0.113,0.253-0.251c0-0.139-0.114-0.253-0.253-0.253
		c-0.139,0-0.251,0.113-0.251,0.253C4.943,12.869,5.056,12.982,5.195,12.982z M34.775,15.383l0.959-0.251l0.96-0.251v-1.394h-1.635
		l0.594-0.717l0.595-0.716l-0.946,0.247l-0.943,0.246l0.208,1.419L34.775,15.383z M34.677,16.762c0,0.138,0.113,0.252,0.253,0.252
		c0.138,0,0.251-0.114,0.251-0.252c0-0.139-0.113-0.252-0.251-0.252C34.79,16.51,34.677,16.623,34.677,16.762z M33.166,14.662
		v-1.344l-0.672,0.672l0.337,0.335L33.166,14.662z M24.316,13.991c0.122,0,0.362-0.228,0.533-0.504l0.313-0.505h-1.068v0.505
		C24.094,13.763,24.195,13.991,24.316,13.991z M38.709,9.455c0-0.278-0.1-0.504-0.223-0.504c-0.122,0-0.362,0.227-0.534,0.504
		l-0.31,0.503h1.067V9.455z M31.402,13.487c0.139,0,0.253-0.114,0.253-0.253c0-0.139-0.113-0.252-0.253-0.252
		s-0.253,0.113-0.253,0.252C31.149,13.373,31.263,13.487,31.402,13.487z M75.751,12.478c0.139,0,0.253-0.113,0.253-0.251
		c0-0.14-0.113-0.253-0.253-0.253c-0.139,0-0.253,0.113-0.253,0.253C75.498,12.365,75.612,12.478,75.751,12.478z M25.858,13.487
		c0.138,0,0.252-0.114,0.252-0.253c0-0.139-0.113-0.252-0.252-0.252c-0.139,0-0.252,0.113-0.252,0.252
		C25.606,13.373,25.719,13.487,25.858,13.487z M31.654,15.492v-0.923l-0.882-0.23c-0.485-0.127-0.915-0.258-0.955-0.289
		c-0.039-0.032-0.183,0.234-0.321,0.592l-0.249,0.651l1.203,0.099L31.654,15.492z M53.829,16.228c0,0.123,0.211,0.353,0.469,0.512
		l0.468,0.29l0.317-0.512l0.316-0.511h-0.786C54.181,16.007,53.829,16.107,53.829,16.228z M107.782,18.526
		c0.261,0,0.474-0.228,0.474-0.503v-0.505h-1.571l0.311,0.505C107.168,18.299,107.521,18.526,107.782,18.526z M108.465,15.069
		l0.268-0.435l-0.321-0.321c-0.177-0.178-0.626-0.322-0.995-0.322h-0.672v1.511h0.727C107.87,15.503,108.317,15.307,108.465,15.069z
		 M110.021,18.526h0.755V17.55l-0.755,0.289c-0.416,0.16-0.757,0.38-0.757,0.489C109.264,18.437,109.605,18.526,110.021,18.526z
		 M108.004,11.975c0.139,0,0.252-0.114,0.252-0.252c0-0.139-0.113-0.252-0.252-0.252c-0.138,0-0.251,0.113-0.251,0.252
		C107.753,11.861,107.866,11.975,108.004,11.975z M112.289,15.166l0.336-0.336l0.336-0.336h-1.344l0.336,0.336L112.289,15.166z
		 M103.217,14.788c0,0.115,0.342,0.21,0.761,0.21h0.76l-0.63-1.007c-0.345-0.555-0.825-1.009-1.066-1.009h-0.436l0.305,0.798
		C103.079,14.218,103.217,14.672,103.217,14.788z M100.416,22.559c0.122,0,0.362-0.228,0.534-0.504l0.312-0.504h-1.069v0.504
		C100.193,22.331,100.293,22.559,100.416,22.559z M100.446,17.014l-0.311,0.504h1.631l-0.312-0.504
		c-0.172-0.276-0.398-0.504-0.503-0.504C100.844,16.51,100.616,16.738,100.446,17.014z M103.385,17.854l0.336,0.336l0.337-0.336
		l0.336-0.336h-1.344L103.385,17.854z M119.344,22.759v-1.21h2.461l0.31-0.504l0.312-0.503H118.9l-0.678,1.096l0.561,0.561
		L119.344,22.759z M112.792,20.928l1.385,0.266l1.386,0.264l1.511-0.886l-2.647-0.03l-0.628-0.757
		c-0.345-0.416-0.77-0.752-0.942-0.749c-0.175,0.004-0.658,0.228-1.073,0.497l-0.757,0.489l1.764,0.015V20.928z M129.518,18.836
		c0.262,0.163,0.576,0.196,0.698,0.074c0.121-0.121-0.038-0.96-0.352-1.864l-0.572-1.643l-0.752,1.218l0.251,0.96
		C128.928,18.11,129.256,18.674,129.518,18.836z M127.911,20.542c0.277,0,0.504-0.227,0.504-0.505c0-0.277-0.227-0.504-0.504-0.504
		c-0.276,0-0.503,0.227-0.503,0.504C127.407,20.315,127.635,20.542,127.911,20.542z M129.745,20.794l-0.29,0.755l0.29,0.756
		c0.16,0.416,0.494,0.757,0.741,0.757h0.45v-3.024h-0.45C130.239,20.038,129.905,20.379,129.745,20.794z M127.659,16.007
		c0.138,0,0.251-0.113,0.251-0.252c0-0.14-0.113-0.252-0.251-0.252c-0.139,0-0.252,0.113-0.252,0.252
		C127.407,15.893,127.52,16.007,127.659,16.007z M119.529,10.604l0.436-0.765l-0.688-0.437c-0.38-0.24-0.984-0.44-1.343-0.444
		l-0.653-0.007l1.812,2.419L119.529,10.604z M118.839,13.487c0-0.277-0.226-0.505-0.504-0.505c-0.276,0-0.503,0.228-0.503,0.505
		c0,0.276,0.227,0.504,0.503,0.504C118.613,13.991,118.839,13.763,118.839,13.487z M93.642,18.912v1.512l1.007,0.264l1.008,0.264
		v1.607h0.503c0.278,0,0.504-0.2,0.504-0.444v-0.443l1.512-0.627c0.831-0.344,1.511-0.801,1.511-1.018v-0.39l-3.275,0.148
		l-0.072-1.008c-0.041-0.555-0.096-1.178-0.127-1.385c-0.029-0.208-0.393-0.378-0.811-0.378h-0.755v1.4l-0.63-0.024
		c-0.346-0.012-1.31,0.016-2.142,0.065l-1.512,0.087l1.372,0.869L93.642,18.912z M120.016,18.862l0.336,0.337l0.336-0.337
		l0.336-0.335h-1.343L120.016,18.862z M78.523,17.518c0-0.276-0.1-0.504-0.223-0.504c-0.121,0-0.362,0.228-0.534,0.504l-0.31,0.505
		h1.067V17.518z M85.546,18.357l-0.429,0.429l0.445,0.719l0.445,0.719l1.429-1.185l0.294,0.293l0.294,0.293l1.046-0.331l1.045-0.332
		v-0.939h-1.428l-0.193,0.575l-0.192,0.576l-1.163-0.623l-1.165-0.624L85.546,18.357z M85.326,13.991
		c0.139,0,0.252-0.114,0.252-0.253c0-0.139-0.113-0.252-0.252-0.252c-0.138,0-0.252,0.113-0.252,0.252
		C85.074,13.877,85.188,13.991,85.326,13.991z M85.83,17.518c0.14,0,0.252-0.113,0.252-0.251c0-0.14-0.112-0.253-0.252-0.253
		c-0.138,0-0.252,0.113-0.252,0.253C85.578,17.405,85.692,17.518,85.83,17.518z M99.059,15.332l0.63,0.254l0.63-0.254l0.631-0.254
		h-2.52L99.059,15.332z M76.254,11.471c0.14,0,0.253-0.113,0.253-0.252c0-0.14-0.113-0.253-0.253-0.253
		c-0.138,0-0.251,0.113-0.251,0.253C76.003,11.358,76.117,11.471,76.254,11.471z M97.689,22.034l-0.742,0.469l0.259,0.259
		l0.259,0.261l1.112-0.291l1.112-0.292v-0.89l-0.63,0.007C98.712,21.561,98.095,21.776,97.689,22.034z M82.05,18.19l0.336-0.336
		l0.336-0.336h-1.344l0.337,0.336L82.05,18.19z M82.014,13.691l0.259-0.259l-0.742-0.468c-0.408-0.259-1.024-0.473-1.372-0.477
		l-0.631-0.008v0.89l2.226,0.583L82.014,13.691z M81.324,14.998c-0.122,0-0.363,0.227-0.533,0.504l-0.311,0.504h1.067v-0.504
		C81.546,15.225,81.448,14.998,81.324,14.998z M98.682,18.526h1.007V16.51h-1.007V18.526z M91.122,12.227l0.505,0.311v-1.572h-0.505
		c-0.276,0-0.504,0.214-0.504,0.474C90.618,11.701,90.845,12.056,91.122,12.227z M91.29,13.319l0.336,0.336l0.337-0.336l0.336-0.337
		h-1.344L91.29,13.319z M93.81,21.046h-1.344l0.336,0.336l0.336,0.336l0.337-0.336L93.81,21.046z M95.153,22.054
		c0-0.277-0.17-0.501-0.378-0.497c-0.208,0.004-0.718,0.228-1.134,0.497l-0.756,0.488l2.268,0.017V22.054z M97.925,19.03
		c0.14,0,0.253-0.114,0.253-0.252c0-0.138-0.113-0.251-0.253-0.251c-0.139,0-0.251,0.114-0.251,0.251
		C97.673,18.916,97.786,19.03,97.925,19.03z M98.429,12.982c0.139,0,0.253-0.113,0.253-0.251c0-0.139-0.114-0.253-0.253-0.253
		c-0.139,0-0.252,0.113-0.252,0.253C98.178,12.869,98.29,12.982,98.429,12.982z M97.925,10.966c0.14,0,0.253-0.114,0.253-0.252
		c0-0.138-0.113-0.252-0.253-0.252c-0.139,0-0.251,0.114-0.251,0.252C97.673,10.853,97.786,10.966,97.925,10.966z M94.398,15.503
		c0.139,0,0.251-0.114,0.251-0.253c0-0.138-0.113-0.252-0.251-0.252c-0.139,0-0.252,0.114-0.252,0.252
		C94.146,15.388,94.259,15.503,94.398,15.503z M92.886,12.982c0.138,0,0.252-0.113,0.252-0.251c0-0.139-0.114-0.253-0.252-0.253
		c-0.139,0-0.253,0.113-0.253,0.253C92.633,12.869,92.746,12.982,92.886,12.982z"/>
</g>
</svg>
