
<svg version="1.1" id="Layer_1" xmlns="http://www.w3.org/2000/svg" xmlns:xlink="http://www.w3.org/1999/xlink" x="0px" y="0px"
	 viewBox="0 0 1920 89.031" style="enable-background:new 0 0 1920 89.031;" xml:space="preserve">
<g>
	<path style="fill:#2B2405;" d="M1674.735,41.854l6.677-1.749v-2.671l-1.892,0.024c-1.042,0.013-2.892,0.656-4.115,1.433
		l-2.225,1.404l0.778,0.778L1674.735,41.854z"/>
	<path style="fill:#2B2405;" d="M1686.703,52.554c-0.518-0.829-1.239-1.512-1.603-1.512c-0.368,0-0.668,0.683-0.668,1.512v1.515h3.2
		L1686.703,52.554z"/>
	<path style="fill:#2B2405;" d="M1676.029,44.995c-0.372,0-0.667,0.68-0.667,1.513v1.512h3.2l-0.934-1.512
		C1677.117,45.674,1676.396,44.995,1676.029,44.995z"/>
	<polygon style="fill:#2B2405;" points="1673.849,54.569 1674.854,53.563 1675.864,52.554 1671.832,52.554 1672.84,53.563 	"/>
	<polygon style="fill:#2B2405;" points="1707.113,53.059 1708.118,52.051 1709.125,51.042 1705.096,51.042 1706.101,52.051 	"/>
	<path style="fill:#2B2405;" d="M1712.493,55.58c0.365,0,0.664-0.683,0.664-1.51v-1.515h-3.203l0.937,1.515
		C1711.405,54.896,1712.123,55.58,1712.493,55.58z"/>
	<path style="fill:#2B2405;" d="M1702.523,45.095c0.858-1.607,1.564-3.651,1.564-4.536c0-0.884-0.511-1.589-1.134-1.563
		c-0.624,0.025-2.315,0.943-3.758,2.041l-2.62,1.988l1.066,1.068l1.066,1.065l-2.223,1.41l-2.225,1.404l6.699,0.048L1702.523,45.095
		z"/>
	<polygon style="fill:#2B2405;" points="1698.04,39.452 1699.046,38.445 1700.055,37.435 1696.023,37.435 1697.029,38.445 	"/>
	<rect x="1620.932" y="49.53" style="fill:#2B2405;" width="3.022" height="6.049"/>
	<polygon style="fill:#2B2405;" points="1655.932,58.877 1656.814,57.997 1657.695,57.118 1661.983,60.674 1663.318,58.518
		1664.651,56.359 1663.363,55.071 1662.078,53.785 1658.585,55.656 1655.095,57.523 1654.521,55.795 1653.943,54.069
		1649.659,54.069 1649.659,56.887 1652.796,57.882 	"/>
	<path style="fill:#2B2405;" d="M1620.932,64.65v2.669l3.335,0.875l3.337,0.874l0.778-0.782l0.776-0.776l-2.225-1.407
		c-1.22-0.773-3.071-1.418-4.111-1.431L1620.932,64.65z"/>
	<path style="fill:#2B2405;" d="M1635.672,64.672c-0.622-0.013-1.133,0.661-1.133,1.491v1.514l6.804-0.051l-2.269-1.463
		C1637.827,65.356,1636.298,64.685,1635.672,64.672z"/>
	<path style="fill:#2B2405;" d="M1618.663,51.042c-0.512-0.829-1.196-1.512-1.512-1.512c-0.316,0-0.996,0.683-1.51,1.512
		l-0.937,1.512h4.893L1618.663,51.042z"/>
	<polygon style="fill:#2B2405;" points="1620.932,46.759 1622.822,45.997 1624.712,45.234 1617.151,45.234 1619.042,45.997 	"/>
	<path style="fill:#2B2405;" d="M1719.962,55.53h1.51l-2.266-1.461c-1.248-0.807-2.949-1.471-3.78-1.471h-1.51l2.265,1.471
		C1717.429,54.875,1719.129,55.53,1719.962,55.53z"/>
	<polygon style="fill:#2B2405;" points="1645.122,40.963 1646.129,39.957 1647.137,38.947 1643.105,38.947 1644.112,39.957 	"/>
	<path style="fill:#2B2405;" d="M1648.147,34.322c0-0.781-0.683-1.423-1.512-1.423h-1.514v4.715l1.514-0.932
		C1647.464,36.169,1648.147,35.104,1648.147,34.322z"/>
	<path style="fill:#2B2405;" d="M1620.932,60.085c0,0.648,2.041,2.021,4.534,3.053l4.537,1.88v1.328c0,0.73,0.68,1.331,1.513,1.331
		h1.51v-4.822l3.024-0.791l3.022-0.791v-4.536l5.713,1.495l4.116-2.606l-4.536-0.261c-2.497-0.146-5.387-0.23-6.426-0.194
		l-1.89,0.072v-4.201h-2.266c-1.251,0-2.344,0.512-2.432,1.136c-0.09,0.623-0.257,2.492-0.38,4.156l-0.216,3.024l-9.826-0.443
		V60.085z"/>
	<polygon style="fill:#2B2405;" points="1642.601,63.138 1638.571,63.138 1639.577,64.146 1640.588,65.154 1641.594,64.146 	"/>
	<path style="fill:#2B2405;" d="M1836.486,42.463c0.729-0.146,1.542-0.913,1.809-1.706l0.476-1.438l-4.364-1.675l0.746,5.082
		L1836.486,42.463z"/>
	<path style="fill:#2B2405;" d="M1847.051,41.974c0.365,0,0.667-0.685,0.667-1.513v-1.514h-3.205l0.94,1.514
		C1845.966,41.289,1846.685,41.974,1847.051,41.974z"/>
	<polygon style="fill:#2B2405;" points="1822.518,41.974 1820.503,39.957 1820.503,43.987 1821.508,42.978 	"/>
	<polygon style="fill:#2B2405;" points="1815.676,46.149 1816.302,41.897 1816.925,37.642 1814.094,36.903 1811.257,36.161
		1813.042,38.31 1814.825,40.46 1809.919,40.46 1809.919,44.644 1812.8,45.396 	"/>
	<path style="fill:#2B2405;" d="M1832.26,45.874l-0.748-1.952c-0.414-1.074-0.847-1.873-0.964-1.775
		c-0.119,0.094-1.407,0.487-2.864,0.867l-2.647,0.691v2.77l3.613-0.303L1832.26,45.874z"/>
	<path style="fill:#2B2405;" d="M1897.329,32.899l-0.89,3.402l-0.888,3.402l2.541-2.538c1.396-1.395,2.541-3.194,2.541-3.995
		c0-0.805-0.913-1.807-2.027-2.239l-2.03-0.777l-2.13,1.35l-2.128,1.35L1897.329,32.899z"/>
	<path style="fill:#2B2405;" d="M1850.761,45.188l0.872-2.268l0.869-2.271l2.165,0.832l2.161,0.829l2.114-1.753l2.115-1.758
		l0.257,0.419l0.801-2.091l0.831-2.157l-2.243-4.328l-2.249-4.328l0.767-1.244l0.769-1.244h-1.512c-0.83,0-1.933,0.683-2.446,1.512
		l-0.935,1.514h3.41l-1.922,6.046h3.229v1.579c0,0.864-0.816,2.446-1.811,3.51l-1.809,1.939l-3.269-0.624l-3.27-0.626l-1.807,4.709
		l1.459,0.902L1850.761,45.188z"/>
	<polygon style="fill:#2B2405;" points="1890.049,40.963 1891.059,39.957 1892.064,38.947 1890.049,36.931 	"/>
	<path style="fill:#2B2405;" d="M1869.989,31.293l1.862,2.365l3.081-4.539l1.34,2.087l1.345,2.081l3.154-1.947l1.587,2.566
		l4.323-0.632l4.318-0.637l1.54-4.084l1.545-4.089l-1.639-2.84c-0.905-1.563-3.848-4.839-6.55-7.277l-4.915-4.434V5.78l2.422,0.93
		l2.419,0.928l-0.559-2.867l-0.557-2.865l-2.999-0.155c-1.65-0.084-3.335-0.307-3.753-0.493c-0.414-0.188-1.799-0.546-3.083-0.799
		L1872.545,0l-3.77,3.246L1865,6.489l1.355,5.721l1.35,5.721l-2.433,2.688c-1.34,1.479-2.436,3.51-2.436,4.512v1.817l2.647,0.992
		C1866.938,28.484,1868.963,29.996,1869.989,31.293z"/>
	<polygon style="fill:#2B2405;" points="1730.891,33.814 1731.804,32.899 1728.907,33.02 1726.01,33.141 1729.979,34.727 	"/>
	<polygon style="fill:#2B2405;" points="1755.491,42.478 1756.5,41.467 1757.507,40.46 1753.474,40.46 1754.481,41.467 	"/>
	<path style="fill:#2B2405;" d="M1756.158,48.02h-2.357l0.948,1.534l0.951,1.537l1.406-0.87c0.775-0.478,1.407-1.167,1.407-1.536
		C1758.513,48.32,1757.456,48.02,1756.158,48.02z"/>
	<path style="fill:#2B2405;" d="M1746.167,48.017l0.599,1.796c0.329,0.988,1.407,2.064,2.395,2.396l1.796,0.596V51.33
		c0-0.812-1.08-1.89-2.395-2.392L1746.167,48.017z"/>
	<polygon style="fill:#2B2405;" points="1752.468,37.788 1748.938,37.115 1745.41,36.44 1745.41,40.46 1752.468,40.46 	"/>
	<path style="fill:#2B2405;" d="M1806.143,28.366c-0.516-0.834-1.237-1.513-1.603-1.513c-0.369,0-0.668,0.679-0.668,1.513v1.51h3.2
		L1806.143,28.366z"/>
	<path style="fill:#2B2405;" d="M1790.121,33.167l1.582-0.979c0.87-0.538,1.585-1.62,1.585-2.403v-1.42h-5.87l-0.939,1.521
		l-0.944,1.521l2.292,0.88L1790.121,33.167z"/>
	<polygon style="fill:#2B2405;" points="1781.194,40.963 1782.201,39.957 1783.208,38.947 1781.194,36.931 	"/>
	<polygon style="fill:#2B2405;" points="1755.491,46.718 1758.747,46.236 1762.011,45.75 1763.032,38.947 1760.027,38.947
		1760.027,43.484 1755.491,43.484 	"/>
	<path style="fill:#2B2405;" d="M1298.228,73.721c0.368,0,0.67-0.68,0.67-1.512v-1.512h-3.205l0.934,1.512
		C1297.142,73.042,1297.866,73.721,1298.228,73.721z"/>
	<path style="fill:#2B2405;" d="M1618.753,67.677c0.367,0,0.667-0.683,0.667-1.514V64.65h-3.207l0.937,1.513
		C1617.667,66.994,1618.386,67.677,1618.753,67.677z"/>
	<path style="fill:#2B2405;" d="M1250.516,78.168c0,0.781,0.68,1.844,1.512,2.357l1.509,0.936v-4.715h-1.509
		C1251.196,76.745,1250.516,77.383,1250.516,78.168z"/>
	<path style="fill:#2B2405;" d="M1376.004,69.187c0-0.833-0.302-1.51-0.667-1.51c-0.368,0-1.086,0.678-1.598,1.51l-0.937,1.51h3.202
		V69.187z"/>
	<path style="fill:#2B2405;" d="M1423.083,70.748l1.404-0.87c0.776-0.48,1.41-1.171,1.41-1.539c0-0.367-1.059-0.662-2.355-0.662
		h-2.359l0.947,1.534L1423.083,70.748z"/>
	<path style="fill:#2B2405;" d="M1410.022,51.042c-0.513-0.829-1.232-1.512-1.598-1.512c-0.372,0-0.672,0.683-0.672,1.512v1.512
		h3.204L1410.022,51.042z"/>
	<polygon style="fill:#2B2405;" points="1405.236,66.163 1403.219,64.146 1403.219,68.177 1404.226,67.17 	"/>
	<polygon style="fill:#2B2405;" points="1259.591,74.225 1260.595,73.216 1261.602,72.209 1257.571,72.209 1258.578,73.216 	"/>
	<polygon style="fill:#2B2405;" points="1385.076,47.01 1386.084,46.001 1387.089,44.995 1383.062,44.995 1384.065,46.001 	"/>
	<path style="fill:#2B2405;" d="M1000.298,86.546c-3.329-0.335-11.641-0.942-18.48-1.349l-12.429-0.745l-1.81,2.924l-2.945-1.822
		l-2.204,1.83l-1.982,1.647h47.289l0.117-0.19l0.934-1.512l-1.22-0.09C1006.895,87.19,1003.623,86.877,1000.298,86.546z"/>
	<path style="fill:#2B2405;" d="M1918.556,33.11l-3.249-2.025l1.793-1.11l1.793-1.107l-1.571-4.136l-1.575-4.139l0.873-3.475
		l0.872-3.479l-3.894-0.743l-3.891-0.745v1.871c0,1.032,0.98,2.69,2.174,3.683l2.18,1.807l-1.82,4.739l-2.23-2.859l-2.225-2.858
		l1.175,3.025c0.645,1.663,1.636,6.254,2.2,10.206l1.022,7.18h-5.501v2.727l-9.008,3.14l-0.815-1.32l-0.815-1.32l-4.509,0.13
		l-4.509,0.129v1.155c0,0.635,0.661,1.383,1.47,1.658l1.477,0.505l-0.896,3.402c-0.494,1.873-1.415,3.402-2.052,3.402
		c-0.638,0-1.653-1.529-2.252-3.402c-0.602-1.871-0.998-4.763-0.88-6.426l0.209-3.024l-3.758,4.16
		c-2.068,2.287-4.474,4.158-5.344,4.158h-1.583v-4.958l2.646-2.088l2.646-2.093l-5.498,0.924l-5.495,0.926l-0.978-1.582l-0.979-1.58
		l-2.234,0.856l-2.186,0.838l0.608,0.989l0.894,1.445l-1.02,2.668l-1.027,2.666l2.579-0.988l2.581-0.99l-2.695,3.67l-2.692,3.675
		l-2.711-3.615l-2.706-3.611l-5.986,2.112c-3.291,1.161-5.986,1.718-5.986,1.239c0-0.481-0.901-0.13-2.001,0.786l-2.005,1.66
		l-1.776-1.776l-1.779-1.779v1.579c0,0.87-1.553,3.386-3.451,5.593c-1.895,2.208-4.107,4.013-4.914,4.013h-1.463l-0.213-3.7
		l-0.216-3.699l2.485-0.659l2.479-0.663l-3.329-0.173c-1.838-0.098-5.046,0.604-7.137,1.556l-3.803,1.734l0.799,1.288l0.797,1.294
		h-5.257c-2.89,0-6.333,0.412-7.648,0.917l-2.39,0.918v-3.345h4.534V50.67l4.536,3.769l0.176-1.321
		c0.094-0.726,0.265-2.34,0.376-3.588l0.203-2.265l-3.402-2.76l-3.402-2.752v-4.067l3.78-1.531l-2.268-1.605l-2.268-1.603
		l-4.158-0.024l-4.158-0.024v4.334l2.868,0.91l2.87,0.91l-0.748,2.867l-0.751,2.866l-2.12-0.814l-2.119-0.812l-0.076,2.81
		l-0.079,2.806l-5.09-11.341h-1.915c-1.048,0-2.33-0.004-2.838-0.012l-0.929-0.013l-0.554,7.039
		c-0.303,3.872-0.906,7.393-1.337,7.825l-0.786,0.786v-9.67l-2.555-0.979l-2.557-0.98l-0.593,1.783
		c-0.327,0.979-1.256,1.782-2.071,1.782h-1.477l1.039-1.674l1.031-1.674l-3.402,1.08l-3.403,1.082l1.037-1.676l1.036-1.672h7.38
		v-6.048h1.512c0.829,0,1.512-0.637,1.512-1.412v-1.41l-6.046-1.918l1.531-2.855l1.531-2.862l-3.422-1.801
		c-1.882-0.991-3.953-2.549-4.604-3.464l-1.177-1.664l1.961,8.436l-2.655,2.935l-2.657,2.935l3.61,1.445l3.613,1.442l-5.114,0.194
		l-1.167,1.888c-0.643,1.042-1.189,3.931-1.225,6.426l-0.056,4.531l-2.266,0.011l-2.268,0.002l-0.016,2.706l-0.009,2.705
		l-2.182,1.348c-1.202,0.743-2.679,1.042-3.284,0.669l-1.102-0.683l-1.769,2.865l1.533,0.95l1.539,0.953v5.687l-1.644,1.015
		l-1.642,1.018l-1.682-1.682l-1.685-1.684l2.19-0.045l2.196-0.047l-2.586-1.504l-2.585-1.507l1.915-4.98l-2.531,0.972l-2.532,0.97
		l-0.224-1.466c-0.126-0.804-0.295-2.311-0.378-3.353c-0.084-1.04-0.834-2.452-1.663-3.14l-1.51-1.25l1.888-0.767l1.886-0.766
		v-3.962l-2.082-0.797l-2.082-0.797l-3.191,3.188l-2.6-0.997l-2.601-1.002l5.422-3.964l-2.1-0.799l-2.104-0.802l-4.896,0.728
		l-4.901,0.726l0.829,1.34l0.831,1.345h-3.199v-4.717l-3.026,1.871v-3.381l-1.518,0.936l-1.513,0.94l1.569,2.931l1.567,2.934h11.989
		v3.021c0,1.664-0.028,3.535-0.062,4.158l-0.06,1.134l-2.965-0.121l-2.958-0.118v5.532h1.51c0.829,0,1.428,0.508,1.334,1.132
		c-0.099,0.623-0.099,1.693,0,2.376l0.178,1.242l2.376-2.374c1.307-1.307,3.346-2.376,4.534-2.376h2.163v3.348l-2.161-0.829
		l-2.152-0.829l-3.588,4.316l0.939,4.178l0.94,4.179l-2.16-3.78l-2.155-3.78l-3.526-0.151c-1.938-0.083-5.971-0.649-8.96-1.259
		l-5.443-1.109l-2.497,2.501l-2.5,2.5l-3.402-0.273c-1.872-0.152-4.679-0.203-6.234-0.111l-2.833,0.168l1.887,2.268l1.881,2.27
		h-2.266c-1.242,0-4.495,0.446-7.22,0.989l-4.958,0.991l1.075-1.744l1.08-1.747h7.383v-4.482l-4.158-0.931
		c-2.288-0.511-6.322-1.479-8.967-2.147l-4.811-1.212l-1.626,4.232l1.844,0.18c1.015,0.098,2.422,0.076,3.134-0.054
		c0.71-0.125,2.67,0.208,4.354,0.742l3.067,0.977l-1.876,1.161l-1.88,1.163l-2.5-0.656l-2.5-0.654l-3.759,1.501l-3.756,1.499
		l6.802,0.192v4.273l-4.441-1.679l-4.444-1.677l0.686-1.11l0.688-1.112l-1.699-1.048l-1.696-1.05l2.052-1.301l2.052-1.299
		l-2.459-0.025l-2.457-0.022l-0.907,4.539l-0.908,4.533h-2.576l0.67-4.533l0.664-4.539h-3.017l-0.789,3.025l-0.789,3.024h-3.632
		l1.742-4.537h-4.766l1.742,4.537h-1.34c-0.735,0-1.645-0.85-2.022-1.892l-0.681-1.89l-6.267,3.695l-24.369,2.028v-7.741
		l-1.89-0.762l-1.89-0.763l1.89-0.117l1.89-0.119v-5.975l-3.878,1.474c-2.135,0.813-4.555,1.476-5.382,1.476h-1.502l0.935-1.511
		l0.932-1.512l-1.156-1.877l-1.159-1.875l-1.774,7.531l-4.469,0.415c-2.458,0.229-5.606,0.441-6.993,0.482l-2.523,0.065
		l-0.883,2.301l-0.885,2.303l0.851,1.374l0.85,1.379h7.383v-1.514c0-0.831,0.677-1.513,1.51-1.513h1.51v7.189l-2.558,2.072
		l-2.556,2.078l1.07-1.785l1.069-1.787l-1.375-0.851l-1.378-0.851l-0.956,2.498l-0.961,2.497l-3.038-3.263
		c-1.674-1.794-3.694-3.26-4.494-3.26h-1.45v-3.204l1.888,1.066l1.892,1.066l-1.761-1.901l-1.755-1.906l-1.706,1.055l-1.707,1.053
		l0.972,3.275c0.532,1.801,2.092,4.217,3.462,5.368l2.495,2.093l-2.768-0.959c-1.524-0.53-3.737-0.959-4.915-0.959h-2.144v-7.557
		l-1.134,0.003c-0.623,0.003-3.334,1.347-6.022,2.984l-4.89,2.982l-4.96-1.907l-2.832,5.069l-1.484-0.915l-1.48-0.916l0.915-2.894
		l0.924-2.897h-3.36l0.441-2.439l0.446-2.439l-7.92-0.661l-7.92-0.661l0.907,2.363l0.908,2.358l-2.296-0.883l-2.29-0.876
		l-1.066,4.844l-1.064,4.842l-2.025-3.279l-3.735,1.912l-3.736,1.916l-2.695-1.609l-2.689-1.605l-1.585,2.265l-1.58,2.269
		l-1.534-3.781h-4.386l3.237-6.044h4.428v-3.135l-2.932,1.571l-2.933,1.567l-0.829-1.342l-0.832-1.342l3.361-0.881l3.357-0.878
		l-1.485-1.414c-0.818-0.776-2.849-1.676-4.509-1.993l-3.025-0.58l0.257-4.482l0.26-4.482l-1.493,5.293h-1.857
		c-1.02,0-2.659-0.807-3.645-1.79l-1.787-1.792l-0.911,0.912l-0.906,0.908l4.687,4.174l4.687,4.178l-0.708,5.849l-0.702,5.851
		l2.948,2.95l2.953,2.951h-2.147c-1.18,0-3.218-0.413-4.525-0.916l-2.384-0.915l0.926-1.504l0.931-1.506l-3.107,1.665
		c-1.706,0.915-3.537,1.663-4.062,1.663h-0.958l1.018-3.204l1.015-3.204l-2.049,0.715l-2.047,0.713l0.803,4.614l-2.973,0.778
		l-2.978,0.775l-0.451-1.149c-0.249-0.632-2.063-1.653-4.039-2.27l-3.591-1.116l2.066,3.348h-5.136l-2.009-2.646l-1.904-2.508
		l2.125,0.035l8.109,0.129l1.772-4.62l-4.383-4.38l-4.016,6.43h-8.165l-1.427,2.314l5.876,0.09l-0.045,1.61l-0.044,1.749
		l-3.026-0.79l-3.026-0.791v3.979l-1.744-1.742l-1.742-1.742l-2.794,1.493l-2.789,1.494v-3.13h-4.539v1.512
		c0,0.834-0.564,1.512-1.258,1.512h-1.261v-4.536h5.22l0.727-1.89c0.397-1.039,0.751-2.495,0.788-3.234
		c0.035-0.737,0.951-1.891,2.041-2.564l1.974-1.22l-2.603-1l-2.603-0.997l-4.536,1.736v4.634h3.203l-0.935,1.51l-0.935,1.512h-6.775
		l-1.814-1.814l-1.812-1.815l-1.8,1.797l-1.793,1.793l4.818,1.677l4.819,1.68v2.729h-4.534v-3.493l-2.866,2.595l-2.87,2.595
		l-0.665-1.982l-0.669-1.983l-2.381,1.964l-2.376,1.961l-7.318,0.68c-2.322,0.216-5.633,0.392-8.889,0.497l1.321-1.321l-2.012-2.017
		v3.362c-2.144,0.062-4.233,0.092-5.96,0.073c-4.523-0.046-8.775-0.429-9.45-0.842c-0.673-0.414-1.223-1.323-1.223-2.019
		c0-0.692,0.986-1.637,2.192-2.101l2.19-0.842l-1.682,4.385l1.294-0.025c0.715-0.014,2.171-0.575,3.238-1.255l1.941-1.232
		l-0.969-2.523c-0.532-1.39-1.484-2.525-2.114-2.525c-0.631,0-2.964,1.427-5.181,3.171l-4.034,3.173l0.425-2.041l0.432-2.035
		l-5.797,0.458l-5.792,0.46l-1.944-1.614l-1.941-1.609l-1.896,2.284l-1.903,2.287h-4.488l1.842-5.292l-3.786,4.536l-4.911,0.477
		l-4.917,0.473v-4.729h-2.948l0.953,4.772l0.956,4.769l-1.833-1.132l-1.836-1.132l-3.996,1l-3.993,1l2.189,1.385l2.192,1.387
		l-3.488,0.022l-3.494,0.024l0.746-1.204l0.743-1.208l-1.274-2.062l-1.274-2.064l-2.684,2.681l-2.681,2.681l-1.725-2.365
		l-1.731-2.363l-6.365,1.667l0.857,2.497l0.851,2.497l-4.847-6.048l-0.092,3.781h-5.873l-0.947,1.534l-0.953,1.537l-1.404-0.87
		c-0.775-0.476-1.41-1.582-1.41-2.452v-1.585l2.027,0.773l2.033,0.782l2.128-1.349l2.128-1.352l-4.532-0.202
		c-2.497-0.111-5.022-0.129-5.616-0.042l-1.077,0.161l0.8-2.095l0.807-2.098l-1.417-0.874l-1.41-0.874l-2.849,3.211l-2.846,3.208
		l1.89,0.661l1.89,0.661v4.002l-3.027-0.794l-3.024-0.786v-4.183h-3.021v4.904l-2.341-1.941l-2.338-1.941l1.963-1.411l1.957-1.409
		l-2.77,0.9l-2.783,0.899l-1.709-4.536l-1.715-4.539h-3.815l-0.74,3.403c-0.413,1.868-0.931,4.693-1.166,6.269l-0.419,2.865
		l3.522,1.237l0.654-1.974l0.648-1.973l-0.159,2.27l-0.162,2.267l-3.383,0.482l-3.392,0.483v-1.374c0-0.758-1.671-2.139-3.729-3.074
		l-3.723-1.696l-1.944,1.833l-1.941,1.833l-12.099-0.207l-1.887,1.423l-1.893,1.423v-2.75l-3.192-0.243
		c-1.756-0.131-3.554-0.602-3.993-1.04l-0.8-0.8l3.532-4.256l-2.43-0.931c-1.34-0.515-3.097-0.934-3.907-0.934h-1.48l1.21,1.888
		c0.67,1.042,1.251,3.423,1.296,5.294l0.076,3.402h-2.401v-4.076l-4.565-0.132l-4.568-0.128l0.772,1.245l0.772,1.249l-5.387,1.01
		c-2.96,0.554-6.531,1.375-7.925,1.817l-2.538,0.812l4.447-3.145l-1.051-1.051l-1.055-1.056l-2.017,1.677l-2.02,1.675l-9.631-2.916
		l-9.631-2.919l-4.259,6.081l-2.001-1.658l-1.994-1.655l-1.96,3.17h-7.382v-4.533h-3.021l-0.054,2.643l-0.045,2.646l-2.068-2.727
		l-2.065-2.724l-0.797,1.968l-0.791,1.971l-3.256-4.536l-1.486,2.27l-1.49,2.267l-0.022-1.991l-0.022-1.988l-7.07,0.593
		l-7.074,0.594l-1.137,2.906c-0.626,1.601-1.185,2.317-1.242,1.592l-0.108-1.32l-2.026,1.682l-2.026,1.685l-1.001-0.994
		c-0.549-0.548-0.994-1.561-0.994-2.255v-1.259h2.179c1.194,0,2.519-0.558,2.938-1.235l0.769-1.236l-13.763,0.473l-3.183,5.571
		l-0.658,1.153H1920V34.184C1919.56,33.804,1919.077,33.438,1918.556,33.11z"/>
	<path style="fill:#2B2405;" d="M1115.227,81.284h-4.802c-2.636,0-5.886-0.419-7.21-0.928l-2.411-0.922l0.934,2.434l0.93,2.437
		h-1.664c-0.924,0-1.677-0.619-1.677-1.375v-1.373l-16.104,0.52l-16.104,0.516l-1.08,1.756l-1.083,1.753l-4.491-2.32l-4.488-2.324
		l-4.199,2.179c-2.309,1.199-5.07,2.179-6.133,2.179h-1.935l-0.924-2.406l-0.918-2.403l0.848-1.375l0.848-1.375h-4.507l-2.017,6.344
		l-3.872-0.742l-3.875-0.738l-4.869,2.733l-4.873,2.733l-1.537-1.534l-1.534-1.537l-3.176,1.009l-3.176,1.008v1.407
		c0,0.035-0.019,0.061-0.019,0.091h98.901c0.365-2.216,0.712-4.234,0.778-4.533c0.07-0.312,1.105,0.251,2.3,1.242l2.179,1.808
		l-0.569,1.483h3.516l0.019-0.013l2.027-1.285l-2.014-3.226L1115.227,81.284z"/>
	<polygon style="fill:#2B2405;" points="1120.182,89.031 1123.825,89.031 1124.019,88.841 1119.988,88.841 	"/>
	<path style="fill:#2B2405;" d="M1499.585,58.623c-0.198,0.018-1.118,0.527-2.046,1.136l-1.682,1.113l0.245,3.049
		c0.132,1.677,0.757,3.888,1.391,4.914c0.635,1.024,1.868,1.863,2.738,1.863h1.582l-1.123-2.646
		c-0.616-1.455-1.034-4.177-0.933-6.048C1499.86,60.133,1499.782,58.611,1499.585,58.623z"/>
	<path style="fill:#2B2405;" d="M1351.813,75.259l2.271-1.438l-6.387-6.4l-0.966,2.519c-0.531,1.384-0.966,3.481-0.966,4.662v2.144
		l1.89-0.024C1348.694,76.707,1350.565,76.053,1351.813,75.259z"/>
	<path style="fill:#2B2405;" d="M955.963,85.671l-0.975,1.585c-0.543,0.872-1.664,1.585-2.497,1.585h-1.512l1.14-1.89l1.131-1.89
		l-4.355,3.367l-10.151-0.248l-10.155-0.241l-1.01-1.008l-1.007-1.005l-5.807,3.106h39.25l-1.918-1.593L955.963,85.671z"/>
	<path style="fill:#2B2405;" d="M1314.774,69.187c-0.518-0.833-1.236-1.51-1.604-1.51c-0.368,0-0.664,0.678-0.664,1.51v1.51h3.199
		L1314.774,69.187z"/>
	<path style="fill:#2B2405;" d="M1307.214,69.187c-0.511-0.833-1.576-1.51-2.357-1.51c-0.784,0-1.426,0.678-1.426,1.51v1.51h4.714
		L1307.214,69.187z"/>
	<path style="fill:#2B2405;" d="M1323.029,75.989l0.219-3.021l-1.969-0.28c-1.083-0.152-2.821,0.077-3.859,0.502l-1.893,0.782v4.024
		l3.754-1.005L1323.029,75.989z"/>
	<path style="fill:#2B2405;" d="M1265.636,77.339c0-0.327-1.023-0.594-2.268-0.594h-2.268v2.927l2.268-0.869
		C1264.613,78.327,1265.636,77.668,1265.636,77.339z"/>
	<path style="fill:#2B2405;" d="M1562.723,34.111l5.435-7.258l-1.96,0.022c-1.078,0.013-2.891,0.611-4.029,1.333l-2.063,1.31
		l1.307,2.295L1562.723,34.111z"/>
	<path style="fill:#2B2405;" d="M1563.482,40.46c0,0.829,0.678,1.513,1.51,1.513c0.829,0,1.51-0.685,1.51-1.513
		c0-0.831-0.681-1.514-1.51-1.514C1564.16,38.947,1563.482,39.63,1563.482,40.46z"/>
	<path style="fill:#2B2405;" d="M1577.467,63.581l4.156-0.798v-2.669l5.292-0.046l-2.271-1.466c-1.245-0.806-2.692-1.477-3.218-1.49
		c-0.518-0.011-1.793,0.997-2.827,2.246l-1.885,2.27l-7.941,0.089l4.534,2.657L1577.467,63.581z"/>
	<polygon style="fill:#2B2405;" points="1558.943,57.595 1559.952,56.585 1560.957,55.58 1556.928,55.58 1557.935,56.585 	"/>
	<polygon style="fill:#2B2405;" points="1583.134,45.5 1584.143,44.491 1585.15,43.484 1581.117,43.484 1582.126,44.491 	"/>
	<polygon style="fill:#2B2405;" points="1554.585,64.65 1561.969,64.65 1561.969,68.278 1563.652,66.597 1565.334,64.915
		1563.299,61.627 1552.719,61.627 1553.656,63.138 	"/>
	<path style="fill:#2B2405;" d="M1592.207,54.984c0-0.327-1.023-0.984-2.271-1.466l-2.266-0.867v2.929h2.266
		C1591.184,55.58,1592.207,55.312,1592.207,54.984z"/>
	<path style="fill:#2B2405;" d="M1536.267,61.627c0.829,0,1.51-0.681,1.51-1.514c0-0.832-0.681-1.512-1.51-1.512
		c-0.832,0-1.512,0.68-1.512,1.512C1534.755,60.946,1535.435,61.627,1536.267,61.627z"/>
	<polygon style="fill:#2B2405;" points="1607.827,53.563 1608.837,54.569 1609.845,53.563 1610.852,52.554 1606.82,52.554 	"/>
	<path style="fill:#2B2405;" d="M1610.349,44.364c0-0.348,0.415-1.708,0.92-3.023l0.915-2.394h-1.309
		c-0.721,0-2.163,1.363-3.197,3.027l-1.89,3.021h2.279C1609.321,44.995,1610.349,44.708,1610.349,44.364z"/>
	<path style="fill:#2B2405;" d="M1426.584,55.58c0.373,0,2.414-0.791,4.534-1.755c2.119-0.965,3.85-2.327,3.85-3.025V49.53h-4.532
		v3.024h-4.538v1.515C1425.897,54.896,1426.204,55.58,1426.584,55.58z"/>
	<path style="fill:#2B2405;" d="M1595.231,54.069c0,0.827,0.64,1.51,1.423,1.51c0.783,0,1.842-0.683,2.357-1.51l0.932-1.515h-4.712
		V54.069z"/>
	<path style="fill:#2B2405;" d="M1597.586,46.508h2.18v-4.534h-2.017c-1.107,0-2.452,0.432-2.984,0.966l-0.964,0.964l0.804,1.304
		C1595.048,45.92,1596.389,46.508,1597.586,46.508z"/>
	<path style="fill:#2B2405;" d="M1469.69,64.751c0.861-1.612,1.566-3.311,1.566-3.781c0-0.472-0.908-0.856-2.019-0.856
		c-1.107,0-2.468,0.456-3.024,1.005c-0.554,0.558-1.009,2.26-1.009,3.781v2.776h1.461
		C1467.466,67.677,1468.829,66.358,1469.69,64.751z"/>
	<path style="fill:#2B2405;" d="M1457.737,58.602c0.783,0,1.423-0.682,1.423-1.511V55.58h-4.717l0.935,1.512
		C1455.893,57.92,1456.951,58.602,1457.737,58.602z"/>
	<path style="fill:#2B2405;" d="M1463.695,51.042c0-0.829-0.173-1.501-0.377-1.488c-0.209,0.013-1.399,0.681-2.647,1.488
		l-2.27,1.466l5.293,0.046V51.042z"/>
	<path style="fill:#2B2405;" d="M1456.136,72.805c0,0.326,0.913,0.942,2.025,1.371l2.028,0.778l2.131-1.348l2.131-1.349
		l-4.159-0.027C1458.005,72.219,1456.136,72.478,1456.136,72.805z"/>
	<path style="fill:#2B2405;" d="M1440.261,64.65c-0.513-0.831-1.196-1.512-1.514-1.512c-0.318,0-0.997,0.681-1.51,1.512
		l-0.936,1.513h4.892L1440.261,64.65z"/>
	<path style="fill:#2B2405;" d="M1531.447,56.509c0.785-0.486,1.77-2.178,2.184-3.763l0.753-2.881l-2.257-3.653l-1.717,4.928
		c-0.944,2.709-1.42,5.229-1.056,5.59C1529.719,57.098,1530.661,56.996,1531.447,56.509z"/>
	<polygon style="fill:#2B2405;" points="1431.567,73.21 1433.458,73.972 1435.347,73.21 1437.237,72.447 1429.676,72.447 	"/>
	<path style="fill:#2B2405;" d="M1518.453,64.824l0.766,2.937c0.424,1.614,1.346,2.937,2.048,2.937c0.707,0,2.081-1.531,3.054-3.402
		c0.975-1.872,1.232-2.9,0.572-2.28l-1.199,1.119l-3.58-2.968l-0.832,0.829L1518.453,64.824z"/>
	<path style="fill:#2B2405;" d="M1530.766,66.917l0.87-2.268l-0.87-2.267c-0.479-1.247-1.481-2.27-2.222-2.27h-1.35v9.073h1.35
		C1529.284,69.187,1530.286,68.166,1530.766,66.917z"/>
	<path style="fill:#2B2405;" d="M1489.936,67.546c0.297-0.346,0.959-2.84,1.474-5.542l0.935-4.913h-2.569l-0.956,4.777l-0.955,4.777
		l0.766,0.766C1489.051,67.833,1489.64,67.893,1489.936,67.546z"/>
	<polygon style="fill:#2B2405;" points="1861.289,39.283 1861.343,39.263 1861.314,39.218 	"/>
	<path style="fill:#2B2405;" d="M546.261,69.187c-0.511-0.833-1.229-1.51-1.598-1.51c-0.365,0-0.667,0.678-0.667,1.51v1.51h3.202
		L546.261,69.187z"/>
	<polygon style="fill:#2B2405;" points="516.781,68.177 516.781,64.146 514.764,66.163 515.774,67.17 	"/>
	<path style="fill:#2B2405;" d="M495.513,69.878l1.404,0.87l0.953-1.537l0.946-1.534h-2.358c-1.296,0-2.355,0.295-2.355,0.662
		C494.103,68.707,494.736,69.398,495.513,69.878z"/>
	<path style="fill:#2B2405;" d="M572.345,76.721l1.89,0.024v-2.144c0-1.18-0.435-3.278-0.966-4.662l-0.966-2.519l-6.387,6.4
		l2.271,1.438C569.435,76.053,571.306,76.707,572.345,76.721z"/>
	<path style="fill:#2B2405;" d="M607.494,69.187c0-0.833-0.296-1.51-0.664-1.51c-0.369,0-1.086,0.678-1.604,1.51l-0.931,1.51h3.199
		V69.187z"/>
	<path style="fill:#2B2405;" d="M615.143,67.677c-0.781,0-1.846,0.678-2.357,1.51l-0.931,1.51h4.714v-1.51
		C616.569,68.354,615.927,67.677,615.143,67.677z"/>
	<path style="fill:#2B2405;" d="M621.772,73.721c0.362,0,1.086-0.68,1.601-1.512l0.934-1.512h-3.205v1.512
		C621.102,73.042,621.403,73.721,621.772,73.721z"/>
	<path style="fill:#2B2405;" d="M600.719,76.991l3.754,1.005v-4.024l-1.893-0.782c-1.039-0.425-2.776-0.654-3.859-0.502l-1.969,0.28
		l0.219,3.021L600.719,76.991z"/>
	<path style="fill:#2B2405;" d="M388.553,56.509c0.786,0.487,1.728,0.589,2.093,0.222c0.364-0.362-0.113-2.881-1.056-5.59
		l-1.717-4.928l-2.257,3.653l0.753,2.881C386.784,54.331,387.768,56.022,388.553,56.509z"/>
	<path style="fill:#2B2405;" d="M389.234,62.383l-0.87,2.267l0.87,2.268c0.479,1.248,1.482,2.27,2.222,2.27h1.35v-9.073h-1.35
		C390.716,60.114,389.714,61.137,389.234,62.383z"/>
	<polygon style="fill:#2B2405;" points="358.031,68.278 358.031,64.65 365.415,64.65 366.344,63.138 367.281,61.627 356.701,61.627
		354.666,64.915 356.348,66.597 	"/>
	<path style="fill:#2B2405;" d="M356.518,40.46c0-0.831-0.678-1.514-1.51-1.514c-0.829,0-1.51,0.683-1.51,1.514
		c0,0.829,0.681,1.513,1.51,1.513C355.84,41.974,356.518,41.289,356.518,40.46z"/>
	<path style="fill:#2B2405;" d="M383.733,61.627c0.832,0,1.512-0.681,1.512-1.514c0-0.832-0.68-1.512-1.512-1.512
		c-0.829,0-1.51,0.68-1.51,1.512C382.222,60.946,382.904,61.627,383.733,61.627z"/>
	<path style="fill:#2B2405;" d="M430.064,67.546c0.295,0.346,0.884,0.286,1.305-0.135l0.766-0.766l-0.955-4.777l-0.956-4.777h-2.57
		l0.935,4.913C429.105,64.707,429.767,67.2,430.064,67.546z"/>
	<polygon style="fill:#2B2405;" points="484.653,73.21 486.543,73.972 488.433,73.21 490.324,72.447 482.763,72.447 	"/>
	<path style="fill:#2B2405;" d="M459.329,51.042c-1.248-0.807-2.438-1.475-2.647-1.488c-0.203-0.013-0.377,0.659-0.377,1.488v1.512
		l5.294-0.046L459.329,51.042z"/>
	<path style="fill:#2B2405;" d="M482.763,64.65c-0.513-0.831-1.193-1.512-1.51-1.512c-0.318,0-1,0.681-1.514,1.512l-0.932,1.513
		h4.891L482.763,64.65z"/>
	<path style="fill:#2B2405;" d="M453.334,67.677h1.461V64.9c0-1.521-0.454-3.224-1.009-3.781c-0.556-0.549-1.917-1.005-3.024-1.005
		c-1.11,0-2.019,0.384-2.019,0.856c0,0.47,0.705,2.169,1.566,3.781C451.171,66.358,452.534,67.677,453.334,67.677z"/>
	<path style="fill:#2B2405;" d="M460.84,57.091c0,0.829,0.64,1.511,1.423,1.511c0.786,0,1.844-0.682,2.358-1.511l0.935-1.512h-4.717
		V57.091z"/>
	<path style="fill:#2B2405;" d="M459.811,74.954l2.028-0.778c1.112-0.429,2.025-1.045,2.025-1.371c0-0.327-1.869-0.586-4.156-0.575
		l-4.159,0.027l2.131,1.349L459.811,74.954z"/>
	<path style="fill:#2B2405;" d="M656.632,78.803l2.268,0.869v-2.927h-2.268c-1.245,0-2.268,0.267-2.268,0.594
		C654.364,77.668,655.387,78.327,656.632,78.803z"/>
	<path style="fill:#2B2405;" d="M669.484,78.168c0-0.785-0.68-1.423-1.512-1.423h-1.509v4.715l1.509-0.936
		C668.804,80.012,669.484,78.949,669.484,78.168z"/>
	<polygon style="fill:#2B2405;" points="360.048,56.585 361.057,57.595 362.065,56.585 363.072,55.58 359.043,55.58 	"/>
	<polygon style="fill:#2B2405;" points="659.405,73.216 660.409,74.225 661.422,73.216 662.429,72.209 658.398,72.209 	"/>
	<path style="fill:#2B2405;" d="M398.733,70.697c0.702,0,1.625-1.323,2.048-2.937l0.766-2.937l-0.829-0.829l-0.832-0.829
		l-3.58,2.968l-1.199-1.119c-0.661-0.62-0.403,0.408,0.572,2.28C396.652,69.166,398.026,70.697,398.733,70.697z"/>
	<path style="fill:#2B2405;" d="M358.587,31.813l1.307-2.295l-2.063-1.31c-1.139-0.721-2.951-1.32-4.029-1.333l-1.96-0.022
		l5.435,7.258L358.587,31.813z"/>
	<polygon style="fill:#2B2405;" points="138.806,40.963 138.806,36.931 136.792,38.947 137.799,39.957 	"/>
	<path style="fill:#2B2405;" d="M116.128,28.366c0-0.834-0.3-1.513-0.668-1.513c-0.365,0-1.086,0.679-1.603,1.513l-0.929,1.51h3.2
		V28.366z"/>
	<polygon style="fill:#2B2405;" points="99.497,43.987 99.497,39.957 97.482,41.974 98.492,42.978 	"/>
	<polygon style="fill:#2B2405;" points="104.324,46.149 107.2,45.396 110.081,44.644 110.081,40.46 105.175,40.46 106.958,38.31
		108.743,36.161 105.905,36.903 103.075,37.642 103.698,41.897 	"/>
	<path style="fill:#2B2405;" d="M128.297,32.189l1.582,0.979l2.293-0.878l2.292-0.88l-0.944-1.521l-0.939-1.521h-5.87v1.42
		C126.712,30.569,127.427,31.651,128.297,32.189z"/>
	<polygon style="fill:#2B2405;" points="174.59,36.44 171.061,37.115 167.532,37.788 167.532,40.46 174.59,40.46 	"/>
	<polygon style="fill:#2B2405;" points="190.021,34.727 193.99,33.141 191.093,33.02 188.196,32.899 189.109,33.814 	"/>
	<path style="fill:#2B2405;" d="M169.043,51.33v1.476l1.796-0.596c0.988-0.332,2.066-1.409,2.395-2.396l0.599-1.796l-2.395,0.921
		C170.123,49.439,169.043,50.518,169.043,51.33z"/>
	<path style="fill:#2B2405;" d="M161.487,48.686c0,0.368,0.632,1.058,1.407,1.536l1.405,0.87l0.951-1.537l0.948-1.534h-2.357
		C162.544,48.02,161.487,48.32,161.487,48.686z"/>
	<polygon style="fill:#2B2405;" points="161.253,46.236 164.509,46.718 164.509,43.484 159.973,43.484 159.973,38.947
		156.968,38.947 157.989,45.75 	"/>
	<polygon style="fill:#2B2405;" points="164.509,42.478 165.519,41.467 166.526,40.46 162.493,40.46 163.5,41.467 	"/>
	<path style="fill:#2B2405;" d="M786.217,82.307l-13.763-0.473l0.769,1.236c0.419,0.678,1.744,1.235,2.938,1.235h2.179v1.259
		c0,0.694-0.445,1.708-0.994,2.255l-1.001,0.994l-2.026-1.685l-2.026-1.682l-0.108,1.32c-0.057,0.726-0.616,0.009-1.242-1.592
		l-1.137-2.906l-7.074-0.594l-7.07-0.593l-0.023,1.988l-0.022,1.991l-1.49-2.267l-1.486-2.27l-3.256,4.536l-0.791-1.971
		l-0.797-1.968l-2.065,2.724l-2.068,2.727l-0.045-2.646l-0.054-2.643h-3.021v4.533h-7.382l-1.96-3.17l-1.995,1.655l-2.001,1.658
		l-4.259-6.081l-9.631,2.919l-9.63,2.916l-2.02-1.675l-2.017-1.677l-1.055,1.056l-1.051,1.051l4.447,3.145l-2.538-0.812
		c-1.394-0.441-4.964-1.263-7.925-1.817l-5.387-1.01l0.772-1.249l0.772-1.245l-4.568,0.128l-4.565,0.132v4.076h-2.401l0.076-3.402
		c0.045-1.871,0.626-4.252,1.296-5.294l1.21-1.888h-1.48c-0.81,0-2.566,0.419-3.907,0.934l-2.43,0.931l3.532,4.256l-0.8,0.8
		c-0.438,0.438-2.236,0.909-3.992,1.04l-3.192,0.243v2.75l-1.893-1.423l-1.887-1.423l-12.099,0.207l-1.941-1.833l-1.944-1.833
		l-3.723,1.696c-2.058,0.935-3.729,2.316-3.729,3.074v1.374l-3.392-0.483l-3.383-0.482l-0.162-2.267l-0.159-2.27l0.648,1.973
		l0.654,1.974l3.523-1.237l-0.419-2.865c-0.235-1.575-0.753-4.401-1.166-6.269l-0.74-3.403h-3.815l-1.715,4.539l-1.709,4.536
		l-2.783-0.899l-2.77-0.9l1.956,1.409l1.963,1.411l-2.338,1.941l-2.341,1.941v-4.904h-3.021v4.183l-3.024,0.786l-3.027,0.794v-4.002
		l1.89-0.661l1.89-0.661l-2.846-3.208l-2.849-3.211l-1.41,0.874l-1.416,0.874l0.807,2.098l0.8,2.095l-1.077-0.161
		c-0.594-0.087-3.119-0.07-5.616,0.042l-4.532,0.202l2.128,1.352l2.128,1.349l2.033-0.782l2.027-0.773v1.585
		c0,0.87-0.635,1.976-1.41,2.452l-1.404,0.87l-0.953-1.537l-0.947-1.534h-5.873l-0.092-3.781l-4.847,6.048l0.851-2.497l0.857-2.497
		l-6.365-1.667l-1.731,2.363l-1.725,2.365l-2.681-2.681l-2.684-2.681l-1.274,2.064l-1.274,2.062l0.743,1.208l0.746,1.204
		l-3.494-0.024l-3.488-0.022l2.192-1.387l2.189-1.385l-3.992-1l-3.996-1l-1.836,1.132l-1.833,1.132l0.956-4.769l0.953-4.772h-2.948
		v4.729l-4.917-0.473l-4.911-0.477l-3.786-4.536l1.842,5.292h-4.488l-1.903-2.287l-1.896-2.284l-1.941,1.609l-1.944,1.614
		l-5.792-0.46l-5.797-0.458l0.432,2.035l0.425,2.041l-4.034-3.173c-2.217-1.744-4.55-3.171-5.181-3.171
		c-0.63,0-1.582,1.135-2.114,2.525l-0.969,2.523l1.941,1.232c1.067,0.68,2.523,1.241,3.238,1.255l1.294,0.025l-1.682-4.385
		l2.19,0.842c1.205,0.464,2.192,1.409,2.192,2.101c0,0.696-0.55,1.604-1.223,2.019c-0.675,0.413-4.926,0.796-9.45,0.842
		c-1.728,0.02-3.816-0.011-5.96-0.073v-3.362l-2.012,2.017l1.321,1.321c-3.256-0.105-6.567-0.281-8.889-0.497l-7.318-0.68
		l-2.376-1.961l-2.381-1.964l-0.669,1.983l-0.665,1.982l-2.87-2.595l-2.866-2.595v3.493h-4.534v-2.729l4.819-1.68l4.818-1.677
		l-1.793-1.793l-1.8-1.797l-1.812,1.815l-1.814,1.814h-6.775l-0.935-1.512l-0.935-1.51h3.203v-4.634l-4.536-1.736l-2.603,0.997
		l-2.603,1l1.974,1.22c1.089,0.673,2.006,1.828,2.041,2.564c0.036,0.739,0.391,2.195,0.788,3.234l0.727,1.89h5.22v4.536h-1.261
		c-0.694,0-1.258-0.678-1.258-1.512v-1.512h-4.539v3.13l-2.789-1.494l-2.794-1.493l-1.742,1.742l-1.744,1.742v-3.979l-3.026,0.791
		l-3.026,0.79l-0.044-1.749l-0.045-1.61l5.876-0.09l-1.428-2.314h-8.165l-4.016-6.43l-4.383,4.38l1.772,4.62l8.109-0.129
		l2.125-0.035l-1.904,2.508l-2.009,2.646h-5.136l2.066-3.348l-3.591,1.116c-1.976,0.617-3.789,1.638-4.039,2.27l-0.451,1.149
		l-2.978-0.775l-2.973-0.778l0.803-4.614l-2.047-0.713l-2.048-0.715l1.015,3.204l1.018,3.204h-0.958
		c-0.526,0-2.357-0.749-4.062-1.663l-3.107-1.665l0.931,1.506l0.926,1.504l-2.384,0.915c-1.307,0.503-3.345,0.916-4.525,0.916
		h-2.147l2.953-2.951l2.948-2.95l-0.702-5.851l-0.708-5.849l4.687-4.178l4.687-4.174l-0.906-0.908l-0.911-0.912l-1.787,1.792
		c-0.986,0.983-2.625,1.79-3.645,1.79h-1.857l-1.493-5.293l0.26,4.482l0.257,4.482l-3.025,0.58c-1.66,0.317-3.691,1.217-4.509,1.993
		l-1.485,1.414l3.357,0.878l3.361,0.881l-0.832,1.342l-0.829,1.342l-2.933-1.567l-2.932-1.571v3.135h4.428l3.237,6.044h-4.386
		l-1.534,3.781l-1.58-2.269l-1.585-2.265l-2.689,1.605l-2.695,1.609l-3.736-1.916l-3.735-1.912l-2.025,3.279l-1.064-4.842
		l-1.066-4.844l-2.29,0.876l-2.296,0.883l0.908-2.358l0.907-2.363l-7.92,0.661l-7.92,0.661l0.446,2.439l0.441,2.439h-3.361
		l0.924,2.897l0.915,2.894l-1.48,0.916l-1.484,0.915l-2.832-5.069l-4.96,1.907l-4.89-2.982c-2.689-1.637-5.4-2.981-6.022-2.984
		l-1.134-0.003v7.557h-2.144c-1.178,0-3.391,0.429-4.915,0.959l-2.768,0.959l2.495-2.093c1.371-1.151,2.93-3.567,3.462-5.368
		l0.972-3.275l-1.707-1.053l-1.706-1.055l-1.755,1.906l-1.761,1.901l1.892-1.066l1.888-1.066v3.204h-1.45
		c-0.8,0-2.821,1.466-4.494,3.26l-3.038,3.263l-0.961-2.497l-0.956-2.498l-1.378,0.851l-1.375,0.851l1.069,1.787l1.07,1.785
		l-2.556-2.078l-2.558-2.072V64.65h1.51c0.834,0,1.51,0.683,1.51,1.513v1.514h7.383l0.85-1.379l0.851-1.374l-0.885-2.303
		l-0.883-2.301l-2.523-0.065c-1.387-0.041-4.534-0.254-6.993-0.482l-4.469-0.415l-1.774-7.531l-1.159,1.875l-1.156,1.877
		l0.932,1.512l0.935,1.511h-1.502c-0.827,0-3.248-0.663-5.382-1.476l-3.878-1.474v5.975l1.89,0.119l1.89,0.117l-1.89,0.763
		l-1.89,0.762v7.741l-24.369-2.028l-6.267-3.695l-0.681,1.89c-0.376,1.042-1.286,1.892-2.022,1.892h-1.34l1.742-4.537h-4.766
		l1.742,4.537h-3.632l-0.789-3.024l-0.789-3.025h-3.017l0.664,4.539l0.67,4.533h-2.576l-0.908-4.533l-0.907-4.539l-2.457,0.022
		l-2.459,0.025l2.052,1.299l2.052,1.301l-1.696,1.05l-1.699,1.048l0.688,1.112l0.686,1.11l-4.444,1.677l-4.441,1.679v-4.273
		l6.802-0.192l-3.756-1.499l-3.759-1.501l-2.5,0.654l-2.5,0.656l-1.88-1.163l-1.876-1.161l3.067-0.977
		c1.685-0.534,3.645-0.867,4.354-0.742c0.712,0.13,2.119,0.152,3.134,0.054l1.844-0.18l-1.626-4.232l-4.811,1.212
		c-2.644,0.668-6.678,1.636-8.967,2.147l-4.158,0.931v4.482h7.383l1.08,1.747l1.075,1.744l-4.958-0.991
		c-2.725-0.543-5.978-0.989-7.22-0.989h-2.266l1.881-2.27l1.887-2.268l-2.833-0.168c-1.555-0.092-4.361-0.042-6.234,0.111
		l-3.402,0.273l-2.5-2.5l-2.497-2.501l-5.443,1.109c-2.989,0.61-7.023,1.177-8.96,1.259l-3.526,0.151l-2.155,3.78l-2.16,3.78
		l0.94-4.179l0.939-4.178l-3.588-4.316l-2.152,0.829l-2.161,0.829V55.58h2.163c1.188,0,3.227,1.069,4.534,2.376l2.376,2.374
		l0.178-1.242c0.099-0.683,0.099-1.753,0-2.376c-0.094-0.624,0.505-1.132,1.334-1.132h1.51v-5.532l-2.959,0.118l-2.965,0.121
		l-0.06-1.134c-0.034-0.623-0.062-2.494-0.062-4.158v-3.021h11.989l1.567-2.934l1.569-2.931l-1.513-0.94l-1.518-0.936v3.381
		l-3.026-1.871v4.717h-3.199l0.831-1.345l0.829-1.34l-4.901-0.726l-4.896-0.728l-2.104,0.802l-2.099,0.799l5.422,3.964l-2.601,1.002
		l-2.6,0.997l-3.191-3.188l-2.082,0.797l-2.082,0.797v3.962l1.886,0.766l1.888,0.767l-1.51,1.25c-0.829,0.688-1.578,2.1-1.663,3.14
		c-0.083,1.042-0.252,2.549-0.378,3.353l-0.224,1.466l-2.532-0.97l-2.531-0.972l1.915,4.98l-2.586,1.507l-2.586,1.504l2.196,0.047
		l2.19,0.045l-1.685,1.684l-1.682,1.682l-1.642-1.018l-1.643-1.015v-5.687l1.539-0.953l1.533-0.95l-1.769-2.865l-1.102,0.683
		c-0.605,0.373-2.082,0.074-3.284-0.669l-2.182-1.348l-0.009-2.705l-0.016-2.706l-2.268-0.002l-2.266-0.011l-0.056-4.531
		c-0.035-2.495-0.581-5.384-1.225-6.426l-1.167-1.888l-5.114-0.194l3.613-1.442l3.61-1.445l-2.657-2.935l-2.655-2.935l1.961-8.436
		l-1.177,1.664c-0.651,0.915-2.722,2.473-4.604,3.464l-3.422,1.801l1.531,2.862l1.531,2.855l-6.046,1.918V33
		c0,0.775,0.683,1.412,1.512,1.412h1.512v6.048h7.38l1.036,1.672l1.037,1.676l-3.403-1.082l-3.402-1.08l1.031,1.674l1.039,1.674
		h-1.477c-0.815,0-1.744-0.804-2.071-1.782l-0.593-1.783l-2.557,0.98l-2.555,0.979v9.67l-0.786-0.786
		c-0.432-0.432-1.034-3.953-1.337-7.825l-0.554-7.039l-0.929,0.013c-0.508,0.008-1.79,0.012-2.838,0.012h-1.915l-5.09,11.341
		l-0.079-2.806l-0.076-2.81l-2.119,0.812l-2.12,0.814l-0.751-2.866l-0.748-2.867l2.87-0.91l2.868-0.91v-4.334l-4.158,0.024
		l-4.158,0.024l-2.268,1.603l-2.268,1.605l3.78,1.531v4.067l-3.402,2.752l-3.402,2.76l0.203,2.265
		c0.111,1.248,0.283,2.862,0.376,3.588l0.176,1.321l4.536-3.769v3.399h4.534v3.345l-2.39-0.918
		c-1.315-0.505-4.758-0.917-7.648-0.917h-5.257l0.797-1.294l0.799-1.288l-3.804-1.734c-2.092-0.953-5.3-1.654-7.137-1.556
		l-3.329,0.173l2.479,0.663l2.485,0.659L94.418,54.9l-0.213,3.7h-1.463c-0.807,0-3.019-1.806-4.914-4.013
		c-1.898-2.208-3.451-4.723-3.451-5.593v-1.579l-1.779,1.779l-1.776,1.776l-2.005-1.66c-1.1-0.917-2.001-1.268-2.001-0.786
		c0,0.479-2.695-0.078-5.986-1.239l-5.986-2.112l-2.706,3.611l-2.711,3.615l-2.692-3.675l-2.695-3.67l2.581,0.99l2.579,0.988
		l-1.027-2.666l-1.02-2.668l0.894-1.445l0.608-0.989l-2.185-0.838l-2.234-0.856l-0.978,1.58l-0.978,1.582l-5.495-0.926l-5.498-0.924
		l2.646,2.093l2.646,2.088v4.958h-1.583c-0.87,0-3.276-1.871-5.344-4.158l-3.758-4.16l0.209,3.024
		c0.118,1.663-0.278,4.555-0.88,6.426c-0.599,1.873-1.614,3.402-2.252,3.402c-0.637,0-1.558-1.529-2.052-3.402l-0.896-3.402
		l1.477-0.505c0.81-0.274,1.471-1.022,1.471-1.658v-1.155l-4.509-0.129l-4.509-0.13l-0.815,1.32l-0.815,1.32l-9.008-3.14v-2.727
		H7.816l1.023-7.18c0.564-3.951,1.555-8.543,2.2-10.206l1.175-3.025l-2.225,2.858l-2.23,2.859l-1.82-4.739l2.18-1.807
		c1.194-0.993,2.174-2.651,2.174-3.683v-1.871l-3.891,0.745l-3.894,0.743l0.872,3.479l0.873,3.475l-1.575,4.139l-1.571,4.136
		L2.9,29.975l1.793,1.11L1.444,33.11C0.923,33.438,0.44,33.804,0,34.184v54.847h790.057l-0.658-1.153L786.217,82.307z"/>
	<path style="fill:#2B2405;" d="M94.963,46.475v-2.77l-2.647-0.691c-1.456-0.38-2.745-0.773-2.864-0.867
		c-0.117-0.097-0.55,0.702-0.964,1.775l-0.748,1.952l3.61,0.297L94.963,46.475z"/>
	<path style="fill:#2B2405;" d="M198.527,55.53h1.51c0.834,0,2.533-0.656,3.781-1.461l2.265-1.471h-1.51
		c-0.83,0-2.531,0.664-3.78,1.471L198.527,55.53z"/>
	<path style="fill:#2B2405;" d="M993.428,85.925l-1.007,1.005l-1.01,1.008l-10.155,0.241l-10.151,0.248l-4.355-3.367l1.131,1.89
		l1.14,1.89h-1.512c-0.832,0-1.953-0.713-2.497-1.585l-0.975-1.585l-2.135,1.767l-1.918,1.593h39.25L993.428,85.925z"/>
	<polygon style="fill:#2B2405;" points="796.175,89.031 799.818,89.031 800.012,88.841 795.981,88.841 	"/>
	<path style="fill:#2B2405;" d="M955.366,85.555l-2.945,1.822l-1.81-2.924l-12.429,0.745c-6.839,0.406-15.151,1.013-18.48,1.349
		c-3.325,0.332-6.597,0.645-7.27,0.692l-1.22,0.09l0.934,1.512l0.117,0.19h47.289l-1.982-1.647L955.366,85.555z"/>
	<path style="fill:#2B2405;" d="M909.875,87.533l-3.176-1.008l-3.176-1.009l-1.534,1.537l-1.537,1.534l-4.873-2.733l-4.869-2.733
		l-3.875,0.738l-3.872,0.742l-2.017-6.344h-4.507l0.848,1.375l0.848,1.375l-0.918,2.403l-0.924,2.406h-1.935
		c-1.064,0-3.824-0.98-6.133-2.179l-4.199-2.179l-4.488,2.324l-4.491,2.32l-1.083-1.753l-1.08-1.756l-16.104-0.516l-16.104-0.52
		v1.373c0,0.756-0.753,1.375-1.677,1.375h-1.664l0.931-2.437l0.934-2.434l-2.411,0.922c-1.324,0.508-4.574,0.928-7.21,0.928h-4.802
		l-2.017,3.224l-2.014,3.226l2.027,1.285l0.019,0.013h3.516l-0.569-1.483l2.179-1.808c1.194-0.991,2.23-1.553,2.3-1.242
		c0.067,0.298,0.413,2.317,0.778,4.533h98.901c0-0.03-0.019-0.056-0.019-0.091V87.533z"/>
	<path style="fill:#2B2405;" d="M424.142,60.871l-1.682-1.113c-0.928-0.609-1.847-1.118-2.046-1.136
		c-0.197-0.011-0.275,1.51-0.173,3.381c0.102,1.871-0.316,4.593-0.932,6.048l-1.123,2.646h1.582c0.87,0,2.103-0.839,2.738-1.863
		c0.634-1.026,1.26-3.237,1.391-4.914L424.142,60.871z"/>
	<path style="fill:#2B2405;" d="M72.949,41.974c0.365,0,1.085-0.685,1.598-1.513l0.94-1.514h-3.205v1.514
		C72.282,41.289,72.584,41.974,72.949,41.974z"/>
	<path style="fill:#2B2405;" d="M83.514,42.463l1.333,0.264l0.746-5.082l-4.364,1.675l0.476,1.438
		C81.972,41.55,82.785,42.317,83.514,42.463z"/>
	<path style="fill:#2B2405;" d="M29.002,32.637l4.318,0.637l4.323,0.632l1.587-2.566l3.154,1.947l1.345-2.081l1.34-2.087
		l3.081,4.539l1.861-2.365c1.026-1.297,3.051-2.81,4.506-3.353l2.647-0.992v-1.817c0-1.002-1.096-3.034-2.436-4.512l-2.433-2.688
		l1.35-5.721L55,6.489l-3.775-3.243L47.455,0l-2.325,0.459c-1.283,0.252-2.668,0.611-3.082,0.799
		c-0.418,0.186-2.103,0.408-3.753,0.493l-2.999,0.155l-0.557,2.865l-0.559,2.867l2.419-0.928l2.422-0.93v4.132l-4.915,4.434
		c-2.702,2.438-5.644,5.715-6.55,7.277l-1.639,2.84l1.545,4.089L29.002,32.637z"/>
	<polygon style="fill:#2B2405;" points="28.941,39.957 29.951,40.963 29.951,36.931 27.936,38.947 	"/>
	<path style="fill:#2B2405;" d="M57.055,34.97l0.831,2.157l0.8,2.091l0.257-0.419l2.115,1.758l2.114,1.753l2.161-0.829l2.165-0.832
		l0.869,2.271l0.872,2.268l1.453-0.901l1.459-0.902l-1.807-4.709l-3.27,0.626l-3.268,0.624l-1.809-1.939
		c-0.994-1.064-1.811-2.646-1.811-3.51v-1.579h3.229l-1.922-6.046h3.41l-0.935-1.514c-0.513-0.829-1.615-1.512-2.446-1.512H60.01
		l0.769,1.244l0.767,1.244l-2.249,4.328L57.055,34.97z"/>
	<path style="fill:#2B2405;" d="M24.448,39.703l-0.888-3.402l-0.89-3.402l5.009-0.044l-2.128-1.35l-2.13-1.35l-2.03,0.777
		c-1.113,0.432-2.027,1.434-2.027,2.239c0,0.8,1.145,2.6,2.541,3.995L24.448,39.703z"/>
	<rect x="296.045" y="49.53" style="fill:#2B2405;" width="3.022" height="6.049"/>
	<polygon style="fill:#2B2405;" points="273.871,39.957 274.878,40.963 275.888,39.957 276.895,38.947 272.863,38.947 	"/>
	<polygon style="fill:#2B2405;" points="297.178,45.997 299.068,46.759 300.957,45.997 302.849,45.234 295.288,45.234 	"/>
	<path style="fill:#2B2405;" d="M273.365,36.682l1.514,0.932v-4.715h-1.514c-0.829,0-1.512,0.642-1.512,1.423
		C271.853,35.104,272.536,36.169,273.365,36.682z"/>
	<path style="fill:#2B2405;" d="M301.247,67.677c0.367,0,1.086-0.683,1.603-1.514l0.937-1.513h-3.207v1.513
		C300.58,66.994,300.88,67.677,301.247,67.677z"/>
	<path style="fill:#2B2405;" d="M330.064,55.58h2.266v-2.929l-2.266,0.867c-1.248,0.481-2.271,1.139-2.271,1.466
		C327.793,55.312,328.816,55.58,330.064,55.58z"/>
	<path style="fill:#2B2405;" d="M338.376,62.783l4.156,0.798l4.159,0.792l4.534-2.657l-7.941-0.089l-1.885-2.27
		c-1.034-1.249-2.309-2.257-2.827-2.246c-0.526,0.013-1.973,0.684-3.218,1.49l-2.271,1.466l5.292,0.046V62.783z"/>
	<polygon style="fill:#2B2405;" points="336.866,45.5 337.874,44.491 338.883,43.484 334.851,43.484 335.857,44.491 	"/>
	<path style="fill:#2B2405;" d="M325.395,45.207l0.804-1.304l-0.964-0.964c-0.532-0.534-1.877-0.966-2.984-0.966h-2.017v4.534h2.18
		C323.611,46.508,324.952,45.92,325.395,45.207z"/>
	<polygon style="fill:#2B2405;" points="310.155,53.563 311.163,54.569 312.173,53.563 313.18,52.554 309.148,52.554 	"/>
	<path style="fill:#2B2405;" d="M309.651,44.364c0,0.345,1.027,0.631,2.282,0.631h2.279l-1.89-3.021
		c-1.034-1.664-2.476-3.027-3.197-3.027h-1.309l0.915,2.394C309.237,42.655,309.651,44.016,309.651,44.364z"/>
	<path style="fill:#2B2405;" d="M301.337,51.042l-0.934,1.512h4.893l-0.937-1.512c-0.515-0.829-1.194-1.512-1.51-1.512
		C302.533,49.53,301.849,50.213,301.337,51.042z"/>
	<path style="fill:#2B2405;" d="M323.346,55.58c0.783,0,1.423-0.683,1.423-1.51v-1.515h-4.712l0.932,1.515
		C321.504,54.896,322.563,55.58,323.346,55.58z"/>
	<path style="fill:#2B2405;" d="M207.507,55.58c0.37,0,1.088-0.683,1.603-1.51l0.937-1.515h-3.203v1.515
		C206.843,54.896,207.141,55.58,207.507,55.58z"/>
	<path style="fill:#2B2405;" d="M235.568,52.554c0-0.829-0.3-1.512-0.668-1.512c-0.364,0-1.085,0.683-1.603,1.512l-0.929,1.515h3.2
		V52.554z"/>
	<path style="fill:#2B2405;" d="M246.042,41.073l0.778-0.778l-2.225-1.404c-1.223-0.776-3.073-1.42-4.115-1.433l-1.892-0.024v2.671
		l6.677,1.749L246.042,41.073z"/>
	<polygon style="fill:#2B2405;" points="221.961,39.452 222.971,38.445 223.977,37.435 219.945,37.435 220.954,38.445 	"/>
	<path style="fill:#2B2405;" d="M280.926,56.737v4.536l3.022,0.791l3.024,0.791v4.822h1.51c0.834,0,1.513-0.601,1.513-1.331v-1.328
		l4.537-1.88c2.493-1.032,4.534-2.404,4.534-3.053v-1.17l-9.826,0.443l-0.216-3.024c-0.122-1.665-0.289-3.534-0.38-4.156
		c-0.087-0.624-1.18-1.136-2.432-1.136h-2.266v4.201l-1.89-0.072c-1.039-0.037-3.929,0.048-6.426,0.194l-4.536,0.261l4.116,2.606
		L280.926,56.737z"/>
	<path style="fill:#2B2405;" d="M219.043,48.02l6.699-0.048l-2.225-1.404l-2.223-1.41l1.065-1.065l1.066-1.068l-2.62-1.988
		c-1.442-1.097-3.133-2.015-3.758-2.041c-0.623-0.027-1.134,0.678-1.134,1.563c0,0.885,0.706,2.929,1.564,4.536L219.043,48.02z"/>
	<polygon style="fill:#2B2405;" points="212.887,53.059 213.899,52.051 214.904,51.042 210.875,51.042 211.882,52.051 	"/>
	<path style="fill:#2B2405;" d="M243.971,44.995c-0.367,0-1.088,0.68-1.599,1.513l-0.934,1.512h3.2v-1.512
		C244.638,45.674,244.343,44.995,243.971,44.995z"/>
	<path style="fill:#2B2405;" d="M285.46,66.163c0-0.831-0.51-1.504-1.133-1.491c-0.625,0.013-2.155,0.684-3.402,1.491l-2.269,1.463
		l6.804,0.051V66.163z"/>
	<path style="fill:#2B2405;" d="M293.066,66.103l-2.225,1.407l0.776,0.776l0.778,0.782l3.337-0.874l3.335-0.875V64.65l-1.89,0.022
		C296.138,64.685,294.286,65.329,293.066,66.103z"/>
	<polygon style="fill:#2B2405;" points="256.637,55.071 255.349,56.359 256.683,58.518 258.017,60.674 262.305,57.118
		263.186,57.997 264.068,58.877 267.204,57.882 270.341,56.887 270.341,54.069 266.057,54.069 265.479,55.795 264.905,57.523
		261.415,55.656 257.922,53.785 	"/>
	<polygon style="fill:#2B2405;" points="281.429,63.138 277.399,63.138 278.406,64.146 279.412,65.154 280.423,64.146 	"/>
	<polygon style="fill:#2B2405;" points="246.151,54.569 247.16,53.563 248.168,52.554 244.136,52.554 245.146,53.563 	"/>
	<polygon style="fill:#2B2405;" points="58.686,39.218 58.657,39.263 58.711,39.283 	"/>
</g>
</svg>
