<?xml version="1.0" encoding="iso-8859-1"?>
<!-- Generator: Adobe Illustrator 18.1.1, SVG Export Plug-In . SVG Version: 6.00 Build 0)  -->
<svg version="1.1" id="Layer_1" xmlns="http://www.w3.org/2000/svg" xmlns:xlink="http://www.w3.org/1999/xlink" x="0px" y="0px"
	 viewBox="0 0 48.531 50" style="enable-background:new 0 0 48.531 50;" xml:space="preserve">
<g>
	<path style="fill:#F49320;" d="M0.008,24.994c0-8.183,0.001-16.366-0.006-24.549C0.002,0.139,0.006,0,0.406,0
		c15.911,0.015,31.821,0.014,47.732,0.003c0.349,0,0.392,0.089,0.391,0.408c-0.009,16.399-0.01,32.797,0.002,49.196
		c0,0.349-0.089,0.392-0.408,0.391C32.213,49.989,16.302,49.988,0.391,50C0.042,50,0,49.911,0,49.592
		C0.01,41.393,0.008,33.193,0.008,24.994z M23.085,23.432c0.54,0.079,1.076,0.085,1.589,0.235c0.706,0.206,1.051,0.667,1.005,1.355
		c-0.029,0.433-0.212,0.574-0.633,0.482c-0.46-0.101-0.919-0.206-1.378-0.31c-0.826-0.187-1.594-0.277-2.269,0.47
		c-0.311,0.344-0.874,0.391-1.345,0.522c-0.783,0.218-1.317,1.257-0.956,1.941c0.377,0.716,0.879,1.357,1.441,1.944
		c0.154,0.161,0.352,0.296,0.555,0.114c0.419-0.376,0.777-0.212,1.173,0.047c0.568,0.372,0.803,0.316,1.228-0.23
		c0.12-0.153,0.222-0.321,0.332-0.481c0.46-0.668,0.794-1.42,1.347-2.027c0.497-0.545,0.743-0.574,1.384-0.228
		c0.292,0.158,0.558,0.418,0.933,0.355c0.689-0.117,0.733-0.086,0.839,0.595c0.031,0.198,0.008,0.423,0.29,0.5
		c0.438,0.12,0.517,0.424,0.217,0.799c-0.206,0.258-0.503,0.408-0.769,0.593c-0.553,0.384-0.684,0.749-0.436,1.222
		c0.402,0.766,0.993,1.094,1.58,0.867c0.424-0.164,0.841-0.346,1.265-0.51c0.181-0.07,0.367-0.129,0.568-0.053
		c0.898,0.341,1.853,0.173,2.777,0.29c0.421,0.054,0.662-0.208,0.642-0.659c-0.009-0.199,0.012-0.393,0.158-0.547
		c0.25-0.263,1.418-0.378,1.826-0.117c0.325,0.208,0.331,0.596,0.328,0.962c-0.008,1.155,0.008,2.31-0.011,3.465
		c-0.006,0.348,0.115,0.44,0.449,0.434c1.024-0.018,2.05,0.005,3.074-0.009c0.309-0.004,0.435,0.078,0.426,0.41
		c-0.02,0.731-0.04,1.466,0.01,2.195c0.092,1.342-0.131,2.604-0.711,3.823c-0.355,0.746-0.625,1.533-0.922,2.306
		c-0.117,0.304-0.166,0.575,0.334,0.538c0.437-0.032,0.879-0.026,1.317-0.001c0.316,0.019,0.451-0.113,0.562-0.396
		c0.463-1.179,0.948-2.349,1.434-3.518c0.102-0.246,0.142-0.492,0.142-0.757c-0.004-2.082-0.008-4.164,0.002-6.247
		c0.003-0.559-0.101-1.097-0.229-1.635c-0.489-2.043-1.388-3.916-2.466-5.699c-0.881-1.457-1.822-2.888-3.251-3.897
		c-0.2-0.141-0.236-0.336-0.221-0.558c0.104-1.538-0.211-3.043-0.35-4.562c-0.083-0.9-0.273-1.798-0.045-2.705
		c0.05-0.199,0.092-0.356,0.345-0.398c0.893-0.15,1.241-0.813,1.421-1.597c0.171-0.742,0.02-1.49-0.034-2.232
		c-0.029-0.4-0.138-0.795-0.264-1.184c-0.099-0.306-0.411-0.319-0.583-0.524c-0.693-0.825-1.279-1.04-1.928-0.35
		c-0.044,0.047-0.093,0.093-0.146,0.128c-0.222,0.146-0.372,0.123-0.375-0.181c-0.002-0.26,0.018-0.521,0.01-0.78
		c-0.016-0.475-0.265-0.71-0.738-0.714c-0.527-0.005-0.922,0.558-0.795,1.154c0.057,0.269,0.145,0.53,0.213,0.797
		c0.053,0.209,0.066,0.369-0.164,0.539c-0.261,0.194-0.492,0.47-0.477,0.854c0.052,1.331-0.746,2.036-1.856,2.51
		c-0.164,0.07-0.345,0.117-0.485,0.218c-0.257,0.186-0.411,0.46-0.243,0.76c0.153,0.273,0.429,0.159,0.655,0.07
		c0.498-0.198,0.99-0.409,1.485-0.615c0.6-0.25,0.867-0.079,0.922,0.585c0.072,0.853-0.355,1.485-0.885,2.086
		c-1.316,1.494-1.163,1.035-0.805,2.872c0.074,0.379-0.072,0.342-0.311,0.262c-0.678-0.225-1.35-0.469-2.033-0.674
		c-0.266-0.08-0.36-0.201-0.347-0.476c0.034-0.746,0.04-1.489-0.321-2.184c-0.117-0.226-0.202-0.48-0.163-0.748
		c0.147-0.995,0.251-1.992,0.228-3c-0.003-0.135,0.092-0.274,0.148-0.408c0.625-1.504,1.165-3.031,1.147-4.691
		c-0.007-0.597-0.135-1.148-0.803-1.357c-0.655-0.205-1.284-0.259-1.749,0.4c-0.048,0.067-0.093,0.179-0.24,0.142
		c-0.137-0.36,0.049-0.691,0.126-1.029c0.104-0.454-0.116-0.786-0.399-1.091c-0.181-0.195-0.42-0.257-0.671-0.176
		c-0.53,0.171-0.868,1.568-0.489,1.994c0.311,0.351,0.256,0.64-0.202,0.775c-0.357,0.105-0.587,0.326-0.79,0.605
		c-0.181,0.25-0.357,0.503-0.535,0.755c-0.408,0.579-0.939,0.922-1.674,0.926c-0.869,0.005-0.927-0.044-0.85-0.899
		c0.007-0.081,0.027-0.175-0.062-0.212c-0.046-0.019-0.166,0.018-0.167,0.034c-0.021,0.399-0.399,0.498-0.606,0.739
		c-0.15,0.174-0.191,0.377-0.008,0.57c0.216,0.228,0.202,0.499,0.149,0.779c-0.061,0.319-0.118,0.638-0.179,0.957
		c-0.435,2.291-0.869,4.581-1.309,6.871c-0.047,0.246-0.062,0.481-0.422,0.556c-2.023,0.424-3.912,1.191-5.675,2.276
		c-1.597,0.982-3.05,2.136-4.309,3.528c-1.6,1.77-2.822,3.751-3.541,6.046c-0.507,1.618-0.47,3.268-0.479,4.925
		c-0.002,0.38,0.13,0.471,0.474,0.466c0.976-0.016,1.952,0.004,2.928-0.015c0.364-0.007,0.525,0.077,0.517,0.485
		c-0.024,1.252-0.01,2.505-0.007,3.758c0.001,0.232-0.054,0.449-0.134,0.664c-0.498,1.339-0.981,2.683-1.495,4.015
		c-0.132,0.343-0.056,0.419,0.284,0.405c0.471-0.019,0.944-0.019,1.415,0.003c0.268,0.013,0.404-0.075,0.509-0.327
		c0.438-1.048,0.907-2.083,1.348-3.13c0.124-0.295,0.259-0.586,0.258-0.93c-0.01-2.196-0.012-4.392,0.005-6.588
		c0.003-0.38-0.11-0.509-0.492-0.502c-1.008,0.02-2.017-0.004-3.026,0.012c-0.32,0.005-0.475-0.119-0.542-0.419
		c-0.111-0.495,0.042-0.91,0.409-1.225c0.341-0.293,0.777-0.387,1.154-0.124c0.404,0.282,0.678,0.172,0.969-0.129
		c0.101-0.105,0.226-0.188,0.326-0.294c0.261-0.276,0.515-0.362,0.824-0.053c0.245,0.244,0.393,0.122,0.469-0.171
		c0.074-0.282,0.156-0.563,0.245-0.84c0.043-0.134,0.069-0.297,0.25-0.328c0.204-0.035,0.221,0.152,0.299,0.263
		c0.092,0.133,0.169,0.279,0.273,0.403c0.174,0.209,0.389,0.269,0.654,0.161c0.486-0.198,1.615-1.707,1.554-2.216
		c-0.072-0.601,0.001-1.203-0.082-1.795c-0.061-0.432,0.119-0.68,0.462-0.868c0.256-0.14,0.531-0.247,0.745-0.456
		c0.311-0.305,0.324-0.552-0.048-0.739c-0.506-0.255-0.96-0.94-1.642-0.309c-0.02,0.019-0.064,0.022-0.094,0.017
		c-0.077-0.012-0.173-0.01-0.222-0.055c-0.074-0.069-0.001-0.151,0.045-0.214c0.221-0.301,0.419-0.624,0.675-0.891
		c0.322-0.336,0.719-0.602,1.211-0.408c0.322,0.127,0.372,0.013,0.364-0.26c-0.005-0.162-0.01-0.327,0.008-0.487
		c0.032-0.293-0.099-0.373-0.369-0.335c-0.202,0.028-0.451,0.102-0.51-0.206c-0.052-0.272,0.072-0.457,0.324-0.587
		c0.302-0.155,0.622-0.305,0.869-0.529c0.305-0.276,0.625-0.379,1.019-0.341c0.564,0.055,1.061-0.115,1.485-0.487
		c0.197-0.173,0.424-0.194,0.671-0.225c0.39-0.049,0.756,0.2,1.15,0.049c1.226-0.47,2.488-0.451,3.745-0.194
		c0.924,0.189,1.875,0.315,2.683,0.893c0.231,0.165,0.626,0.122,0.727,0.466c0.105,0.356-0.265,0.514-0.395,0.776
		c-0.261,0.529,0.378,1.377,1.045,1.387c0.598,0.009,0.688,0.1,0.471,0.656c-0.22,0.562-0.256,1.131-0.249,1.719
		c0.009,0.702-0.073,0.759-0.72,0.541c-0.214-0.072-0.428-0.156-0.628-0.261c-0.516-0.27-0.537-0.338-0.167-0.78
		c0.226-0.27,0.167-0.404-0.131-0.536c-0.757-0.336-1.5-0.702-2.261-1.028C23.998,22.499,23.52,22.692,23.085,23.432z
		 M26.534,38.993c0-1.772-0.001-3.544,0.001-5.316c0-0.215,0.042-0.431-0.294-0.427c-1.056,0.012-2.113,0.013-3.17,0.014
		c-0.22,0-0.306,0.092-0.336,0.313c-0.15,1.093-0.338,2.181-0.471,3.276c-0.133,1.096-0.111,1.082,1.006,1.099
		c0.402,0.006,0.536-0.149,0.578-0.524c0.066-0.58,0.181-1.154,0.276-1.73c0.019-0.114,0.039-0.245,0.194-0.226
		c0.129,0.016,0.106,0.141,0.115,0.233c0.006,0.064,0.003,0.13,0.003,0.195c0.001,2.081-0.007,4.162,0.01,6.242
		c0.003,0.344-0.132,0.415-0.428,0.408c-0.569-0.012-1.141-0.038-1.706,0.007c-0.518,0.041-0.624-0.17-0.619-0.642
		c0.022-2.016,0.01-4.031,0.009-6.047c0-0.715-0.001-1.43-0.006-2.146c-0.001-0.149,0.062-0.366-0.196-0.359
		c-0.439,0.012-0.861-0.117-1.301-0.119c-0.454-0.002-0.604,0.116-0.6,0.599c0.023,3.462,0.02,6.925,0.007,10.388
		c-0.001,0.375,0.09,0.501,0.482,0.497c1.999-0.018,3.999-0.017,5.998,0.002c0.375,0.004,0.458-0.116,0.455-0.47
		C26.525,42.504,26.535,40.749,26.534,38.993z M33.009,35.955c0.029,0,0.058,0.001,0.087,0.001c0,1.886,0,3.773,0,5.659
		c0,0.916,0,0.932-0.895,0.936c-0.315,0.001-0.387,0.113-0.377,0.397c0.017,0.471,0.019,0.944,0,1.415
		c-0.011,0.276,0.082,0.365,0.359,0.361c0.878-0.015,1.757-0.023,2.635,0.003c0.367,0.011,0.474-0.105,0.473-0.465
		c-0.01-3.514-0.01-7.028,0.001-10.541c0.001-0.372-0.137-0.47-0.488-0.464c-0.959,0.016-1.92,0.007-2.879-0.009
		c-0.273-0.005-0.403,0.085-0.484,0.353c-0.247,0.823-0.515,1.641-0.8,2.452c-0.043,0.123-0.068,0.382-0.282,0.326
		c-0.16-0.042-0.079-0.253-0.08-0.387c-0.007-0.781-0.01-1.562,0.002-2.342c0.004-0.258-0.058-0.394-0.348-0.387
		c-0.439,0.012-0.878,0.005-1.317-0.01c-0.275-0.01-0.37,0.103-0.366,0.375c0.013,0.813-0.003,1.627,0.011,2.44
		c0.008,0.468-0.2,1.072,0.082,1.37c0.307,0.324,0.924,0.09,1.404,0.11c0.428,0.018,0.503,0.121,0.37,0.538
		c-0.666,2.086-1.151,4.223-1.766,6.323c-0.075,0.256,0.009,0.312,0.244,0.312c0.434,0,0.865,0,1.301,0.077
		c0.344,0.061,0.642-0.077,0.731-0.512c0.104-0.508,0.273-1.002,0.417-1.501C31.699,40.508,32.354,38.231,33.009,35.955z
		 M18.03,35.81c0.001,0,0.003,0,0.004,0c0-0.714-0.009-1.427,0.004-2.141c0.005-0.283-0.075-0.418-0.383-0.406
		c-0.405,0.016-0.811,0.003-1.216-0.009c-0.23-0.007-0.328,0.053-0.361,0.319c-0.186,1.485-0.03,2.974-0.085,4.459
		c-0.008,0.224,0.113,0.272,0.302,0.27c0.438-0.004,0.877-0.019,1.313,0.007c0.357,0.022,0.436-0.133,0.427-0.456
		C18.016,37.172,18.03,36.491,18.03,35.81z M12.56,35.776c-0.002,0-0.003,0-0.005,0c0,0.714,0.002,1.427-0.001,2.141
		c-0.001,0.209,0.004,0.391,0.295,0.385c0.519-0.01,1.038-0.004,1.557-0.003c0.149,0,0.308-0.058,0.224-0.21
		c-0.15-0.27,0.019-0.498,0.02-0.745c0.002-1.249-0.004-2.498,0.005-3.747c0.002-0.254-0.086-0.343-0.337-0.336
		c-0.454,0.012-0.909,0.02-1.362-0.006c-0.337-0.019-0.408,0.125-0.401,0.428C12.572,34.381,12.56,35.078,12.56,35.776z"/>
	<path style="fill:#241F1F;" d="M23.085,23.432c0.435-0.74,0.914-0.933,1.617-0.631c0.761,0.326,1.504,0.692,2.261,1.028
		c0.298,0.132,0.357,0.266,0.131,0.536c-0.37,0.442-0.349,0.51,0.167,0.78c0.2,0.105,0.413,0.189,0.628,0.261
		c0.647,0.218,0.728,0.162,0.72-0.541c-0.007-0.588,0.029-1.157,0.249-1.719c0.217-0.556,0.127-0.648-0.471-0.656
		c-0.666-0.01-1.306-0.858-1.045-1.387c0.129-0.262,0.5-0.42,0.395-0.776c-0.101-0.344-0.496-0.301-0.727-0.466
		c-0.809-0.578-1.759-0.703-2.683-0.893c-1.258-0.258-2.52-0.276-3.745,0.194c-0.394,0.151-0.759-0.099-1.15-0.049
		c-0.247,0.031-0.474,0.052-0.671,0.225c-0.424,0.372-0.921,0.541-1.485,0.487c-0.394-0.038-0.714,0.064-1.019,0.341
		c-0.247,0.224-0.567,0.374-0.869,0.529c-0.253,0.13-0.376,0.315-0.324,0.587c0.059,0.307,0.308,0.234,0.51,0.206
		c0.27-0.038,0.402,0.043,0.369,0.335c-0.018,0.161-0.013,0.325-0.008,0.487c0.008,0.273-0.042,0.387-0.364,0.26
		c-0.492-0.194-0.89,0.072-1.211,0.408c-0.256,0.267-0.454,0.591-0.675,0.891c-0.046,0.063-0.119,0.145-0.045,0.214
		c0.05,0.046,0.146,0.043,0.222,0.055c0.03,0.005,0.074,0.001,0.094-0.017c0.682-0.63,1.137,0.054,1.642,0.309
		c0.371,0.187,0.359,0.435,0.048,0.739c-0.213,0.209-0.489,0.316-0.745,0.456c-0.344,0.188-0.523,0.436-0.462,0.868
		c0.083,0.592,0.01,1.194,0.082,1.795c0.061,0.509-1.067,2.018-1.554,2.216c-0.264,0.108-0.48,0.048-0.654-0.161
		c-0.103-0.124-0.18-0.27-0.273-0.403c-0.077-0.112-0.094-0.299-0.299-0.263c-0.181,0.031-0.206,0.194-0.25,0.328
		c-0.09,0.278-0.171,0.558-0.245,0.84c-0.077,0.293-0.225,0.415-0.469,0.171c-0.309-0.308-0.563-0.223-0.824,0.053
		c-0.1,0.106-0.225,0.189-0.326,0.294c-0.291,0.302-0.565,0.412-0.969,0.129c-0.377-0.264-0.813-0.17-1.154,0.124
		c-0.366,0.316-0.52,0.73-0.409,1.225c0.067,0.3,0.223,0.424,0.542,0.419c1.008-0.016,2.017,0.008,3.026-0.012
		c0.382-0.008,0.495,0.122,0.492,0.502c-0.017,2.196-0.015,4.392-0.005,6.588c0.002,0.344-0.134,0.635-0.258,0.93
		c-0.441,1.047-0.91,2.082-1.348,3.13c-0.105,0.252-0.241,0.34-0.509,0.327c-0.471-0.022-0.944-0.022-1.415-0.003
		c-0.34,0.014-0.417-0.062-0.284-0.405c0.514-1.332,0.997-2.677,1.495-4.015c0.08-0.216,0.134-0.432,0.134-0.664
		c-0.003-1.253-0.017-2.505,0.007-3.758c0.008-0.408-0.153-0.492-0.517-0.485c-0.976,0.02-1.952,0-2.928,0.015
		c-0.344,0.005-0.476-0.085-0.474-0.466c0.008-1.658-0.028-3.307,0.479-4.925c0.719-2.294,1.941-4.276,3.541-6.046
		c1.259-1.393,2.712-2.546,4.309-3.528c1.763-1.085,3.652-1.852,5.675-2.276c0.36-0.075,0.375-0.311,0.422-0.556
		c0.44-2.29,0.874-4.581,1.309-6.871c0.061-0.319,0.118-0.638,0.179-0.957c0.053-0.28,0.067-0.551-0.149-0.779
		c-0.183-0.193-0.142-0.396,0.008-0.57c0.207-0.241,0.585-0.339,0.606-0.739c0.001-0.016,0.121-0.053,0.167-0.034
		c0.089,0.036,0.069,0.131,0.062,0.212c-0.078,0.856-0.019,0.905,0.85,0.899c0.735-0.004,1.266-0.347,1.674-0.926
		c0.178-0.252,0.354-0.506,0.535-0.755c0.203-0.279,0.433-0.5,0.79-0.605c0.458-0.135,0.513-0.424,0.202-0.775
		c-0.378-0.426-0.041-1.823,0.489-1.994c0.251-0.081,0.491-0.019,0.671,0.176c0.283,0.305,0.502,0.637,0.399,1.091
		c-0.077,0.339-0.263,0.669-0.126,1.029c0.147,0.036,0.193-0.075,0.24-0.142c0.465-0.659,1.094-0.605,1.749-0.4
		c0.668,0.209,0.796,0.76,0.803,1.357c0.018,1.66-0.522,3.186-1.147,4.691c-0.056,0.134-0.151,0.273-0.148,0.408
		c0.024,1.008-0.081,2.005-0.228,3c-0.04,0.269,0.045,0.523,0.163,0.748c0.361,0.695,0.356,1.438,0.321,2.184
		c-0.013,0.275,0.081,0.396,0.347,0.476c0.683,0.206,1.355,0.449,2.033,0.674c0.239,0.079,0.385,0.116,0.311-0.262
		c-0.358-1.837-0.511-1.378,0.805-2.872c0.53-0.602,0.956-1.234,0.885-2.086c-0.056-0.664-0.322-0.835-0.922-0.585
		c-0.495,0.206-0.987,0.417-1.485,0.615c-0.226,0.09-0.502,0.203-0.655-0.07c-0.168-0.3-0.014-0.574,0.243-0.76
		c0.141-0.102,0.322-0.149,0.485-0.218c1.11-0.473,1.908-1.178,1.856-2.51c-0.015-0.384,0.216-0.66,0.477-0.854
		c0.23-0.171,0.217-0.33,0.164-0.539c-0.068-0.266-0.156-0.528-0.213-0.797c-0.126-0.596,0.268-1.159,0.795-1.154
		c0.473,0.005,0.722,0.239,0.738,0.714c0.009,0.26-0.012,0.52-0.01,0.78c0.003,0.304,0.152,0.327,0.375,0.181
		c0.054-0.035,0.102-0.081,0.146-0.128c0.649-0.689,1.235-0.474,1.928,0.35c0.172,0.205,0.484,0.218,0.583,0.524
		c0.126,0.389,0.235,0.784,0.264,1.184c0.054,0.742,0.205,1.489,0.034,2.232c-0.18,0.784-0.528,1.448-1.421,1.597
		c-0.253,0.042-0.295,0.199-0.345,0.398c-0.229,0.907-0.038,1.806,0.045,2.705c0.139,1.519,0.454,3.025,0.35,4.562
		c-0.015,0.221,0.021,0.416,0.221,0.558c1.43,1.009,2.37,2.44,3.251,3.897c1.078,1.782,1.977,3.655,2.466,5.699
		c0.129,0.538,0.232,1.075,0.229,1.635c-0.01,2.082-0.006,4.164-0.002,6.247c0.001,0.264-0.039,0.51-0.142,0.757
		c-0.486,1.169-0.971,2.339-1.434,3.518c-0.111,0.283-0.246,0.414-0.562,0.396c-0.438-0.026-0.88-0.032-1.317,0.001
		c-0.5,0.037-0.45-0.234-0.334-0.538c0.296-0.773,0.566-1.56,0.922-2.306c0.581-1.219,0.803-2.481,0.711-3.823
		c-0.05-0.729-0.03-1.464-0.01-2.195c0.009-0.332-0.117-0.414-0.426-0.41c-1.025,0.013-2.05-0.009-3.074,0.009
		c-0.334,0.006-0.455-0.086-0.449-0.434c0.019-1.155,0.003-2.31,0.011-3.465c0.002-0.366-0.003-0.754-0.328-0.962
		c-0.408-0.261-1.576-0.146-1.826,0.117c-0.146,0.154-0.167,0.348-0.158,0.547c0.02,0.451-0.221,0.712-0.642,0.659
		c-0.924-0.117-1.878,0.051-2.777-0.29c-0.201-0.076-0.387-0.017-0.568,0.053c-0.424,0.164-0.841,0.346-1.265,0.51
		c-0.587,0.227-1.177-0.101-1.58-0.867c-0.248-0.473-0.118-0.838,0.436-1.222c0.267-0.185,0.563-0.335,0.769-0.593
		c0.301-0.376,0.221-0.68-0.217-0.799c-0.283-0.077-0.26-0.302-0.29-0.5c-0.106-0.681-0.15-0.712-0.839-0.595
		c-0.375,0.064-0.641-0.197-0.933-0.355c-0.64-0.346-0.887-0.317-1.384,0.228c-0.553,0.606-0.886,1.359-1.347,2.027
		c-0.111,0.161-0.212,0.328-0.332,0.481c-0.426,0.546-0.66,0.603-1.228,0.23c-0.396-0.26-0.753-0.424-1.173-0.047
		c-0.203,0.182-0.401,0.046-0.555-0.114c-0.562-0.587-1.064-1.228-1.441-1.944c-0.361-0.685,0.173-1.723,0.956-1.941
		c0.47-0.131,1.033-0.178,1.345-0.522c0.675-0.747,1.443-0.657,2.269-0.47c0.459,0.104,0.918,0.209,1.378,0.31
		c0.421,0.092,0.604-0.049,0.633-0.482c0.045-0.688-0.299-1.149-1.005-1.355C24.161,23.517,23.624,23.51,23.085,23.432z
		 M25.831,10.632c-0.055-0.549-0.118-1.049-0.15-1.551c-0.019-0.291-0.128-0.297-0.372-0.222c-0.59,0.179-1.186,0.345-1.788,0.476
		c-0.535,0.116-1.096,0.309-1.624,0.041c-0.456-0.232-0.526-0.008-0.591,0.358c-0.213,1.211-0.44,2.42-0.663,3.63
		c-0.256,1.389-0.516,2.777-0.762,4.168c-0.024,0.134-0.183,0.436,0.134,0.386c1.226-0.194,2.458-0.22,3.693-0.236
		c0.217-0.003,0.289-0.08,0.232-0.299c-0.102-0.392-0.169-0.795-0.283-1.183c-0.216-0.737-0.082-1.413,0.319-2.045
		c0.356-0.562,0.713-1.125,1.099-1.666C25.486,11.911,25.688,11.264,25.831,10.632z M27.723,17.629
		c-0.014-0.348-0.05-0.644-0.179-0.904c-0.273-0.55-0.417-1.134-0.519-1.732c-0.055-0.319-0.104-0.639-0.14-0.96
		c-0.025-0.223-0.129-0.237-0.288-0.133c-0.553,0.364-1.107,0.726-1.57,1.206c-0.26,0.27-0.356,0.576-0.19,0.931
		c0.201,0.431,0.309,0.887,0.352,1.356c0.021,0.233,0.101,0.362,0.35,0.361c0.586-0.004,1.16,0.112,1.73,0.223
		C27.639,18.05,27.795,17.963,27.723,17.629z M35.726,21.38c0.046-0.305,0.006-0.535-0.08-0.771
		c-0.315-0.867-0.635-1.728-0.615-2.683c0.009-0.448-0.18-0.879-0.567-1.186c-0.149-0.118-0.262-0.194-0.398-0.003
		c-0.294,0.413-0.741,0.635-1.18,0.808c-0.445,0.175-0.374,0.426-0.238,0.725c0.169,0.37,0.327,0.74,0.396,1.145
		c0.023,0.136,0.051,0.291,0.191,0.38C34.052,20.313,34.868,20.833,35.726,21.38z M42.03,33.219
		c-1.03-0.782-1.683-1.793-2.215-2.898c-0.027-0.057-0.075-0.106-0.12-0.152c-0.148-0.151-0.305-0.332-0.537-0.268
		c-0.243,0.067-0.274,0.322-0.278,0.519c-0.019,0.843-0.009,1.687-0.01,2.531c0,0.143,0.036,0.266,0.208,0.267
		C40.062,33.22,41.046,33.219,42.03,33.219z"/>
	<path style="fill:#241F1F;" d="M26.534,38.993c0,1.756-0.009,3.511,0.008,5.267c0.003,0.354-0.08,0.474-0.455,0.47
		c-1.999-0.019-3.999-0.02-5.998-0.002c-0.393,0.004-0.484-0.122-0.482-0.497c0.012-3.462,0.016-6.925-0.007-10.388
		c-0.003-0.483,0.146-0.601,0.6-0.599c0.441,0.002,0.862,0.131,1.301,0.119c0.258-0.007,0.194,0.209,0.196,0.359
		c0.006,0.715,0.006,1.43,0.006,2.146c0.001,2.016,0.013,4.032-0.009,6.047c-0.005,0.472,0.101,0.683,0.619,0.642
		c0.565-0.045,1.137-0.019,1.706-0.007c0.296,0.006,0.431-0.064,0.428-0.408c-0.017-2.081-0.01-4.161-0.01-6.242
		c0-0.065,0.003-0.13-0.003-0.195c-0.009-0.092,0.014-0.217-0.115-0.233c-0.155-0.019-0.175,0.112-0.194,0.226
		c-0.095,0.576-0.211,1.15-0.276,1.73c-0.042,0.375-0.176,0.531-0.578,0.524c-1.116-0.017-1.138-0.003-1.006-1.099
		c0.133-1.095,0.321-2.183,0.471-3.276c0.03-0.221,0.116-0.313,0.336-0.313c1.057,0,2.113-0.002,3.17-0.014
		c0.335-0.004,0.294,0.212,0.294,0.427C26.533,35.449,26.534,37.221,26.534,38.993z"/>
	<path style="fill:#241F1F;" d="M33.009,35.955c-0.655,2.276-1.31,4.552-1.965,6.829c-0.144,0.499-0.313,0.994-0.417,1.501
		c-0.089,0.436-0.387,0.573-0.731,0.512c-0.436-0.077-0.866-0.077-1.301-0.077c-0.234,0-0.319-0.057-0.244-0.312
		c0.615-2.1,1.099-4.237,1.766-6.323c0.133-0.417,0.057-0.52-0.37-0.538c-0.481-0.02-1.097,0.214-1.404-0.11
		c-0.282-0.297-0.075-0.901-0.082-1.37c-0.013-0.813,0.002-1.627-0.011-2.44c-0.004-0.271,0.09-0.384,0.366-0.375
		c0.439,0.015,0.878,0.022,1.317,0.01c0.289-0.008,0.352,0.129,0.348,0.387c-0.012,0.781-0.009,1.562-0.002,2.342
		c0.001,0.134-0.08,0.344,0.08,0.387c0.214,0.057,0.239-0.203,0.282-0.326c0.285-0.811,0.553-1.629,0.8-2.452
		c0.081-0.268,0.211-0.358,0.484-0.353c0.96,0.017,1.92,0.025,2.879,0.009c0.351-0.006,0.489,0.092,0.488,0.464
		c-0.011,3.514-0.011,7.028-0.001,10.541c0.001,0.36-0.106,0.476-0.473,0.465c-0.878-0.027-1.757-0.018-2.635-0.003
		c-0.277,0.005-0.37-0.085-0.359-0.361c0.018-0.471,0.017-0.944,0-1.415c-0.01-0.284,0.062-0.395,0.377-0.397
		c0.895-0.004,0.895-0.02,0.895-0.936c0-1.886,0-3.773,0-5.659C33.067,35.956,33.038,35.956,33.009,35.955z"/>
	<path style="fill:#241F1F;" d="M18.03,35.81c0,0.681-0.013,1.363,0.006,2.043c0.009,0.323-0.069,0.477-0.427,0.456
		c-0.436-0.026-0.875-0.011-1.313-0.007c-0.189,0.002-0.31-0.046-0.302-0.27c0.054-1.485-0.101-2.974,0.085-4.459
		c0.033-0.266,0.131-0.326,0.361-0.319c0.405,0.012,0.811,0.025,1.216,0.009c0.308-0.012,0.388,0.123,0.383,0.406
		c-0.013,0.713-0.004,1.427-0.004,2.141C18.032,35.81,18.031,35.81,18.03,35.81z"/>
	<path style="fill:#241F1F;" d="M12.56,35.776c0-0.697,0.012-1.395-0.006-2.092c-0.008-0.303,0.064-0.447,0.401-0.428
		c0.453,0.026,0.908,0.018,1.362,0.006c0.251-0.007,0.339,0.082,0.337,0.336c-0.01,1.249-0.003,2.498-0.005,3.747
		c0,0.246-0.17,0.475-0.02,0.745c0.085,0.152-0.075,0.211-0.224,0.21c-0.519-0.002-1.038-0.007-1.557,0.003
		c-0.291,0.006-0.296-0.176-0.295-0.385c0.003-0.714,0.001-1.427,0.001-2.141C12.557,35.776,12.558,35.776,12.56,35.776z"/>
	<path style="fill:#F49320;" d="M25.831,10.632c-0.143,0.632-0.345,1.279-0.756,1.855c-0.386,0.541-0.743,1.104-1.099,1.666
		c-0.401,0.632-0.535,1.309-0.319,2.045c0.114,0.389,0.181,0.791,0.283,1.183c0.057,0.218-0.015,0.296-0.232,0.299
		c-1.235,0.016-2.467,0.042-3.693,0.236c-0.318,0.05-0.158-0.251-0.134-0.386c0.246-1.391,0.506-2.779,0.762-4.168
		c0.223-1.21,0.45-2.418,0.663-3.63c0.064-0.366,0.134-0.59,0.591-0.358c0.528,0.268,1.089,0.075,1.624-0.041
		c0.602-0.131,1.198-0.296,1.788-0.476c0.244-0.074,0.353-0.068,0.372,0.222C25.713,9.583,25.776,10.083,25.831,10.632z"/>
	<path style="fill:#F49320;" d="M27.723,17.629c0.072,0.333-0.084,0.421-0.455,0.348c-0.57-0.112-1.144-0.227-1.73-0.223
		c-0.249,0.002-0.329-0.128-0.35-0.361c-0.043-0.469-0.151-0.925-0.352-1.356c-0.166-0.354-0.07-0.661,0.19-0.931
		c0.463-0.48,1.017-0.842,1.57-1.206c0.159-0.104,0.263-0.09,0.288,0.133c0.037,0.321,0.086,0.641,0.14,0.96
		c0.102,0.598,0.246,1.182,0.519,1.732C27.673,16.985,27.709,17.281,27.723,17.629z"/>
	<path style="fill:#F49320;" d="M35.726,21.38c-0.858-0.547-1.674-1.067-2.49-1.586c-0.14-0.089-0.168-0.244-0.191-0.38
		c-0.069-0.405-0.228-0.775-0.396-1.145c-0.136-0.298-0.206-0.549,0.238-0.725c0.439-0.173,0.886-0.395,1.18-0.808
		c0.136-0.191,0.249-0.115,0.398,0.003c0.386,0.307,0.576,0.738,0.567,1.186c-0.02,0.956,0.299,1.816,0.615,2.683
		C35.732,20.845,35.772,21.074,35.726,21.38z"/>
	<path style="fill:#F49320;" d="M42.03,33.219c-0.984,0-1.968,0.001-2.952-0.001c-0.172,0-0.208-0.124-0.208-0.267
		c0-0.844-0.009-1.688,0.01-2.531c0.004-0.197,0.035-0.452,0.278-0.519c0.232-0.064,0.388,0.117,0.537,0.268
		c0.045,0.046,0.093,0.095,0.12,0.152C40.347,31.426,41,32.437,42.03,33.219z"/>
</g>
</svg>
