<?xml version="1.0" encoding="iso-8859-1"?>
<!-- Generator: Adobe Illustrator 18.1.1, SVG Export Plug-In . SVG Version: 6.00 Build 0)  -->
<svg version="1.1" id="Layer_1" xmlns="http://www.w3.org/2000/svg" xmlns:xlink="http://www.w3.org/1999/xlink" x="0px" y="0px"
	 viewBox="0 0 232.673 150" style="enable-background:new 0 0 232.673 150;" xml:space="preserve">
<g>
	<path style="fill:#6A6158;" d="M118.243,39.853c-0.165,0.241-0.128,0.693,0.335,0.697c2.966,0.031,5.904,0.119,8.811,0.263
		c53.98,2.658,96.07,24.286,96.07,50.58c0,28.085-48.031,50.851-107.288,50.851c-59.25,0-107.288-22.766-107.288-50.851
		c0-5.964,1.446-12.41,5.425-17.728c0,0,0.169-0.257-0.125-0.453c-0.29-0.193-0.529,0.088-0.529,0.088
		c-5.811,6.62-9.029,13.904-9.029,21.546C4.625,125.309,55.674,150,118.65,150c62.974,0,114.023-24.691,114.023-55.153
		c0-29.026-46.365-52.816-105.229-54.988c-2.905-0.107-5.83-0.163-8.794-0.163C118.65,39.697,118.364,39.68,118.243,39.853"/>
	<path style="fill:#6A6158;" d="M206.818,79.882v-0.654h0.409c0.218,0,0.518,0.016,0.518,0.3c0,0.3-0.152,0.354-0.409,0.354H206.818
		z M206.818,80.341h0.28l0.621,1.138h0.687l-0.695-1.185c0.364-0.029,0.66-0.208,0.66-0.708c0-0.619-0.418-0.819-1.115-0.819h-1.014
		v2.711h0.576V80.341z M209.768,80.129c0-1.594-1.193-2.524-2.528-2.524c-1.339,0-2.53,0.93-2.53,2.524c0,1.59,1.191,2.52,2.53,2.52
		C208.575,82.649,209.768,81.719,209.768,80.129 M209.04,80.129c0,1.156-0.825,1.938-1.8,1.938v-0.006
		c-0.998,0.006-1.804-0.776-1.804-1.932c0-1.162,0.806-1.934,1.804-1.934C208.215,78.195,209.04,78.967,209.04,80.129"/>
	<g>
		<path style="fill:#6A6158;" d="M209.835,97.293c0,9.483-6.774,17.173-17.609,17.173c-10.839,0-17.611-7.689-17.611-17.173
			c0-9.481,7.883-17.171,17.611-17.171C201.948,80.122,209.835,87.811,209.835,97.293 M192.191,83.843
			c-6.846,0-11.24,7.171-11.24,13.519c0,6.35,4.394,13.523,11.24,13.523c6.836,0,11.238-7.173,11.238-13.523
			C203.429,91.014,199.027,83.843,192.191,83.843"/>
		<path style="fill:#6A6158;" d="M77.627,71.756c0,0-12.044-9.555-20.526-10.72c-8.21-1.16-15.798,0.889-23.301,7.671
			c-8.035,7.136-13.844,23.381-3.137,38.023c8.831,12.141,26.329,12.591,36.324,7.597c9.913-5.081,12.415-10.127,12.415-10.127
			l0.088-6.091c0,0-5.001,10.242-18.211,12.738c-10.532,1.958-21.818-3.287-26.236-13.042c-3.59-7.918-1.193-21.361,5.451-27.133
			c6.743-5.852,14.019-7.671,21.869-4.365c7.944,3.215,9.461,9.374,8.654,12.322c-1.249,4.464-1.872,4.55-1.872,4.55l1.156,0.714
			L77.627,71.756z"/>
		<path style="fill:#6A6158;" d="M174.825,86.788c0,0-0.987,1.829-1.697,3.302c-0.761,1.596-1.697,4.194-1.697,4.194h-0.891
			c0,0,0.448-3.571-1.07-6.163c-1.607-2.405-4.365-4.361-7.136-4.373c-3.902-0.012-7.41,1.784-9.917,5.887
			c-2.763,4.731-2.314,9.086-1.341,12.406c1.621,5.527,7.048,8.753,12.583,8.128c7.498-0.71,10.715-5.172,10.715-5.172l1.335,2.318
			c0,0-1.52,1.967-4.283,3.929c-2.236,1.607-5.538,3.479-11.518,3.209c-7.138-0.274-11.69-3.754-14.009-8.934
			c-2.144-4.552-2.767-11.939,1.43-18.275c3.929-5.622,9.134-7.105,14.126-7.085c5.019,0.021,9.323,3.108,10.497,3.978
			C173.558,85.324,174.825,86.788,174.825,86.788"/>
		<path style="fill:#6A6158;" d="M146.79,110.252c0,0-1.43,1.518-2.588,1.16c-1.253-0.36-1.485-1.218-1.602-1.86
			c-0.072-0.368-0.792-15.245-0.858-16.286c0-7.786-6.005-13.4-13.406-13.4c-1.775,0-3.479,0.35-5.03,0.981
			c-0.411,0.162-0.837,0.36-1.277,0.58c-3.168,1.481-6.686,3.209-6.686,3.209l2.997,4.41c0,0,0.654-0.749,1.691-1.701
			c0.704-0.64,2.213-2.337,4.698-3.271c0.882-0.333,1.911-0.471,2.911-0.471c5.571,0,8.146,3.616,8.146,8.078l0.023,0.782
			c0,0-6.206-1.111-10.526-0.518c-3.748,0.516-8.658,1.693-10.981,6.69c-0.531,1.164-0.895,2.409-1.072,3.75
			c-0.539,4.106,0.979,8.57,5.62,10.981c4.55,2.32,8.035,1.699,11.244,0.806c2.592-0.802,6.252-3.121,6.252-3.121
			s1.259,3.308,3.839,3.483c2.322,0.158,3.748-0.448,4.999-1.249c1.337-0.891,2.322-2.318,2.322-2.318L146.79,110.252z
			 M124.295,110.154c-3.125-1.337-4.867-4.153-4.46-7.763c0.165-1.448,0.701-3.038,1.948-4.643
			c4.289-5.624,14.033-2.294,14.033-2.294l-0.008,12.719C135.809,108.173,128.759,111.941,124.295,110.154"/>
		<path style="fill:#6A6158;" d="M113.172,113.972c0,0-0.004-0.002-0.012-0.006v-0.008h-0.027c-0.235-0.091-1.545-0.638-1.872-1.853
			c-0.177-0.448-0.158-3.493-0.158-3.493s-0.072-10.197,0-13.457c0.181-4.641-0.716-7.231-1.43-8.928
			c-0.623-1.249-3.39-5.801-10.263-5.982c-6.426-0.181-11.345,7.048-11.345,7.048l0.008-24.189c0,0,0.177-2.32-0.623-3.392
			c-0.358-0.535-0.893-0.714-0.893-0.714l-6.965,11.333c0,0,0.981,0,1.607,0.535c0.623,0.716,0.535,2.59,0.535,2.59l-0.012,35.139
			c0,0,0.016,3.045-0.16,3.491c-0.358,1.331-1.893,1.868-1.909,1.874h-0.008v0.895h10.483v-0.895h0.008c0,0-1.555-0.531-1.913-1.868
			c-0.177-0.448-0.16-3.491-0.16-3.491l0.004-13.451c0,0-0.051-1.018,2.59-4.554c1.777-2.386,2.181-2.868,4.281-4.727
			c1.374-1.214,4.832-2.765,7.504-0.356c2.592,2.411,2.318,7.5,2.318,7.5v15.599c0,0-0.016,3.042-0.193,3.489
			c-0.325,1.218-1.637,1.769-1.872,1.86h-0.033v0.012l-0.004,0.002h0.004v0.88h10.499v-0.88H113.172z"/>
	</g>
</g>
<path style="fill:#E3AE23;" d="M80.528,54.182c0,0,0.708-0.101,0.808,0.403c0.099,0.506-0.808,0.909-0.808,0.909
	s-3.234,1.919-9.195,1.72c0,0,4.491,3.627,4.246,5.151c-0.177,1.09-1.314-0.101-1.314-0.101s-5.984-4.75-10.234-5.221
	c-0.107-0.002-0.253-0.004-0.327-0.004c-0.14,0-0.374,0.053-0.494-0.062c0,0-0.601-0.599,0.545-1.078
	c1.302-0.541,4.647-2.929,5.56-4.75c0.905-1.818,1.411-3.437-0.306-3.536c-1.718-0.101-5.661-0.706-10.81,0.405
	c0,0-1.796,0.302-1.432-1.123c0,0,0.037-0.095,0.156-0.187c1.335-1.041,10.053-7.352,20.735-4.956c0,0,2.604,0.95-0.253,5.013
	c-2.855,4.065-3.876,4.953-4.635,5.525c0,0,5.396-1.969,7.809-4.127c0,0,0.352-0.35,0.656-0.047
	c0.302,0.304-0.204,1.113-0.607,1.518c-0.405,0.403-5.657,4.445-7.984,4.949C72.645,54.585,76.992,55.293,80.528,54.182
	 M126.475,54.787c-2.423-4.447-6.066-5.357-6.066-5.357c1.565,0.051,3.337-2.172,3.538-2.479c0.206-0.3,0.358-0.806,0.152-0.959
	c-0.204-0.152-0.557,0.202-0.557,0.202c-2.678,2.781-7.225,1.971-10.357,0.557c-3.133-1.417-6.823-1.314-6.823-1.314
	s5.104-3.386,5.71-7.63c0.607-4.246-1.214-3.034-1.214-3.034c-2.777,3.843-5.809,3.995-6.42,4.145
	c-0.603,0.15-2.878,0.253-3.232,1.615c-0.352,1.364-1.969,3.238-3.74,4.552c-1.253,0.926-0.477,1.862-0.477,1.862
	c0.852,1.088,2.399,1.827,3.053,1.977c0.66,0.152,2.127-0.959,8.948,0.051c6.821,1.01,11.125,9.103,11.267,10.31
	c0.058,0.475,0.175,0.732,0.288,0.868c0.08,0.06,0.288,0.2,0.414,0.006c1.294-3.711-1.607-8.054-1.607-8.054
	c4.447,0.81,5.961,2.781,6.114,2.884c0.15,0.099,0.609,0.504,0.862,0.352C126.576,55.19,126.475,54.787,126.475,54.787
	 M132.056,3.669c-0.193-2.695-1.989-3.431-2.946-3.637c-0.346-0.047-0.736-0.033-0.985-0.014
	c-9.339,1.463-14.136,9.086-14.186,9.164c-1.294,1.771-2.917,6.78-3.684,9.333l-0.004-0.012c-0.553,2.063-1.349,3.205-1.349,3.205
	c-2.392,3.752-9.993,12.583-26.989,8.835C56.492,24.939,41.953,44.79,41.809,44.992C31.587,57.77,21.666,64.631,12.329,65.375
	C4.748,65.98,0.391,62.113,0.35,62.074C0.266,61.998,0.14,62,0.06,62.08c-0.078,0.08-0.08,0.208-0.006,0.288
	c3.612,3.935,8.037,5.992,13.153,6.11c14.309,0.325,29.602-14.727,29.754-14.881c23.998-22.134,44.044-16.831,44.244-16.778
	c21.153,4.063,27.896-7.527,29.445-11.1h0.004c0,0,0.004-0.019,0.008-0.041c0.064-0.142,0.117-0.269,0.162-0.383
	c0.123-0.325,0.344-0.654,0.615-0.903c1.177-0.985,2.497-1.901,3.791-2.779c2.329-1.586,4.735-3.23,6.34-5.394
	c2.672-3.612,4.501-9.183,4.501-12.12C132.072,3.949,132.066,3.803,132.056,3.669 M62.655,16.69
	c-2.417-1.679-11.553,4.894-11.553,4.894s-0.471,0.292-0.471,0.175c0-0.119,0.239-0.588,0.239-0.588
	c1.53-2.641,3.857-6.044,2.944-6.751c-0.913-0.706-4.429,4.511-4.89,5.361c-0.455,0.833-0.679,0.564-0.679,0.564
	c0-2.621-0.59-5.128-0.915-5.863c-0.284-0.65-0.529-0.65-0.794-0.65c-0.267,0-0.294,0.385-0.294,0.385
	c0.823,5.482-2.051,10.964-2.392,11.318c-0.444,0.463-0.06,0.726-0.06,0.726c3.053,1.113,9.652-2.557,11.874-1.722
	c2.226,0.835-2.917,6.998-2.917,6.998c-0.066,0.07-0.093,0.132-0.107,0.197c-0.019,0.056-0.033,0.105-0.033,0.163
	c0,0.28,0.216,0.52,0.496,0.498c0.084-0.006,0.146-0.019,0.212-0.047c2.39-0.636,6.858-3.6,7.515-4.369
	C61.507,27.184,65.072,18.369,62.655,16.69 M107.348,9.477c-0.376-0.2-0.582,0.302-0.582,0.302c-1.563,3.23-4.106,3.394-4.106,3.394
	c3.596-3.487,2.187-7.815,2.032-8.074c-0.103-0.165-0.263-0.119-0.368-0.066c-0.105,0.037-0.105,0.294-0.105,0.3
	c0.006,4.034-3.594,6.696-3.594,6.696c0.625-4.168-0.66-5.639-0.938-5.992c-0.348-0.446-0.465,0-0.465,0
	c0.309,7.659-1.93,9.847-5.472,11.621c-3.544,1.769-7.192,2.397-7.554,3.75c-0.366,1.354,0.677,1.615,4.896,2.763
	c2.647,0.718,3.662,1.792,4.046,2.491c0,0-0.002,0.002,0,0.004c0.093,0.163,0.169,0.401,0.214,0.64
	c0.019,0.109,0.099,0.208,0.276,0.239c0.004,0,0.008,0.002,0.01,0.002c0.42,0.068,1.393-0.181,3.201-1.808
	c2.606-2.343,1.685-3.756,1.685-3.756c-1.463-2.296-4.377-2.242-4.377-2.242c8.594-3.073,10.732-8.662,10.962-9.115
	C107.326,10.182,107.554,9.588,107.348,9.477"/>
</svg>
