<?xml version="1.0" encoding="iso-8859-1"?>
<!-- Generator: Adobe Illustrator 18.1.1, SVG Export Plug-In . SVG Version: 6.00 Build 0)  -->
<svg version="1.1" id="Layer_1" xmlns="http://www.w3.org/2000/svg" xmlns:xlink="http://www.w3.org/1999/xlink" x="0px" y="0px"
	 viewBox="0 0 300 193.405" style="enable-background:new 0 0 300 193.405;" xml:space="preserve">
<g>
	<path style="fill:#FFFFFF;" d="M152.458,51.385c-0.212,0.31-0.164,0.894,0.432,0.899c3.825,0.04,7.612,0.154,11.36,0.339
		c69.6,3.427,123.87,31.314,123.87,65.216c0,36.212-61.93,65.566-138.333,65.566c-76.396,0-138.333-29.354-138.333-65.566
		c0-7.689,1.865-16.002,6.994-22.858c0,0,0.217-0.332-0.162-0.584c-0.374-0.249-0.682,0.114-0.682,0.114
		c-7.493,8.535-11.641,17.927-11.641,27.781c0,39.276,65.821,71.112,147.02,71.112c81.196,0,147.017-31.836,147.017-71.112
		c0-37.425-59.781-68.099-135.678-70.9c-3.745-0.138-7.517-0.21-11.339-0.21C152.983,51.183,152.614,51.162,152.458,51.385"/>
	<path style="fill:#FFFFFF;" d="M266.664,102.997v-0.843h0.528c0.281,0,0.668,0.021,0.668,0.387c0,0.387-0.196,0.456-0.528,0.456
		H266.664z M266.664,103.589h0.361l0.801,1.467h0.886l-0.897-1.528c0.469-0.037,0.851-0.268,0.851-0.912
		c0-0.798-0.538-1.056-1.438-1.056h-1.308v3.496h0.743V103.589z M270.468,103.316c0-2.056-1.538-3.254-3.26-3.254
		c-1.727,0-3.262,1.199-3.262,3.254c0,2.05,1.536,3.249,3.262,3.249C268.93,106.565,270.468,105.366,270.468,103.316
		 M269.529,103.316c0,1.491-1.064,2.499-2.321,2.499v-0.008c-1.286,0.008-2.326-1-2.326-2.491c0-1.498,1.04-2.493,2.326-2.493
		C268.465,100.822,269.529,101.817,269.529,103.316"/>
	<g>
		<path style="fill:#FFFFFF;" d="M270.554,125.446c0,12.227-8.734,22.142-22.704,22.142c-13.975,0-22.707-9.914-22.707-22.142
			c0-12.225,10.164-22.139,22.707-22.139C260.385,103.307,270.554,113.221,270.554,125.446 M247.805,108.105
			c-8.827,0-14.492,9.246-14.492,17.431c0,8.188,5.665,17.437,14.492,17.437c8.814,0,14.49-9.249,14.49-17.437
			C262.295,117.351,256.619,108.105,247.805,108.105"/>
		<path style="fill:#FFFFFF;" d="M100.09,92.52c0,0-15.53-12.32-26.465-13.821c-10.586-1.496-20.37,1.146-30.043,9.891
			c-10.36,9.201-17.85,30.147-4.045,49.026c11.387,15.654,33.947,16.235,46.835,9.795c12.782-6.551,16.007-13.058,16.007-13.058
			l0.114-7.854c0,0-6.448,13.206-23.481,16.423c-13.58,2.525-28.131-4.238-33.828-16.816c-4.628-10.209-1.538-27.542,7.029-34.984
			c8.694-7.546,18.076-9.891,28.197-5.628c10.243,4.146,12.198,12.087,11.158,15.888c-1.61,5.756-2.414,5.867-2.414,5.867
			l1.491,0.92L100.09,92.52z"/>
		<path style="fill:#FFFFFF;" d="M225.413,111.902c0,0-1.273,2.358-2.188,4.257c-0.981,2.058-2.188,5.408-2.188,5.408h-1.148
			c0,0,0.578-4.604-1.379-7.946c-2.071-3.101-5.628-5.623-9.201-5.639c-5.032-0.016-9.554,2.3-12.787,7.591
			c-3.562,6.1-2.984,11.715-1.729,15.996c2.09,7.127,9.087,11.286,16.224,10.479c9.668-0.915,13.816-6.668,13.816-6.668l1.721,2.989
			c0,0-1.96,2.536-5.522,5.066c-2.883,2.071-7.14,4.485-14.85,4.138c-9.204-0.353-15.073-4.84-18.062-11.519
			c-2.764-5.87-3.567-15.394,1.843-23.563c5.066-7.249,11.776-9.161,18.214-9.135c6.472,0.027,12.02,4.008,13.535,5.13
			C223.779,110.014,225.413,111.902,225.413,111.902"/>
		<path style="fill:#FFFFFF;" d="M189.266,142.156c0,0-1.843,1.957-3.337,1.496c-1.615-0.464-1.915-1.57-2.066-2.398
			c-0.093-0.475-1.021-19.656-1.106-20.999c0-10.039-7.742-17.277-17.285-17.277c-2.289,0-4.485,0.451-6.485,1.265
			c-0.531,0.209-1.079,0.464-1.647,0.748c-4.085,1.91-8.62,4.138-8.62,4.138l3.864,5.687c0,0,0.843-0.965,2.18-2.193
			c0.907-0.825,2.854-3.013,6.058-4.217c1.138-0.43,2.464-0.607,3.753-0.607c7.183,0,10.503,4.663,10.503,10.416l0.029,1.008
			c0,0-8.002-1.432-13.572-0.668c-4.833,0.666-11.164,2.183-14.158,8.625c-0.684,1.501-1.154,3.106-1.382,4.835
			c-0.695,5.294,1.263,11.05,7.246,14.158c5.867,2.992,10.36,2.191,14.498,1.04c3.342-1.034,8.06-4.024,8.06-4.024
			s1.623,4.265,4.949,4.49c2.994,0.204,4.833-0.578,6.445-1.61c1.724-1.148,2.994-2.989,2.994-2.989L189.266,142.156z
			 M160.262,142.028c-4.029-1.724-6.276-5.355-5.75-10.01c0.212-1.867,0.904-3.917,2.512-5.986
			c5.53-7.252,18.094-2.957,18.094-2.957l-0.011,16.399C175.107,139.474,166.018,144.333,160.262,142.028"/>
		<path style="fill:#FFFFFF;" d="M145.92,146.952c0,0-0.005-0.003-0.016-0.008v-0.011h-0.034c-0.302-0.117-1.992-0.822-2.414-2.39
			c-0.228-0.578-0.204-4.504-0.204-4.504s-0.093-13.148,0-17.352c0.233-5.984-0.923-9.323-1.843-11.511
			c-0.804-1.61-4.371-7.48-13.233-7.713c-8.286-0.233-14.628,9.087-14.628,9.087l0.011-31.189c0,0,0.228-2.992-0.804-4.374
			c-0.461-0.69-1.151-0.92-1.151-0.92l-8.981,14.612c0,0,1.265,0,2.071,0.69c0.804,0.923,0.69,3.339,0.69,3.339l-0.016,45.307
			c0,0,0.021,3.925-0.207,4.501c-0.462,1.716-2.44,2.408-2.461,2.416h-0.011v1.154h13.516v-1.154h0.011c0,0-2.005-0.684-2.467-2.408
			c-0.228-0.578-0.207-4.501-0.207-4.501l0.005-17.344c0,0-0.066-1.313,3.339-5.872c2.292-3.077,2.811-3.697,5.52-6.095
			c1.772-1.565,6.23-3.565,9.676-0.459c3.342,3.109,2.989,9.671,2.989,9.671v20.113c0,0-0.021,3.923-0.249,4.498
			c-0.419,1.57-2.111,2.281-2.414,2.398h-0.042v0.016l-0.005,0.003h0.005v1.135h13.538v-1.135H145.92z"/>
	</g>
</g>
<path style="fill:#FFFFFF;" d="M103.83,69.861c0,0,0.912-0.13,1.042,0.52c0.127,0.652-1.042,1.172-1.042,1.172
	s-4.17,2.475-11.856,2.217c0,0,5.79,4.676,5.474,6.641c-0.228,1.406-1.695-0.13-1.695-0.13s-7.716-6.124-13.195-6.732
	c-0.138-0.003-0.326-0.005-0.422-0.005c-0.18,0-0.483,0.069-0.637-0.08c0,0-0.775-0.772,0.703-1.39
	c1.679-0.698,5.992-3.777,7.169-6.124c1.167-2.345,1.82-4.432-0.395-4.559c-2.215-0.13-7.299-0.91-13.938,0.523
	c0,0-2.316,0.39-1.846-1.448c0,0,0.048-0.122,0.202-0.241c1.721-1.342,12.962-9.479,26.736-6.389c0,0,3.358,1.225-0.326,6.464
	c-3.681,5.241-4.997,6.387-5.976,7.124c0,0,6.957-2.538,10.068-5.321c0,0,0.454-0.451,0.846-0.061
	c0.39,0.393-0.263,1.435-0.782,1.957c-0.522,0.52-7.294,5.732-10.294,6.382C93.666,70.381,99.27,71.293,103.83,69.861
	 M163.073,70.64c-3.124-5.734-7.822-6.907-7.822-6.907c2.018,0.066,4.302-2.801,4.562-3.196c0.265-0.387,0.461-1.04,0.196-1.236
	c-0.263-0.196-0.719,0.26-0.719,0.26c-3.453,3.586-9.315,2.541-13.355,0.719c-4.039-1.827-8.798-1.695-8.798-1.695
	s6.58-4.366,7.363-9.838c0.782-5.474-1.565-3.912-1.565-3.912c-3.581,4.955-7.49,5.151-8.278,5.344
	c-0.777,0.194-3.711,0.326-4.167,2.082c-0.454,1.758-2.538,4.175-4.822,5.87c-1.615,1.194-0.615,2.4-0.615,2.4
	c1.098,1.403,3.093,2.355,3.936,2.549c0.851,0.196,2.743-1.236,11.538,0.066c8.795,1.302,14.344,11.737,14.527,13.294
	c0.074,0.613,0.225,0.944,0.371,1.119c0.103,0.077,0.371,0.257,0.533,0.008c1.668-4.785-2.072-10.384-2.072-10.384
	c5.734,1.045,7.687,3.586,7.883,3.719c0.194,0.127,0.785,0.65,1.111,0.454C163.203,71.16,163.073,70.64,163.073,70.64 M170.268,4.73
	c-0.249-3.475-2.565-4.424-3.798-4.689c-0.446-0.061-0.95-0.042-1.27-0.019c-12.042,1.886-18.227,11.715-18.291,11.816
	c-1.668,2.284-3.761,8.742-4.75,12.034l-0.005-0.016c-0.714,2.66-1.74,4.132-1.74,4.132c-3.085,4.838-12.885,16.224-34.799,11.392
	c-32.775-7.225-51.522,18.37-51.707,18.63c-13.18,16.476-25.972,25.322-38.011,26.282c-9.774,0.78-15.392-4.207-15.445-4.257
	c-0.109-0.098-0.271-0.096-0.374,0.008c-0.101,0.103-0.103,0.268-0.008,0.371c4.657,5.074,10.363,7.726,16.959,7.877
	c18.45,0.419,38.167-18.988,38.364-19.187c30.942-28.539,56.789-21.702,57.047-21.633c27.274,5.238,35.968-9.705,37.966-14.312
	h0.005c0,0,0.005-0.024,0.011-0.053c0.082-0.183,0.151-0.347,0.209-0.493c0.159-0.419,0.443-0.843,0.793-1.164
	c1.517-1.27,3.22-2.451,4.888-3.583c3.003-2.045,6.106-4.164,8.175-6.954c3.445-4.658,5.803-11.84,5.803-15.628
	C170.289,5.091,170.281,4.903,170.268,4.73 M80.785,21.52c-3.117-2.164-14.896,6.31-14.896,6.31s-0.607,0.377-0.607,0.225
	c0-0.154,0.308-0.759,0.308-0.759c1.973-3.406,4.973-7.793,3.796-8.705c-1.178-0.91-5.711,5.817-6.305,6.912
	c-0.586,1.074-0.875,0.727-0.875,0.727c0-3.379-0.761-6.612-1.18-7.559c-0.366-0.838-0.682-0.838-1.024-0.838
	c-0.345,0-0.379,0.496-0.379,0.496c1.061,7.068-2.644,14.137-3.085,14.593c-0.573,0.597-0.077,0.936-0.077,0.936
	c3.936,1.435,12.445-3.297,15.309-2.22c2.87,1.077-3.761,9.023-3.761,9.023c-0.085,0.09-0.119,0.17-0.138,0.255
	c-0.024,0.072-0.042,0.135-0.042,0.21c0,0.361,0.278,0.671,0.639,0.642c0.109-0.008,0.188-0.024,0.273-0.061
	c3.082-0.82,8.843-4.642,9.689-5.634C79.305,35.05,83.901,23.684,80.785,21.52 M138.411,12.219c-0.485-0.257-0.751,0.39-0.751,0.39
	c-2.016,4.164-5.294,4.376-5.294,4.376c4.636-4.496,2.82-10.076,2.621-10.411c-0.133-0.212-0.339-0.154-0.475-0.085
	c-0.135,0.048-0.135,0.379-0.135,0.387c0.008,5.201-4.634,8.633-4.634,8.633c0.806-5.374-0.851-7.27-1.21-7.726
	c-0.448-0.576-0.599,0-0.599,0c0.398,9.875-2.488,12.697-7.055,14.983c-4.57,2.281-9.273,3.09-9.739,4.835
	c-0.472,1.745,0.873,2.082,6.313,3.562c3.414,0.926,4.721,2.31,5.217,3.212c0,0-0.003,0.003,0,0.005
	c0.119,0.21,0.217,0.517,0.276,0.825c0.024,0.141,0.127,0.268,0.355,0.308c0.005,0,0.011,0.003,0.013,0.003
	c0.541,0.088,1.796-0.233,4.127-2.331c3.361-3.021,2.172-4.843,2.172-4.843c-1.886-2.96-5.644-2.891-5.644-2.891
	c11.081-3.963,13.837-11.169,14.134-11.753C138.382,13.129,138.676,12.362,138.411,12.219"/>
</svg>
