<?xml version="1.0" encoding="iso-8859-1"?>
<!-- Generator: Adobe Illustrator 18.1.1, SVG Export Plug-In . SVG Version: 6.00 Build 0)  -->
<svg version="1.1" id="Layer_1" xmlns="http://www.w3.org/2000/svg" xmlns:xlink="http://www.w3.org/1999/xlink" x="0px" y="0px"
	 viewBox="0 0 640 117.481" style="enable-background:new 0 0 640 117.481;" xml:space="preserve">
<g>
	<path style="fill:#FFFFFF;" d="M180.121,58.182c0,0.465,0.384,0.847,0.847,0.847c0.469,0,0.849-0.382,0.849-0.847
		c0-0.471-0.38-0.851-0.849-0.851C180.504,57.331,180.121,57.711,180.121,58.182z"/>
	<path style="fill:#FFFFFF;" d="M156.95,75.868c0.334-0.389,1.077-3.511,1.656-6.547l1.051-5.839h-2.886l-1.074,5.688l-1.072,5.526
		l0.86,0.941C155.957,76.109,156.619,76.257,156.95,75.868z"/>
	<path style="fill:#FFFFFF;" d="M155.497,82.804c-0.469,0-0.849,0.382-0.849,0.851c0,0.466,0.38,0.848,0.849,0.848
		c0.466,0,0.849-0.382,0.849-0.848C156.346,83.185,155.962,82.804,155.497,82.804z"/>
	<path style="fill:#FFFFFF;" d="M134.21,72.462c0.967-1.811,1.759-3.586,1.759-4.114c0-0.53-1.02-0.895-2.267-0.895
		c-1.244,0-2.859,0.545-3.483,1.162c-0.623,0.626-1.219,2.572-1.219,4.281v2.585h1.814C131.713,75.481,133.244,74.267,134.21,72.462
		z"/>
	<path style="fill:#FFFFFF;" d="M189.461,69.22c0.468,0,0.846-0.384,0.846-0.849c0-0.469-0.378-0.851-0.846-0.851
		c-0.471,0-0.851,0.382-0.851,0.851C188.61,68.836,188.99,69.22,189.461,69.22z"/>
	<path style="fill:#FFFFFF;" d="M202.811,75.047l0.978-2.49l-0.978-2.536c-0.539-1.4-1.664-2.54-2.496-2.54H199v10h1.315
		C201.147,77.481,202.272,76.449,202.811,75.047z"/>
	<polygon style="fill:#FFFFFF;" points="229.565,72.481 238,72.481 238,76.69 239.82,74.802 241.674,72.543 239.353,68.481 
		227.469,68.481 228.521,70.48 	"/>
	<path style="fill:#FFFFFF;" d="M188.981,72.811l0.86,3.298c0.476,1.813,1.512,3.298,2.301,3.298c0.794,0,2.337-1.72,3.43-3.821
		c1.095-2.103,1.384-3.257,0.642-2.561l-1.347,1.257l-4.021-3.334l-0.935,0.931L188.981,72.811z"/>
	<path style="fill:#FFFFFF;" d="M203.576,63.47c0.881-0.546,1.987-2.446,2.453-4.226l0.846-3.236l-2.535-4.103l-1.928,5.535
		c-1.06,3.044-1.595,5.873-1.186,6.279C201.636,64.132,202.693,64.018,203.576,63.47z"/>
	<path style="fill:#FFFFFF;" d="M209.838,53.936c0.469,0,0.849-0.382,0.849-0.848c0-0.471-0.38-0.851-0.849-0.851
		c-0.466,0-0.847,0.38-0.847,0.851C208.99,53.554,209.372,53.936,209.838,53.936z"/>
	<path style="fill:#FFFFFF;" d="M239.558,45.445c0,0.931,0.762,1.7,1.697,1.7c0.931,0,1.697-0.769,1.697-1.7
		c0-0.933-0.765-1.7-1.697-1.7C240.32,43.745,239.558,44.512,239.558,45.445z"/>
	<polygon style="fill:#FFFFFF;" points="234.46,64.691 235.593,63.583 236.722,62.481 232.196,62.481 233.327,63.583 	"/>
	<path style="fill:#FFFFFF;" d="M275,60.73c0,0.929,0.828,1.697,1.708,1.697c0.879,0,2.124-1.041,2.702-1.97l1.102-1.975H275V60.73z
		"/>
	<path style="fill:#FFFFFF;" d="M301.445,76.014c0.412,0,0.555-0.767,0.555-1.7v-1.833h-3.213l0.955,1.766
		C300.322,75.181,301.033,76.014,301.445,76.014z"/>
	<path style="fill:#FFFFFF;" d="M301.538,57.057c-0.575-0.931-1.344-1.561-1.698-1.561c-0.355,0-1.118,0.562-1.696,1.493
		l-1.052,1.493h5.496L301.538,57.057z"/>
	<path style="fill:#FFFFFF;" d="M308.332,43.745c0.469,0,0.848-0.382,0.848-0.847c0-0.469-0.378-0.851-0.848-0.851
		c-0.467,0-0.851,0.382-0.851,0.851C307.481,43.363,307.865,43.745,308.332,43.745z"/>
	<polygon style="fill:#FFFFFF;" points="304.086,52.52 306.209,51.5 308.332,50.481 299.839,50.481 301.964,51.5 	"/>
	<rect x="304" y="55.481" style="fill:#FFFFFF;" width="3" height="7"/>
	<path style="fill:#FFFFFF;" d="M310.879,63.274c0-0.464-0.38-0.847-0.847-0.847c-0.471,0-0.853,0.384-0.853,0.847
		c0,0.466,0.382,0.851,0.853,0.851C310.499,64.125,310.879,63.74,310.879,63.274z"/>
	<path style="fill:#FFFFFF;" d="M310.032,36.952c0.467,0,0.847-0.383,0.847-0.849c0-0.465-0.38-0.849-0.847-0.849
		c-0.471,0-0.853,0.384-0.853,0.849C309.179,36.569,309.561,36.952,310.032,36.952z"/>
	<path style="fill:#FFFFFF;" d="M127,57.331c0-0.931,0.043-1.686-0.185-1.671c-0.235,0.014-1.452,0.765-2.854,1.671l-2.728,1.647
		L127,59.029V57.331z"/>
	<path style="fill:#FFFFFF;" d="M271.822,61.785c0-0.367-1.012-1.119-2.414-1.66L267,59.138v3.344h2.271
		C270.673,62.481,271.822,62.153,271.822,61.785z"/>
	<path style="fill:#FFFFFF;" d="M292.199,49.801c0-0.39,0.466-2.037,1.033-3.514l1.028-2.806h-1.47c-0.81,0-2.429,1.634-3.591,3.504
		l-2.123,3.496h2.56C291.045,50.481,292.199,50.188,292.199,49.801z"/>
	<polygon style="fill:#FFFFFF;" points="261.631,51.105 262.764,49.792 263.895,48.481 259.366,48.481 260.499,49.792 	"/>
	<path style="fill:#FFFFFF;" d="M255.299,71.414L260,70.518v-0.397l0.196,0.227l1.115,1.133l1.123-1.502l1.122-1.498H260V67.52
		l5.911-0.052l-2.567-1.646c-1.398-0.905-3.032-1.659-3.622-1.673c-0.582-0.012-2.018,1.12-3.179,2.522l-2.12,2.549l-8.92,0.1
		l5.108,2.984L255.299,71.414z"/>
	<polygon style="fill:#FFFFFF;" points="289.366,59.888 290.501,61.155 291.633,59.82 292.764,58.481 288.235,58.481 	"/>
	<path style="fill:#FFFFFF;" d="M276.068,40.35c0.465,0,0.847-0.384,0.847-0.849c0-0.469-0.382-0.849-0.847-0.849
		c-0.469,0-0.849,0.38-0.849,0.849C275.219,39.967,275.599,40.35,276.068,40.35z"/>
	<path style="fill:#FFFFFF;" d="M304,72.615v2.999l3.789,0.983l3.769,0.981l0.885-0.878l0.878-0.872l-2.497-1.581
		c-1.37-0.869-3.492-1.593-4.66-1.607L304,72.615z"/>
	<path style="fill:#FFFFFF;" d="M277.864,51.481H280v-5h-1.952c-1.243,0-2.754,0.817-3.352,1.416l-1.083,1.248l0.903,1.169
		C275.013,51.117,276.519,51.481,277.864,51.481z"/>
	<path style="fill:#FFFFFF;" d="M92.665,47.145c0.468,0,0.849-0.385,0.849-0.851c0-0.469-0.382-0.849-0.849-0.849
		c-0.466,0-0.849,0.38-0.849,0.849C91.816,46.76,92.199,47.145,92.665,47.145z"/>
	<path style="fill:#FFFFFF;" d="M85.782,62.427c0.419,0,2.612-0.888,4.993-1.971C93.155,59.371,95,57.843,95,57.058v-1.576h-5v3h-5
		v2.249C85,61.66,85.356,62.427,85.782,62.427z"/>
	<path style="fill:#FFFFFF;" d="M86.723,78.56c0,0.464,0.38,0.847,0.847,0.847c0.469,0,0.849-0.383,0.849-0.847
		c0-0.469-0.38-0.849-0.849-0.849C87.103,77.711,86.723,78.091,86.723,78.56z"/>
	<path style="fill:#FFFFFF;" d="M81.862,79.464l1.577-0.978c0.872-0.539,1.584-1.581,1.584-1.995c0-0.412-1.189-1.01-2.645-1.01
		h-2.649l1.063,1.99L81.862,79.464z"/>
	<path style="fill:#FFFFFF;" d="M97.76,72.698l-1.051,1.783h5.494l-1.047-1.783C100.58,71.765,99.813,71,99.456,71
		C99.099,71,98.336,71.765,97.76,72.698z"/>
	<polygon style="fill:#FFFFFF;" points="91.391,82.283 93.514,83.113 95.637,82.297 97.76,81.481 89.267,81.481 	"/>
	<path style="fill:#FFFFFF;" d="M19.645,65.822c0.468,0,0.846-0.382,0.846-0.849c0-0.466-0.378-0.848-0.846-0.848
		c-0.471,0-0.853,0.382-0.853,0.848C18.793,65.44,19.174,65.822,19.645,65.822z"/>
	<polygon style="fill:#FFFFFF;" points="62.04,74.314 60,72.049 60,76.576 61.019,75.446 	"/>
	<path style="fill:#FFFFFF;" d="M120.593,65.822c0.879,0,1.407-0.766,1.407-1.697v-1.644h-4.915l0.955,1.671
		C118.618,65.083,119.71,65.822,120.593,65.822z"/>
	<path style="fill:#FFFFFF;" d="M29,77.711c0-0.935-0.348-1.697-0.758-1.697c-0.414,0-1.225,0.799-1.799,1.734l-1.057,1.733H29
		V77.711z"/>
	<polygon style="fill:#FFFFFF;" points="39.171,52.801 40.304,51.641 41.433,50.481 36.909,50.481 38.037,51.641 	"/>
	<path style="fill:#FFFFFF;" d="M40.868,80.257c0-0.466-0.378-0.849-0.847-0.849c-0.467,0-0.849,0.384-0.849,0.849
		c0,0.465,0.382,0.849,0.849,0.849C40.49,81.105,40.868,80.722,40.868,80.257z"/>
	<path style="fill:#FFFFFF;" d="M350.787,59.029c0.466,0,0.848-0.382,0.848-0.847c0-0.471-0.382-0.851-0.848-0.851
		c-0.471,0-0.849,0.38-0.849,0.851C349.938,58.647,350.316,59.029,350.787,59.029z"/>
	<polygon style="fill:#FFFFFF;" points="522.823,51.835 523.526,47.059 524.226,42.279 521.047,41.449 517.859,40.616 
		519.864,43.048 521.867,45.481 516,45.481 516,50.144 519.415,50.989 	"/>
	<path style="fill:#FFFFFF;" d="M521.455,56.481c0,0.466,0.38,0.849,0.846,0.849c0.469,0,0.851-0.384,0.851-0.849
		c0-0.467-0.382-0.849-0.851-0.849C521.835,55.632,521.455,56.014,521.455,56.481z"/>
	<polygon style="fill:#FFFFFF;" points="574.116,44.1 574.084,44.05 574.055,44.123 	"/>
	<polygon style="fill:#FFFFFF;" points="530.386,47.145 528,44.879 528,49.407 529.19,48.272 	"/>
	<path style="fill:#FFFFFF;" d="M541.45,51.526l-0.84-2.192c-0.466-1.206-0.951-2.103-1.083-1.994
		c-0.134,0.105-1.749,0.548-3.385,0.974L533,49.089V52.2l4.227-0.341L541.45,51.526z"/>
	<polygon style="fill:#FFFFFF;" points="570.913,29.481 570.871,29.556 570.893,29.599 570.93,29.481 	"/>
	<path style="fill:#FFFFFF;" d="M572.596,26.481h-1.698c-0.933,0-2.171,0.568-2.747,1.499l-1.051,1.501h3.813l0.819-1.463
		L572.596,26.481z"/>
	<path style="fill:#FFFFFF;" d="M560.592,49.744l1.635,1.011l0.981-2.547l0.976-2.551l2.432,0.935l2.428,0.931l2.374-1.969
		l2.376-1.975l0.289,0.471l0.899-2.349l0.933-2.422l-2.519-4.861l-2.504-4.818l-2.122,6.882H572v2.244
		c0,0.97-0.718,2.747-1.835,3.942l-1.932,2.178l-3.621-0.701l-3.648-0.703l-2.017,5.289L560.592,49.744z"/>
	<path style="fill:#FFFFFF;" d="M512.115,31.823c-0.58-0.937-1.172-1.681-1.582-1.681c-0.414,0-0.533,0.782-0.533,1.719v1.62h3.159
		L512.115,31.823z"/>
	<path style="fill:#FFFFFF;" d="M494.12,37.254l1.938-1.099c0.978-0.605,1.942-1.82,1.942-2.699v-1.974h-6.916l-1.054,1.899
		l-1.06,1.804l2.574,1.035L494.12,37.254z"/>
	<polygon style="fill:#FFFFFF;" points="484,46.01 485.178,44.879 486.285,43.745 484,41.481 	"/>
	<path style="fill:#FFFFFF;" d="M464.563,38.652c0.467,0,0.851-0.382,0.851-0.847c0-0.471-0.384-0.853-0.851-0.853
		c-0.466,0-0.849,0.382-0.849,0.853C463.715,38.271,464.098,38.652,464.563,38.652z"/>
	<polygon style="fill:#FFFFFF;" points="455,52.473 458.769,51.933 462.49,51.255 463.693,43.481 460,43.481 460,48.481 455,48.481 
			"/>
	<path style="fill:#FFFFFF;" d="M484.942,31.861c0.466,0,0.849-0.385,0.849-0.851c0-0.467-0.384-0.849-0.849-0.849
		c-0.467,0-0.849,0.382-0.849,0.849C484.093,31.476,484.475,31.861,484.942,31.861z"/>
	<path style="fill:#FFFFFF;" d="M497.677,39.501c0,0.465,0.382,0.849,0.851,0.849c0.465,0,0.849-0.384,0.849-0.849
		c0-0.469-0.384-0.849-0.849-0.849C498.058,38.652,497.677,39.032,497.677,39.501z"/>
	<path style="fill:#FFFFFF;" d="M615.699,31.861c0.469,0,0.851-0.385,0.851-0.851c0-0.467-0.382-0.849-0.851-0.849
		c-0.465,0-0.845,0.382-0.845,0.849C614.853,31.476,615.233,31.861,615.699,31.861z"/>
	<polygon style="fill:#FFFFFF;" points="325.028,71.832 326.163,73.073 327.294,71.777 328.425,70.481 323.898,70.481 	"/>
	<path style="fill:#FFFFFF;" d="M614.536,36.952l-0.999,3.821l-0.997,3.821l2.854-2.85c1.568-1.566,2.854-3.588,2.854-4.487
		c0-0.904-1.026-2.03-2.276-2.515l-2.28-0.873l-2.392,1.516l-2.39,1.517L614.536,36.952z"/>
	<polygon style="fill:#FFFFFF;" points="606,46.01 607.314,44.879 608.353,43.745 606,41.481 	"/>
	<path style="fill:#FFFFFF;" d="M622.495,43.745c0.467,0,0.847-0.382,0.847-0.847c0-0.469-0.38-0.851-0.847-0.851
		c-0.469,0-0.853,0.382-0.853,0.851C621.643,43.363,622.026,43.745,622.495,43.745z"/>
	<path style="fill:#FFFFFF;" d="M459.471,59.029c0.468,0,0.847-0.382,0.847-0.847c0-0.471-0.38-0.851-0.847-0.851
		c-0.471,0-0.853,0.38-0.853,0.851C458.618,58.647,459,59.029,459.471,59.029z"/>
	<path style="fill:#FFFFFF;" d="M558.157,47.145c0.41,0,0.843-0.769,0.843-1.7v-1.964h-3.787l1.103,1.832
		C556.892,46.244,557.747,47.145,558.157,47.145z"/>
	<path style="fill:#FFFFFF;" d="M167.789,65.845c-0.223,0.02-1.256,0.592-2.297,1.276l-1.889,1.25l0.275,3.425
		c0.148,1.884,0.851,4.404,1.563,5.557c0.714,1.15,2.098,2.129,3.075,2.129h1.777l-1.261-3.009c-0.692-1.634-1.161-4.71-1.047-6.812
		C168.098,67.56,168.01,65.832,167.789,65.845z"/>
	<circle style="fill:#FFFFFF;" cx="534.188" cy="44.595" r="0.85"/>
	<path style="fill:#FFFFFF;" d="M555.416,49.69c0,0.466,0.382,0.847,0.853,0.847c0.466,0,0.846-0.382,0.846-0.847
		c0-0.466-0.38-0.849-0.846-0.849C555.798,48.841,555.416,49.225,555.416,49.69z"/>
	<path style="fill:#FFFFFF;" d="M546.197,47.694c0.819-0.164,1.732-1.026,2.032-1.916l0.535-1.615l-4.902-1.882l0.838,5.708
		L546.197,47.694z"/>
	<path style="fill:#FFFFFF;" d="M512.96,44.594c0,0.468,0.382,0.851,0.851,0.851c0.466,0,0.849-0.384,0.849-0.851
		c0-0.467-0.383-0.849-0.849-0.849C513.342,43.745,512.96,44.126,512.96,44.594z"/>
	<path style="fill:#FFFFFF;" d="M552.869,45.445c0.467,0,0.849-0.384,0.849-0.851c0-0.467-0.382-0.849-0.849-0.849
		c-0.466,0-0.848,0.382-0.848,0.849C552.021,45.062,552.403,45.445,552.869,45.445z"/>
	<path style="fill:#FFFFFF;" d="M583.827,35.149l2.091,2.656l3.46-5.098l1.506,2.344l1.511,2.337l3.542-2.187l1.782,2.883
		l4.855-0.71l4.851-0.715l1.73-4.588l1.736-4.593l-1.841-3.19c-1.017-1.755-4.408-5.435-7.443-8.173L596,11.133V6.491l2.807,1.045
		l2.76,1.042l-0.606-3.219l-0.615-3.218l-3.363-0.175c-1.853-0.095-3.743-0.344-4.212-0.553c-0.466-0.21-2.02-0.614-3.461-0.897
		L586.698,0l-4.235,3.646l-4.24,3.643l1.522,6.426l1.516,6.425l-2.629,3.02c-1.506,1.66-2.633,3.942-2.633,5.068v2.041l2.87,1.115
		C580.504,31.993,582.675,33.691,583.827,35.149z"/>
	<path style="fill:#FFFFFF;" d="M365.86,50.538c-0.417,0-0.86,0.764-0.86,1.7v1.244h3.816l-1.104-1.471
		C367.138,51.074,366.272,50.538,365.86,50.538z"/>
	<path style="fill:#FFFFFF;" d="M384.75,42.047c0.467,0,0.851-0.382,0.851-0.846c0-0.471-0.384-0.851-0.851-0.851
		c-0.469,0-0.851,0.38-0.851,0.851C383.899,41.665,384.28,42.047,384.75,42.047z"/>
	<polygon style="fill:#FFFFFF;" points="363.522,61.292 364.651,59.888 365.786,58.481 361.257,58.481 362.389,59.888 	"/>
	<path style="fill:#FFFFFF;" d="M383.053,38.652c0.464,0,0.845-0.382,0.845-0.847c0-0.471-0.382-0.853-0.845-0.853
		c-0.471,0-0.851,0.382-0.851,0.853C382.202,38.271,382.582,38.652,383.053,38.652z"/>
	<path style="fill:#FFFFFF;" d="M352.484,47.145c0.466,0,0.849-0.385,0.849-0.851c0-0.469-0.384-0.849-0.849-0.849
		c-0.467,0-0.849,0.38-0.849,0.849C351.635,46.76,352.016,47.145,352.484,47.145z"/>
	<path style="fill:#FFFFFF;" d="M455.973,53.481h-2.647l1.065,1.95l1.069,1.84l1.579-0.921c0.871-0.537,1.58-1.51,1.58-1.924
		C458.618,54.017,457.43,53.481,455.973,53.481z"/>
	<path style="fill:#FFFFFF;" d="M364.509,47.011L372,45.047v-3l-2.116,0.027c-1.17,0.014-3.244,0.737-4.618,1.609l-2.497,1.577
		l0.871,0.874L364.509,47.011z"/>
	<polygon style="fill:#FFFFFF;" points="343.399,66.13 344.389,65.142 345.379,64.155 350.195,68.149 351.693,65.727 
		353.192,63.303 351.745,61.856 350.302,60.411 346.377,62.512 342.458,64.61 341.813,62.545 341.164,60.481 336,60.481 336,63.895 
		339.699,65.014 	"/>
	<path style="fill:#FFFFFF;" d="M327.012,43.745c0.469,0,0.851-0.382,0.851-0.847c0-0.469-0.382-0.851-0.851-0.851
		c-0.465,0-0.849,0.382-0.849,0.851C326.163,43.363,326.547,43.745,327.012,43.745z"/>
	<path style="fill:#FFFFFF;" d="M304,67.488c0,0.728,2.198,2.269,4.998,3.428L314,73.028v1.491c0,0.821,1.039,0.962,1.976,0.962H318
		v-4.883l3.001-0.888L324,68.822v-5.095l6.648,1.678l4.739-2.927l-5.037-0.293c-2.804-0.164-6.056-0.259-7.223-0.218L321,62.049
		v-4.567h-2.477c-1.406,0-2.633,0.499-2.731,1.2c-0.102,0.699-0.289,2.761-0.427,4.63l-0.286,3.378L304,66.173V67.488z"/>
	<path style="fill:#FFFFFF;" d="M321.069,51.387c0,0.466,0.38,0.851,0.847,0.851c0.469,0,0.849-0.385,0.849-0.851
		c0-0.465-0.38-0.849-0.849-0.849C321.449,50.538,321.069,50.921,321.069,51.387z"/>
	<polygon style="fill:#FFFFFF;" points="330.122,44.748 331.256,45.944 332.387,44.715 333.52,43.481 328.99,43.481 	"/>
	<path style="fill:#FFFFFF;" d="M377.96,58.904c-0.582-0.931-1.596-1.636-2.005-1.636c-0.414,0-0.955,0.829-0.955,1.76v1.453h4.004
		L377.96,58.904z"/>
	<polygon style="fill:#FFFFFF;" points="452,42.443 448,41.688 444,40.93 444,45.481 452,45.481 	"/>
	<path style="fill:#FFFFFF;" d="M394.941,60.73c-0.471,0-0.851,0.378-0.851,0.846s0.38,0.851,0.851,0.851
		c0.466,0,0.845-0.384,0.845-0.851S395.406,60.73,394.941,60.73z"/>
	<path style="fill:#FFFFFF;" d="M451.827,51.387c0-0.465-0.38-0.849-0.851-0.849c-0.466,0-0.845,0.384-0.845,0.849
		c0,0.466,0.38,0.851,0.845,0.851C451.447,52.238,451.827,51.853,451.827,51.387z"/>
	<path style="fill:#FFFFFF;" d="M456.074,40.35c0.466,0,0.845-0.384,0.845-0.849c0-0.469-0.38-0.849-0.845-0.849
		c-0.468,0-0.851,0.38-0.851,0.849C455.223,39.967,455.607,40.35,456.074,40.35z"/>
	<polygon style="fill:#FFFFFF;" points="455.223,47.71 456.356,46.594 457.487,45.481 452.958,45.481 454.089,46.594 	"/>
	<polygon style="fill:#FFFFFF;" points="427.592,37.979 428.617,36.952 425.364,37.088 422.11,37.223 426.568,39.005 	"/>
	<path style="fill:#FFFFFF;" d="M447.375,54.967l-2.658-1.035l0.689,2.017c0.369,1.11,1.523,2.319,2.633,2.692l1.96,0.669v-1.657
		C450,56.742,448.852,55.531,447.375,54.967z"/>
	<path style="fill:#FFFFFF;" d="M389.844,33.557c0.469,0,0.849-0.383,0.849-0.851c0-0.466-0.38-0.845-0.849-0.845
		c-0.467,0-0.847,0.38-0.847,0.845C388.997,33.174,389.377,33.557,389.844,33.557z"/>
	<polygon style="fill:#FFFFFF;" points="390.693,44.312 391.824,42.898 392.957,41.481 388.428,41.481 389.559,42.898 	"/>
	<path style="fill:#FFFFFF;" d="M395.729,50.65c0.963-1.806,1.757-4.101,1.757-5.095c0-0.993-0.574-1.785-1.273-1.755
		c-0.701,0.029-2.601,1.06-4.221,2.292l-2.943,2.233l1.197,1.199l1.197,1.197l-2.497,1.584l-2.499,1.577l7.524,0.054L395.729,50.65z
		"/>
	<path style="fill:#FFFFFF;" d="M411.07,60.487c1.402,0.905,3.311,1.995,4.248,1.995h1.697l-2.546-1.995
		c-1.402-0.906-3.313-2.005-4.246-2.005h-1.697L411.07,60.487z"/>
	<path style="fill:#FFFFFF;" d="M407.091,62.427c0.41,0,0.909-0.767,0.909-1.697v-2.249h-3.924l1.134,1.975
		C405.787,61.386,406.675,62.427,407.091,62.427z"/>
	<polygon style="fill:#FFFFFF;" points="399.748,58.539 400.884,59.634 402.013,58.557 403.145,57.481 398.619,57.481 	"/>
	<path style="fill:#FFFFFF;" d="M4.375,82.916l-0.872-0.867l2.774-0.006L4.67,79.481H0.86L0,78.611v6.845
		c0.658-0.266,1.292-0.579,1.838-0.926L4.375,82.916z"/>
	<path style="fill:#FFFFFF;" d="M638.378,37.189l-3.65-2.275l2.014-1.247l2.014-1.243l-1.764-4.645l-1.769-4.649l0.981-3.903
		l0.979-3.907l-4.594-0.835L628,13.65v2.101c0,1.159,1.32,3.022,2.662,4.136l2.559,2.03l-1.989,5.323l-2.477-3.211l-2.486-3.211
		l1.327,3.398c0.725,1.868,1.841,6.893,2.474,11.331l1.152,7.933H625v3.326l-10.097,3.527l-0.905-1.482l-0.91-1.482l-5.044,0.146
		L603,47.66v1.297c0,0.098,0,0.198,0.026,0.298c-0.15-0.242-0.414-0.414-0.719-0.414c-0.467,0-0.857,0.383-0.857,0.849
		c0,0.466,0.383,0.847,0.85,0.847c0.468,0,0.848-0.382,0.848-0.847c0-0.052-0.022-0.097-0.031-0.147
		c0.26,0.538,0.834,1.05,1.5,1.276l1.659,0.567l-1.006,3.821c-0.126,0.477-0.279,0.93-0.445,1.352
		c0.003-0.027,0.016-0.051,0.016-0.079c0-0.467-0.382-0.849-0.845-0.849c-0.471,0-0.849,0.382-0.849,0.849
		c0,0.466,0.378,0.849,0.849,0.849c0.251,0,0.471-0.117,0.626-0.294c-0.532,1.18-1.167,1.992-1.657,1.992
		c-0.717,0-1.857-1.718-2.53-3.821c-0.676-2.101-1.12-5.35-0.988-7.218l0.235-3.396l-4.22,4.445
		c-2.323,2.569-5.025,4.443-6.002,4.443H588v-5.115l2.813-2.346l2.892-2.351l-6.215,1.038l-6.192,1.04l-1.109-1.777l-1.104-1.775
		l-2.512,0.962l-2.456,0.942l0.683,1.111l1.004,1.623l-1.145,2.997l-1.154,2.994l2.897-1.109l2.899-1.111l-3.027,4.122l-3.023,4.128
		l-3.045-4.06l-3.04-4.056l-6.723,2.373c-3.696,1.304-6.723,1.93-6.723,1.391c0-0.541-1.012-0.146-2.248,0.883l-2.251,1.864
		l-2.108-1.994L545,53.256v1.773c0,0.272-0.033,0.698-0.274,1.209c-0.106-0.347-0.359-0.606-0.744-0.606
		c-0.463,0-0.817,0.382-0.817,0.849c0,0.466,0.396,0.849,0.859,0.849c0.085,0,0.169-0.025,0.246-0.048
		c-0.712,1.208-1.751,2.497-2.923,3.861c-2.128,2.479-4.609,4.339-5.516,4.339h-1.643l-0.239-3.987l-0.243-4.07l2.792-0.698
		l2.784-0.723l-3.739-0.184c-2.064-0.11-5.667,0.683-8.017,1.753l-4.272,1.951l0.897,1.475l0.896,1.482h-5.905
		c-3.246,0-7.047,0.435-8.525,1.002L508,64.488v-4.006h5v-2h2.507l2.549,2.391l0.198-1.347c0.105-0.815,0.298-2.559,0.423-3.961
		l0.228-2.51l-3.952-3.083L511,46.897v-4.569l4.377-1.719l-2.482-1.803l-2.514-1.8l-4.69-0.027L501,36.952v4.868l3.258,1.022
		l3.242,1.022l-0.831,3.22l-0.839,3.22l-2.379-0.915l-2.379-0.911l-0.085,3.156l-0.089,2.869l-5.717-13.021h-2.151
		c-1.177,0-2.617,0.277-3.188,0.268l-1.043,0.127l-0.623,7.976c-0.341,4.349-0.913,8.339-1.398,8.824L486,59.596V48.734l-2.975-1.1
		l-2.924-1.101l-0.692,1.975c-0.367,1.099-1.437,1.973-2.352,1.973h-1.659l1.167-1.852l1.158-1.866l-3.821,1.22l-3.823,1.218
		l1.165-1.862l1.163-1.858H481v-7h1.395c0.931,0,1.605-0.545,1.605-1.415v-1.584l-6.745-2.155l1.743-3.208l1.731-3.215l-3.839-2.023
		c-2.114-1.113-4.437-2.863-5.168-3.89l-1.32-1.869l2.204,9.475l-2.982,3.297l-2.984,3.296l4.055,1.623l4.058,1.62l-5.744,0.218
		l-1.311,2.121c-0.723,1.17-1.336,4.415-1.375,7.217l-0.063,5.089l-2.545,0.012l-2.547,0.002l-0.018,3.04l-0.01,3.038l-2.451,1.514
		c-1.35,0.835-3.009,1.17-3.689,0.751l-1.238-0.767l-1.987,3.218l1.61,1.067l1.617,1.07v6.388l-1.734,1.14l-1.789,1.144
		l-1.861-1.889l-1.879-1.891l2.467-0.05l2.471-0.053l-2.903-1.689l-2.903-1.693l2.152-5.594l-2.843,1.092l-2.844,1.09l-0.251-1.646
		c-0.141-0.903-0.332-2.596-0.424-3.766c-0.095-1.168-0.937-2.754-1.868-3.526l-1.697-1.404l1.954-0.862l1.952-0.86v-4.451
		l-2.171-0.896l-2.255-0.896l-3.542,3.58l-2.899-1.12l-2.911-1.126l6.095-4.452l-2.356-0.897l-2.362-0.901l-5.499,0.817
		l-5.504,0.816l0.931,1.524l0.933,1.529H418v-5.334l-4,2.102V38.45l-1.471,1.051l-1.583,1.056l1.821,2.961l1.819,2.963H428v4.056
		c0,1.87-0.006,3.971-0.043,4.67l-0.055,1.273l-3.454-0.135L421,56.214v6.268h1.958c0.931,0,1.604,0.543,1.499,1.245
		c-0.111,0.699-0.111,1.888,0,2.655l0.2,1.388l2.668-2.643c1.468-1.468,3.759-2.645,5.093-2.645H435v3.706l-2.504-0.931
		l-2.456-0.931l-4.049,4.849l1.045,4.693l1.051,4.693l-2.428-4.246l-2.422-4.246l-3.961-0.169
		c-2.176-0.093-6.707-0.729-10.065-1.415l-6.113-1.245l-2.804,2.81l-2.808,2.808l-3.821-0.307c-2.103-0.171-5.255-0.228-7.001-0.125
		l-3.183,0.189l2.119,2.432l2.112,2.435h-2.546c-1.395,0-5.048,0.616-8.109,1.226l-5.569,1.17l1.208-2.197l1.213-2.2H382V70.98
		l-4.569-1.045c-2.57-0.575-7.051-1.661-10.021-2.412l-5.378-1.361l-1.814,4.753l2.077,0.202c1.14,0.111,2.723,0.085,3.523-0.061
		c0.797-0.141,3,0.234,4.892,0.833l3.446,1.097l-2.107,1.304l-2.112,1.306l-2.807-0.737l-2.808-0.735l-4.222,1.686l-3.979,1.684
		L364,77.711v4.8l-5.227-1.885l-5.111-1.884l0.711-1.247l0.742-1.249l-1.924-1.177l-1.913-1.179l2.301-1.461l2.303-1.459
		l-2.762-0.028l-2.76-0.025l-1.019,4.786l-1.021,4.779h-2.893l0.753-4.996l0.746-5.004h-3.389l-0.887,3.501l-0.886,3.499h-4.08
		l1.957-5h-5.353l1.957,5h-1.506c-0.826,0-1.848-0.84-2.271-2.01l-0.766-2.065l-1.74,1.055c-0.335-0.268-0.735-0.485-1.166-0.641
		c-1.173-0.414-2.379-0.535-2.686-0.275c-0.308,0.26-0.31,1.072-0.012,1.82l-1.636-1.053c-1.4-0.906-3.304-1.66-4.006-1.674
		c-0.699-0.014-1.457,0.743-1.457,1.676v1.7l7.306-0.053c0.115,0.119,0.344,0.232,0.491,0.341l-2.325,1.312L297,79.893v-8.694
		l-1.976-0.856l-2.05-0.856l2.013-0.132L297,69.22v-6.711l-4.209,1.485c-2.397,0.913-4.969,1.487-5.899,1.487h-1.688l1.051-1.527
		l1.047-1.613l-1.299-2.066l-1.302-2.085l-1.993,8.469l-5.02,0.471c-2.761,0.257-6.297,0.498-7.854,0.545l-2.834,0.074l-0.992,2.585
		l-0.994,2.587l0.938,1.514c-0.124-0.071-0.26-0.122-0.413-0.122c-0.471,0-0.849,0.377-0.849,0.847c0,0.466,0.378,0.853,0.849,0.853
		c0.467,0,0.849-0.387,0.849-0.853c0-0.01-0.005-0.284-0.005-0.294l0.542,0.614H275v-1.167c0-0.933,0.979-1.833,1.915-1.833H279
		v8.208l-3.068,2.328l-2.967,2.333l1.154-2.005l1.176-2.007l-1.557-0.956l-1.554-0.956l-0.991,2.58l-0.571-0.921
		c-0.567-0.924-1.753-1.679-2.634-1.679s-1.599,0.303-1.599,0.669c0,0.365,1.188,1.12,2.633,1.677l1.975,0.758l-0.972,2.526
		l-3.413-3.779c-1.88-2.016-4.149-3.777-5.048-3.777H260v-3.369l2.088,1.197l2.108,1.197l-1.986-2.135l-1.976-2.141l-1.918,1.184
		l-1.918,1.183l1.091,3.678c0.598,2.023,2.349,4.736,3.889,6.03l2.802,2.351l-3.109-1.077c-0.926-0.322-2.075-0.618-3.148-0.815
		l0.174-0.282h-1.663c-0.109,0-0.235,0.008-0.372,0.021c-0.184-0.013-0.358-0.021-0.513-0.021H253v-8.467l-1.203,0.004
		c-0.699,0.003-3.709,1.513-6.729,3.352l-5.475,3.35l-1.032-0.4l0.088-0.395l1.135-1.443h-4.371l-1.373-0.216l-3.18,5.85
		l-1.667-0.949l-1.663-0.99l1.028-3.346l1.038-3.349h-3.774l0.496-2.625l0.501-2.683l-8.896-0.713l-7.776-0.635l0.261-0.154
		l-0.954-1.529c0.706-0.205,1.232-0.852,1.232-1.625c0-0.935-0.765-1.697-1.696-1.697c-0.935,0-1.698,0.764-1.698,1.698
		c0,0.02,0.005,0.039,0.006,0.059c-0.152-0.035-0.302-0.059-0.443-0.059c-0.885,0-1.598,0.637-1.598,1.416
		c0,0.776,0.485,1.902,1.085,2.501l1.085,1.085l1.845-1.14l0.775,2.019l1.02,2.649l-2.579-0.992l-2.573-0.984l-0.064,0.292
		c-0.343,0.109-0.594,0.416-0.594,0.796c0,0.247,0.111,0.504,0.282,0.661l-0.797,3.659h-0.441l-1.595,4.185l-1.457-2.378
		l-4.196,2.139l-4.196,2.147l-3.027-1.81l-3.02-1.804l-1.78,2.543l-1.129,1.621l-1.884-2.285l-0.485-1.358h-4.927l3.635-7H185
		v-2.988l-3.186,1.764l-3.241,1.761l-0.905-1.507l-0.921-1.507l3.781-0.99l2.81-0.734l-0.588,1.76l2.227-0.742
		c1.227-0.411,2.569-1.749,2.976-2.972l0.742-2.23l-2.226,0.742c-1.096,0.365-2.275,1.472-2.806,2.579l-1.026-0.977
		c-0.919-0.872-3.2-1.882-5.065-2.239l-3.398-0.651l0.289-5.034l0.292-5.007l-1.677,5.973h-2.085c-1.145,0-2.986-0.933-4.094-2.038
		l-2.007-2.026l-1.024,1.017l-0.87,0.87v-3.542l-2.363,2.266l1.185,1.133L163,61.292v-0.709l5.118,4.555l5.264,4.693l-0.796,6.569
		l-0.671,5.591c-1.155-0.332-2.673-0.489-3.687-0.347l-2.212,0.314l0.07,0.96c-0.121-0.066-0.254-0.114-0.402-0.114
		c-0.465,0-0.847,0.382-0.847,0.851c0,0.466,0.382,0.848,0.847,0.848c0.192,0,0.361-0.075,0.503-0.183l0.075,1.032l1.238,0.331
		l-0.651,0.14c-1.916,1.028-3.973,1.659-4.563,1.659h-1.076l1.144-3.39l1.14-3.494l-2.301,0.855l-2.3,0.827l0.902,5.195l-3.339,0.88
		l-0.793,0.21l-1.945-0.508l-0.695,0.95l-0.418-1.066c-0.28-0.71-2.317-1.857-4.536-2.549l-2.957-0.919
		c0.399-0.071,0.708-0.403,0.708-0.818c0-0.469-0.382-0.851-0.853-0.851c-0.467,0-0.845,0.382-0.845,0.851
		c0,0.227,0.092,0.432,0.238,0.584l-0.324-0.309l2.321,3.552h-1.993l-0.552-0.551l-0.34,0.551h-2.884l-1.166-1.508L141,86.2v-2.408
		c0-0.443-0.196-1.006-0.291-1.611l7.047,0.113l1.956-5.189l-4.941-4.883l-4.528,7.26h-0.314c-0.093-1-0.188-0.626-0.289-0.888
		l-1.085-2.811l-3.672,3.699h-3.811l-1.604,2.562l2.778,0.024l-0.865,0.857l2.551,1.61c0.597,0.38,1.321,0.724,2.046,1.004
		l-0.009,0.343l-3.485-0.887L129,84.106v4.47l-1.508-1.593l0.147-0.829l1.114-5.673H125v0.659l-1.565-0.012
		c-2.569-0.012-4.558,0.279-4.558,0.646c0,0.366,1.081,1.058,2.33,1.54l2.085,0.874L125,82.985v1.698l-2.609,1.452l-2.522-0.249
		l-0.87-0.09v-1.314h-5v0.254l-1.724-2.254h4.647l0.817-1.961c0.446-1.167,0.844-2.722,0.885-3.552
		c0.039-0.827,1.069-2.084,2.292-2.84l2.218-1.35l-2.924-1.112l-3.02-1.115L112,72.506v4.976h3.791l-1.051,1.499l-1.051,1.501h-2.83
		l-0.709-0.849l0.296,0.849h-4.366l-2.037-1.725l-0.721-0.567c-0.079-0.292-0.301-0.434-0.59-0.513l-0.724-0.686l-2.021,2.039
		l-2.014,2.024l3.482,1.217l-0.722,0.601l-2.183,1.814l-6.506-0.517l-6.511-0.514l0.485,2.285l0.478,2.293l-4.531-3.564
		c-2.49-1.959-5.111-3.563-5.819-3.563c-0.708,0-1.777,1.275-2.374,2.836l-1.088,2.834l2.18,1.384
		c1.199,0.764,2.834,1.393,3.637,1.409l1.454,0.029l-1.889-4.926l2.46,0.946c1.354,0.521,2.462,1.582,2.462,2.36
		c0,0.781-0.617,1.802-1.374,2.267c-0.308,0.189-1.287,0.371-2.673,0.525c-2.068,0.13-4.407,0.237-6.724,0.311l1.264-1.484
		L71,87.333v3.776c-1,0.035-2.356,0.061-3.5,0.075c-1.144-0.014-1.5-0.04-3.5-0.075v-3.776l-2.108,2.265l1.56,1.484
		c-2.316-0.074-4.618-0.181-6.686-0.311c-1.386-0.154-2.346-0.337-2.654-0.525c-0.756-0.465-1.364-1.486-1.364-2.267
		c0-0.778,1.113-1.839,2.466-2.36l2.463-0.946l-1.888,4.926l1.454-0.029c0.803-0.016,2.439-0.646,3.638-1.409l2.18-1.384
		l-1.088-2.834c-0.598-1.561-1.666-2.836-2.374-2.836c-0.708,0-3.329,1.604-5.819,3.563l-4.531,3.564l0.478-2.292l0.485-2.285
		L43.7,84.168l-6.506,0.517l-2.183-1.813l-0.722-0.599l3.482-1.212l-2.014-2.014l-2.021-2.019l-0.724,0.725
		c-0.29,0.079-0.511,0.3-0.59,0.591l-0.722,0.411l-2.037,1.725h-4.366l0.295-0.849l-0.708,0.849h-2.83l-1.051-1.501l-1.051-1.499H24
		v-4.976l-5.319-1.95l-3.036,1.12l-2.98,1.122l2.189,1.37c1.223,0.756,2.239,2.053,2.278,2.88c0.041,0.83,0.432,2.304,0.878,3.471
		l0.81,1.961h4.647L22,84.735v-0.254h-5v1.314l-1.054,0.09l-2.644,0.249l-2.937-1.472L10,84.846v-1.862l2.053,1.203l2.353-0.874
		c1.249-0.482,2.312-1.174,2.312-1.54c0-0.367-2.232-0.658-4.8-0.646L10,81.14v-0.659H6.991l1.07,5.673l0.319,0.673L7,88.576v-4.47
		l-3.613,0.888L0,85.851v10.631v3v18h640v-18V98.6v-2.119V38.396C639.506,37.969,638.964,37.557,638.378,37.189z M512.96,56.913
		l0.508,0.422l-0.508,0.822V56.913z M169.212,86.118l1.416,0.359L175,87.606v-1.741l0.264,0.419l2.989,3.065
		c-0.744-0.052-2.46-0.048-4.355,0.008c-1.025-0.189-2.124-0.471-2.948-0.788l-2.688-1.028L169.212,86.118z M111,82.869l1.219,2.612
		H111V82.869z M109,84.834v0.648h-1.822l-2.079-2.149L109,84.834z M27,84.834l3.334-1.171l-1.77,1.819H27V84.834z M25,82.87v2.612
		h-1.476L25,82.87z"/>
	<path style="fill:#FFFFFF;" d="M11.663,57.331c-1.402-0.906-2.871-1.657-3.107-1.671C8.328,55.645,8,56.399,8,57.331v1.698
		l6.079-0.052L11.663,57.331z"/>
	<path style="fill:#FFFFFF;" d="M193,81.105c0,0.935,0.522,1.698,0.936,1.698c0.407,0,1.312-0.727,1.89-1.661l1.141-1.661H193
		V81.105z"/>
	<path style="fill:#FFFFFF;" d="M180.633,50.538c0.464,0,0.845-0.382,0.845-0.847c0-0.466-0.381-0.849-0.845-0.849
		c-0.471,0-0.853,0.383-0.853,0.849C179.78,50.156,180.162,50.538,180.633,50.538z"/>
	<path style="fill:#FFFFFF;" d="M170.444,53.936c0.464,0,0.849-0.382,0.849-0.848c0-0.471-0.385-0.851-0.849-0.851
		c-0.467,0-0.853,0.38-0.853,0.851C169.591,53.554,169.976,53.936,170.444,53.936z"/>
	<path style="fill:#FFFFFF;" d="M236.212,33.938l1.022,1.794l1.472,2.581l6.104-8.152l-2.201,0.025
		c-1.211,0.014-3.247,0.687-4.526,1.497l-0.932,0.592c-1.049-1.199-2.072-2.114-2.382-2.114c-0.357,0-0.646,0.683-0.646,1.516
		C234.123,32.378,235.013,33.308,236.212,33.938z"/>
	<path style="fill:#FFFFFF;" d="M41,55.481v1.576c0,0.785,1.71,2.314,4.09,3.398c2.381,1.083,4.697,1.971,5.116,1.971
		c0.427,0,0.794-0.767,0.794-1.697v-2.249h-5v-3H41z"/>
	<path style="fill:#FFFFFF;" d="M207.804,65.822c0.464,0,0.845-0.382,0.845-0.849c0-0.466-0.381-0.848-0.845-0.848
		c-0.471,0-0.856,0.382-0.856,0.848C206.948,65.44,207.333,65.822,207.804,65.822z"/>
	<path style="fill:#FFFFFF;" d="M219.685,64.125c0.471,0,0.856-0.385,0.856-0.851c0-0.464-0.385-0.847-0.856-0.847
		c-0.464,0-0.846,0.384-0.846,0.847C218.839,63.74,219.221,64.125,219.685,64.125z"/>
	<path style="fill:#FFFFFF;" d="M50.72,76.492c0,0.414,0.712,1.456,1.583,1.995l1.577,0.978l1.071-1.993l1.063-1.99h-2.649
		C51.91,75.481,50.72,76.079,50.72,76.492z"/>
	<polygon style="fill:#FFFFFF;" points="76,76.576 76,72.049 73.831,74.314 74.917,75.446 	"/>
	<path style="fill:#FFFFFF;" d="M246.663,60.73c0.464,0,1.317-0.767,1.891-1.702c0.578-0.931,0.671-1.698,0.207-1.698
		c-0.471,0-1.324,0.767-1.902,1.698C246.281,59.964,246.192,60.73,246.663,60.73z"/>
	<polygon style="fill:#FFFFFF;" points="96.572,52.801 97.706,51.641 98.833,50.481 94.31,50.481 95.439,51.641 	"/>
	<path style="fill:#FFFFFF;" d="M116.098,65.822c0.471,0,0.853-0.382,0.853-0.849c0-0.466-0.382-0.848-0.853-0.848
		c-0.468,0-0.846,0.382-0.846,0.848C115.252,65.44,115.63,65.822,116.098,65.822z"/>
	<path style="fill:#FFFFFF;" d="M96.572,80.257c0-0.466-0.382-0.849-0.849-0.849c-0.469,0-0.847,0.384-0.847,0.849
		c0,0.465,0.378,0.849,0.847,0.849C96.19,81.105,96.572,80.722,96.572,80.257z"/>
	<path style="fill:#FFFFFF;" d="M109.305,77.748c-0.574-0.935-1.261-1.715-1.675-1.715c-0.41,0-0.63,0.743-0.63,1.678v1.771h3.357
		L109.305,77.748z"/>
	<path style="fill:#FFFFFF;" d="M272.329,53.936c0.475,0,0.849-0.382,0.849-0.848c0-0.471-0.374-0.851-0.849-0.851
		c-0.464,0-0.849,0.38-0.849,0.851C271.48,53.554,271.865,53.936,272.329,53.936z"/>
	<circle style="fill:#FFFFFF;" cx="545.739" cy="49.69" r="0.851"/>
	<path style="fill:#FFFFFF;" d="M186.535,76.014c-0.877,0-2.004,0.799-2.578,1.734l-0.976,1.733H188v-1.771
		C188,76.776,187.417,76.014,186.535,76.014z"/>
	<path style="fill:#FFFFFF;" d="M321.581,33.557c0.467,0,0.849-0.383,0.849-0.851c0-0.466-0.382-0.845-0.849-0.845
		c-0.464,0-0.853,0.38-0.853,0.845C320.728,33.174,321.117,33.557,321.581,33.557z"/>
	<path style="fill:#FFFFFF;" d="M290.16,54.785c0-0.467-0.378-0.849-0.846-0.849c-0.471,0-0.853,0.382-0.853,0.849
		c0,0.465,0.382,0.847,0.853,0.847C289.782,55.632,290.16,55.25,290.16,54.785z"/>
	<path style="fill:#FFFFFF;" d="M331,40.914v1.335l1.828-1.165c0.931-0.576,1.826-1.891,1.826-2.768
		c0-0.878-0.767-1.834-1.698-1.834H331v-0.097l-2.299,2.267l1.148,1.127L331,40.914z"/>
	<path style="fill:#FFFFFF;" d="M408.475,48.151c0.157-0.089,0.813-2.264,1.452-4.829l1.174-4.658l-5.052,1.052L401,40.773v-7.216
		l-1.502,0.006l-1.391,0.01l-0.125,9.876l-0.104,9.871l5.159-2.502C405.878,49.444,408.317,48.242,408.475,48.151z"/>
	<path style="fill:#FFFFFF;" d="M448.196,39.501L450,40.552v-4.07h-1.91c-0.931,0-1.642,0.576-1.642,0.984
		C446.448,37.88,447.265,38.925,448.196,39.501z"/>
	<polygon style="fill:#FFFFFF;" points="449.991,68.649 451,69.784 451,65.256 448.985,67.52 	"/>
	<path style="fill:#FFFFFF;" d="M47.324,78.56c0,0.464,0.38,0.847,0.849,0.847c0.467,0,0.847-0.383,0.847-0.847
		c0-0.469-0.38-0.849-0.847-0.849C47.704,77.711,47.324,78.091,47.324,78.56z"/>
	<path style="fill:#FFFFFF;" d="M37.983,72.698c-0.576-0.933-1.34-1.74-1.696-1.74c-0.357,0-1.124,0.828-1.7,1.761l-1.047,1.763
		h5.494L37.983,72.698z"/>
	<path style="fill:#FFFFFF;" d="M451.486,71.767c0,0.464,0.382,0.847,0.853,0.847c0.468,0,0.846-0.384,0.846-0.847
		c0-0.469-0.378-0.851-0.846-0.851C451.868,70.916,451.486,71.298,451.486,71.767z"/>
	<path style="fill:#FFFFFF;" d="M13,64.125c0,0.931,0.899,1.697,1.778,1.697c0.883,0,2.161-0.738,2.739-1.67l1.141-1.671H13V64.125z
		"/>
	<path style="fill:#FFFFFF;" d="M43.078,47.145c0.466,0,0.849-0.385,0.849-0.851c0-0.469-0.384-0.849-0.849-0.849
		c-0.468,0-0.849,0.38-0.849,0.849C42.229,46.76,42.611,47.145,43.078,47.145z"/>
	<polygon style="fill:#FFFFFF;" points="40.106,82.283 42.229,83.113 44.352,82.297 46.476,81.481 37.983,81.481 	"/>
	<path style="fill:#FFFFFF;" d="M4.929,75.481H7v-2.585c0-1.709-0.725-3.621-1.348-4.247c-0.624-0.617-2.26-1.129-3.504-1.129
		c-0.951,0-1.798,0.252-2.148,0.607v1.047c0.277,0.776,0.863,1.985,1.56,3.289C2.526,74.267,4.03,75.481,4.929,75.481z"/>
	<path style="fill:#FFFFFF;" d="M68.241,58.481H71v-1.151c0-0.931-0.287-1.698-0.704-1.698c-0.41,0-1.193,0.767-1.769,1.698
		l-0.667,1.101l-0.673-1.101c-0.576-0.931-1.202-1.698-1.613-1.698c-0.417,0-0.573,0.767-0.573,1.698v1.151h2.502H68.241z"/>
</g>
</svg>
